<svg width="24" height="24" viewBox="0 0 24 24" fill="none" xmlns="http://www.w3.org/2000/svg">
<path fill-rule="evenodd" clip-rule="evenodd" d="M17.3975 3.3641C17.7487 3.58363 17.8555 4.04635 17.636 4.3976L7.63598 20.3976C7.41644 20.7489 6.95373 20.8556 6.60248 20.6361C6.25123 20.4166 6.14445 19.9539 6.36398 19.6026L16.364 3.6026C16.5835 3.25135 17.0462 3.14457 17.3975 3.3641Z" fill="#5D5D5D"/>
<path fill-rule="evenodd" clip-rule="evenodd" d="M8 4.75C7.30964 4.75 6.75 5.30964 6.75 6C6.75 6.69036 7.30964 7.25 8 7.25C8.69036 7.25 9.25 6.69036 9.25 6C9.25 5.30964 8.69036 4.75 8 4.75ZM5.25 6C5.25 4.48122 6.48122 3.25 8 3.25C9.51878 3.25 10.75 4.48122 10.75 6C10.75 7.51878 9.51878 8.75 8 8.75C6.48122 8.75 5.25 7.51878 5.25 6ZM16 16.75C15.3096 16.75 14.75 17.3096 14.75 18C14.75 18.6904 15.3096 19.25 16 19.25C16.6904 19.25 17.25 18.6904 17.25 18C17.25 17.3096 16.6904 16.75 16 16.75ZM13.25 18C13.25 16.4812 14.4812 15.25 16 15.25C17.5188 15.25 18.75 16.4812 18.75 18C18.75 19.5188 17.5188 20.75 16 20.75C14.4812 20.75 13.25 19.5188 13.25 18Z" fill="#D9D9D9"/>
</svg>
