<svg width="24" height="24" viewBox="0 0 24 24" fill="none" xmlns="http://www.w3.org/2000/svg">
<path fill-rule="evenodd" clip-rule="evenodd" d="M11.9999 3.25C12.4142 3.25 12.7499 3.58579 12.7499 4V8C12.7499 8.41421 12.4142 8.75 11.9999 8.75C11.5857 8.75 11.2499 8.41421 11.2499 8V4C11.2499 3.58579 11.5857 3.25 11.9999 3.25ZM16.3999 15.55C16.6485 15.2186 17.1186 15.1515 17.4499 15.4L21.4499 18.4C21.7813 18.6485 21.8485 19.1186 21.5999 19.45C21.3514 19.7814 20.8813 19.8485 20.5499 19.6L16.5499 16.6C16.2186 16.3515 16.1514 15.8814 16.3999 15.55ZM7.61798 15.8251C7.85264 16.1664 7.76617 16.6334 7.42484 16.868L3.42484 19.618C3.08352 19.8527 2.61658 19.7662 2.38192 19.4249C2.14725 19.0836 2.23372 18.6166 2.57505 18.382L6.57505 15.632C6.91638 15.3973 7.38332 15.4838 7.61798 15.8251Z" fill="#D9D9D9"/>
<path d="M13.4149 7.97417C12.544 7.45164 11.456 7.45164 10.5851 7.97417L6.61413 10.3568C6.38822 10.4923 6.25 10.7364 6.25 10.9999V15.0674C6.25 16.0703 6.79597 16.9936 7.67472 17.4769L11.6386 19.6571C11.8724 19.7857 12.157 19.7803 12.3859 19.643L16.4149 17.2256C17.2432 16.7286 17.75 15.8335 17.75 14.8675V10.9999C17.75 10.7364 17.6118 10.4923 17.3859 10.3568L13.4149 7.97417Z" fill="#5D5D5D"/>
<path d="M7.38587 10.3569C7.15417 10.2179 6.86561 10.2142 6.63048 10.3474C6.39534 10.4805 6.25 10.7298 6.25 11V16.25C6.25 16.5235 6.3989 16.7753 6.63856 16.9072L11.6386 19.6572C11.8709 19.785 12.1535 19.7806 12.3817 19.6456C12.61 19.5106 12.75 19.2652 12.75 19V14C12.75 13.7366 12.6118 13.4924 12.3859 13.3569L7.38587 10.3569Z" fill="black"/>
</svg>
