<svg width="24" height="24" viewBox="0 0 24 24" fill="none" xmlns="http://www.w3.org/2000/svg">
<path d="M14 6.25C13.5858 6.25 13.25 6.58579 13.25 7V13C13.25 13.4142 13.5858 13.75 14 13.75H20C20.4142 13.75 20.75 13.4142 20.75 13V7C20.75 6.58579 20.4142 6.25 20 6.25H14Z" fill="#5D5D5D"/>
<path fill-rule="evenodd" clip-rule="evenodd" d="M3.25 6C3.25 5.58579 3.58579 5.25 4 5.25H10C10.4142 5.25 10.75 5.58579 10.75 6C10.75 6.41421 10.4142 6.75 10 6.75H4C3.58579 6.75 3.25 6.41421 3.25 6ZM3.25 10C3.25 9.58579 3.58579 9.25 4 9.25H10C10.4142 9.25 10.75 9.58579 10.75 10C10.75 10.4142 10.4142 10.75 10 10.75H4C3.58579 10.75 3.25 10.4142 3.25 10ZM3.25 14C3.25 13.5858 3.58579 13.25 4 13.25H10C10.4142 13.25 10.75 13.5858 10.75 14C10.75 14.4142 10.4142 14.75 10 14.75H4C3.58579 14.75 3.25 14.4142 3.25 14ZM3.25 18C3.25 17.5858 3.58579 17.25 4 17.25H20C20.4142 17.25 20.75 17.5858 20.75 18C20.75 18.4142 20.4142 18.75 20 18.75H4C3.58579 18.75 3.25 18.4142 3.25 18Z" fill="#D9D9D9"/>
</svg>
