<svg width="24" height="24" viewBox="0 0 24 24" fill="none" xmlns="http://www.w3.org/2000/svg">
<path fill-rule="evenodd" clip-rule="evenodd" d="M3.25 6C3.25 5.58579 3.58579 5.25 4 5.25H6C6.41421 5.25 6.75 5.58579 6.75 6C6.75 6.41421 6.41421 6.75 6 6.75H4C3.58579 6.75 3.25 6.41421 3.25 6ZM17.25 6C17.25 5.58579 17.5858 5.25 18 5.25H20C20.4142 5.25 20.75 5.58579 20.75 6C20.75 6.41421 20.4142 6.75 20 6.75H18C17.5858 6.75 17.25 6.41421 17.25 6ZM3.25 10C3.25 9.58579 3.58579 9.25 4 9.25H6C6.41421 9.25 6.75 9.58579 6.75 10C6.75 10.4142 6.41421 10.75 6 10.75H4C3.58579 10.75 3.25 10.4142 3.25 10ZM17.25 10C17.25 9.58579 17.5858 9.25 18 9.25H20C20.4142 9.25 20.75 9.58579 20.75 10C20.75 10.4142 20.4142 10.75 20 10.75H18C17.5858 10.75 17.25 10.4142 17.25 10ZM3.25 14C3.25 13.5858 3.58579 13.25 4 13.25H6C6.41421 13.25 6.75 13.5858 6.75 14C6.75 14.4142 6.41421 14.75 6 14.75H4C3.58579 14.75 3.25 14.4142 3.25 14ZM17.25 14C17.25 13.5858 17.5858 13.25 18 13.25H20C20.4142 13.25 20.75 13.5858 20.75 14C20.75 14.4142 20.4142 14.75 20 14.75H18C17.5858 14.75 17.25 14.4142 17.25 14ZM3.25 18C3.25 17.5858 3.58579 17.25 4 17.25H20C20.4142 17.25 20.75 17.5858 20.75 18C20.75 18.4142 20.4142 18.75 20 18.75H4C3.58579 18.75 3.25 18.4142 3.25 18Z" fill="#D9D9D9"/>
<path d="M9 6.25C8.58579 6.25 8.25 6.58579 8.25 7V13C8.25 13.4142 8.58579 13.75 9 13.75H15C15.4142 13.75 15.75 13.4142 15.75 13V7C15.75 6.58579 15.4142 6.25 15 6.25H9Z" fill="#5D5D5D"/>
</svg>
