<svg width="24" height="24" viewBox="0 0 24 24" fill="none" xmlns="http://www.w3.org/2000/svg">
<path d="M12 2.25C10.2266 2.25 8.55094 2.70004 7.29988 3.66304C6.02561 4.64392 5.25 6.11553 5.25 8C5.25 9.90654 6.37163 12.0712 7.66099 13.7069C8.31737 14.5396 9.05033 15.2783 9.76938 15.8165C10.4589 16.3325 11.2489 16.75 12 16.75C12.7511 16.75 13.5411 16.3325 14.2306 15.8165C14.9497 15.2783 15.6826 14.5396 16.339 13.7069C17.6284 12.0712 18.75 9.90654 18.75 8C18.75 6.11553 17.9744 4.64392 16.7001 3.66304C15.4491 2.70004 13.7734 2.25 12 2.25Z" fill="#5D5D5D"/>
<path d="M11 18.25C10.7691 18.25 10.551 18.3564 10.4089 18.5384C10.2667 18.7205 10.2164 18.9578 10.2724 19.1819L10.7724 21.1819C10.8559 21.5158 11.1559 21.75 11.5 21.75H12.5C12.8442 21.75 13.1441 21.5158 13.2276 21.1819L13.7276 19.1819C13.7836 18.9578 13.7333 18.7205 13.5912 18.5384C13.449 18.3564 13.231 18.25 13 18.25H11Z" fill="#D9D9D9"/>
</svg>
