<svg width="24" height="24" viewBox="0 0 24 24" fill="none" xmlns="http://www.w3.org/2000/svg">
<path d="M6 3.25C3.92893 3.25 2.25 4.92893 2.25 7C2.25 8.77694 3.48519 10.2636 5.14298 10.6514C5.52612 10.7411 5.91339 10.5194 6.0301 10.1436C6.52508 8.54987 7.64234 7.22748 9.09853 6.46269C9.44692 6.27972 9.59465 5.85861 9.43693 5.49809C8.85857 4.17611 7.53827 3.25 6 3.25Z" fill="#D9D9D9"/>
<path d="M18 3.25C16.4617 3.25 15.1414 4.17611 14.5631 5.49809C14.4054 5.85861 14.5531 6.27972 14.9015 6.46269C16.3577 7.22748 17.4749 8.54987 17.9699 10.1436C18.0866 10.5194 18.4739 10.7411 18.857 10.6514C20.5148 10.2636 21.75 8.77694 21.75 7C21.75 4.92893 20.0711 3.25 18 3.25Z" fill="#D9D9D9"/>
<path d="M11 2.25C10.5858 2.25 10.25 2.58579 10.25 3C10.25 3.41421 10.5858 3.75 11 3.75H11.25V4.28587C10.2305 4.38389 9.2675 4.67966 8.40108 5.1347C6.5972 6.08209 5.21228 7.71955 4.5976 9.69872C4.3715 10.4267 4.25 11.1999 4.25 12C4.25 14.3799 5.3232 16.5089 7.00967 17.9297L4.46967 20.4697C4.17678 20.7626 4.17678 21.2374 4.46967 21.5303C4.76256 21.8232 5.23744 21.8232 5.53033 21.5303L8.26731 18.7934C9.37494 19.4031 10.6478 19.75 12 19.75C13.3522 19.75 14.6251 19.4031 15.7327 18.7934L18.4697 21.5303C18.7626 21.8232 19.2374 21.8232 19.5303 21.5303C19.8232 21.2374 19.8232 20.7626 19.5303 20.4697L16.9903 17.9297C18.6768 16.5089 19.75 14.3799 19.75 12C19.75 11.1999 19.6285 10.4267 19.4024 9.69872C18.7877 7.71955 17.4028 6.08209 15.5989 5.1347C14.7325 4.67966 13.7695 4.38389 12.75 4.28587V3.75H13C13.4142 3.75 13.75 3.41421 13.75 3C13.75 2.58579 13.4142 2.25 13 2.25H11Z" fill="#5D5D5D"/>
<path fill-rule="evenodd" clip-rule="evenodd" d="M12.0001 8.25C12.4143 8.25 12.7501 8.58579 12.7501 9V12.5858C12.7501 13.0499 12.5657 13.495 12.2376 13.8232L11.0305 15.0303C10.7376 15.3232 10.2627 15.3232 9.96979 15.0303C9.6769 14.7374 9.6769 14.2626 9.96979 13.9697L11.1769 12.7626C11.2238 12.7157 11.2501 12.6521 11.2501 12.5858V9C11.2501 8.58579 11.5859 8.25 12.0001 8.25Z" fill="#D9D9D9"/>
</svg>
