<svg width="24" height="24" viewBox="0 0 24 24" fill="none" xmlns="http://www.w3.org/2000/svg">
<path d="M5.77975 2.62463C6.12467 2.39529 6.21838 1.92975 5.98904 1.58482C5.7597 1.2399 5.29416 1.14619 4.94923 1.37553C3.53348 2.31685 2.31685 3.53348 1.37553 4.94923C1.14619 5.29416 1.2399 5.7597 1.58482 5.98904C1.92975 6.21838 2.39529 6.12467 2.62463 5.77974C3.45561 4.52994 4.52994 3.45561 5.77975 2.62463Z" fill="#5D5D5D"/>
<path d="M19.0509 1.37553C18.706 1.14619 18.2405 1.2399 18.0111 1.58482C17.7818 1.92975 17.8755 2.39529 18.2204 2.62463C19.4702 3.45561 20.5445 4.52994 21.3755 5.77974C21.6049 6.12467 22.0704 6.21838 22.4153 5.98904C22.7603 5.7597 22.854 5.29416 22.6246 4.94923C21.6833 3.53348 20.4667 2.31685 19.0509 1.37553Z" fill="#5D5D5D"/>
<path d="M12.0001 2.25008C6.6153 2.25008 2.25008 6.6153 2.25008 12.0001C2.25008 17.3849 6.6153 21.7501 12.0001 21.7501C17.3849 21.7501 21.7501 17.3849 21.7501 12.0001C21.7501 6.6153 17.3849 2.25008 12.0001 2.25008Z" fill="#5D5D5D"/>
<path fill-rule="evenodd" clip-rule="evenodd" d="M12 6.25C12.4142 6.25 12.75 6.58579 12.75 7V12C12.75 12.1989 12.671 12.3897 12.5303 12.5303L10.5303 14.5303C10.2374 14.8232 9.76256 14.8232 9.46967 14.5303C9.17678 14.2374 9.17678 13.7626 9.46967 13.4697L11.25 11.6893V7C11.25 6.58579 11.5858 6.25 12 6.25Z" fill="#D9D9D9"/>
</svg>
