<svg width="24" height="24" viewBox="0 0 24 24" fill="none" xmlns="http://www.w3.org/2000/svg">
<path d="M10 3.25C8.48122 3.25 7.25 4.48122 7.25 6V8C7.25 9.51878 8.48122 10.75 10 10.75H18C19.5188 10.75 20.75 9.51878 20.75 8V6C20.75 4.48122 19.5188 3.25 18 3.25H10Z" fill="#5D5D5D"/>
<path d="M10 13.25C8.48122 13.25 7.25 14.4812 7.25 16V18C7.25 19.5188 8.48122 20.75 10 20.75H14C15.5188 20.75 16.75 19.5188 16.75 18V16C16.75 14.4812 15.5188 13.25 14 13.25H10Z" fill="#5D5D5D"/>
<path fill-rule="evenodd" clip-rule="evenodd" d="M4 3.25C4.41421 3.25 4.75 3.58579 4.75 4V20C4.75 20.4142 4.41421 20.75 4 20.75C3.58579 20.75 3.25 20.4142 3.25 20V4C3.25 3.58579 3.58579 3.25 4 3.25Z" fill="#D9D9D9"/>
</svg>
