<svg width="24" height="24" viewBox="0 0 24 24" fill="none" xmlns="http://www.w3.org/2000/svg">
<path d="M9 4.25C7.48122 4.25 6.25 5.48122 6.25 7V8C6.25 9.51878 7.48122 10.75 9 10.75H15C16.5188 10.75 17.75 9.51878 17.75 8V7C17.75 5.48122 16.5188 4.25 15 4.25H9Z" fill="#5D5D5D"/>
<path d="M7 13.25C5.48122 13.25 4.25 14.4812 4.25 16V17C4.25 18.5188 5.48122 19.75 7 19.75H17C18.5188 19.75 19.75 18.5188 19.75 17V16C19.75 14.4812 18.5188 13.25 17 13.25H7Z" fill="#5D5D5D"/>
<path fill-rule="evenodd" clip-rule="evenodd" d="M12 2.25C12.4142 2.25 12.75 2.58579 12.75 3V21C12.75 21.4142 12.4142 21.75 12 21.75C11.5858 21.75 11.25 21.4142 11.25 21V3C11.25 2.58579 11.5858 2.25 12 2.25Z" fill="#D9D9D9"/>
</svg>
