<svg width="24" height="24" viewBox="0 0 24 24" fill="none" xmlns="http://www.w3.org/2000/svg">
<path d="M6 3.25C4.48122 3.25 3.25 4.48122 3.25 6V8C3.25 9.51878 4.48122 10.75 6 10.75H14C15.5188 10.75 16.75 9.51878 16.75 8V6C16.75 4.48122 15.5188 3.25 14 3.25H6Z" fill="#5D5D5D"/>
<path d="M10 13.25C8.48122 13.25 7.25 14.4812 7.25 16V18C7.25 19.5188 8.48122 20.75 10 20.75H14C15.5188 20.75 16.75 19.5188 16.75 18V16C16.75 14.4812 15.5188 13.25 14 13.25H10Z" fill="#5D5D5D"/>
<path fill-rule="evenodd" clip-rule="evenodd" d="M20 3.25C20.4142 3.25 20.75 3.58579 20.75 4V20C20.75 20.4142 20.4142 20.75 20 20.75C19.5858 20.75 19.25 20.4142 19.25 20V4C19.25 3.58579 19.5858 3.25 20 3.25Z" fill="#D9D9D9"/>
</svg>
