<svg width="24" height="24" viewBox="0 0 24 24" fill="none" xmlns="http://www.w3.org/2000/svg">
<path d="M6 3.25C4.48122 3.25 3.25 4.48122 3.25 6V14C3.25 15.5188 4.48122 16.75 6 16.75H8C9.51878 16.75 10.75 15.5188 10.75 14V6C10.75 4.48122 9.51878 3.25 8 3.25H6Z" fill="#5D5D5D"/>
<path d="M16 7.25C14.4812 7.25 13.25 8.48122 13.25 10V14C13.25 15.5188 14.4812 16.75 16 16.75H18C19.5188 16.75 20.75 15.5188 20.75 14V10C20.75 8.48122 19.5188 7.25 18 7.25H16Z" fill="#5D5D5D"/>
<path fill-rule="evenodd" clip-rule="evenodd" d="M3.25 20C3.25 19.5858 3.58579 19.25 4 19.25H20C20.4142 19.25 20.75 19.5858 20.75 20C20.75 20.4142 20.4142 20.75 20 20.75H4C3.58579 20.75 3.25 20.4142 3.25 20Z" fill="#D9D9D9"/>
</svg>
