<svg width="24" height="24" viewBox="0 0 24 24" fill="none" xmlns="http://www.w3.org/2000/svg">
<path fill-rule="evenodd" clip-rule="evenodd" d="M10.25 6C10.25 5.58579 10.5858 5.25 11 5.25H21C21.4142 5.25 21.75 5.58579 21.75 6C21.75 6.41421 21.4142 6.75 21 6.75H11C10.5858 6.75 10.25 6.41421 10.25 6ZM2.25 12C2.25 11.5858 2.58579 11.25 3 11.25H21C21.4142 11.25 21.75 11.5858 21.75 12C21.75 12.4142 21.4142 12.75 21 12.75H3C2.58579 12.75 2.25 12.4142 2.25 12ZM6.25 18C6.25 17.5858 6.58579 17.25 7 17.25H21C21.4142 17.25 21.75 17.5858 21.75 18C21.75 18.4142 21.4142 18.75 21 18.75H7C6.58579 18.75 6.25 18.4142 6.25 18Z" fill="#5D5D5D"/>
</svg>
