<svg width="24" height="24" viewBox="0 0 24 24" fill="none" xmlns="http://www.w3.org/2000/svg">
<path d="M7 4.25C5.48122 4.25 4.25 5.48122 4.25 7V17C4.25 18.5188 5.48122 19.75 7 19.75H8C9.51878 19.75 10.75 18.5188 10.75 17V7C10.75 5.48122 9.51878 4.25 8 4.25H7Z" fill="#5D5D5D"/>
<path d="M16 6.25C14.4812 6.25 13.25 7.48122 13.25 9V15C13.25 16.5188 14.4812 17.75 16 17.75H17C18.5188 17.75 19.75 16.5188 19.75 15V9C19.75 7.48122 18.5188 6.25 17 6.25H16Z" fill="#5D5D5D"/>
<path fill-rule="evenodd" clip-rule="evenodd" d="M2.25 12C2.25 11.5858 2.58579 11.25 3 11.25H21C21.4142 11.25 21.75 11.5858 21.75 12C21.75 12.4142 21.4142 12.75 21 12.75H3C2.58579 12.75 2.25 12.4142 2.25 12Z" fill="#D9D9D9"/>
</svg>
