<svg width="24" height="24" viewBox="0 0 24 24" fill="none" xmlns="http://www.w3.org/2000/svg">
<path fill-rule="evenodd" clip-rule="evenodd" d="M6.25 6C6.25 5.58579 6.58579 5.25 7 5.25H17C17.4142 5.25 17.75 5.58579 17.75 6C17.75 6.41421 17.4142 6.75 17 6.75H7C6.58579 6.75 6.25 6.41421 6.25 6ZM2.25 12C2.25 11.5858 2.58579 11.25 3 11.25H21C21.4142 11.25 21.75 11.5858 21.75 12C21.75 12.4142 21.4142 12.75 21 12.75H3C2.58579 12.75 2.25 12.4142 2.25 12ZM4.25 18C4.25 17.5858 4.58579 17.25 5 17.25H19C19.4142 17.25 19.75 17.5858 19.75 18C19.75 18.4142 19.4142 18.75 19 18.75H5C4.58579 18.75 4.25 18.4142 4.25 18Z" fill="#5D5D5D"/>
</svg>
