<svg width="24" height="24" viewBox="0 0 24 24" fill="none" xmlns="http://www.w3.org/2000/svg">
<path d="M6 7.25C4.48122 7.25 3.25 8.48122 3.25 10V18C3.25 19.5188 4.48122 20.75 6 20.75H8C9.51878 20.75 10.75 19.5188 10.75 18V10C10.75 8.48122 9.51878 7.25 8 7.25H6Z" fill="#5D5D5D"/>
<path d="M16 7.25C14.4812 7.25 13.25 8.48122 13.25 10V14C13.25 15.5188 14.4812 16.75 16 16.75H18C19.5188 16.75 20.75 15.5188 20.75 14V10C20.75 8.48122 19.5188 7.25 18 7.25H16Z" fill="#5D5D5D"/>
<path fill-rule="evenodd" clip-rule="evenodd" d="M3.25 4C3.25 3.58579 3.58579 3.25 4 3.25H20C20.4142 3.25 20.75 3.58579 20.75 4C20.75 4.41421 20.4142 4.75 20 4.75H4C3.58579 4.75 3.25 4.41421 3.25 4Z" fill="#D9D9D9"/>
</svg>
