<svg width="24" height="24" viewBox="0 0 24 24" fill="none" xmlns="http://www.w3.org/2000/svg">
<path fill-rule="evenodd" clip-rule="evenodd" d="M12 7.25C12.4142 7.25 12.75 7.58579 12.75 8V20.2787C14.0289 20.2417 15.7314 19.7688 17.1995 18.7574C18.909 17.5797 20.25 15.7108 20.25 13C20.25 12.5858 20.5858 12.25 21 12.25C21.4142 12.25 21.75 12.5858 21.75 13C21.75 16.2892 20.091 18.587 18.0505 19.9926C16.0591 21.3645 13.6545 21.9247 11.9595 21.7499C10.4 21.7455 8.01523 21.4838 5.98913 20.2681C3.8875 19.0071 2.25 16.7626 2.25 13C2.25 12.5858 2.58579 12.25 3 12.25C3.41421 12.25 3.75 12.5858 3.75 13C3.75 16.2374 5.1125 17.9929 6.76087 18.9819C8.1898 19.8392 9.88875 20.15 11.25 20.2283V8C11.25 7.58579 11.5858 7.25 12 7.25Z" fill="#5D5D5D"/>
<path d="M12 2.25C10.2051 2.25 8.75 3.70507 8.75 5.5C8.75 7.29493 10.2051 8.75 12 8.75C13.7949 8.75 15.25 7.29493 15.25 5.5C15.25 3.70507 13.7949 2.25 12 2.25Z" fill="#D9D9D9"/>
<path d="M9 10.25C8.58579 10.25 8.25 10.5858 8.25 11C8.25 11.4142 8.58579 11.75 9 11.75H15C15.4142 11.75 15.75 11.4142 15.75 11C15.75 10.5858 15.4142 10.25 15 10.25H9Z" fill="#D9D9D9"/>
</svg>
