<svg width="24" height="24" viewBox="0 0 24 24" fill="none" xmlns="http://www.w3.org/2000/svg">
<path d="M7 7.25C5.48122 7.25 4.25 8.48122 4.25 10V18C4.25 19.5188 5.48122 20.75 7 20.75H17C18.5188 20.75 19.75 19.5188 19.75 18V10C19.75 8.48122 18.5188 7.25 17 7.25H7Z" fill="#5D5D5D"/>
<path d="M6 4.25C4.48122 4.25 3.25 5.48122 3.25 7V9C3.25 9.9665 4.0335 10.75 5 10.75H19C19.9665 10.75 20.75 9.9665 20.75 9V7C20.75 5.48122 19.5188 4.25 18 4.25H6Z" fill="#D9D9D9"/>
<path fill-rule="evenodd" clip-rule="evenodd" d="M9.25 13C9.25 12.5858 9.58579 12.25 10 12.25H14C14.4142 12.25 14.75 12.5858 14.75 13C14.75 13.4142 14.4142 13.75 14 13.75H10C9.58579 13.75 9.25 13.4142 9.25 13Z" fill="#D9D9D9"/>
</svg>
