<svg width="24" height="24" viewBox="0 0 24 24" fill="none" xmlns="http://www.w3.org/2000/svg">
<path fill-rule="evenodd" clip-rule="evenodd" d="M19 4.25C19.4142 4.25 19.75 4.58579 19.75 5C19.75 5 19.75 11.0946 19.75 14.9998C19.7501 15.414 19.4142 15.75 19 15.75C18.5858 15.75 18.25 15.4142 18.25 14.9999C18.25 11.8018 18.25 6.81066 18.25 6.81066L5.53033 19.5303C5.23744 19.8232 4.76256 19.8232 4.46967 19.5303C4.17678 19.2374 4.17678 18.7626 4.46967 18.4697L17.1893 5.75L9 5.75C8.58579 5.75 8.25 5.41421 8.25 5C8.25 4.58579 8.58579 4.25 9 4.25L19 4.25Z" fill="#5D5D5D"/>
</svg>
