<svg width="24" height="24" viewBox="0 0 24 24" fill="none" xmlns="http://www.w3.org/2000/svg">
<path fill-rule="evenodd" clip-rule="evenodd" d="M5.5 19.25C5.08579 19.25 4.75 18.9142 4.75 18.5C4.75 18.5 4.75 12.7105 4.75 9.00082C4.74955 8.58661 5.08579 8.25 5.5 8.25C5.91421 8.25 6.25003 8.58584 6.25 9.00005C6.25 12.0029 6.25 16.6893 6.25 16.6893L17.9697 4.96967C18.2626 4.67678 18.7374 4.67678 19.0303 4.96967C19.3232 5.26256 19.3232 5.73744 19.0303 6.03033L7.31066 17.75H15C15.4142 17.75 15.75 18.0858 15.75 18.5C15.75 18.9142 15.4142 19.25 15 19.25H5.5Z" fill="#5D5D5D"/>
</svg>
