<svg width="24" height="24" viewBox="0 0 24 24" fill="none" xmlns="http://www.w3.org/2000/svg">
<path fill-rule="evenodd" clip-rule="evenodd" d="M4.25 5C4.25 4.58579 4.58579 4.25 5 4.25C5 4.25 11.0946 4.25 14.9998 4.25C15.414 4.24987 15.75 4.58579 15.75 5C15.75 5.41421 15.4142 5.75003 14.9999 5.75C11.8018 5.75 6.81066 5.75 6.81066 5.75L19.5303 18.4697C19.8232 18.7626 19.8232 19.2374 19.5303 19.5303C19.2374 19.8232 18.7626 19.8232 18.4697 19.5303L5.75 6.81066V15C5.75 15.4142 5.41421 15.75 5 15.75C4.58579 15.75 4.25 15.4142 4.25 15V5Z" fill="#5D5D5D"/>
</svg>
