<svg width="24" height="24" viewBox="0 0 24 24" fill="none" xmlns="http://www.w3.org/2000/svg">
<path fill-rule="evenodd" clip-rule="evenodd" d="M19.75 19C19.75 19.4142 19.4142 19.75 19 19.75C19 19.75 12.9054 19.75 9.00023 19.75C8.58602 19.7501 8.25 19.4142 8.25 19C8.25 18.5858 8.58584 18.25 9.00006 18.25C12.1982 18.25 17.1893 18.25 17.1893 18.25L4.46967 5.53033C4.17678 5.23744 4.17678 4.76256 4.46967 4.46967C4.76256 4.17678 5.23744 4.17678 5.53033 4.46967L18.25 17.1893V9C18.25 8.58579 18.5858 8.25 19 8.25C19.4142 8.25 19.75 8.58579 19.75 9V19Z" fill="#5D5D5D"/>
</svg>
