<svg width="24" height="24" viewBox="0 0 24 24" fill="none" xmlns="http://www.w3.org/2000/svg">
<path fill-rule="evenodd" clip-rule="evenodd" d="M12 3.25C12.4142 3.25 12.75 3.58579 12.75 4V10.7076L18.6279 7.34882C18.9875 7.14331 19.4457 7.26826 19.6512 7.6279C19.8567 7.98753 19.7317 8.44567 19.3721 8.65118L13.5117 12L19.3721 15.3488C19.7317 15.5543 19.8567 16.0125 19.6512 16.3721C19.4457 16.7317 18.9875 16.8567 18.6279 16.6512L12.75 13.2924V20C12.75 20.4142 12.4142 20.75 12 20.75C11.5858 20.75 11.25 20.4142 11.25 20V13.2924L5.37211 16.6512C5.01247 16.8567 4.55433 16.7317 4.34882 16.3721C4.14332 16.0125 4.26826 15.5543 4.6279 15.3488L10.4883 12L4.6279 8.65118C4.26826 8.44567 4.14332 7.98753 4.34882 7.6279C4.55433 7.26826 5.01247 7.14331 5.37211 7.34882L11.25 10.7076V4C11.25 3.58579 11.5858 3.25 12 3.25Z" fill="#5D5D5D"/>
</svg>
