<svg width="24" height="24" viewBox="0 0 24 24" fill="none" xmlns="http://www.w3.org/2000/svg">
<path d="M12.6584 2.64086C12.5278 2.40145 12.2776 2.25179 12.0049 2.25002C11.7322 2.24824 11.48 2.39462 11.3463 2.6323L2.34632 18.6323C2.21569 18.8645 2.21808 19.1486 2.35259 19.3786C2.48711 19.6086 2.73355 19.75 3 19.75H9C9.26914 19.75 9.51765 19.6058 9.65118 19.3721L15.6512 8.8721C15.7803 8.64612 15.7831 8.36935 15.6584 8.14086L12.6584 2.64086Z" fill="#5D5D5D"/>
<path d="M17.6512 11.6279C17.5177 11.3942 17.2691 11.25 17 11.25C16.7309 11.25 16.4824 11.3942 16.3488 11.6279L12.3488 18.6279C12.2162 18.86 12.2171 19.1452 12.3513 19.3764C12.4855 19.6077 12.7326 19.75 13 19.75H21C21.2674 19.75 21.5145 19.6077 21.6487 19.3764C21.7829 19.1452 21.7838 18.86 21.6512 18.6279L17.6512 11.6279Z" fill="#D9D9D9"/>
</svg>
