<svg width="24" height="24" viewBox="0 0 24 24" fill="none" xmlns="http://www.w3.org/2000/svg">
<path fill-rule="evenodd" clip-rule="evenodd" d="M8 5.25C6.48122 5.25 5.25 6.48122 5.25 8V18C5.25 19.5188 6.48122 20.75 8 20.75H16C17.5188 20.75 18.75 19.5188 18.75 18V8C18.75 6.48122 17.5188 5.25 16 5.25H8Z" fill="#5D5D5D"/>
<path d="M9.25 5C9.25 3.48122 10.4812 2.25 12 2.25C13.5188 2.25 14.75 3.48122 14.75 5V6C14.75 6.41421 14.4142 6.75 14 6.75C13.5858 6.75 13.25 6.41421 13.25 6V5C13.25 4.30964 12.6904 3.75 12 3.75C11.3096 3.75 10.75 4.30964 10.75 5V6C10.75 6.41421 10.4142 6.75 10 6.75C9.58579 6.75 9.25 6.41421 9.25 6V5Z" fill="#D9D9D9"/>
<path d="M9 12.25C8.58579 12.25 8.25 12.5858 8.25 13V17C8.25 17.4142 8.58579 17.75 9 17.75H15C15.4142 17.75 15.75 17.4142 15.75 17V13C15.75 12.5858 15.4142 12.25 15 12.25H9Z" fill="#D9D9D9"/>
</svg>
