<svg width="24" height="24" viewBox="0 0 24 24" fill="none" xmlns="http://www.w3.org/2000/svg">
<path d="M16.9445 3.88383C15.8705 2.80988 14.1293 2.80988 13.0554 3.88382L3.88383 13.0554C2.80988 14.1293 2.80988 15.8705 3.88383 16.9445L7.0554 20.1161C8.12934 21.19 9.87054 21.19 10.9445 20.1161L20.1161 10.9445C21.19 9.87054 21.19 8.12934 20.1161 7.0554L16.9445 3.88383Z" fill="#D9D9D9"/>
<path d="M12.9445 7.88383C11.8705 6.80988 10.1293 6.80988 9.0554 7.88383L7.88382 9.0554C6.80988 10.1293 6.80988 11.8705 7.88383 12.9445L11.0554 16.1161C12.1293 17.19 13.8705 17.19 14.9445 16.1161L16.1161 14.9445C17.19 13.8705 17.19 12.1293 16.1161 11.0554L12.9445 7.88383Z" fill="#5D5D5D"/>
</svg>
