<svg width="24" height="24" viewBox="0 0 24 24" fill="none" xmlns="http://www.w3.org/2000/svg">
<path fill-rule="evenodd" clip-rule="evenodd" d="M8 7.25C8.41421 7.25 8.75 7.58579 8.75 8V20C8.75 20.4142 8.41421 20.75 8 20.75C7.58579 20.75 7.25 20.4142 7.25 20V8C7.25 7.58579 7.58579 7.25 8 7.25ZM12 10.25C12.4142 10.25 12.75 10.5858 12.75 11V20C12.75 20.4142 12.4142 20.75 12 20.75C11.5858 20.75 11.25 20.4142 11.25 20V11C11.25 10.5858 11.5858 10.25 12 10.25ZM16 13.25C16.4142 13.25 16.75 13.5858 16.75 14V20C16.75 20.4142 16.4142 20.75 16 20.75C15.5858 20.75 15.25 20.4142 15.25 20V14C15.25 13.5858 15.5858 13.25 16 13.25Z" fill="#D9D9D9"/>
<path fill-rule="evenodd" clip-rule="evenodd" d="M4 3.25C4.41421 3.25 4.75 3.58579 4.75 4V19.25H20C20.4142 19.25 20.75 19.5858 20.75 20C20.75 20.4142 20.4142 20.75 20 20.75H4C3.58579 20.75 3.25 20.4142 3.25 20V4C3.25 3.58579 3.58579 3.25 4 3.25Z" fill="#5D5D5D"/>
</svg>
