<svg width="24" height="24" viewBox="0 0 24 24" fill="none" xmlns="http://www.w3.org/2000/svg">
<path fill-rule="evenodd" clip-rule="evenodd" d="M19 6.25C19.4142 6.25 19.75 6.58579 19.75 7V20C19.75 20.4142 19.4142 20.75 19 20.75C18.5858 20.75 18.25 20.4142 18.25 20V7C18.25 6.58579 18.5858 6.25 19 6.25ZM11 9.25C11.4142 9.25 11.75 9.58579 11.75 10V20C11.75 20.4142 11.4142 20.75 11 20.75C10.5858 20.75 10.25 20.4142 10.25 20V10C10.25 9.58579 10.5858 9.25 11 9.25ZM15 11.25C15.4142 11.25 15.75 11.5858 15.75 12V20C15.75 20.4142 15.4142 20.75 15 20.75C14.5858 20.75 14.25 20.4142 14.25 20V12C14.25 11.5858 14.5858 11.25 15 11.25ZM7 13.25C7.41421 13.25 7.75 13.5858 7.75 14V20C7.75 20.4142 7.41421 20.75 7 20.75C6.58579 20.75 6.25 20.4142 6.25 20V14C6.25 13.5858 6.58579 13.25 7 13.25Z" fill="#D9D9D9"/>
<path fill-rule="evenodd" clip-rule="evenodd" d="M4 3.25C4.41421 3.25 4.75 3.58579 4.75 4V19.25H20C20.4142 19.25 20.75 19.5858 20.75 20C20.75 20.4142 20.4142 20.75 20 20.75H4C3.58579 20.75 3.25 20.4142 3.25 20V4C3.25 3.58579 3.58579 3.25 4 3.25Z" fill="#5D5D5D"/>
</svg>
