<svg width="24" height="24" viewBox="0 0 24 24" fill="none" xmlns="http://www.w3.org/2000/svg">
<path d="M7.72761 5.18183C7.82807 4.77999 7.58375 4.37279 7.1819 4.27233C6.78006 4.17186 6.37285 4.41619 6.27239 4.81803L5.41442 8.24993H3C2.58579 8.24993 2.25 8.58572 2.25 8.99993C2.25 9.41415 2.58579 9.74993 3 9.74993H4.32126L5.07362 17.2736C5.2142 18.6794 6.39716 19.7499 7.80998 19.7499H16.19C17.6028 19.7499 18.7858 18.6794 18.9264 17.2736L19.6787 9.74993H21C21.4142 9.74993 21.75 9.41415 21.75 8.99993C21.75 8.58572 21.4142 8.24993 21 8.24993H18.5856L17.7276 4.81803C17.6271 4.41619 17.2199 4.17186 16.8181 4.27233C16.4163 4.37279 16.1719 4.77999 16.2724 5.18183L17.0394 8.24993H6.96058L7.72761 5.18183Z" fill="#5D5D5D"/>
<path fill-rule="evenodd" clip-rule="evenodd" d="M9 12.25C9.41421 12.25 9.75 12.5858 9.75 13V15C9.75 15.4142 9.41421 15.75 9 15.75C8.58579 15.75 8.25 15.4142 8.25 15V13C8.25 12.5858 8.58579 12.25 9 12.25ZM12 12.25C12.4142 12.25 12.75 12.5858 12.75 13V15C12.75 15.4142 12.4142 15.75 12 15.75C11.5858 15.75 11.25 15.4142 11.25 15V13C11.25 12.5858 11.5858 12.25 12 12.25ZM15 12.25C15.4142 12.25 15.75 12.5858 15.75 13V15C15.75 15.4142 15.4142 15.75 15 15.75C14.5858 15.75 14.25 15.4142 14.25 15V13C14.25 12.5858 14.5858 12.25 15 12.25Z" fill="#D9D9D9"/>
</svg>
