<svg width="24" height="24" viewBox="0 0 24 24" fill="none" xmlns="http://www.w3.org/2000/svg">
<path d="M5 6.25C3.48122 6.25 2.25 7.48122 2.25 9V15C2.25 16.5188 3.48122 17.75 5 17.75H17C18.5188 17.75 19.75 16.5188 19.75 15V9C19.75 7.48122 18.5188 6.25 17 6.25H5Z" fill="#5D5D5D"/>
<path d="M8 9.25C6.48122 9.25 5.25 10.4812 5.25 12C5.25 13.5188 6.48122 14.75 8 14.75H14C15.5188 14.75 16.75 13.5188 16.75 12C16.75 10.4812 15.5188 9.25 14 9.25H8Z" fill="#D9D9D9"/>
<path d="M20 9.25C19.0335 9.25 18.25 10.0335 18.25 11V13C18.25 13.9665 19.0335 14.75 20 14.75C20.9665 14.75 21.75 13.9665 21.75 13V11C21.75 10.0335 20.9665 9.25 20 9.25Z" fill="#D9D9D9"/>
</svg>
