<svg width="24" height="24" viewBox="0 0 24 24" fill="none" xmlns="http://www.w3.org/2000/svg">
<path d="M5 6.25C3.48122 6.25 2.25 7.48122 2.25 9V15C2.25 16.5188 3.48122 17.75 5 17.75H17C18.5188 17.75 19.75 16.5188 19.75 15V9C19.75 7.48122 18.5188 6.25 17 6.25H5Z" fill="#5D5D5D"/>
<path d="M11.45 9.4C11.2228 9.22956 10.9187 9.20214 10.6646 9.32918C10.4105 9.45623 10.25 9.71593 10.25 10V12.5L7.45004 10.4C7.11867 10.1515 6.64857 10.2186 6.40004 10.55C6.15152 10.8814 6.21867 11.3515 6.55004 11.6L10.55 14.6C10.7773 14.7705 11.0814 14.7979 11.3355 14.6708C11.5895 14.5438 11.75 14.2841 11.75 14V11.5L14.55 13.6C14.8814 13.8485 15.3515 13.7814 15.6 13.45C15.8486 13.1186 15.7814 12.6485 15.45 12.4L11.45 9.4Z" fill="#D9D9D9"/>
<path d="M18.25 11C18.25 10.0335 19.0335 9.25001 20 9.25001C20.9665 9.25001 21.75 10.0335 21.75 11V13C21.75 13.9665 20.9665 14.75 20 14.75C19.0335 14.75 18.25 13.9665 18.25 13V11Z" fill="#D9D9D9"/>
</svg>
