<svg width="24" height="24" viewBox="0 0 24 24" fill="none" xmlns="http://www.w3.org/2000/svg">
<path d="M5 6.25C3.48122 6.25 2.25 7.48122 2.25 9V15C2.25 16.5188 3.48122 17.75 5 17.75H17C18.5188 17.75 19.75 16.5188 19.75 15V9C19.75 7.48122 18.5188 6.25 17 6.25H5Z" fill="#5D5D5D"/>
<path d="M6.75 10C6.75 9.58579 6.41421 9.25 6 9.25C5.58579 9.25 5.25 9.58579 5.25 10V14C5.25 14.4142 5.58579 14.75 6 14.75C6.41421 14.75 6.75 14.4142 6.75 14V10Z" fill="#D9D9D9"/>
<path d="M9.75 10C9.75 9.58579 9.41421 9.25 9 9.25C8.58579 9.25 8.25 9.58579 8.25 10V14C8.25 14.4142 8.58579 14.75 9 14.75C9.41421 14.75 9.75 14.4142 9.75 14V10Z" fill="#D9D9D9"/>
<path d="M18.25 11C18.25 10.0335 19.0335 9.25 20 9.25C20.9665 9.25 21.75 10.0335 21.75 11V13C21.75 13.9665 20.9665 14.75 20 14.75C19.0335 14.75 18.25 13.9665 18.25 13V11Z" fill="#D9D9D9"/>
</svg>
