<svg width="24" height="24" viewBox="0 0 24 24" fill="none" xmlns="http://www.w3.org/2000/svg">
<path d="M9 17.25C8.58579 17.25 8.25 17.5858 8.25 18C8.25 20.0711 9.92893 21.75 12 21.75C14.0711 21.75 15.75 20.0711 15.75 18C15.75 17.5858 15.4142 17.25 15 17.25H9Z" fill="#D9D9D9"/>
<path d="M12 2.25C8.27208 2.25 5.25 5.27208 5.25 9V12.7923L2.35688 17.6141C2.21786 17.8458 2.21422 18.1344 2.34735 18.3695C2.48048 18.6047 2.7298 18.75 3 18.75H21.5C21.7797 18.75 22.0361 18.5944 22.1653 18.3463C22.2944 18.0982 22.2748 17.7989 22.1143 17.5698L18.75 12.7657V9C18.75 5.27208 15.7279 2.25 12 2.25Z" fill="#5D5D5D"/>
</svg>
