<svg width="24" height="24" viewBox="0 0 24 24" fill="none" xmlns="http://www.w3.org/2000/svg">
<path d="M5 11.25C2.37665 11.25 0.25 13.3766 0.25 16C0.25 18.6234 2.37665 20.75 5 20.75C7.62335 20.75 9.75 18.6234 9.75 16C9.75 13.3766 7.62335 11.25 5 11.25Z" fill="#D9D9D9"/>
<path d="M19 11.25C16.3766 11.25 14.25 13.3766 14.25 16C14.25 18.6234 16.3766 20.75 19 20.75C21.6234 20.75 23.75 18.6234 23.75 16C23.75 13.3766 21.6234 11.25 19 11.25Z" fill="#D9D9D9"/>
<path fill-rule="evenodd" clip-rule="evenodd" d="M18.7115 3.76303C18.8425 4.15599 18.6301 4.58073 18.2372 4.71172L15.9682 5.46805L19.7048 15.7439C19.8464 16.1332 19.6456 16.5635 19.2563 16.705C18.867 16.8466 18.4367 16.6458 18.2952 16.2565L15.8606 9.56142L12.624 14.4162C12.5253 14.5643 12.3772 14.6725 12.206 14.7213L5.20604 16.7213C4.88956 16.8118 4.5511 16.6853 4.3715 16.4094C4.19189 16.1336 4.21312 15.7729 4.42383 15.5201L9.10982 9.89689L7.53647 6.7502H7C6.58579 6.7502 6.25 6.41442 6.25 6.0002C6.25 5.58599 6.58579 5.2502 7 5.2502H9C9.41421 5.2502 9.75 5.58599 9.75 6.0002C9.75 6.34514 9.51714 6.63569 9.20004 6.72323L10.3799 9.08299L15.1129 7.50533L14.2952 5.25651C14.226 5.06627 14.2366 4.85615 14.3247 4.67389C14.4128 4.49162 14.5708 4.3527 14.7628 4.28869L17.7628 3.28869C18.1558 3.15771 18.5805 3.37008 18.7115 3.76303ZM14.1634 9.40296L11.0576 10.4383L12.0928 12.5088L14.1634 9.40296ZM10.925 13.5273L9.84203 11.3613L7.13451 14.6103L10.925 13.5273Z" fill="#5D5D5D"/>
</svg>
