<svg width="24" height="24" viewBox="0 0 24 24" fill="none" xmlns="http://www.w3.org/2000/svg">
<path fill-rule="evenodd" clip-rule="evenodd" d="M3 4.25C1.48122 4.25 0.25 5.48122 0.25 7V17C0.25 18.5188 1.48122 19.75 3 19.75H21C22.5188 19.75 23.75 18.5188 23.75 17V7C23.75 5.48122 22.5188 4.25 21 4.25H3Z" fill="#5D5D5D"/>
<path d="M3 4.25C1.48122 4.25 0.25 5.48122 0.25 7V9.75H1C3.62335 9.75 5.75 7.62335 5.75 5V4.25H3Z" fill="#D9D9D9"/>
<path d="M21 4.25H18.25V5C18.25 7.62335 20.3766 9.75 23 9.75H23.75V7C23.75 5.48122 22.5188 4.25 21 4.25Z" fill="#D9D9D9"/>
<path d="M1 14.25H0.25V17C0.25 18.5188 1.48122 19.75 3 19.75H5.75V19C5.75 16.3766 3.62335 14.25 1 14.25Z" fill="#D9D9D9"/>
<path d="M23 14.25C20.3766 14.25 18.25 16.3766 18.25 19V19.75H21C22.5188 19.75 23.75 18.5188 23.75 17V14.25H23Z" fill="#D9D9D9"/>
<path d="M12 7.25C10.8826 7.25 9.92812 7.85565 9.27868 8.72157C8.62941 9.58727 8.25 10.7488 8.25 12C8.25 13.2512 8.62941 14.4127 9.27868 15.2784C9.92812 16.1444 10.8826 16.75 12 16.75C13.1174 16.75 14.0719 16.1444 14.7213 15.2784C15.3706 14.4127 15.75 13.2512 15.75 12C15.75 10.7488 15.3706 9.58727 14.7213 8.72157C14.0719 7.85565 13.1174 7.25 12 7.25Z" fill="#D9D9D9"/>
</svg>
