<svg width="24" height="24" viewBox="0 0 24 24" fill="none" xmlns="http://www.w3.org/2000/svg">
<path fill-rule="evenodd" clip-rule="evenodd" d="M15.9445 3.88383C14.8705 2.80988 13.1293 2.80988 12.0554 3.88383L3.88383 12.0554C2.80988 13.1293 2.80988 14.8705 3.88383 15.9445L8.0554 20.1161C9.12934 21.19 10.8705 21.19 11.9445 20.1161L20.1161 11.9445C21.19 10.8705 21.19 9.12934 20.1161 8.0554L15.9445 3.88383Z" fill="#5D5D5D"/>
<path d="M11.4393 4.49994L12.0554 3.88383C13.1293 2.80988 14.8705 2.80988 15.9445 3.88383L16.5606 4.49994L15.9445 5.11606C14.8705 6.19 13.1293 6.19 12.0554 5.11606L11.4393 4.49994Z" fill="#D9D9D9"/>
<path d="M20.1161 8.05539L19.4999 7.43929L18.8838 8.0554C17.8099 9.12934 17.8099 10.8705 18.8838 11.9445L19.4999 12.5606L20.1161 11.9445C21.19 10.8705 21.19 9.12934 20.1161 8.05539Z" fill="#D9D9D9"/>
<path d="M5.11606 12.0554L4.49994 11.4393L3.88383 12.0554C2.80988 13.1293 2.80988 14.8705 3.88383 15.9445L4.49994 16.5606L5.11606 15.9445C6.19 14.8705 6.19 13.1293 5.11606 12.0554Z" fill="#D9D9D9"/>
<path d="M11.9445 18.8838C10.8705 17.8099 9.12934 17.8099 8.0554 18.8838L7.43929 19.4999L8.0554 20.1161C9.12934 21.19 10.8705 21.19 11.9445 20.1161L12.5606 19.4999L11.9445 18.8838Z" fill="#D9D9D9"/>
<path d="M12 9.24994C10.4812 9.24994 9.25 10.4812 9.25 11.9999C9.25 13.5187 10.4812 14.7499 12 14.7499C13.5188 14.7499 14.75 13.5187 14.75 11.9999C14.75 10.4812 13.5188 9.24994 12 9.24994Z" fill="#D9D9D9"/>
</svg>
