<svg width="24" height="24" viewBox="0 0 24 24" fill="none" xmlns="http://www.w3.org/2000/svg">
<path fill-rule="evenodd" clip-rule="evenodd" d="M9 3.25C9.41421 3.25 9.75 3.58579 9.75 4V5.25H12.25V4C12.25 3.58579 12.5858 3.25 13 3.25C13.4142 3.25 13.75 3.58579 13.75 4V5.32501C15.4617 5.67247 16.75 7.18578 16.75 9C16.75 10.0177 16.3446 11.0371 15.6344 11.7787C16.9132 12.3721 17.75 13.6598 17.75 15.0943C17.75 17.1133 16.1133 18.75 14.0943 18.75H13.75V20C13.75 20.4142 13.4142 20.75 13 20.75C12.5858 20.75 12.25 20.4142 12.25 20V18.75H9.75V20C9.75 20.4142 9.41421 20.75 9 20.75C8.58579 20.75 8.25 20.4142 8.25 20V18.75H6C5.58579 18.75 5.25 18.4142 5.25 18C5.25 17.5858 5.58579 17.25 6 17.25H7.25V6.75H6C5.58579 6.75 5.25 6.41421 5.25 6C5.25 5.58579 5.58579 5.25 6 5.25H8.25V4C8.25 3.58579 8.58579 3.25 9 3.25ZM8.75 6.75V11.25H13.8229L13.9564 11.1833C14.7282 10.7974 15.25 9.9107 15.25 9C15.25 7.75736 14.2426 6.75 13 6.75H8.75ZM13.8783 12.75H8.75V17.25H14.0943C15.2849 17.25 16.25 16.2849 16.25 15.0943C16.25 14.1664 15.6563 13.3427 14.776 13.0492L13.8783 12.75Z" fill="#5D5D5D"/>
</svg>
