<svg width="24" height="24" viewBox="0 0 24 24" fill="none" xmlns="http://www.w3.org/2000/svg">
<path d="M12 2.25C6.61522 2.25 2.25 6.61522 2.25 12C2.25 17.3848 6.61522 21.75 12 21.75C17.3848 21.75 21.75 17.3848 21.75 12C21.75 6.61522 17.3848 2.25 12 2.25Z" fill="#5D5D5D"/>
<path fill-rule="evenodd" clip-rule="evenodd" d="M10 5.75C10.4142 5.75 10.75 6.08579 10.75 6.5V7.25H12.25V6.5C12.25 6.08579 12.5858 5.75 13 5.75C13.4142 5.75 13.75 6.08579 13.75 6.5V7.32043C14.8969 7.59287 15.75 8.62386 15.75 9.8541C15.75 10.719 15.3216 11.5187 14.6213 12C15.3216 12.4813 15.75 13.281 15.75 14.1459C15.75 15.3761 14.8969 16.4071 13.75 16.6796V17.5C13.75 17.9142 13.4142 18.25 13 18.25C12.5858 18.25 12.25 17.9142 12.25 17.5V16.75H10.75V17.5C10.75 17.9142 10.4142 18.25 10 18.25C9.58579 18.25 9.25 17.9142 9.25 17.5V16.75H8.5C8.08579 16.75 7.75 16.4142 7.75 16C7.75 15.5858 8.08579 15.25 8.5 15.25H9.25V8.75H8.5C8.08579 8.75 7.75 8.41421 7.75 8C7.75 7.58579 8.08579 7.25 8.5 7.25H9.25V6.5C9.25 6.08579 9.58579 5.75 10 5.75ZM10.75 8.75V11.25H12.8229L13.6397 10.8416C14.0137 10.6546 14.25 10.2723 14.25 9.8541C14.25 9.24432 13.7557 8.75 13.1459 8.75H10.75ZM12.8229 12.75H10.75V15.25H13.1459C13.7557 15.25 14.25 14.7557 14.25 14.1459C14.25 13.7277 14.0137 13.3454 13.6397 13.1584L12.8229 12.75Z" fill="#D9D9D9"/>
</svg>
