<svg width="24" height="24" viewBox="0 0 24 24" fill="none" xmlns="http://www.w3.org/2000/svg">
<path fill-rule="evenodd" clip-rule="evenodd" d="M11.7517 2.29232C12.0523 2.18689 12.3867 2.2828 12.5857 2.53152L16.5857 7.53152C16.8244 7.82994 16.8006 8.26014 16.5303 8.53037L13.0607 12L16.5303 15.4697C16.8006 15.7399 16.8244 16.1701 16.5857 16.4686L12.5857 21.4686C12.3867 21.7173 12.0523 21.8132 11.7517 21.7078C11.4512 21.6023 11.25 21.3186 11.25 21V13.8107L8.53033 16.5304C8.23744 16.8233 7.76256 16.8233 7.46967 16.5304C7.17678 16.2375 7.17678 15.7626 7.46967 15.4697L10.9393 12L7.46967 8.53037C7.17678 8.23748 7.17678 7.76261 7.46967 7.46971C7.76256 7.17682 8.23744 7.17682 8.53033 7.46971L11.25 10.1894V3.00004C11.25 2.68153 11.4512 2.39775 11.7517 2.29232ZM12.75 13.8107L14.995 16.0557L12.75 18.862V13.8107ZM12.75 10.1894V5.13813L14.995 7.94438L12.75 10.1894Z" fill="#5D5D5D"/>
</svg>
