<svg width="24" height="24" viewBox="0 0 24 24" fill="none" xmlns="http://www.w3.org/2000/svg">
<path d="M6.66669 21H5.85413C4.83014 21 4.00003 20.1699 4.00003 19.1459C4.00003 18.4436 4.39681 17.8016 5.02495 17.4875L6.00003 17L4.00003 15L3.50003 12L3.29365 10.7617C3.10679 9.64058 3.40572 8.49289 4.11575 7.60535L5.79905 5.50122C6.55814 4.55236 7.70739 4 8.92252 4H14.4199C16.4581 4 18.1703 5.53254 18.3954 7.55827L18.8251 11.4256C18.9375 12.437 18.6601 13.4532 18.0496 14.2673L17.2 15.4C16.4446 16.4072 15.2591 17 14 17H11L8.80003 19.9333C8.29641 20.6048 7.50604 21 6.66669 21Z" fill="#D9D9D9"/>
<path fill-rule="evenodd" clip-rule="evenodd" d="M5.2134 5.0327C6.11482 3.90593 7.47956 3.25 8.92253 3.25H14.4199C16.8402 3.25 18.8735 5.06989 19.1408 7.47545L19.5705 11.3427C19.704 12.5438 19.3746 13.7505 18.6496 14.7173L17.8 15.85C16.903 17.0461 15.4951 17.75 14 17.75H11.375L9.40003 20.3833C8.75478 21.2437 7.74212 21.75 6.6667 21.75H5.85413C4.41593 21.75 3.25003 20.5841 3.25003 19.1459C3.25003 18.1595 3.80731 17.2578 4.68954 16.8167L4.73391 16.7945L3.4697 15.5303C3.35917 15.4198 3.28593 15.2775 3.26023 15.1233L2.55386 10.885C2.33196 9.55367 2.68694 8.19078 3.5301 7.13683L5.2134 5.0327ZM5.88346 15.8228L4.94443 14.8837L7.64315 10.3859C7.85626 10.0307 7.74109 9.56999 7.3859 9.35688C7.03072 9.14377 6.57002 9.25894 6.35691 9.61413L4.40494 12.8674L4.27992 12.1173L5.67085 9.33541C5.85609 8.96493 5.70592 8.51442 5.33544 8.32918C4.96496 8.14394 4.51445 8.29411 4.32921 8.66459L4.26858 8.78584C4.38066 8.53327 4.5255 8.29374 4.7014 8.07387L6.38471 5.96974C7.00147 5.19879 7.93523 4.75 8.92253 4.75H14.4199C16.0759 4.75 17.4671 5.99519 17.65 7.6411L18.0797 11.5084C18.171 12.3302 17.9457 13.1558 17.4496 13.8173L16.6 14.95C15.9863 15.7684 15.023 16.25 14 16.25H12.4405L15.1145 12.4301C15.352 12.0908 15.2695 11.6231 14.9301 11.3856C14.5908 11.148 14.1231 11.2306 13.8856 11.5699L10.3927 16.5598L8.20003 19.4833C7.83806 19.966 7.26998 20.25 6.6667 20.25H5.85413C5.24435 20.25 4.75003 19.7557 4.75003 19.1459C4.75003 18.7277 4.98631 18.3454 5.36036 18.1584L6.33544 17.6708C6.45218 17.6124 6.55167 17.5246 6.62407 17.416L10.6241 11.416C10.8538 11.0714 10.7607 10.6057 10.4161 10.376C10.0714 10.1462 9.60576 10.2393 9.37599 10.584L5.88346 15.8228Z" fill="#5D5D5D"/>
</svg>
