<svg width="24" height="24" viewBox="0 0 24 24" fill="none" xmlns="http://www.w3.org/2000/svg">
<path d="M6 12.25C3.92893 12.25 2.25 13.9289 2.25 16C2.25 18.0711 3.92893 19.75 6 19.75C8.07107 19.75 9.75 18.0711 9.75 16C9.75 15.1328 9.45474 14.3325 8.95975 13.6971C8.63922 13.2856 8.23459 12.9426 7.77106 12.6939C7.24283 12.4105 6.63904 12.25 6 12.25Z" fill="#D9D9D9"/>
<path d="M18 12.25C15.9289 12.25 14.25 13.9289 14.25 16C14.25 18.0711 15.9289 19.75 18 19.75C20.0711 19.75 21.75 18.0711 21.75 16C21.75 13.9289 20.0711 12.25 18 12.25Z" fill="#D9D9D9"/>
<path fill-rule="evenodd" clip-rule="evenodd" d="M16.7628 3.28851C17.0323 3.19867 17.3295 3.26882 17.5303 3.46969L18.5303 4.46969C18.8232 4.76258 18.8232 5.23746 18.5303 5.53035C18.2374 5.82324 17.7626 5.82324 17.4697 5.53035L16.7974 4.85811L14.9487 5.47436L15.7071 7.74969L18.7022 15.7367C18.8477 16.1245 18.6512 16.5568 18.2633 16.7023C17.8755 16.8477 17.4432 16.6512 17.2978 16.2634L14.9774 10.0759L13.6964 13.2786C13.6069 13.5022 13.4155 13.6692 13.1819 13.7276L7.4632 15.1573L6.62404 16.416C6.39427 16.7607 5.92862 16.8538 5.58397 16.6241C5.23933 16.3943 5.1462 15.9286 5.37596 15.584L6.32596 14.159L8.16548 9.10032L6.59861 6.75002H5C4.58579 6.75002 4.25 6.41423 4.25 6.00002C4.25 5.58581 4.58579 5.25002 5 5.25002H7C7.25076 5.25002 7.48494 5.37535 7.62404 5.584L9.35504 8.1805L14.0109 7.40452L13.2885 5.23719C13.1575 4.84423 13.3699 4.41949 13.7628 4.28851L16.7628 3.28851ZM13.8087 8.95892L10.5609 9.50022L12.7261 11.6654L13.8087 8.95892ZM11.533 12.5937L9.30239 10.3631L8.18709 13.4302L11.533 12.5937Z" fill="#5D5D5D"/>
</svg>
