<svg width="24" height="24" viewBox="0 0 24 24" fill="none" xmlns="http://www.w3.org/2000/svg">
<path d="M13.2 8.35C12.6807 7.65753 11.8656 7.25 11 7.25H8.35407C7.22958 7.25 6.21838 7.93462 5.80076 8.97868L4.30365 12.7215C4.21122 12.9525 4.23943 13.2144 4.37895 13.4205C4.51848 13.6266 4.75114 13.75 5 13.75H9.52787C9.95479 13.75 10.3759 13.6506 10.7577 13.4597L11.9131 12.882C12.0867 12.7952 12.2781 12.75 12.4721 12.75H15C15.2841 12.75 15.5438 12.5895 15.6708 12.3354C15.7979 12.0813 15.7705 11.7773 15.6 11.55L13.2 8.35Z" fill="#D9D9D9"/>
<path fill-rule="evenodd" clip-rule="evenodd" d="M18 16.8342L21 12H15H12L10 13H5H4V16.3352C4.95045 16.6285 6.39477 17.007 7.5 17C8.73513 16.9922 10.386 16.5272 11.306 16.2341C11.7569 16.0905 12.2434 16.0903 12.6943 16.2341C13.6214 16.5296 15.2873 17 16.5 17C16.9569 17 17.4782 16.9332 18 16.8342Z" fill="#5D5D5D"/>
<path d="M21 12H12M21 12H15H12M21 12L18 16.8342C17.4782 16.9332 16.9569 17 16.5 17C15.2873 17 13.6214 16.5296 12.6943 16.2341M12 12L10 13M10 13H4M10 13H5H4M4 13V16.3352C4.95045 16.6285 6.39477 17.007 7.5 17C8.73513 16.9922 10.386 16.5272 11.306 16.2341M12.6943 16.2341C12.2434 16.0903 11.7569 16.0905 11.306 16.2341M12.6943 16.2341C12.2696 16.0987 12 16 12 16C12 16 11.731 16.0987 11.306 16.2341" stroke="#5D5D5D" stroke-width="1.5" stroke-linecap="round"/>
<path d="M20.7423 15.7959C21.1312 15.6536 21.5619 15.8534 21.7043 16.2424C21.8467 16.6314 21.6468 17.0621 21.2578 17.2045L21.2528 17.2063L21.2411 17.2106L21.1979 17.2261C21.1606 17.2393 21.1067 17.2583 21.0383 17.2818C20.9015 17.3289 20.7061 17.3944 20.4688 17.4694C19.9959 17.6188 19.3494 17.8078 18.6649 17.962C17.9638 18.1199 17.1853 18.2502 16.5 18.2502C15.1563 18.2502 13.3875 17.7425 12.4665 17.4489C12.1639 17.3524 11.8366 17.3524 11.5336 17.4489C10.6168 17.741 8.86691 18.2415 7.50476 18.2502C6.79932 18.2547 6.00641 18.1226 5.29736 17.9617C4.6166 17.8072 3.97847 17.6179 3.51278 17.4682C3.27918 17.3931 3.0872 17.3275 2.95281 17.2802C2.88557 17.2566 2.83265 17.2376 2.79602 17.2243L2.75352 17.2087L2.74188 17.2044L2.7375 17.2028C2.34962 17.0575 2.15236 16.625 2.29767 16.2371C2.44297 15.8492 2.87513 15.6526 3.26299 15.7978L3.26485 15.7985L3.27314 15.8016L3.30862 15.8146C3.34044 15.8261 3.3882 15.8433 3.44994 15.865C3.57351 15.9084 3.75266 15.9697 3.97177 16.0402C4.41149 16.1815 5.00503 16.3572 5.62935 16.4989C6.29515 16.65 6.95854 16.7536 7.49525 16.7502C8.60335 16.7432 10.1551 16.3138 11.0783 16.0197C11.6772 15.8289 12.3229 15.8287 12.9221 16.0197C13.8552 16.3172 15.4183 16.7502 16.5 16.7502C17.0215 16.7502 17.6742 16.6476 18.3352 16.4987C18.9652 16.3567 19.5687 16.1807 20.0171 16.039C20.2405 15.9685 20.4237 15.907 20.5502 15.8634C20.6134 15.8417 20.6624 15.8244 20.6951 15.8128L20.7317 15.7997L20.7403 15.7966L20.7423 15.7959Z" fill="#D9D9D9"/>
<path fill-rule="evenodd" clip-rule="evenodd" d="M4.25 8C4.25 7.58579 4.58579 7.25 5 7.25H12C12.4142 7.25 12.75 7.58579 12.75 8C12.75 8.41421 12.4142 8.75 12 8.75H5C4.58579 8.75 4.25 8.41421 4.25 8Z" fill="#5D5D5D"/>
</svg>
