<svg width="24" height="24" viewBox="0 0 24 24" fill="none" xmlns="http://www.w3.org/2000/svg">
<path fill-rule="evenodd" clip-rule="evenodd" d="M7.25 5C7.25 4.58579 7.58579 4.25 8 4.25H12.2918C14.7631 4.25 16.75 6.2899 16.75 8.74297C16.75 9.99225 16.2164 11.1765 15.3127 12C16.2164 12.8235 16.75 14.0077 16.75 15.257C16.75 17.7101 14.7631 19.75 12.2918 19.75H8C7.58579 19.75 7.25 19.4142 7.25 19V5ZM13.8118 11.25C14.6941 10.7407 15.25 9.77778 15.25 8.74297C15.25 7.10007 13.9165 5.75 12.2918 5.75H8.75V11.25H13.8118ZM8.75 12.75V18.25H12.2918C13.9165 18.25 15.25 16.8999 15.25 15.257C15.25 14.2222 14.6941 13.2592 13.8118 12.75H8.75Z" fill="#5D5D5D"/>
</svg>
