<svg width="24" height="24" viewBox="0 0 24 24" fill="none" xmlns="http://www.w3.org/2000/svg">
<path fill-rule="evenodd" clip-rule="evenodd" d="M3.25 4C3.25 3.58579 3.58579 3.25 4 3.25H20C20.4142 3.25 20.75 3.58579 20.75 4V20C20.75 20.4142 20.4142 20.75 20 20.75H4C3.58579 20.75 3.25 20.4142 3.25 20V4ZM4.75 4.75V19.25H19.25V4.75H4.75Z" fill="#5D5D5D"/>
<path fill-rule="evenodd" clip-rule="evenodd" d="M11.25 8C11.25 7.58579 11.5858 7.25 12 7.25H12.009C12.4232 7.25 12.759 7.58579 12.759 8C12.759 8.41421 12.4232 8.75 12.009 8.75H12C11.5858 8.75 11.25 8.41421 11.25 8ZM7.25 12C7.25 11.5858 7.58579 11.25 8 11.25H8.00898C8.4232 11.25 8.75898 11.5858 8.75898 12C8.75898 12.4142 8.4232 12.75 8.00898 12.75H8C7.58579 12.75 7.25 12.4142 7.25 12ZM11.25 12C11.25 11.5858 11.5858 11.25 12 11.25H12.009C12.4232 11.25 12.759 11.5858 12.759 12C12.759 12.4142 12.4232 12.75 12.009 12.75H12C11.5858 12.75 11.25 12.4142 11.25 12ZM15.25 12C15.25 11.5858 15.5858 11.25 16 11.25H16.009C16.4232 11.25 16.759 11.5858 16.759 12C16.759 12.4142 16.4232 12.75 16.009 12.75H16C15.5858 12.75 15.25 12.4142 15.25 12ZM11.25 16C11.25 15.5858 11.5858 15.25 12 15.25H12.009C12.4232 15.25 12.759 15.5858 12.759 16C12.759 16.4142 12.4232 16.75 12.009 16.75H12C11.5858 16.75 11.25 16.4142 11.25 16Z" fill="#D9D9D9"/>
</svg>
