<svg width="24" height="24" viewBox="0 0 24 24" fill="none" xmlns="http://www.w3.org/2000/svg">
<path fill-rule="evenodd" clip-rule="evenodd" d="M3.25 4C3.25 3.58579 3.58579 3.25 4 3.25H4.00898C4.4232 3.25 4.75898 3.58579 4.75898 4C4.75898 4.41421 4.4232 4.75 4.00898 4.75H4C3.58579 4.75 3.25 4.41421 3.25 4ZM7.25 4C7.25 3.58579 7.58579 3.25 8 3.25H8.00898C8.4232 3.25 8.75898 3.58579 8.75898 4C8.75898 4.41421 8.4232 4.75 8.00898 4.75H8C7.58579 4.75 7.25 4.41421 7.25 4ZM11.25 4C11.25 3.58579 11.5858 3.25 12 3.25H12.009C12.4232 3.25 12.759 3.58579 12.759 4C12.759 4.41421 12.4232 4.75 12.009 4.75H12C11.5858 4.75 11.25 4.41421 11.25 4ZM15.25 4C15.25 3.58579 15.5858 3.25 16 3.25H16.009C16.4232 3.25 16.759 3.58579 16.759 4C16.759 4.41421 16.4232 4.75 16.009 4.75H16C15.5858 4.75 15.25 4.41421 15.25 4ZM19.25 4C19.25 3.58579 19.5858 3.25 20 3.25H20.009C20.4232 3.25 20.759 3.58579 20.759 4C20.759 4.41421 20.4232 4.75 20.009 4.75H20C19.5858 4.75 19.25 4.41421 19.25 4ZM3.25 8C3.25 7.58579 3.58579 7.25 4 7.25H4.00898C4.4232 7.25 4.75898 7.58579 4.75898 8C4.75898 8.41421 4.4232 8.75 4.00898 8.75H4C3.58579 8.75 3.25 8.41421 3.25 8ZM11.25 8C11.25 7.58579 11.5858 7.25 12 7.25H12.009C12.4232 7.25 12.759 7.58579 12.759 8C12.759 8.41421 12.4232 8.75 12.009 8.75H12C11.5858 8.75 11.25 8.41421 11.25 8ZM19.25 8C19.25 7.58579 19.5858 7.25 20 7.25H20.009C20.4232 7.25 20.759 7.58579 20.759 8C20.759 8.41421 20.4232 8.75 20.009 8.75H20C19.5858 8.75 19.25 8.41421 19.25 8ZM3.25 16C3.25 15.5858 3.58579 15.25 4 15.25H4.00898C4.4232 15.25 4.75898 15.5858 4.75898 16C4.75898 16.4142 4.4232 16.75 4.00898 16.75H4C3.58579 16.75 3.25 16.4142 3.25 16ZM11.25 16C11.25 15.5858 11.5858 15.25 12 15.25H12.009C12.4232 15.25 12.759 15.5858 12.759 16C12.759 16.4142 12.4232 16.75 12.009 16.75H12C11.5858 16.75 11.25 16.4142 11.25 16ZM19.25 16C19.25 15.5858 19.5858 15.25 20 15.25H20.009C20.4232 15.25 20.759 15.5858 20.759 16C20.759 16.4142 20.4232 16.75 20.009 16.75H20C19.5858 16.75 19.25 16.4142 19.25 16ZM3.25 20C3.25 19.5858 3.58579 19.25 4 19.25H4.00898C4.4232 19.25 4.75898 19.5858 4.75898 20C4.75898 20.4142 4.4232 20.75 4.00898 20.75H4C3.58579 20.75 3.25 20.4142 3.25 20ZM7.25 20C7.25 19.5858 7.58579 19.25 8 19.25H8.00898C8.4232 19.25 8.75898 19.5858 8.75898 20C8.75898 20.4142 8.4232 20.75 8.00898 20.75H8C7.58579 20.75 7.25 20.4142 7.25 20ZM11.25 20C11.25 19.5858 11.5858 19.25 12 19.25H12.009C12.4232 19.25 12.759 19.5858 12.759 20C12.759 20.4142 12.4232 20.75 12.009 20.75H12C11.5858 20.75 11.25 20.4142 11.25 20ZM15.25 20C15.25 19.5858 15.5858 19.25 16 19.25H16.009C16.4232 19.25 16.759 19.5858 16.759 20C16.759 20.4142 16.4232 20.75 16.009 20.75H16C15.5858 20.75 15.25 20.4142 15.25 20ZM19.25 20C19.25 19.5858 19.5858 19.25 20 19.25H20.009C20.4232 19.25 20.759 19.5858 20.759 20C20.759 20.4142 20.4232 20.75 20.009 20.75H20C19.5858 20.75 19.25 20.4142 19.25 20Z" fill="#D9D9D9"/>
<path fill-rule="evenodd" clip-rule="evenodd" d="M3.25 12C3.25 11.5858 3.58579 11.25 4 11.25H20.009C20.4232 11.25 20.759 11.5858 20.759 12C20.759 12.4142 20.4232 12.75 20.009 12.75H4C3.58579 12.75 3.25 12.4142 3.25 12Z" fill="#5D5D5D"/>
</svg>
