<svg width="24" height="24" viewBox="0 0 24 24" fill="none" xmlns="http://www.w3.org/2000/svg">
<path fill-rule="evenodd" clip-rule="evenodd" d="M16.4616 5.40885C16.6436 5.55098 16.75 5.76906 16.75 6.00001C16.75 6.69036 17.3096 7.25001 18 7.25001C18.2133 7.25001 18.4166 7.34086 18.5589 7.49982C18.7011 7.65878 18.769 7.8708 18.7454 8.08283L17.7454 17.0828C17.7032 17.4627 17.3822 17.75 17 17.75C16.3096 17.75 15.75 18.3097 15.75 19C15.75 19.2353 15.6395 19.457 15.4517 19.5988C15.2638 19.7405 15.0203 19.7858 14.794 19.7211L7.79396 17.7211C7.47199 17.6292 7.25 17.3349 7.25 17C7.25 16.3097 6.69036 15.75 6 15.75C5.75535 15.75 5.52606 15.6307 5.3857 15.4303C5.24534 15.2299 5.21155 14.9736 5.29516 14.7437L7.29516 9.2437C7.40294 8.94731 7.68462 8.75001 8 8.75001C8.69036 8.75001 9.25 8.19036 9.25 7.50001C9.25 7.15586 9.48423 6.85587 9.8181 6.7724L15.8181 5.2724C16.0422 5.21639 16.2795 5.26672 16.4616 5.40885ZM10.6839 8.10212C10.4484 9.15649 9.60743 9.98243 8.54496 10.196L7.00228 14.4384C7.84962 14.7702 8.49219 15.5102 8.68799 16.4166L14.4172 18.0535C14.7266 17.2095 15.4379 16.5593 16.3193 16.3349L17.176 8.62443C16.3526 8.36614 15.6959 7.731 15.408 6.92108L10.6839 8.10212Z" fill="#D9D9D9"/>
<path d="M18 3.25C16.4812 3.25 15.25 4.48122 15.25 6C15.25 7.51878 16.4812 8.75 18 8.75C19.5188 8.75 20.75 7.51878 20.75 6C20.75 4.48122 19.5188 3.25 18 3.25Z" fill="#5D5D5D"/>
<path d="M8 4.75C6.48122 4.75 5.25 5.98122 5.25 7.5C5.25 9.01878 6.48122 10.25 8 10.25C9.51878 10.25 10.75 9.01878 10.75 7.5C10.75 5.98122 9.51878 4.75 8 4.75Z" fill="#5D5D5D"/>
<path d="M6 14.25C4.48122 14.25 3.25 15.4812 3.25 17C3.25 18.5188 4.48122 19.75 6 19.75C7.51878 19.75 8.75 18.5188 8.75 17C8.75 15.4812 7.51878 14.25 6 14.25Z" fill="#5D5D5D"/>
<path d="M17 16.25C15.4812 16.25 14.25 17.4812 14.25 19C14.25 20.5188 15.4812 21.75 17 21.75C18.5188 21.75 19.75 20.5188 19.75 19C19.75 17.4812 18.5188 16.25 17 16.25Z" fill="#5D5D5D"/>
</svg>
