<svg width="24" height="24" viewBox="0 0 24 24" fill="none" xmlns="http://www.w3.org/2000/svg">
<path d="M4.25 11.5781V17C4.25 17.2691 4.39421 17.5177 4.6279 17.6512L11.6279 21.6512C11.8585 21.7829 12.1415 21.7829 12.3721 21.6512L19.3721 17.6512C19.6058 17.5177 19.75 17.2691 19.75 17V11.5781V8.5L12 4L4.25 8V11.5781Z" fill="#5D5D5D"/>
<path fill-rule="evenodd" clip-rule="evenodd" d="M9.23718 2.28849C9.04848 2.22559 8.84251 2.24022 8.6646 2.32918L2.6646 5.32918C2.44897 5.437 2.29831 5.64189 2.25969 5.87986C2.22108 6.11783 2.29921 6.35986 2.46968 6.53033L3.93935 8L2.46968 9.46967C2.30439 9.63496 2.22562 9.86786 2.25665 10.0996C2.28767 10.3312 2.42495 10.5352 2.62791 10.6512L9.6279 14.6512C9.92156 14.819 10.2912 14.7695 10.5303 14.5303L12 13.0607L13.4697 14.5303C13.7088 14.7695 14.0785 14.819 14.3721 14.6512L21.3721 10.6512C21.5751 10.5352 21.7123 10.3312 21.7434 10.0996C21.7744 9.86786 21.6956 9.63496 21.5303 9.46967L20.0607 8L21.5303 6.53033C21.7008 6.35986 21.7789 6.11783 21.7403 5.87986C21.7017 5.64189 21.5511 5.437 21.3354 5.32918L15.3354 2.32918C15.1575 2.24022 14.9515 2.22559 14.7628 2.28849L12 3.20943L9.23718 2.28849ZM17.4883 8L12 11.1362L6.51168 8L12 4.86381L17.4883 8Z" fill="#D9D9D9"/>
</svg>
