<svg width="24" height="24" viewBox="0 0 24 24" fill="none" xmlns="http://www.w3.org/2000/svg">
<path d="M12.4961 3.13176C12.1887 2.95608 11.8113 2.95608 11.5039 3.13176L4.50386 7.13176C4.19229 7.3098 4 7.64114 4 8V17C4 17.3589 4.19229 17.6902 4.50386 17.8682L11.5039 21.8682C11.8113 22.0439 12.1887 22.0439 12.4961 21.8682L19.4961 17.8682C19.8077 17.6902 20 17.3589 20 17V8C20 7.64114 19.8077 7.3098 19.4961 7.13176L12.4961 3.13176Z" fill="#5D5D5D"/>
<path fill-rule="evenodd" clip-rule="evenodd" d="M7.84882 5.62778C8.05433 5.26814 8.51247 5.14319 8.87211 5.3487L15.8721 9.3487C16.1058 9.48223 16.25 9.73074 16.25 9.99988V12.4999C16.25 12.9141 15.9142 13.2499 15.5 13.2499C15.0858 13.2499 14.75 12.9141 14.75 12.4999V10.4351L8.1279 6.65107C7.76826 6.44556 7.64332 5.98742 7.84882 5.62778Z" fill="#D9D9D9"/>
</svg>
