<svg width="24" height="24" viewBox="0 0 24 24" fill="none" xmlns="http://www.w3.org/2000/svg">
<path d="M5 13.25C4.58579 13.25 4.25 13.5858 4.25 14V19C4.25 20.5188 5.48122 21.75 7 21.75H17C18.5188 21.75 19.75 20.5188 19.75 19V14C19.75 13.5858 19.4142 13.25 19 13.25H5Z" fill="#D9D9D9"/>
<path d="M12 2.25C10.0118 2.25 8.38554 3.79678 8.25802 5.75314C8.24373 5.97238 8.26994 6.17398 8.3034 6.34128L8.85948 9.12164C8.99796 9.81408 8.53579 10.4837 7.83925 10.5998L4.78146 11.1094C3.89772 11.2567 3.25 12.0213 3.25 12.9172V13C3.25 13.9665 4.0335 14.75 5 14.75H19C19.9665 14.75 20.75 13.9665 20.75 13V12.9172C20.75 12.0213 20.1023 11.2567 19.2185 11.1094L16.1608 10.5998C15.4642 10.4837 15.002 9.81408 15.1405 9.12164L15.6966 6.34128C15.7301 6.17398 15.7563 5.97238 15.742 5.75314C15.6145 3.79678 13.9882 2.25 12 2.25Z" fill="#5D5D5D"/>
<path fill-rule="evenodd" clip-rule="evenodd" d="M16 16.25C16.4142 16.25 16.75 16.5858 16.75 17V21.75H15.25V17C15.25 16.5858 15.5858 16.25 16 16.25ZM8 17.05C8.41421 17.05 8.75 17.3858 8.75 17.8V21.75H7.25V17.8C7.25 17.3858 7.58579 17.05 8 17.05ZM12 17.85C12.4142 17.85 12.75 18.1858 12.75 18.6V21.75H11.25V18.6C11.25 18.1858 11.5858 17.85 12 17.85Z" fill="#5D5D5D"/>
</svg>
