<svg width="24" height="24" viewBox="0 0 24 24" fill="none" xmlns="http://www.w3.org/2000/svg">
<path d="M9.53033 2.46967C9.23744 2.17678 8.76256 2.17678 8.46967 2.46967C8.17678 2.76256 8.17678 3.23744 8.46967 3.53033L9.5824 4.64306C8.78397 5.12431 8.25 5.9998 8.25 7V10C8.25 10.4142 8.58579 10.75 9 10.75H15C15.4142 10.75 15.75 10.4142 15.75 10V7C15.75 5.9998 15.216 5.12431 14.4176 4.64306L15.5303 3.53033C15.8232 3.23744 15.8232 2.76256 15.5303 2.46967C15.2374 2.17678 14.7626 2.17678 14.4697 2.46967L12.6893 4.25H11.3107L9.53033 2.46967Z" fill="#D9D9D9"/>
<path d="M3.75 8C3.75 7.58579 3.41421 7.25 3 7.25C2.58579 7.25 2.25 7.58579 2.25 8C2.25 9.24392 2.86441 10.4251 3.71967 11.2803C4.57493 12.1356 5.75608 12.75 7 12.75C7.41421 12.75 7.75 12.4142 7.75 12C7.75 11.5858 7.41421 11.25 7 11.25C6.24392 11.25 5.42507 10.8644 4.78033 10.2197C4.13559 9.57493 3.75 8.75608 3.75 8Z" fill="#D9D9D9"/>
<path d="M21.75 8C21.75 7.58579 21.4142 7.25 21 7.25C20.5858 7.25 20.25 7.58579 20.25 8C20.25 8.75608 19.8644 9.57493 19.2197 10.2197C18.5749 10.8644 17.7561 11.25 17 11.25C16.5858 11.25 16.25 11.5858 16.25 12C16.25 12.4142 16.5858 12.75 17 12.75C18.2439 12.75 19.4251 12.1356 20.2803 11.2803C21.1356 10.4251 21.75 9.24392 21.75 8Z" fill="#D9D9D9"/>
<path d="M3 13.75C2.58579 13.75 2.25 14.0858 2.25 14.5C2.25 14.9142 2.58579 15.25 3 15.25H7C7.41421 15.25 7.75 14.9142 7.75 14.5C7.75 14.0858 7.41421 13.75 7 13.75H3Z" fill="#D9D9D9"/>
<path d="M17 13.75C16.5858 13.75 16.25 14.0858 16.25 14.5C16.25 14.9142 16.5858 15.25 17 15.25H21C21.4142 15.25 21.75 14.9142 21.75 14.5C21.75 14.0858 21.4142 13.75 21 13.75H17Z" fill="#D9D9D9"/>
<path d="M7 16.25C5.88439 16.25 4.90993 16.5294 4.21967 17.2197C3.52941 17.9099 3.25 18.8844 3.25 20C3.25 20.4142 3.58579 20.75 4 20.75C4.41421 20.75 4.75 20.4142 4.75 20C4.75 19.1156 4.97059 18.5901 5.28033 18.2803C5.59007 17.9706 6.11561 17.75 7 17.75C7.41421 17.75 7.75 17.4142 7.75 17C7.75 16.5858 7.41421 16.25 7 16.25Z" fill="#D9D9D9"/>
<path d="M17 16.25C16.5858 16.25 16.25 16.5858 16.25 17C16.25 17.4142 16.5858 17.75 17 17.75C17.8844 17.75 18.4099 17.9706 18.7197 18.2803C19.0294 18.5901 19.25 19.1156 19.25 20C19.25 20.4142 19.5858 20.75 20 20.75C20.4142 20.75 20.75 20.4142 20.75 20C20.75 18.8844 20.4706 17.9099 19.7803 17.2197C19.0901 16.5294 18.1156 16.25 17 16.25Z" fill="#D9D9D9"/>
<path d="M6.25 12C6.25 10.4812 7.48122 9.25 9 9.25H15C16.5188 9.25 17.75 10.4812 17.75 12V17C17.75 18.5188 16.5188 19.75 15 19.75H9C7.48122 19.75 6.25 18.5188 6.25 17V12Z" fill="#5D5D5D"/>
</svg>
