<svg width="24" height="24" viewBox="0 0 24 24" fill="none" xmlns="http://www.w3.org/2000/svg">
<path fill-rule="evenodd" clip-rule="evenodd" d="M2.25 6C2.25 5.58579 2.58579 5.25 3 5.25H3.00898C3.4232 5.25 3.75898 5.58579 3.75898 6C3.75898 6.41421 3.4232 6.75 3.00898 6.75H3C2.58579 6.75 2.25 6.41421 2.25 6ZM2.25 10C2.25 9.58579 2.58579 9.25 3 9.25H3.00898C3.4232 9.25 3.75898 9.58579 3.75898 10C3.75898 10.4142 3.4232 10.75 3.00898 10.75H3C2.58579 10.75 2.25 10.4142 2.25 10ZM2.25 14C2.25 13.5858 2.58579 13.25 3 13.25H3.00898C3.4232 13.25 3.75898 13.5858 3.75898 14C3.75898 14.4142 3.4232 14.75 3.00898 14.75H3C2.58579 14.75 2.25 14.4142 2.25 14ZM2.25 18C2.25 17.5858 2.58579 17.25 3 17.25H3.00898C3.4232 17.25 3.75898 17.5858 3.75898 18C3.75898 18.4142 3.4232 18.75 3.00898 18.75H3C2.58579 18.75 2.25 18.4142 2.25 18Z" fill="#5D5D5D"/>
<path fill-rule="evenodd" clip-rule="evenodd" d="M6.25 6C6.25 5.58579 6.58579 5.25 7 5.25H20C20.4142 5.25 20.75 5.58579 20.75 6C20.75 6.41421 20.4142 6.75 20 6.75H7C6.58579 6.75 6.25 6.41421 6.25 6ZM6.25 10C6.25 9.58579 6.58579 9.25 7 9.25H20C20.4142 9.25 20.75 9.58579 20.75 10C20.75 10.4142 20.4142 10.75 20 10.75H7C6.58579 10.75 6.25 10.4142 6.25 10ZM6.25 14C6.25 13.5858 6.58579 13.25 7 13.25H20C20.4142 13.25 20.75 13.5858 20.75 14C20.75 14.4142 20.4142 14.75 20 14.75H7C6.58579 14.75 6.25 14.4142 6.25 14ZM6.25 18C6.25 17.5858 6.58579 17.25 7 17.25H14C14.4142 17.25 14.75 17.5858 14.75 18C14.75 18.4142 14.4142 18.75 14 18.75H7C6.58579 18.75 6.25 18.4142 6.25 18Z" fill="#D9D9D9"/>
</svg>
