<svg width="24" height="24" viewBox="0 0 24 24" fill="none" xmlns="http://www.w3.org/2000/svg">
<path d="M15 4.25C14.5858 4.25 14.25 4.58579 14.25 5V12C14.25 12.4142 14.5858 12.75 15 12.75H21C21.2489 12.75 21.4815 12.6266 21.6211 12.4205C21.7606 12.2144 21.7888 11.9525 21.6964 11.7215L19.8488 7.10261C19.7105 6.75683 19.5034 6.44274 19.2401 6.17939L18.1161 5.05546C17.6004 4.53973 16.9009 4.25 16.1716 4.25H15Z" fill="#D9D9D9"/>
<path d="M15 4.25H4.70711C3.35008 4.25 2.25 5.35008 2.25 6.70711V15.872C2.25 16.9092 3.0908 17.75 4.12799 17.75H5.00631C5.34328 17.75 5.63051 17.5431 5.7505 17.2499C5.76765 17.2081 5.78138 17.1644 5.79135 17.1194H7.5L9.21443 17.1465C9.28638 17.4981 9.59597 17.7504 9.95483 17.75L13.0427 17.7462L13.7843 17.1527L17.2144 17.1462C17.2861 17.4977 17.5954 17.75 17.9539 17.75V17.7451L17.9553 17.7451L17.9553 17.75L18.3652 17.7492C19.674 17.7468 20.7997 16.8223 21.0565 15.539L21.7354 12.1472C21.7795 11.9269 21.7225 11.6983 21.58 11.5246C21.4376 11.3508 21.2247 11.25 21 11.25H15.75V5C15.75 4.58579 15.4142 4.25 15 4.25Z" fill="#5D5D5D"/>
<path fill-rule="evenodd" clip-rule="evenodd" d="M12.3154 16.8487L12.314 16.856L12.3137 16.8573C12.2718 17.0657 12.25 17.2807 12.25 17.5C12.25 19.2949 13.7051 20.75 15.5 20.75C17.2516 20.75 18.6793 19.3646 18.7475 17.6293C18.752 17.515 18.7448 17.4107 18.7363 17.326L18.7039 17.0035C18.7043 16.9235 18.6918 16.8436 18.6669 16.7671C18.3342 15.3252 17.0435 14.25 15.5 14.25C13.9289 14.25 12.6197 15.3641 12.3162 16.8449" fill="#D9D9D9"/>
<path d="M4.3268 16.7952C4.30169 16.9086 4.28252 17.0242 4.26962 17.1414C4.25664 17.2594 4.25 17.379 4.25 17.5C4.25 19.2949 5.70507 20.75 7.5 20.75C9.29493 20.75 10.75 19.2949 10.75 17.5C10.75 17.2766 10.7274 17.0577 10.684 16.8458C10.3809 15.3645 9.07144 14.25 7.5 14.25C6.35041 14.25 5.34083 14.8474 4.76409 15.7452C4.59857 16.0029 4.46825 16.2858 4.38022 16.5869L4.3268 16.7952Z" fill="#D9D9D9"/>
</svg>
