<svg width="24" height="24" viewBox="0 0 24 24" fill="none" xmlns="http://www.w3.org/2000/svg">
<path d="M3.25 6C3.25 4.48122 4.48122 3.25 6 3.25H18C19.5188 3.25 20.75 4.48122 20.75 6V11.75H3.25V6Z" fill="#D9D9D9"/>
<path d="M5.25 18.5C5.25 17.2574 6.25736 16.25 7.5 16.25C8.74264 16.25 9.75 17.2574 9.75 18.5V19.5C9.75 20.7426 8.74264 21.75 7.5 21.75C6.25736 21.75 5.25 20.7426 5.25 19.5V18.5Z" fill="#D9D9D9"/>
<path d="M14.25 18.5C14.25 17.2574 15.2574 16.25 16.5 16.25C17.7426 16.25 18.75 17.2574 18.75 18.5V19.5C18.75 20.7426 17.7426 21.75 16.5 21.75C15.2574 21.75 14.25 20.7426 14.25 19.5V18.5Z" fill="#D9D9D9"/>
<path d="M20.75 10.25H3.25V16C3.25 17.5188 4.48122 18.75 6 18.75H18C19.5188 18.75 20.75 17.5188 20.75 16V10.25Z" fill="#5D5D5D"/>
<path fill-rule="evenodd" clip-rule="evenodd" d="M6.25 14C6.25 13.5858 6.58579 13.25 7 13.25H8C8.41421 13.25 8.75 13.5858 8.75 14C8.75 14.4142 8.41421 14.75 8 14.75H7C6.58579 14.75 6.25 14.4142 6.25 14ZM15.25 14C15.25 13.5858 15.5858 13.25 16 13.25H17C17.4142 13.25 17.75 13.5858 17.75 14C17.75 14.4142 17.4142 14.75 17 14.75H16C15.5858 14.75 15.25 14.4142 15.25 14Z" fill="#D9D9D9"/>
</svg>
