<svg width="24" height="24" viewBox="0 0 24 24" fill="none" xmlns="http://www.w3.org/2000/svg">
<path d="M20.75 8.25H3.25V18C3.25 19.5188 4.48122 20.75 6 20.75H18C19.5188 20.75 20.75 19.5188 20.75 18V8.25Z" fill="#D9D9D9"/>
<path d="M8 2.25C8.41421 2.25 8.75 2.58579 8.75 3V4.25H15.25V3C15.25 2.58579 15.5858 2.25 16 2.25C16.4142 2.25 16.75 2.58579 16.75 3V4.25H18C19.5188 4.25 20.75 5.48122 20.75 7V9.75H3.25V7C3.25 5.48122 4.48122 4.25 6 4.25H7.25V3C7.25 2.58579 7.58579 2.25 8 2.25Z" fill="#5D5D5D"/>
<path d="M15.5303 13.5303C15.8232 13.2374 15.8232 12.7626 15.5303 12.4697C15.2374 12.1768 14.7626 12.1768 14.4697 12.4697L11 15.9393L9.53033 14.4697C9.23744 14.1768 8.76256 14.1768 8.46967 14.4697C8.17678 14.7626 8.17678 15.2374 8.46967 15.5303L10.4697 17.5303C10.7626 17.8232 11.2374 17.8232 11.5303 17.5303L15.5303 13.5303Z" fill="#5D5D5D"/>
</svg>
