<svg width="23" height="24" viewBox="0 0 23 24" fill="none" xmlns="http://www.w3.org/2000/svg">
<path d="M19.8855 8.25H3.11462V18C3.11462 19.5188 4.29454 20.75 5.75004 20.75H17.25C18.7055 20.75 19.8855 19.5188 19.8855 18V8.25Z" fill="#D9D9D9"/>
<path d="M8.38546 3C8.38546 2.58579 8.06366 2.25 7.66671 2.25C7.26975 2.25 6.94796 2.58579 6.94796 3V4.25H5.75004C4.29454 4.25 3.11462 5.48122 3.11462 7V9.75H19.8855V7C19.8855 5.48122 18.7055 4.25 17.25 4.25H16.0521V3C16.0521 2.58579 15.7303 2.25 15.3334 2.25C14.9364 2.25 14.6146 2.58579 14.6146 3V4.25H8.38546V3Z" fill="#5D5D5D"/>
</svg>
