<svg width="24" height="24" viewBox="0 0 24 24" fill="none" xmlns="http://www.w3.org/2000/svg">
<path d="M8.94454 3.88383C7.8706 2.80988 6.1294 2.80988 5.05546 3.88383L4.05546 4.88382C3.53973 5.39955 3.25 6.09902 3.25 6.82837V8.6422C3.25 8.96533 3.30639 9.30548 3.45185 9.63303C3.86947 10.5734 5.18479 13.1787 8.003 15.9969C10.8212 18.8152 13.4265 20.1305 14.3669 20.5481C14.6945 20.6936 15.0346 20.7499 15.3577 20.7499H17.1716C17.9009 20.7499 18.6004 20.4602 19.1161 19.9445L20.1161 18.9445C21.1901 17.8705 21.1901 16.1293 20.1161 15.0554L18.6897 13.629C17.7628 12.7021 16.3105 12.5583 15.2197 13.2854L14.5497 13.7321C14.1705 13.9849 13.7137 13.9999 13.3654 13.7941C12.7282 13.4175 11.9886 12.9279 11.5303 12.4696C11.0721 12.0114 10.5824 11.2717 10.2059 10.6345C10.0001 10.2862 10.0151 9.82942 10.2678 9.45025L10.7145 8.7802C11.4417 7.68949 11.2979 6.23716 10.371 5.31024L8.94454 3.88383Z" fill="#5D5D5D"/>
<path fill-rule="evenodd" clip-rule="evenodd" d="M15.25 3C15.25 2.58579 15.5858 2.25 16 2.25H20C20.4142 2.25 20.75 2.58579 20.75 3V7C20.75 7.41421 20.4142 7.75 20 7.75C19.5858 7.75 19.25 7.41421 19.25 7V4.81066L15.5303 8.53033C15.2374 8.82322 14.7626 8.82322 14.4697 8.53033C14.1768 8.23744 14.1768 7.76256 14.4697 7.46967L18.1893 3.75H16C15.5858 3.75 15.25 3.41421 15.25 3Z" fill="#D9D9D9"/>
</svg>
