<svg width="24" height="24" viewBox="0 0 24 24" fill="none" xmlns="http://www.w3.org/2000/svg">
<path fill-rule="evenodd" clip-rule="evenodd" d="M9.82843 2.25C9.09908 2.25 8.39961 2.53973 7.88388 3.05546L7.05546 3.88388C6.82104 4.1183 6.50309 4.25 6.17157 4.25H5C3.48122 4.25 2.25 5.48122 2.25 7V17C2.25 18.5188 3.48122 19.75 5 19.75H19C20.5188 19.75 21.75 18.5188 21.75 17V7C21.75 5.48122 20.5188 4.25 19 4.25H17.8284C17.4969 4.25 17.179 4.1183 16.9445 3.88388L16.1161 3.05546C15.6004 2.53973 14.9009 2.25 14.1716 2.25H9.82843Z" fill="#5D5D5D"/>
<path d="M12 16C14.2091 16 16 14.2091 16 12C16 9.79086 14.2091 8 12 8C9.79086 8 8 9.79086 8 12C8 14.2091 9.79086 16 12 16Z" fill="#D9D9D9"/>
</svg>
