<svg width="24" height="24" viewBox="0 0 24 24" fill="none" xmlns="http://www.w3.org/2000/svg">
<path fill-rule="evenodd" clip-rule="evenodd" d="M9.21784 15.8316C9.21971 15.8233 9.22127 15.8171 9.22212 15.8138L9.21784 15.8316Z" fill="#5D5D5D"/>
<path fill-rule="evenodd" clip-rule="evenodd" d="M9.21784 15.8316C9.21971 15.8233 9.22127 15.8171 9.22212 15.8138L9.21784 15.8316Z" fill="#5D5D5D"/>
<path fill-rule="evenodd" clip-rule="evenodd" d="M13.7774 16.1893L13.78 16.1747C13.9321 15.3637 14.6451 14.75 15.5 14.75C15.6066 14.75 15.7109 14.7595 15.8123 14.7778C16.5142 14.9043 17.0716 15.4496 17.2143 16.1459L17.2112 16.1459L17.2151 16.1498L17.2202 16.1759L17.2226 16.1893C17.2406 16.2896 17.25 16.3934 17.25 16.5C17.25 16.9142 17.5858 17.25 18 17.25C18.3266 17.25 18.6044 17.0413 18.7073 16.75H19.3212C20.6626 16.75 21.75 15.6626 21.75 14.3212V12.6396C21.75 11.3287 20.8247 10.2001 19.5393 9.94301L16.5068 9.3365L15.2236 6.77016C14.7578 5.83851 13.8056 5.25 12.7639 5.25H6.07037C5.26583 5.25 4.50787 5.60183 3.98927 6.2023C3.91518 6.28809 3.84598 6.37894 3.78223 6.47457L2.71186 8.08013C2.4107 8.53186 2.25 9.06263 2.25 9.60555V14.872C2.25 15.9092 3.0908 16.75 4.12799 16.75C4.18309 16.75 4.23718 16.7476 4.29025 16.743C4.39122 17.038 4.67084 17.25 5 17.25C5.41421 17.25 5.75 16.9142 5.75 16.5C5.75 16.151 5.85141 15.8279 6.02611 15.556C6.33857 15.0696 6.8822 14.75 7.5 14.75C8.33479 14.75 9.03453 15.3352 9.2084 16.1182L9.21079 16.1323L9.21245 16.1412L9.2145 16.1554C9.21878 16.1857 9.22446 16.2276 9.23009 16.2739C9.24284 16.3787 9.25 16.464 9.25 16.5C9.25 16.9142 9.58579 17.25 10 17.25C10.3266 17.25 10.6044 17.0413 10.7073 16.75H12.2927C12.3956 17.0413 12.6734 17.25 13 17.25C13.4142 17.25 13.75 16.9142 13.75 16.5C13.75 16.3934 13.7594 16.2896 13.7774 16.1893ZM9.21784 15.8316C9.21971 15.8233 9.22127 15.8171 9.22212 15.8138L9.21784 15.8316Z" fill="#5D5D5D"/>
<path d="M10.25 6C10.25 5.58579 10.5858 5.25 11 5.25H12.7639C13.8056 5.25 14.7578 5.83851 15.2236 6.77016L16.6708 9.66459C16.7871 9.89708 16.7746 10.1732 16.638 10.3943C16.5013 10.6154 16.2599 10.75 16 10.75H13C11.4812 10.75 10.25 9.51878 10.25 8V6Z" fill="#D9D9D9"/>
<path d="M4.25 16.5C4.25 14.7051 5.70507 13.25 7.5 13.25C9.29493 13.25 10.75 14.7051 10.75 16.5C10.75 18.2949 9.29493 19.75 7.5 19.75C5.70507 19.75 4.25 18.2949 4.25 16.5Z" fill="#D9D9D9"/>
<path d="M12.25 16.5C12.25 14.7051 13.7051 13.25 15.5 13.25C17.2949 13.25 18.75 14.7051 18.75 16.5C18.75 18.2949 17.2949 19.75 15.5 19.75C13.7051 19.75 12.25 18.2949 12.25 16.5Z" fill="#D9D9D9"/>
</svg>
