<svg width="24" height="24" viewBox="0 0 24 24" fill="none" xmlns="http://www.w3.org/2000/svg">
<path fill-rule="evenodd" clip-rule="evenodd" d="M11.25 3C11.25 2.58579 11.5858 2.25 12 2.25H12.009C12.4232 2.25 12.759 2.58579 12.759 3C12.759 3.41421 12.4232 3.75 12.009 3.75H12C11.5858 3.75 11.25 3.41421 11.25 3ZM3.25 6C3.25 5.58579 3.58579 5.25 4 5.25H4.00898C4.4232 5.25 4.75898 5.58579 4.75898 6C4.75898 6.41421 4.4232 6.75 4.00898 6.75H4C3.58579 6.75 3.25 6.41421 3.25 6ZM11.25 6C11.25 5.58579 11.5858 5.25 12 5.25H12.009C12.4232 5.25 12.759 5.58579 12.759 6C12.759 6.41421 12.4232 6.75 12.009 6.75H12C11.5858 6.75 11.25 6.41421 11.25 6ZM19.25 6C19.25 5.58579 19.5858 5.25 20 5.25H20.009C20.4232 5.25 20.759 5.58579 20.759 6C20.759 6.41421 20.4232 6.75 20.009 6.75H20C19.5858 6.75 19.25 6.41421 19.25 6ZM5.25 8C5.25 7.58579 5.58579 7.25 6 7.25H6.00898C6.4232 7.25 6.75898 7.58579 6.75898 8C6.75898 8.41421 6.4232 8.75 6.00898 8.75H6C5.58579 8.75 5.25 8.41421 5.25 8ZM17.25 8C17.25 7.58579 17.5858 7.25 18 7.25H18.009C18.4232 7.25 18.759 7.58579 18.759 8C18.759 8.41421 18.4232 8.75 18.009 8.75H18C17.5858 8.75 17.25 8.41421 17.25 8ZM2.25 12C2.25 11.5858 2.58579 11.25 3 11.25H3.00898C3.4232 11.25 3.75898 11.5858 3.75898 12C3.75898 12.4142 3.4232 12.75 3.00898 12.75H3C2.58579 12.75 2.25 12.4142 2.25 12ZM4.25 12C4.25 11.5858 4.58579 11.25 5 11.25H5.00898C5.4232 11.25 5.75898 11.5858 5.75898 12C5.75898 12.4142 5.4232 12.75 5.00898 12.75H5C4.58579 12.75 4.25 12.4142 4.25 12ZM18.25 12C18.25 11.5858 18.5858 11.25 19 11.25H19.009C19.4232 11.25 19.759 11.5858 19.759 12C19.759 12.4142 19.4232 12.75 19.009 12.75H19C18.5858 12.75 18.25 12.4142 18.25 12ZM20.25 12C20.25 11.5858 20.5858 11.25 21 11.25H21.009C21.4232 11.25 21.759 11.5858 21.759 12C21.759 12.4142 21.4232 12.75 21.009 12.75H21C20.5858 12.75 20.25 12.4142 20.25 12ZM5.25 16C5.25 15.5858 5.58579 15.25 6 15.25H6.00898C6.4232 15.25 6.75898 15.5858 6.75898 16C6.75898 16.4142 6.4232 16.75 6.00898 16.75H6C5.58579 16.75 5.25 16.4142 5.25 16ZM17.25 16C17.25 15.5858 17.5858 15.25 18 15.25H18.009C18.4232 15.25 18.759 15.5858 18.759 16C18.759 16.4142 18.4232 16.75 18.009 16.75H18C17.5858 16.75 17.25 16.4142 17.25 16ZM3.25 18C3.25 17.5858 3.58579 17.25 4 17.25H4.00898C4.4232 17.25 4.75898 17.5858 4.75898 18C4.75898 18.4142 4.4232 18.75 4.00898 18.75H4C3.58579 18.75 3.25 18.4142 3.25 18ZM11.25 18C11.25 17.5858 11.5858 17.25 12 17.25H12.009C12.4232 17.25 12.759 17.5858 12.759 18C12.759 18.4142 12.4232 18.75 12.009 18.75H12C11.5858 18.75 11.25 18.4142 11.25 18ZM19.25 18C19.25 17.5858 19.5858 17.25 20 17.25H20.009C20.4232 17.25 20.759 17.5858 20.759 18C20.759 18.4142 20.4232 18.75 20.009 18.75H20C19.5858 18.75 19.25 18.4142 19.25 18ZM11.25 21C11.25 20.5858 11.5858 20.25 12 20.25H12.009C12.4232 20.25 12.759 20.5858 12.759 21C12.759 21.4142 12.4232 21.75 12.009 21.75H12C11.5858 21.75 11.25 21.4142 11.25 21Z" fill="#D9D9D9"/>
<path fill-rule="evenodd" clip-rule="evenodd" d="M10 8.75C9.86193 8.75 9.75 8.86193 9.75 9C9.75 9.13807 9.86193 9.25 10 9.25C10.1381 9.25 10.25 9.13807 10.25 9C10.25 8.86193 10.1381 8.75 10 8.75ZM8.25 9C8.25 8.0335 9.0335 7.25 10 7.25C10.9665 7.25 11.75 8.0335 11.75 9C11.75 9.9665 10.9665 10.75 10 10.75C9.0335 10.75 8.25 9.9665 8.25 9ZM14 8.75C13.8619 8.75 13.75 8.86193 13.75 9C13.75 9.13807 13.8619 9.25 14 9.25C14.1381 9.25 14.25 9.13807 14.25 9C14.25 8.86193 14.1381 8.75 14 8.75ZM12.25 9C12.25 8.0335 13.0335 7.25 14 7.25C14.9665 7.25 15.75 8.0335 15.75 9C15.75 9.9665 14.9665 10.75 14 10.75C13.0335 10.75 12.25 9.9665 12.25 9ZM8 11.75C7.86193 11.75 7.75 11.8619 7.75 12C7.75 12.1381 7.86193 12.25 8 12.25C8.13807 12.25 8.25 12.1381 8.25 12C8.25 11.8619 8.13807 11.75 8 11.75ZM6.25 12C6.25 11.0335 7.0335 10.25 8 10.25C8.9665 10.25 9.75 11.0335 9.75 12C9.75 12.9665 8.9665 13.75 8 13.75C7.0335 13.75 6.25 12.9665 6.25 12ZM16 11.75C15.8619 11.75 15.75 11.8619 15.75 12C15.75 12.1381 15.8619 12.25 16 12.25C16.1381 12.25 16.25 12.1381 16.25 12C16.25 11.8619 16.1381 11.75 16 11.75ZM14.25 12C14.25 11.0335 15.0335 10.25 16 10.25C16.9665 10.25 17.75 11.0335 17.75 12C17.75 12.9665 16.9665 13.75 16 13.75C15.0335 13.75 14.25 12.9665 14.25 12ZM10 14.75C9.86193 14.75 9.75 14.8619 9.75 15C9.75 15.1381 9.86193 15.25 10 15.25C10.1381 15.25 10.25 15.1381 10.25 15C10.25 14.8619 10.1381 14.75 10 14.75ZM8.25 15C8.25 14.0335 9.0335 13.25 10 13.25C10.9665 13.25 11.75 14.0335 11.75 15C11.75 15.9665 10.9665 16.75 10 16.75C9.0335 16.75 8.25 15.9665 8.25 15ZM14 14.75C13.8619 14.75 13.75 14.8619 13.75 15C13.75 15.1381 13.8619 15.25 14 15.25C14.1381 15.25 14.25 15.1381 14.25 15C14.25 14.8619 14.1381 14.75 14 14.75ZM12.25 15C12.25 14.0335 13.0335 13.25 14 13.25C14.9665 13.25 15.75 14.0335 15.75 15C15.75 15.9665 14.9665 16.75 14 16.75C13.0335 16.75 12.25 15.9665 12.25 15Z" fill="#5D5D5D"/>
</svg>
