<svg width="24" height="24" viewBox="0 0 24 24" fill="none" xmlns="http://www.w3.org/2000/svg">
<path d="M6 5.25C4.48122 5.25 3.25 6.48122 3.25 8V16C3.25 17.5188 4.48122 18.75 6 18.75H18C19.5188 18.75 20.75 17.5188 20.75 16V8C20.75 6.48122 19.5188 5.25 18 5.25H6Z" fill="#5D5D5D"/>
<path d="M3.25 8C3.25 6.48122 4.48122 5.25 6 5.25H18C19.5188 5.25 20.75 6.48122 20.75 8V10.75H3.25V8Z" fill="#D9D9D9"/>
<path d="M7 14.25C6.58579 14.25 6.25 14.5858 6.25 15C6.25 15.4142 6.58579 15.75 7 15.75H12C12.4142 15.75 12.75 15.4142 12.75 15C12.75 14.5858 12.4142 14.25 12 14.25H7Z" fill="#D9D9D9"/>
</svg>
