<svg width="24" height="24" viewBox="0 0 24 24" fill="none" xmlns="http://www.w3.org/2000/svg">
<path d="M8.63961 4.25C7.32874 4.25 6.2001 5.17527 5.94302 6.46068L5.26457 9.85291C5.2205 10.0732 5.27755 10.3017 5.42 10.4755C5.56245 10.6493 5.77531 10.75 6.00001 10.75H18C18.2247 10.75 18.4376 10.6493 18.58 10.4755C18.7225 10.3017 18.7795 10.0732 18.7354 9.85291L18.057 6.46068C17.7999 5.17526 16.6713 4.25 15.3604 4.25H8.63961Z" fill="#D9D9D9"/>
<path d="M7 15.25C5.48122 15.25 4.25 16.4812 4.25 18C4.25 19.5188 5.48122 20.75 7 20.75C8.51878 20.75 9.75 19.5188 9.75 18C9.75 16.4812 8.51878 15.25 7 15.25Z" fill="#D9D9D9"/>
<path d="M17 15.25C15.4812 15.25 14.25 16.4812 14.25 18C14.25 19.5188 15.4812 20.75 17 20.75C18.5188 20.75 19.75 19.5188 19.75 18C19.75 16.4812 18.5188 15.25 17 15.25Z" fill="#D9D9D9"/>
<path d="M6.47214 9.25C6.04521 9.25 5.62415 9.3494 5.2423 9.54033L4.77016 9.77639C3.83851 10.2422 3.25 11.1944 3.25 12.2361V16C3.25 16.9665 4.0335 17.75 5 17.75H19C19.9665 17.75 20.75 16.9665 20.75 16V12.2361C20.75 11.1944 20.1615 10.2422 19.2298 9.77639L18.7577 9.54033C18.3758 9.3494 17.9548 9.25 17.5279 9.25H6.47214Z" fill="#5D5D5D"/>
<path d="M7 12.25C6.58579 12.25 6.25 12.5858 6.25 13C6.25 13.4142 6.58579 13.75 7 13.75H8C8.41421 13.75 8.75 13.4142 8.75 13C8.75 12.5858 8.41421 12.25 8 12.25H7Z" fill="#D9D9D9"/>
<path d="M16 12.25C15.5858 12.25 15.25 12.5858 15.25 13C15.25 13.4142 15.5858 13.75 16 13.75H17C17.4142 13.75 17.75 13.4142 17.75 13C17.75 12.5858 17.4142 12.25 17 12.25H16Z" fill="#D9D9D9"/>
</svg>
