<svg width="24" height="24" viewBox="0 0 24 24" fill="none" xmlns="http://www.w3.org/2000/svg">
<path fill-rule="evenodd" clip-rule="evenodd" d="M13.4697 4.46973C14.8671 3.07226 17.1329 3.07227 18.5303 4.46973C19.9278 5.86719 19.9278 8.13293 18.5303 9.53039L16.5303 11.5304C16.2374 11.8233 15.7626 11.8233 15.4697 11.5304C15.1768 11.2375 15.1768 10.7626 15.4697 10.4697L17.4697 8.46973C18.2813 7.65805 18.2813 6.34207 17.4697 5.53039C16.658 4.71871 15.342 4.71871 14.5303 5.53039L11.5303 8.53039C9.67175 10.389 9.95459 11.894 10.5303 12.4697C10.8232 12.7626 10.8232 13.2375 10.5303 13.5304C10.2374 13.8233 9.76256 13.8233 9.46967 13.5304C8.04541 12.1061 8.32824 9.61115 10.4697 7.46973L13.4697 4.46973ZM12.4697 10.4697C12.7626 10.1768 13.2374 10.1768 13.5303 10.4697C14.1233 11.0627 14.5541 11.8037 14.3604 12.7721C14.1885 13.6316 13.5434 14.5173 12.5303 15.5304L9.53033 18.5304C8.13286 19.9278 5.86713 19.9278 4.46967 18.5304C3.0722 17.1329 3.07221 14.8672 4.46967 13.4697L6.46967 11.4697C6.76256 11.1768 7.23743 11.1768 7.53033 11.4697C7.82322 11.7626 7.82322 12.2375 7.53033 12.5304L5.53033 14.5304C4.71865 15.3421 4.71865 16.658 5.53033 17.4697C6.342 18.2814 7.65799 18.2814 8.46967 17.4697L11.4697 14.4697C12.4566 13.4828 12.8115 12.8685 12.8896 12.478C12.9459 12.1965 12.8767 11.9374 12.4697 11.5304C12.1768 11.2375 12.1768 10.7626 12.4697 10.4697Z" fill="#5D5D5D"/>
</svg>
