<svg width="24" height="24" viewBox="0 0 24 24" fill="none" xmlns="http://www.w3.org/2000/svg">
<path d="M8 3.25C7.58579 3.25 7.25 3.58579 7.25 4C7.25 4.41421 7.58579 4.75 8 4.75H8.53632L9.22762 6.13233L8.5368 11.6589C8.33163 13.3003 9.61144 14.75 11.2656 14.75H18.2344C19.6213 14.75 20.7912 13.7173 20.9632 12.3411L21.4632 8.3411C21.6684 6.69975 20.3886 5.25 18.7344 5.25H10.4635L9.6706 3.66454C9.54355 3.41048 9.28387 3.25 8.99981 3.25H8Z" fill="#5D5D5D"/>
<path d="M3 6.25C2.58579 6.25 2.25 6.58579 2.25 7C2.25 7.41421 2.58579 7.75 3 7.75H6C6.41421 7.75 6.75 7.41421 6.75 7C6.75 6.58579 6.41421 6.25 6 6.25H3Z" fill="#5D5D5D"/>
<path d="M3 10.25C2.58579 10.25 2.25 10.5858 2.25 11C2.25 11.4142 2.58579 11.75 3 11.75H5C5.41421 11.75 5.75 11.4142 5.75 11C5.75 10.5858 5.41421 10.25 5 10.25H3Z" fill="#5D5D5D"/>
<path d="M3 14.25C2.58579 14.25 2.25 14.5858 2.25 15C2.25 15.4142 2.58579 15.75 3 15.75H4C4.41421 15.75 4.75 15.4142 4.75 15C4.75 14.5858 4.41421 14.25 4 14.25H3Z" fill="#5D5D5D"/>
<path d="M10 16.25C9.0335 16.25 8.25 17.0335 8.25 18C8.25 18.9665 9.0335 19.75 10 19.75C10.9665 19.75 11.75 18.9665 11.75 18C11.75 17.0335 10.9665 16.25 10 16.25Z" fill="#D9D9D9"/>
<path d="M18 16.25C17.0335 16.25 16.25 17.0335 16.25 18C16.25 18.9665 17.0335 19.75 18 19.75C18.9665 19.75 19.75 18.9665 19.75 18C19.75 17.0335 18.9665 16.25 18 16.25Z" fill="#D9D9D9"/>
</svg>
