<svg width="24" height="24" viewBox="0 0 24 24" fill="none" xmlns="http://www.w3.org/2000/svg">
<path d="M12 2.25C6.61522 2.25 2.25 6.61522 2.25 12C2.25 17.3848 6.61522 21.75 12 21.75C17.3848 21.75 21.75 17.3848 21.75 12C21.75 6.61522 17.3848 2.25 12 2.25Z" fill="#5D5D5D"/>
<path fill-rule="evenodd" clip-rule="evenodd" d="M15.4685 9.41438C15.792 9.67313 15.8444 10.1451 15.5857 10.4685L11.5857 15.4685C11.4524 15.6351 11.2545 15.7371 11.0415 15.7489C10.8285 15.7607 10.6205 15.6812 10.4697 15.5304L8.46967 13.5304C8.17678 13.2375 8.17678 12.7626 8.46967 12.4697C8.76256 12.1768 9.23744 12.1768 9.53033 12.4697L10.9378 13.8772L14.4143 9.53151C14.6731 9.20806 15.1451 9.15562 15.4685 9.41438Z" fill="#D9D9D9"/>
</svg>
