<svg width="24" height="24" viewBox="0 0 24 24" fill="none" xmlns="http://www.w3.org/2000/svg">
<path d="M12.5215 2.46096C12.2307 2.17968 11.7693 2.17968 11.4785 2.46096L9.51713 4.35844L6.81499 3.97624C6.41444 3.91958 6.04113 4.19081 5.97123 4.58927L5.49972 7.27726L3.089 8.55632C2.73164 8.74593 2.58905 9.18478 2.76671 9.54822L3.96521 12L2.76671 14.4518C2.58905 14.8152 2.73164 15.2541 3.089 15.4437L5.49972 16.7227L5.97123 19.4107C6.04113 19.8092 6.41444 20.0804 6.81499 20.0238L9.51713 19.6416L11.4785 21.539C11.7693 21.8203 12.2307 21.8203 12.5215 21.539L14.4829 19.6416L17.1851 20.0238C17.5856 20.0804 17.9589 19.8092 18.0288 19.4107L18.5003 16.7227L20.911 15.4437C21.2684 15.2541 21.411 14.8152 21.2333 14.4518L20.0348 12L21.2333 9.54822C21.411 9.18478 21.2684 8.74593 20.911 8.55632L18.5003 7.27726L18.0288 4.58927C17.9589 4.19081 17.5856 3.91958 17.1851 3.97624L14.4829 4.35844L12.5215 2.46096Z" fill="#5D5D5D"/>
<path fill-rule="evenodd" clip-rule="evenodd" d="M15.4685 9.41438C15.792 9.67313 15.8444 10.1451 15.5857 10.4685L11.5857 15.4685C11.4524 15.6351 11.2545 15.7371 11.0415 15.7489C10.8285 15.7607 10.6205 15.6812 10.4697 15.5304L8.46967 13.5304C8.17678 13.2375 8.17678 12.7626 8.46967 12.4697C8.76256 12.1768 9.23744 12.1768 9.53033 12.4697L10.9378 13.8772L14.4143 9.53151C14.6731 9.20806 15.1451 9.15562 15.4685 9.41438Z" fill="#D9D9D9"/>
</svg>
