<svg width="24" height="24" viewBox="0 0 24 24" fill="none" xmlns="http://www.w3.org/2000/svg">
<path fill-rule="evenodd" clip-rule="evenodd" d="M9.5 2.25C9.91421 2.25 10.25 2.58579 10.25 3V6C10.25 6.41421 9.91421 6.75 9.5 6.75C9.08579 6.75 8.75 6.41421 8.75 6V3C8.75 2.58579 9.08579 2.25 9.5 2.25ZM14.5 2.25C14.9142 2.25 15.25 2.58579 15.25 3V6C15.25 6.41421 14.9142 6.75 14.5 6.75C14.0858 6.75 13.75 6.41421 13.75 6V3C13.75 2.58579 14.0858 2.25 14.5 2.25ZM2.25 9.5C2.25 9.08579 2.58579 8.75 3 8.75H6C6.41421 8.75 6.75 9.08579 6.75 9.5C6.75 9.91421 6.41421 10.25 6 10.25H3C2.58579 10.25 2.25 9.91421 2.25 9.5ZM17.25 9.5C17.25 9.08579 17.5858 8.75 18 8.75H21C21.4142 8.75 21.75 9.08579 21.75 9.5C21.75 9.91421 21.4142 10.25 21 10.25H18C17.5858 10.25 17.25 9.91421 17.25 9.5ZM2.25 14.5C2.25 14.0858 2.58579 13.75 3 13.75H6C6.41421 13.75 6.75 14.0858 6.75 14.5C6.75 14.9142 6.41421 15.25 6 15.25H3C2.58579 15.25 2.25 14.9142 2.25 14.5ZM17.25 14.5C17.25 14.0858 17.5858 13.75 18 13.75H21C21.4142 13.75 21.75 14.0858 21.75 14.5C21.75 14.9142 21.4142 15.25 21 15.25H18C17.5858 15.25 17.25 14.9142 17.25 14.5ZM9.5 17.25C9.91421 17.25 10.25 17.5858 10.25 18V21C10.25 21.4142 9.91421 21.75 9.5 21.75C9.08579 21.75 8.75 21.4142 8.75 21V18C8.75 17.5858 9.08579 17.25 9.5 17.25ZM14.5 17.25C14.9142 17.25 15.25 17.5858 15.25 18V21C15.25 21.4142 14.9142 21.75 14.5 21.75C14.0858 21.75 13.75 21.4142 13.75 21V18C13.75 17.5858 14.0858 17.25 14.5 17.25Z" fill="#D9D9D9"/>
<path d="M8 5.25C6.48122 5.25 5.25 6.48122 5.25 8V16C5.25 17.5188 6.48122 18.75 8 18.75H16C17.5188 18.75 18.75 17.5188 18.75 16V8C18.75 6.48122 17.5188 5.25 16 5.25H8Z" fill="#5D5D5D"/>
</svg>
