<svg width="24" height="24" viewBox="0 0 24 24" fill="none" xmlns="http://www.w3.org/2000/svg">
<path d="M10 2.25C9.58579 2.25 9.25 2.58579 9.25 3C9.25 3.41421 9.58579 3.75 10 3.75H11.25V6.28582C10.1754 6.38902 9.16486 6.71166 8.2638 7.20842L6.03096 4.9703C5.73841 4.67706 5.26354 4.6765 4.9703 4.96904C4.67706 5.26159 4.6765 5.73646 4.96904 6.0297L7.00702 8.0725C5.32103 9.49414 4.25 11.622 4.25 14C4.25 18.2802 7.71979 21.75 12 21.75C16.2802 21.75 19.75 18.2802 19.75 14C19.75 11.622 18.679 9.49414 16.993 8.0725L19.031 6.0297C19.3235 5.73646 19.3229 5.26159 19.0297 4.96904C18.7365 4.6765 18.2616 4.67706 17.969 4.9703L15.7362 7.20842C14.8351 6.71166 13.8246 6.38902 12.75 6.28582V3.75H14C14.4142 3.75 14.75 3.41421 14.75 3C14.75 2.58579 14.4142 2.25 14 2.25H10Z" fill="#5D5D5D"/>
<path fill-rule="evenodd" clip-rule="evenodd" d="M12 10.25C12.4142 10.25 12.75 10.5858 12.75 11V15C12.75 15.1989 12.671 15.3897 12.5303 15.5303L11.0303 17.0303C10.7374 17.3232 10.2626 17.3232 9.96967 17.0303C9.67678 16.7374 9.67678 16.2626 9.96967 15.9697L11.25 14.6893V11C11.25 10.5858 11.5858 10.25 12 10.25Z" fill="#D9D9D9"/>
</svg>
