<svg width="24" height="24" viewBox="0 0 24 24" fill="none" xmlns="http://www.w3.org/2000/svg">
<path fill-rule="evenodd" clip-rule="evenodd" d="M11.9696 3.96956C13.6433 2.29595 16.3567 2.29595 18.0303 3.96956C19.7039 5.64317 19.7039 8.35662 18.0303 10.0302L11.5303 16.5302C10.547 17.5135 8.95286 17.5135 7.96961 16.5302C6.98636 15.547 6.98636 13.9528 7.96961 12.9696L13.9696 6.96956C14.2625 6.67667 14.7374 6.67667 15.0303 6.96956C15.3232 7.26245 15.3232 7.73733 15.0303 8.03022L9.03027 14.0302C8.63281 14.4277 8.63281 15.0721 9.03027 15.4696C9.42773 15.867 10.0721 15.867 10.4696 15.4696L16.9696 8.96956C18.0575 7.88174 18.0575 6.11804 16.9696 5.03022C15.8818 3.9424 14.1181 3.9424 13.0303 5.03022L6.03031 12.0302C4.39021 13.6703 4.39021 16.3295 6.03031 17.9696C6.86096 18.8002 8.08363 19.3414 9.31749 19.4521C10.5506 19.5627 11.7006 19.2386 12.4696 18.4696L17.4696 13.4696C17.7625 13.1767 18.2374 13.1767 18.5303 13.4696C18.8232 13.7625 18.8232 14.2373 18.5303 14.5302L13.5303 19.5302C12.3677 20.6927 10.7342 21.0852 9.18351 20.9461C7.63353 20.8071 6.07199 20.1326 4.96965 19.0302C2.74376 16.8043 2.74376 13.1954 4.96965 10.9696L11.9696 3.96956Z" fill="#5D5D5D"/>
</svg>
