<svg width="24" height="24" viewBox="0 0 24 24" fill="none" xmlns="http://www.w3.org/2000/svg">
<path fill-rule="evenodd" clip-rule="evenodd" d="M20.2517 15.4701L20.6721 15.6744C21.0447 15.8555 21.4934 15.7003 21.6745 15.3278C21.8556 14.9552 21.7004 14.5065 21.3279 14.3254L20.9972 14.1646" fill="#5D5D5D"/>
<path d="M3.73413 11.8462L3.73301 11.8412C3.64555 11.4371 3.24734 11.1799 2.84282 11.2666C2.4378 11.3533 2.17991 11.7523 2.2667 12.1574L2.26694 12.1585L2.26733 12.1603L2.2684 12.1652L2.27171 12.1799C2.27444 12.1918 2.27824 12.2081 2.28318 12.2285C2.29306 12.2692 2.30752 12.3262 2.32715 12.3978C2.36639 12.5408 2.42646 12.7423 2.51223 12.9875C2.62587 13.3125 2.78545 13.7166 3.00278 14.1646L2.67212 14.3254C2.29958 14.5065 2.14437 14.9552 2.32545 15.3278C2.50653 15.7003 2.95532 15.8555 3.32786 15.6744L3.74835 15.4701C4.08822 15.9802 4.50135 16.5052 5.00018 17.0051L3.98766 17.9522C3.68515 18.2351 3.6693 18.7097 3.95225 19.0122C4.2352 19.3147 4.70981 19.3306 5.01232 19.0477L6.14939 17.9841C6.67645 18.3628 7.27115 18.7041 7.94107 18.9835L7.33408 20.1549C7.14351 20.5226 7.28716 20.9752 7.65493 21.1658C8.0227 21.3564 8.47532 21.2127 8.66589 20.845L9.38692 19.4535C9.96583 19.5925 10.5861 19.6867 11.25 19.7273V20.9999C11.25 21.4141 11.5858 21.7499 12 21.7499C12.4142 21.7499 12.75 21.4141 12.75 20.9999V19.7273C13.4139 19.6867 14.0341 19.5925 14.6131 19.4535L15.3341 20.845C15.5247 21.2127 15.9773 21.3564 16.345 21.1658C16.7128 20.9752 16.8565 20.5226 16.6659 20.1549L16.0589 18.9834C16.7222 18.7066 17.3131 18.3686 17.8383 17.9927L18.9753 19.106C19.2713 19.3958 19.7461 19.3908 20.0359 19.0948C20.3257 18.7988 20.3207 18.324 20.0247 18.0342L18.9869 17.0181C19.4919 16.5141 19.909 15.9847 20.2517 15.4701L20.6721 15.6744C21.0447 15.8555 21.4934 15.7003 21.6745 15.3278C21.8556 14.9552 21.7004 14.5065 21.3279 14.3254L20.9972 14.1646C21.2145 13.7166 21.3741 13.3125 21.4877 12.9875C21.5735 12.7423 21.6336 12.5408 21.6728 12.3978C21.6925 12.3262 21.7069 12.2692 21.7168 12.2285C21.7217 12.2081 21.7255 12.1918 21.7283 12.1799L21.7316 12.1652L21.7326 12.1603L21.7333 12.1571C21.8201 11.752 21.5622 11.3533 21.1571 11.2666C20.7522 11.1798 20.3535 11.4379 20.2666 11.8428L20.2658 11.8462L20.2591 11.8746C20.2526 11.9016 20.2418 11.9443 20.2263 12.0008C20.1952 12.1141 20.1452 12.2826 20.0718 12.4924C19.9248 12.9128 19.6859 13.4936 19.3216 14.1252C18.8817 14.8879 18.2649 15.7145 17.4154 16.4244C16.7125 17.0118 15.8463 17.5229 14.7782 17.8536C13.9798 18.1008 13.06 18.2499 12 18.2499C10.94 18.2499 10.0202 18.1008 9.22181 17.8536C8.1596 17.5248 7.29265 17.0153 6.58717 16.4265L6.58057 16.421C5.73206 15.7112 5.11765 14.8869 4.67834 14.1252C4.31406 13.4936 4.07518 12.9128 3.92814 12.4924C3.85478 12.2826 3.80475 12.1141 3.77368 12.0008C3.75815 11.9443 3.7474 11.9016 3.74085 11.8746L3.73413 11.8462Z" fill="#5D5D5D"/>
</svg>
