<svg width="24" height="24" viewBox="0 0 24 24" fill="none" xmlns="http://www.w3.org/2000/svg">
<path d="M12 2.25C9.37192 2.25 7.15689 4.01248 6.47008 6.41973C4.13909 6.9515 2.25 8.71034 2.25 11C2.25 13.7709 4.98919 15.75 8 15.75H16C19.0108 15.75 21.75 13.7709 21.75 11C21.75 8.71034 19.8609 6.9515 17.5299 6.41973C16.8431 4.01248 14.6281 2.25 12 2.25Z" fill="#5D5D5D"/>
<path fill-rule="evenodd" clip-rule="evenodd" d="M12 8.25C12.4142 8.25 12.75 8.58579 12.75 9V19.287L14.4913 17.6797C14.7957 17.3987 15.2702 17.4177 15.5511 17.7221C15.8321 18.0264 15.8131 18.5009 15.5087 18.7819L12.5087 21.5511C12.2214 21.8163 11.7786 21.8163 11.4913 21.5511L8.49129 18.7819C8.18693 18.5009 8.16795 18.0264 8.4489 17.7221C8.72985 17.4177 9.20435 17.3987 9.50871 17.6797L11.25 19.287V9C11.25 8.58579 11.5858 8.25 12 8.25Z" fill="#D9D9D9"/>
</svg>
