<svg width="24" height="24" viewBox="0 0 24 24" fill="none" xmlns="http://www.w3.org/2000/svg">
<path d="M11.25 15.75H8C4.98919 15.75 2.25 13.7709 2.25 11C2.25 8.71034 4.13909 6.9515 6.47008 6.41973C7.15689 4.01248 9.37192 2.25 12 2.25C14.6281 2.25 16.8431 4.01248 17.5299 6.41973C19.8609 6.9515 21.75 8.71034 21.75 11C21.75 13.7709 19.0108 15.75 16 15.75H12.75H11.25Z" fill="#5D5D5D"/>
<path fill-rule="evenodd" clip-rule="evenodd" d="M11.4913 8.4489C11.7786 8.1837 12.2214 8.1837 12.5087 8.4489L15.5087 11.2181C15.8131 11.4991 15.8321 11.9736 15.5511 12.2779C15.2701 12.5823 14.7957 12.6013 14.4913 12.3203L12.75 10.713V21C12.75 21.4142 12.4142 21.75 12 21.75C11.5858 21.75 11.25 21.4142 11.25 21V10.713L9.50871 12.3203C9.20434 12.6013 8.72985 12.5823 8.4489 12.2779C8.16794 11.9736 8.18692 11.4991 8.49129 11.2181L11.4913 8.4489Z" fill="#D9D9D9"/>
</svg>
