<svg width="24" height="24" viewBox="0 0 24 24" fill="none" xmlns="http://www.w3.org/2000/svg">
<path d="M7.5 2.25C9.61456 2.25 11.4356 3.49977 12.2676 5.29915C12.5497 5.40691 12.75 5.68005 12.75 6C12.75 6.41421 12.4142 6.75 12 6.75C11.9274 6.75 11.8552 6.75181 11.7836 6.7554C9.806 6.85428 8.18252 8.30693 7.82396 10.2057C7.76464 10.5198 7.51275 10.7618 7.19651 10.8085C6.394 10.927 5.68058 11.2182 5.11569 11.6195C4.8421 11.8138 4.47269 11.8028 4.2112 11.5924C3.01662 10.6314 2.25 9.15495 2.25 7.5C2.25 4.6005 4.6005 2.25 7.5 2.25Z" fill="#D9D9D9"/>
<path d="M12 5.25C11.9024 5.25 11.8053 5.25244 11.7087 5.25727C9.2091 5.38225 7.13161 7.10172 6.47022 9.41921C5.64407 9.60623 4.88655 9.94228 4.24697 10.3966C3.06019 11.2397 2.25 12.5188 2.25 14C2.25 16.7709 4.98919 18.75 8 18.75H16C19.0108 18.75 21.75 16.7709 21.75 14C21.75 11.7103 19.8609 9.9515 17.5299 9.41973C16.8431 7.01248 14.6281 5.25 12 5.25Z" fill="#5D5D5D"/>
</svg>
