<svg width="24" height="24" viewBox="0 0 24 24" fill="none" xmlns="http://www.w3.org/2000/svg">
<path d="M10.0346 13.7859C9.99119 13.7774 9.94937 13.7653 9.90942 13.75H6.88889C4.51951 13.75 2.25 12.2404 2.25 10C2.25 8.18204 3.76476 6.83616 5.57264 6.40277C6.16658 4.56188 7.93726 3.25 10 3.25C12.0627 3.25 13.8334 4.56189 14.4274 6.40278C16.2352 6.83617 17.75 8.18203 17.75 10C17.75 10.5073 17.6262 10.9886 17.4071 11.4237C17.3001 11.6359 17.0989 11.7849 16.8647 11.8253C16.6305 11.8657 16.3909 11.7927 16.2191 11.6285C15.6531 11.0876 14.8706 10.75 14 10.75C12.4619 10.75 11.2078 11.8008 10.9228 13.1545L10.9189 13.1732L10.9148 13.194C10.8352 13.6005 10.4411 13.8655 10.0346 13.7859Z" fill="#D9D9D9"/>
<path d="M13.5832 9.26798C12.507 9.36123 11.531 9.81209 10.789 10.502C10.2337 11.0183 9.80956 11.6684 9.57264 12.4028C7.76476 12.8362 6.25 14.182 6.25 16C6.25 18.2404 8.51951 19.75 10.8889 19.75H17.1111C19.4805 19.75 21.75 18.2404 21.75 16C21.75 14.182 20.2352 12.8361 18.4272 12.4027C18.1964 11.6881 17.7878 11.0527 17.2554 10.544C16.416 9.74188 15.2644 9.25 14 9.25C13.8596 9.25 13.7206 9.25608 13.5832 9.26798Z" fill="#5D5D5D"/>
</svg>
