<svg width="24" height="24" viewBox="0 0 24 24" fill="none" xmlns="http://www.w3.org/2000/svg">
<path d="M9.03182 17.9682C8.669 18.7278 7.89475 19.25 7 19.25C6.58579 19.25 6.25 19.5858 6.25 20C6.25 20.4142 6.58579 20.75 7 20.75H18C19.5188 20.75 20.75 19.5188 20.75 18V16C20.75 14.4812 19.5188 13.25 18 13.25H14.8284C14.0991 13.25 13.3996 13.5397 12.8839 14.0555L9.93934 17H9.25C9.25 17.3481 9.17145 17.6758 9.03182 17.9682Z" fill="black"/>
<path fill-rule="evenodd" clip-rule="evenodd" d="M16.9445 5.88382C15.8706 4.80988 14.1294 4.80988 13.0555 5.88383L10.0555 8.88383C9.53973 9.39955 9.25 10.099 9.25 10.8284V16.9999C9.25 17.2908 9.37877 17.5166 9.49004 17.6561C9.60615 17.8017 9.75056 17.9151 9.89572 17.9952C10.0384 18.0739 10.2233 18.1432 10.4315 18.1549C10.643 18.1669 10.9422 18.1184 11.1829 17.8777L18.1161 10.9445C19.1901 9.87054 19.1901 8.12934 18.1161 7.0554L16.9445 5.88382Z" fill="#5D5D5D"/>
<path d="M7 16.2499C6.58579 16.2499 6.25 16.5857 6.25 16.9999C6.25 17.4142 6.58579 17.7499 7 17.7499H7.00898C7.4232 17.7499 7.75898 17.4142 7.75898 16.9999C7.75898 16.5857 7.4232 16.2499 7.00898 16.2499H7Z" fill="#5D5D5D"/>
<path d="M6 3.25C4.48122 3.25 3.25 4.48122 3.25 6V17C3.25 19.0711 4.92893 20.75 7 20.75C8.49425 20.75 9.78288 19.876 10.3853 18.6147C10.6194 18.1247 10.75 17.5766 10.75 17V6C10.75 4.48122 9.51878 3.25 8 3.25H6Z" fill="#D9D9D9"/>
<path fill-rule="evenodd" clip-rule="evenodd" d="M7 17H7.00898Z" fill="#D9D9D9"/>
<path d="M7 17H7.00898" stroke="#5D5D5D" stroke-width="1.5" stroke-linecap="round" stroke-linejoin="round"/>
</svg>
