<svg width="24" height="24" viewBox="0 0 24 24" fill="none" xmlns="http://www.w3.org/2000/svg">
<path d="M3.33269 18.6574L3.3292 18.6644C3.19825 18.9264 3.23163 19.2408 3.4149 19.4693C3.59817 19.6978 3.89832 19.7985 4.18247 19.7274L4.35316 19.685C4.46295 19.6578 4.62049 19.6189 4.81114 19.5722C5.19262 19.4788 5.7059 19.3544 6.23421 19.2301C6.76346 19.1055 7.30366 18.9821 7.74037 18.8902C7.95923 18.8441 8.14678 18.807 8.29152 18.7819C8.40943 18.7614 8.47109 18.7539 8.49264 18.7513C8.50155 18.7502 8.50361 18.75 8.49993 18.75C8.63962 18.75 8.84591 18.7873 9.14131 18.8752C9.38683 18.9481 9.64937 19.0417 9.94448 19.1469L10.1127 19.2068C10.7984 19.4501 11.6684 19.75 12.4999 19.75C17.0563 19.75 20.7499 16.0563 20.7499 11.5C20.7499 6.94365 17.0563 3.25 12.4999 3.25C7.94358 3.25 4.24993 6.94365 4.24993 11.5C4.24993 11.9995 4.37979 12.6627 4.49365 13.2443L4.51382 13.3474C4.64328 14.0107 4.74993 14.5879 4.74993 15C4.74993 15.1162 4.69457 15.3881 4.55404 15.8097C4.42269 16.2037 4.24413 16.6512 4.06057 17.0796C3.87785 17.5059 3.6945 17.9032 3.5565 18.1946C3.48762 18.34 3.43034 18.4584 3.39045 18.54C3.37052 18.5808 3.35495 18.6124 3.34448 18.6336L3.33269 18.6574Z" fill="#5D5D5D"/>
</svg>
