<svg width="24" height="24" viewBox="0 0 24 24" fill="none" xmlns="http://www.w3.org/2000/svg">
<path d="M12.5303 3.46967C12.2374 3.17678 11.7626 3.17678 11.4697 3.46967L8.46967 6.46967C8.17678 6.76256 8.17678 7.23744 8.46967 7.53033L11.4697 10.5303C11.7626 10.8232 12.2374 10.8232 12.5303 10.5303L15.5303 7.53033C15.8232 7.23744 15.8232 6.76256 15.5303 6.46967L12.5303 3.46967Z" fill="#5D5D5D"/>
<path d="M7.53033 8.46967C7.23744 8.17678 6.76256 8.17678 6.46967 8.46967L3.46967 11.4697C3.17678 11.7626 3.17678 12.2374 3.46967 12.5303L6.46967 15.5303C6.76256 15.8232 7.23744 15.8232 7.53033 15.5303L10.5303 12.5303C10.8232 12.2374 10.8232 11.7626 10.5303 11.4697L7.53033 8.46967Z" fill="#5D5D5D"/>
<path d="M17.5303 8.46967C17.2374 8.17678 16.7626 8.17678 16.4697 8.46967L13.4697 11.4697C13.1768 11.7626 13.1768 12.2374 13.4697 12.5303L16.4697 15.5303C16.7626 15.8232 17.2374 15.8232 17.5303 15.5303L20.5303 12.5303C20.8232 12.2374 20.8232 11.7626 20.5303 11.4697L17.5303 8.46967Z" fill="#5D5D5D"/>
<path d="M12.5303 13.4697C12.2374 13.1768 11.7626 13.1768 11.4697 13.4697L8.46967 16.4697C8.17678 16.7626 8.17678 17.2374 8.46967 17.5303L11.4697 20.5303C11.7626 20.8232 12.2374 20.8232 12.5303 20.5303L15.5303 17.5303C15.8232 17.2374 15.8232 16.7626 15.5303 16.4697L12.5303 13.4697Z" fill="#5D5D5D"/>
</svg>
