<svg width="24" height="24" viewBox="0 0 24 24" fill="none" xmlns="http://www.w3.org/2000/svg">
<path fill-rule="evenodd" clip-rule="evenodd" d="M12 2.25C6.61522 2.25 2.25 6.61522 2.25 12C2.25 17.3848 6.61522 21.75 12 21.75C17.3848 21.75 21.75 17.3848 21.75 12C21.75 6.61522 17.3848 2.25 12 2.25Z" fill="#5D5D5D"/>
<path d="M16.7115 8.23719C16.8014 7.96769 16.7312 7.67056 16.5303 7.46969C16.3295 7.26882 16.0324 7.19867 15.7628 7.28851L9.76285 9.28851C9.5389 9.36316 9.36316 9.5389 9.28851 9.76285L7.28851 15.7628C7.19867 16.0324 7.26882 16.3295 7.46969 16.5303C7.67056 16.7312 7.96769 16.8014 8.23719 16.7115L14.2372 14.7115C14.4611 14.6369 14.6369 14.4611 14.7115 14.2372L16.7115 8.23719Z" fill="#D9D9D9"/>
</svg>
