<svg width="24" height="24" viewBox="0 0 24 24" fill="none" xmlns="http://www.w3.org/2000/svg">
<path d="M12.6431 2.61413C12.5075 2.38822 12.2634 2.25 12 2.25C11.7365 2.25 11.4924 2.38822 11.3568 2.61413L3.05149 16.4564C2.86488 16.7674 2.92758 17.1674 3.2004 17.4064C3.47323 17.6454 3.87799 17.6549 4.16175 17.429C4.71016 16.9924 5.72134 16.5631 7.12004 16.2469C8.49765 15.9355 10.1781 15.75 12 15.75C13.8219 15.75 15.5023 15.9355 16.8799 16.2469C18.2786 16.5631 19.2898 16.9924 19.8382 17.429C20.1219 17.6549 20.5267 17.6454 20.7995 17.4064C21.0724 17.1674 21.1351 16.7674 20.9484 16.4564L12.6431 2.61413Z" fill="#5D5D5D"/>
<path d="M12 14.25C10.0825 14.25 8.28974 14.4446 6.78932 14.7838C5.30999 15.1182 4.03822 15.6101 3.2275 16.2555C2.69404 16.6802 2.25 17.2644 2.25 18C2.25 18.7425 2.70213 19.3305 3.24303 19.7568C3.79239 20.1897 4.54085 20.5468 5.39887 20.8328C7.12274 21.4075 9.45654 21.75 12 21.75C14.5435 21.75 16.8773 21.4075 18.6011 20.8328C19.4591 20.5468 20.2076 20.1897 20.757 19.7568C21.2979 19.3305 21.75 18.7425 21.75 18C21.75 17.2644 21.306 16.6802 20.7725 16.2555C19.9618 15.6101 18.69 15.1182 17.2107 14.7838C15.7103 14.4446 13.9175 14.25 12 14.25Z" fill="#D9D9D9"/>
</svg>
