<svg width="24" height="24" viewBox="0 0 24 24" fill="none" xmlns="http://www.w3.org/2000/svg">
<path d="M12 9.25C10.6018 9.25 9.37434 9.49193 8.27168 10.0433C7.16901 10.5946 6.239 11.4314 5.40004 12.55C5.15152 12.8814 5.21867 13.3515 5.55004 13.6C5.88142 13.8485 6.35152 13.7814 6.60004 13.45C7.33292 12.4728 8.09305 11.8096 8.9425 11.3849C9.79195 10.9602 10.7786 10.75 12 10.75C13.2215 10.75 14.2081 10.9602 15.0576 11.3849C15.907 11.8096 16.6672 12.4728 17.4 13.45C17.6486 13.7814 18.1187 13.8485 18.45 13.6C18.7814 13.3515 18.8486 12.8814 18.6 12.55C17.7611 11.4314 16.8311 10.5946 15.7284 10.0433C14.6257 9.49193 13.3983 9.25 12 9.25Z" fill="#5D5D5D"/>
<path d="M9.25004 17C9.25004 15.4812 10.4813 14.25 12 14.25C13.5188 14.25 14.75 15.4812 14.75 17C14.75 18.5188 13.5188 19.75 12 19.75C10.4813 19.75 9.25004 18.5188 9.25004 17Z" fill="#5D5D5D"/>
</svg>
