<svg width="24" height="24" viewBox="0 0 24 24" fill="none" xmlns="http://www.w3.org/2000/svg">
<path d="M3.55671 9.50258C4.79432 8.13168 6.00081 7.20498 7.32879 6.61476C8.65677 6.02455 10.1531 5.75 12 5.75C13.8469 5.75 15.3432 6.02455 16.6712 6.61476C17.9992 7.20498 19.2057 8.13168 20.4433 9.50258C20.7209 9.81003 21.1951 9.83427 21.5026 9.5567C21.81 9.27913 21.8343 8.80488 21.5567 8.49742C20.217 7.01339 18.8466 5.9401 17.2804 5.24404C15.7143 4.54799 13.9993 4.25 12 4.25C10.0007 4.25 8.2857 4.54799 6.71958 5.24404C5.15346 5.9401 3.78305 7.01339 2.44331 8.49742C2.16574 8.80488 2.18997 9.27913 2.49743 9.5567C2.80489 9.83427 3.27914 9.81003 3.55671 9.50258Z" fill="#5D5D5D"/>
<path d="M12 9.25C10.6017 9.25 9.3743 9.49193 8.27164 10.0433C7.16897 10.5946 6.23896 11.4314 5.40001 12.55C5.15148 12.8814 5.21864 13.3515 5.55001 13.6C5.88138 13.8485 6.35148 13.7814 6.60001 13.45C7.33288 12.4728 8.09301 11.8096 8.94246 11.3849C9.79191 10.9602 10.7786 10.75 12 10.75C13.2215 10.75 14.2081 10.9602 15.0576 11.3849C15.907 11.8096 16.6671 12.4728 17.4 13.45C17.6485 13.7814 18.1186 13.8485 18.45 13.6C18.7814 13.3515 18.8485 12.8814 18.6 12.55C17.761 11.4314 16.831 10.5946 15.7284 10.0433C14.6257 9.49193 13.3983 9.25 12 9.25Z" fill="#5D5D5D"/>
<path d="M9.25 17C9.25 15.4812 10.4812 14.25 12 14.25C13.5188 14.25 14.75 15.4812 14.75 17C14.75 18.5188 13.5188 19.75 12 19.75C10.4812 19.75 9.25 18.5188 9.25 17Z" fill="#5D5D5D"/>
</svg>
