<svg width="24" height="24" viewBox="0 0 24 24" fill="none" xmlns="http://www.w3.org/2000/svg">
<path d="M3.75 12C3.75 7.44365 7.44365 3.75 12 3.75C16.5563 3.75 20.25 7.44365 20.25 12C20.25 14.2784 19.3274 16.3399 17.8336 17.8336C17.5407 18.1265 17.5407 18.6014 17.8336 18.8943C18.1265 19.1872 18.6014 19.1872 18.8943 18.8943C20.6579 17.1307 21.75 14.6922 21.75 12C21.75 6.61522 17.3848 2.25 12 2.25C6.61522 2.25 2.25 6.61522 2.25 12C2.25 14.6922 3.34213 17.1307 5.10571 18.8943C5.3986 19.1872 5.87348 19.1872 6.16637 18.8943C6.45926 18.6014 6.45926 18.1265 6.16637 17.8336C4.67259 16.3399 3.75 14.2784 3.75 12Z" fill="#5D5D5D"/>
<path d="M7.75 12C7.75 9.65279 9.65279 7.75 12 7.75C14.3472 7.75 16.25 9.65279 16.25 12C16.25 13.1738 15.7751 14.2353 15.0052 15.0052C14.7123 15.2981 14.7123 15.773 15.0052 16.0659C15.2981 16.3588 15.773 16.3588 16.0659 16.0659C17.1056 15.0261 17.75 13.5876 17.75 12C17.75 8.82436 15.1756 6.25 12 6.25C8.82436 6.25 6.25 8.82436 6.25 12C6.25 13.5876 6.89441 15.0261 7.93414 16.0659C8.22703 16.3588 8.7019 16.3588 8.9948 16.0659C9.28769 15.773 9.28769 15.2981 8.9948 15.0052C8.22488 14.2353 7.75 13.1738 7.75 12Z" fill="#5D5D5D"/>
<path d="M12 10.25C11.0335 10.25 10.25 11.0335 10.25 12C10.25 12.9665 11.0335 13.75 12 13.75C12.9665 13.75 13.75 12.9665 13.75 12C13.75 11.0335 12.9665 10.25 12 10.25Z" fill="#5D5D5D"/>
</svg>
