<svg width="24" height="24" viewBox="0 0 24 24" fill="none" xmlns="http://www.w3.org/2000/svg">
<path fill-rule="evenodd" clip-rule="evenodd" d="M3.46967 3.46967C3.76256 3.17678 4.23744 3.17678 4.53033 3.46967L9.25 8.18934V5C9.25 4.58579 9.58579 4.25 10 4.25C10.4142 4.25 10.75 4.58579 10.75 5V10C10.75 10.4142 10.4142 10.75 10 10.75H5C4.58579 10.75 4.25 10.4142 4.25 10C4.25 9.58579 4.58579 9.25 5 9.25H8.18934L3.46967 4.53033C3.17678 4.23744 3.17678 3.76256 3.46967 3.46967ZM20.5303 3.46967C20.8232 3.76256 20.8232 4.23744 20.5303 4.53033L15.8107 9.25H19C19.4142 9.25 19.75 9.58579 19.75 10C19.75 10.4142 19.4142 10.75 19 10.75H14C13.5858 10.75 13.25 10.4142 13.25 10V5C13.25 4.58579 13.5858 4.25 14 4.25C14.4142 4.25 14.75 4.58579 14.75 5V8.18934L19.4697 3.46967C19.7626 3.17678 20.2374 3.17678 20.5303 3.46967ZM5 14.75C4.58579 14.75 4.25 14.4142 4.25 14C4.25 13.5858 4.58579 13.25 5 13.25H10C10.4142 13.25 10.75 13.5858 10.75 14V19C10.75 19.4142 10.4142 19.75 10 19.75C9.58579 19.75 9.25 19.4142 9.25 19V15.8107L4.53033 20.5303C4.23744 20.8232 3.76256 20.8232 3.46967 20.5303C3.17678 20.2374 3.17678 19.7626 3.46967 19.4697L8.18934 14.75H5ZM14 13.25H19C19.4142 13.25 19.75 13.5858 19.75 14C19.75 14.4142 19.4142 14.75 19 14.75H15.8107L20.5303 19.4697C20.8232 19.7626 20.8232 20.2374 20.5303 20.5303C20.2374 20.8232 19.7626 20.8232 19.4697 20.5303L14.75 15.8107V19C14.75 19.4142 14.4142 19.75 14 19.75C13.5858 19.75 13.25 19.4142 13.25 19V14C13.25 13.5858 13.5858 13.25 14 13.25Z" fill="#5D5D5D"/>
</svg>
