<svg width="24" height="24" viewBox="0 0 24 24" fill="none" xmlns="http://www.w3.org/2000/svg">
<path fill-rule="evenodd" clip-rule="evenodd" d="M4.25 5C4.25 3.48122 5.48122 2.25 7 2.25H17C18.5188 2.25 19.75 3.48122 19.75 5V19C19.75 20.5188 18.5188 21.75 17 21.75H7C5.48122 21.75 4.25 20.5188 4.25 19V5Z" fill="#5D5D5D"/>
<path fill-rule="evenodd" clip-rule="evenodd" d="M2.25 6C2.25 5.58579 2.58579 5.25 3 5.25H5C5.41421 5.25 5.75 5.58579 5.75 6C5.75 6.41421 5.41421 6.75 5 6.75H3C2.58579 6.75 2.25 6.41421 2.25 6ZM2.25 10C2.25 9.58579 2.58579 9.25 3 9.25H5C5.41421 9.25 5.75 9.58579 5.75 10C5.75 10.4142 5.41421 10.75 5 10.75H3C2.58579 10.75 2.25 10.4142 2.25 10ZM2.25 14C2.25 13.5858 2.58579 13.25 3 13.25H5C5.41421 13.25 5.75 13.5858 5.75 14C5.75 14.4142 5.41421 14.75 5 14.75H3C2.58579 14.75 2.25 14.4142 2.25 14ZM2.25 18C2.25 17.5858 2.58579 17.25 3 17.25H5C5.41421 17.25 5.75 17.5858 5.75 18C5.75 18.4142 5.41421 18.75 5 18.75H3C2.58579 18.75 2.25 18.4142 2.25 18Z" fill="#D9D9D9"/>
<path d="M12 6.25C10.4812 6.25 9.25 7.48122 9.25 9C9.25 10.5188 10.4812 11.75 12 11.75C13.5188 11.75 14.75 10.5188 14.75 9C14.75 7.48122 13.5188 6.25 12 6.25Z" fill="#D9D9D9"/>
<path d="M12 13.25C10.8042 13.25 9.68461 13.4907 8.83616 13.915C8.03258 14.3168 7.25 15.0106 7.25 16C7.25 16.9894 8.03258 17.6832 8.83616 18.085C9.68461 18.5093 10.8042 18.75 12 18.75C13.1958 18.75 14.3154 18.5093 15.1638 18.085C15.9674 17.6832 16.75 16.9894 16.75 16C16.75 15.0106 15.9674 14.3168 15.1638 13.915C14.3154 13.4907 13.1958 13.25 12 13.25Z" fill="#D9D9D9"/>
</svg>
