<svg width="24" height="24" viewBox="0 0 24 24" fill="none" xmlns="http://www.w3.org/2000/svg">
<path d="M3 5.25C2.58579 5.25 2.25 5.58579 2.25 6V9C2.25 9.41421 2.58579 9.75 3 9.75C4.24264 9.75 5.25 10.7574 5.25 12C5.25 13.2426 4.24264 14.25 3 14.25C2.58579 14.25 2.25 14.5858 2.25 15V18C2.25 18.4142 2.58579 18.75 3 18.75H21C21.4142 18.75 21.75 18.4142 21.75 18V15C21.75 14.5858 21.4142 14.25 21 14.25C19.7574 14.25 18.75 13.2426 18.75 12C18.75 10.7574 19.7574 9.75 21 9.75C21.4142 9.75 21.75 9.41421 21.75 9V6C21.75 5.58579 21.4142 5.25 21 5.25H3Z" fill="#5D5D5D"/>
<path fill-rule="evenodd" clip-rule="evenodd" d="M14.75 5.25V7C14.75 7.41421 14.4142 7.75 14 7.75C13.5858 7.75 13.25 7.41421 13.25 7V5.25H14.75ZM14 9.75C14.4142 9.75 14.75 10.0858 14.75 10.5V13C14.75 13.4142 14.4142 13.75 14 13.75C13.5858 13.75 13.25 13.4142 13.25 13V10.5C13.25 10.0858 13.5858 9.75 14 9.75ZM14 16.25C14.4142 16.25 14.75 16.5858 14.75 17V18.75H13.25V17C13.25 16.5858 13.5858 16.25 14 16.25Z" fill="#D9D9D9"/>
</svg>
