<svg width="24" height="24" viewBox="0 0 24 24" fill="none" xmlns="http://www.w3.org/2000/svg">
<path d="M12 2.25C6.61522 2.25 2.25 6.61522 2.25 12C2.25 17.3848 6.61522 21.75 12 21.75C17.3848 21.75 21.75 17.3848 21.75 12C21.75 10.9508 21.584 9.93887 21.2763 8.98993C20.3008 5.98169 17.9044 3.61543 14.8773 2.68173C14.8081 2.66038 14.7386 2.63979 14.6688 2.61995C13.8197 2.37882 12.9243 2.25 12 2.25Z" fill="#D9D9D9"/>
<path fill-rule="evenodd" clip-rule="evenodd" d="M14.8773 2.68178C14.6132 2.6003 14.3257 2.67071 14.1291 2.865L9.47283 7.46661C9.2565 7.68041 9.1907 8.00369 9.30627 8.28503C9.42114 8.56469 9.69261 8.74787 9.99458 8.75004L9.99879 8.75016C10.0056 8.75038 10.0195 8.75094 10.04 8.75231C10.0809 8.75504 10.1481 8.76097 10.2377 8.77378C10.417 8.7994 10.6852 8.85236 11.0129 8.96158C11.6656 9.17915 12.5613 9.62202 13.4697 10.5304C14.3781 11.4388 14.8209 12.3345 15.0385 12.9872C15.1477 13.3149 15.2007 13.583 15.2263 13.7624C15.2391 13.852 15.245 13.9191 15.2478 13.9601C15.2491 13.9806 15.2497 13.9945 15.2499 14.0013L15.25 14.0055C15.2522 14.3098 15.4382 14.5829 15.721 14.6962C16.0055 14.8103 16.3308 14.7397 16.5425 14.518L21.1053 9.73926C21.2957 9.5399 21.3613 9.25218 21.2763 8.98997C20.3008 5.98174 17.9044 3.61548 14.8773 2.68178Z" fill="#5D5D5D"/>
<path d="M10 8V7.25H10.0016L10.0033 7.25001L10.0074 7.25003L10.0177 7.25016L10.0471 7.25088C10.0706 7.25163 10.1016 7.25303 10.1397 7.25557C10.216 7.26065 10.3207 7.27034 10.4498 7.28879C10.708 7.32567 11.0648 7.39771 11.4872 7.53849C12.3345 7.82091 13.4387 8.37805 14.5303 9.46967C15.622 10.5613 16.1791 11.6656 16.4615 12.5128C16.6023 12.9352 16.6743 13.292 16.7112 13.5502C16.7297 13.6793 16.7394 13.784 16.7444 13.8603C16.747 13.8984 16.7484 13.9294 16.7491 13.9529L16.7499 13.9823L16.75 13.9926L16.75 13.9967L16.75 13.9984C16.75 13.9988 16.75 14 16 14H16.75C16.75 14.3442 16.5158 14.6441 16.1819 14.7276L8.18192 16.7276C7.92634 16.7915 7.65597 16.7166 7.46969 16.5303C7.2834 16.344 7.20851 16.0737 7.27241 15.8181L9.27241 7.8181C9.35588 7.48422 9.65587 7.25 10 7.25C9.99965 7.25005 10 7.25594 10 8Z" fill="black"/>
</svg>
