<svg width="24" height="24" viewBox="0 0 24 24" fill="none" xmlns="http://www.w3.org/2000/svg">
<path d="M12 21.75C10.4869 21.75 9.05231 21.4048 7.77258 20.7882L7.75256 20.7785C7.72369 20.7645 7.69491 20.7504 7.66623 20.7361C4.45767 19.1416 2.25 15.8293 2.25 12C2.25 6.61522 6.61522 2.25 12 2.25C17.3848 2.25 21.75 6.61522 21.75 12C21.75 15.7031 19.6853 18.9228 16.6479 20.5728C16.5444 20.6291 16.4396 20.6835 16.3338 20.7361C15.0274 21.3853 13.5552 21.75 12 21.75Z" fill="#D9D9D9"/>
<path d="M8.53033 13.4697C8.31583 13.2552 7.99324 13.191 7.71299 13.3071C7.43273 13.4232 7.25 13.6967 7.25 14V20.0645C7.25 20.3492 7.41124 20.6094 7.66623 20.7361C8.97258 21.3853 10.4448 21.75 12 21.75C13.5552 21.75 15.0274 21.3853 16.3338 20.7361C16.5888 20.6094 16.75 20.3485 16.75 20.0638L16.75 14C16.75 13.6967 16.5673 13.4232 16.287 13.3071C16.0068 13.191 15.6842 13.2552 15.4697 13.4697C14.6421 14.2972 13.3511 14.75 12 14.75C10.6489 14.75 9.35785 14.2972 8.53033 13.4697Z" fill="#5D5D5D"/>
<path d="M12.6512 6.6279C12.5177 6.39421 12.2692 6.25 12 6.25C11.7309 6.25 11.4824 6.39421 11.3488 6.6279L7.34884 13.6279C7.18103 13.9215 7.23053 14.2912 7.46969 14.5303C8.64217 15.7028 10.3512 16.25 12 16.25C13.6489 16.25 15.3579 15.7028 16.5303 14.5303C16.7695 14.2912 16.819 13.9215 16.6512 13.6279L12.6512 6.6279Z" fill="black"/>
</svg>
