<svg width="24" height="24" viewBox="0 0 24 24" fill="none" xmlns="http://www.w3.org/2000/svg">
<path fill-rule="evenodd" clip-rule="evenodd" d="M7 2.25C7.41421 2.25 7.75 2.58579 7.75 3V6.25H15C16.5188 6.25 17.75 7.48122 17.75 9V16.25H20C20.4142 16.25 20.75 16.5858 20.75 17C20.75 17.4142 20.4142 17.75 20 17.75H17.75V21C17.75 21.4142 17.4142 21.75 17 21.75C16.5858 21.75 16.25 21.4142 16.25 21V17.75H9C7.48122 17.75 6.25 16.5188 6.25 15V7.75H3C2.58579 7.75 2.25 7.41421 2.25 7C2.25 6.58579 2.58579 6.25 3 6.25H6.25V3C6.25 2.58579 6.58579 2.25 7 2.25ZM7.75 7.75V15C7.75 15.6904 8.30964 16.25 9 16.25H16.25V9C16.25 8.30964 15.6904 7.75 15 7.75H7.75Z" fill="#5D5D5D"/>
</svg>
