<svg width="24" height="24" viewBox="0 0 24 24" fill="none" xmlns="http://www.w3.org/2000/svg">
<path d="M12.624 4.58397C12.4849 4.37533 12.2508 4.25 12 4.25C11.7492 4.25 11.5151 4.37533 11.376 4.58397L7.88343 9.82277L3.53033 5.46967C3.31583 5.25517 2.99324 5.191 2.71299 5.30709C2.43273 5.42318 2.25 5.69665 2.25 6V17C2.25 18.5188 3.48122 19.75 5 19.75H19C20.5188 19.75 21.75 18.5188 21.75 17V6C21.75 5.69665 21.5673 5.42318 21.287 5.30709C21.0068 5.191 20.6842 5.25517 20.4697 5.46967L16.1166 9.82277L12.624 4.58397Z" fill="#5D5D5D"/>
</svg>
