<svg width="24" height="24" viewBox="0 0 24 24" fill="none" xmlns="http://www.w3.org/2000/svg">
<path d="M19.75 8C19.75 7.73265 19.6077 7.48551 19.3764 7.35132C19.1452 7.21713 18.86 7.21617 18.6279 7.34882L11.6279 11.3488C11.3942 11.4823 11.25 11.7309 11.25 12V21C11.25 21.2674 11.3923 21.5145 11.6236 21.6487C11.8548 21.7829 12.14 21.7838 12.3721 21.6512L19.3721 17.6512C19.6058 17.5177 19.75 17.2691 19.75 17V8Z" fill="black"/>
<path d="M12.3721 3.34882C12.1415 3.21706 11.8585 3.21706 11.6279 3.34882L4.6279 7.34882C4.39421 7.48235 4.25 7.73086 4.25 8C4.25 8.26914 4.39421 8.51765 4.6279 8.65118L11.6279 12.6512C11.8585 12.7829 12.1415 12.7829 12.3721 12.6512L19.3721 8.65118C19.6058 8.51765 19.75 8.26914 19.75 8C19.75 7.73086 19.6058 7.48235 19.3721 7.34882L12.3721 3.34882Z" fill="#5D5D5D"/>
<path d="M5.3721 7.34882C5.13998 7.21617 4.85479 7.21713 4.62355 7.35132C4.39232 7.48551 4.25 7.73265 4.25 8V17C4.25 17.2691 4.39421 17.5177 4.6279 17.6512L11.6279 21.6512C11.86 21.7838 12.1452 21.7829 12.3764 21.6487C12.6077 21.5145 12.75 21.2674 12.75 21V12C12.75 11.7309 12.6058 11.4823 12.3721 11.3488L5.3721 7.34882Z" fill="#D9D9D9"/>
</svg>
