<svg width="24" height="24" viewBox="0 0 24 24" fill="none" xmlns="http://www.w3.org/2000/svg">
<path d="M20.75 4.00002C20.75 3.69668 20.5673 3.4232 20.287 3.30711C20.0068 3.19103 19.6842 3.25519 19.4697 3.46969L14.4697 8.46969C14.329 8.61034 14.25 8.80111 14.25 9.00002V20C14.25 20.3034 14.4327 20.5768 14.713 20.6929C14.9932 20.809 15.3158 20.7449 15.5303 20.5304L20.5303 15.5304C20.671 15.3897 20.75 15.1989 20.75 15V4.00002Z" fill="black"/>
<path d="M9.00002 3.25C8.80111 3.25 8.61034 3.32902 8.46969 3.46967L3.46969 8.46967C3.25519 8.68417 3.19103 9.00676 3.30711 9.28701C3.4232 9.56727 3.69668 9.75 4.00002 9.75H15C15.1989 9.75 15.3897 9.67098 15.5304 9.53033L20.5304 4.53033C20.7449 4.31583 20.809 3.99324 20.6929 3.71299C20.5768 3.43273 20.3034 3.25 20 3.25H9.00002Z" fill="#5D5D5D"/>
<path d="M4 8.25C3.58579 8.25 3.25 8.58579 3.25 9V20C3.25 20.4142 3.58579 20.75 4 20.75H15C15.4142 20.75 15.75 20.4142 15.75 20V9C15.75 8.58579 15.4142 8.25 15 8.25H4Z" fill="#D9D9D9"/>
</svg>
