<svg width="24" height="24" viewBox="0 0 24 24" fill="none" xmlns="http://www.w3.org/2000/svg">
<path d="M21.75 7.00001C21.75 6.75892 21.6341 6.53254 21.4385 6.39157C21.243 6.25061 20.9915 6.21226 20.7628 6.28849L11.7628 9.28849C11.4566 9.39058 11.25 9.67718 11.25 10V21C11.25 21.2411 11.3659 21.4675 11.5615 21.6084C11.757 21.7494 12.0085 21.7878 12.2372 21.7115L21.2372 18.7115C21.5434 18.6094 21.75 18.3228 21.75 18V7.00001Z" fill="black"/>
<path d="M12.2372 3.28849C12.0832 3.23717 11.9168 3.23717 11.7628 3.28849L2.76283 6.28849C2.45657 6.39057 2.25 6.67718 2.25 7C2.25 7.32282 2.45657 7.60943 2.76283 7.71151L11.7628 10.7115C11.9168 10.7628 12.0832 10.7628 12.2372 10.7115L21.2372 7.71151C21.5434 7.60943 21.75 7.32282 21.75 7C21.75 6.67718 21.5434 6.39057 21.2372 6.28849L12.2372 3.28849Z" fill="#5D5D5D"/>
<path d="M3.23717 6.28849C3.00846 6.21226 2.75704 6.25061 2.56147 6.39157C2.36589 6.53254 2.25 6.75892 2.25 7.00001V18C2.25 18.3228 2.45657 18.6094 2.76283 18.7115L11.7628 21.7115C11.9915 21.7878 12.243 21.7494 12.4385 21.6084C12.6341 21.4675 12.75 21.2411 12.75 21V10C12.75 9.67718 12.5434 9.39058 12.2372 9.28849L3.23717 6.28849Z" fill="#D9D9D9"/>
</svg>
