<svg width="24" height="24" viewBox="0 0 24 24" fill="none" xmlns="http://www.w3.org/2000/svg">
<path d="M9.00002 2.25C8.80111 2.25 8.61034 2.32902 8.46969 2.46967L4.46969 6.46967C4.25519 6.68417 4.19103 7.00676 4.30711 7.28701C4.4232 7.56727 4.69668 7.75 5.00002 7.75H14.25V17C14.25 17.4142 14.5858 17.75 15 17.75H19C19.4142 17.75 19.75 17.4142 19.75 17V3C19.75 2.58579 19.4142 2.25 19 2.25H9.00002Z" fill="#5D5D5D"/>
<path d="M19 16.25H15C14.5858 16.25 14.25 16.5858 14.25 17V21C14.25 21.3033 14.4327 21.5768 14.713 21.6929C14.9932 21.809 15.3158 21.7448 15.5303 21.5303L19.5303 17.5303C19.7448 17.3158 19.809 16.9932 19.6929 16.713C19.5768 16.4327 19.3033 16.25 19 16.25Z" fill="black"/>
<path d="M5 6.25C4.58579 6.25 4.25 6.58579 4.25 7V21C4.25 21.4142 4.58579 21.75 5 21.75H15C15.4142 21.75 15.75 21.4142 15.75 21V7C15.75 6.58579 15.4142 6.25 15 6.25H5Z" fill="#D9D9D9"/>
</svg>
