<svg width="24" height="24" viewBox="0 0 24 24" fill="none" xmlns="http://www.w3.org/2000/svg">
<path d="M19.75 3.00002C19.75 2.69668 19.5673 2.4232 19.287 2.30711C19.0068 2.19103 18.6842 2.25519 18.4697 2.46969L14.4697 6.46969C14.329 6.61034 14.25 6.80111 14.25 7.00002V21C14.25 21.3034 14.4327 21.5768 14.713 21.6929C14.9932 21.809 15.3158 21.7449 15.5303 21.5304L19.5303 17.5304C19.671 17.3897 19.75 17.1989 19.75 17V3.00002Z" fill="black"/>
<path d="M9.00002 2.25C8.80111 2.25 8.61034 2.32902 8.46969 2.46967L4.46969 6.46967C4.25519 6.68417 4.19103 7.00676 4.30711 7.28701C4.4232 7.56727 4.69668 7.75 5.00002 7.75H15C15.1989 7.75 15.3897 7.67098 15.5304 7.53033L19.5304 3.53033C19.7449 3.31583 19.809 2.99324 19.6929 2.71299C19.5768 2.43273 19.3034 2.25 19 2.25H9.00002Z" fill="#5D5D5D"/>
<path d="M5 6.25C4.58579 6.25 4.25 6.58579 4.25 7V21C4.25 21.4142 4.58579 21.75 5 21.75H15C15.4142 21.75 15.75 21.4142 15.75 21V7C15.75 6.58579 15.4142 6.25 15 6.25H5Z" fill="#D9D9D9"/>
</svg>
