<svg width="24" height="24" viewBox="0 0 24 24" fill="none" xmlns="http://www.w3.org/2000/svg">
<path d="M7.75 5.5C7.75 5.08579 7.41421 4.75 7 4.75C6.58579 4.75 6.25 5.08579 6.25 5.5V18.5C6.25 19.6275 7.14451 20.4463 8.12906 20.9386C9.15847 21.4533 10.5281 21.75 12 21.75C13.4719 21.75 14.8415 21.4533 15.8709 20.9386C16.8555 20.4463 17.75 19.6275 17.75 18.5V5.5C17.75 5.08579 17.4142 4.75 17 4.75C16.5858 4.75 16.25 5.08579 16.25 5.5C16.25 5.75323 16.0252 6.1844 15.2001 6.59695C14.4199 6.98706 13.2895 7.25 12 7.25C10.7105 7.25 9.58011 6.98706 8.79988 6.59695C7.97478 6.1844 7.75 5.75323 7.75 5.5Z" fill="#5D5D5D"/>
<path d="M12 2.25C10.5281 2.25 9.15847 2.54671 8.12906 3.06141C7.14451 3.55369 6.25 4.37252 6.25 5.5C6.25 6.62748 7.14451 7.44631 8.12906 7.93859C9.15847 8.45329 10.5281 8.75 12 8.75C13.4719 8.75 14.8415 8.45329 15.8709 7.93859C16.8555 7.44631 17.75 6.62748 17.75 5.5C17.75 4.37252 16.8555 3.55369 15.8709 3.06141C14.8415 2.54671 13.4719 2.25 12 2.25Z" fill="#D9D9D9"/>
</svg>
