<svg width="24" height="24" viewBox="0 0 24 24" fill="none" xmlns="http://www.w3.org/2000/svg">
<path d="M14.4039 5.78265C13.3562 3.89667 10.6438 3.89667 9.59607 5.78264L2.9951 17.6644C1.97679 19.4974 3.3022 21.7499 5.39904 21.7499H18.601C20.6978 21.7499 22.0232 19.4974 21.0049 17.6644L14.4039 5.78265Z" fill="#5D5D5D"/>
<path fill-rule="evenodd" clip-rule="evenodd" d="M12 9.25C12.4142 9.25 12.75 9.58579 12.75 10V14C12.75 14.4142 12.4142 14.75 12 14.75C11.5858 14.75 11.25 14.4142 11.25 14V10C11.25 9.58579 11.5858 9.25 12 9.25ZM11.25 18C11.25 17.5858 11.5858 17.25 12 17.25H12.009C12.4232 17.25 12.759 17.5858 12.759 18C12.759 18.4142 12.4232 18.75 12.009 18.75H12C11.5858 18.75 11.25 18.4142 11.25 18Z" fill="#D9D9D9"/>
</svg>
