<svg width="24" height="24" viewBox="0 0 24 24" fill="none" xmlns="http://www.w3.org/2000/svg">
<path d="M4 7H15C17.7614 7 20 9.23858 20 12V12C20 14.7614 17.7614 17 15 17H4V7Z" fill="#5D5D5D"/>
<path fill-rule="evenodd" clip-rule="evenodd" d="M4 12.75H13.4184C13.6993 13.3412 14.3019 13.75 15 13.75C15.9665 13.75 16.75 12.9665 16.75 12C16.75 11.0335 15.9665 10.25 15 10.25C14.3019 10.25 13.6993 10.6588 13.4184 11.25H4V12.75ZM14.75 12C14.75 11.8619 14.8619 11.75 15 11.75C15.1381 11.75 15.25 11.8619 15.25 12C15.25 12.1381 15.1381 12.25 15 12.25C14.8619 12.25 14.75 12.1381 14.75 12Z" fill="#D9D9D9"/>
</svg>
