<svg width="24" height="24" viewBox="0 0 24 24" fill="none" xmlns="http://www.w3.org/2000/svg">
<path d="M4 7H18C19.1046 7 20 7.89543 20 9V15C20 16.1046 19.1046 17 18 17H4V7Z" fill="#5D5D5D"/>
<path fill-rule="evenodd" clip-rule="evenodd" d="M15 11.75C14.8619 11.75 14.75 11.8619 14.75 12C14.75 12.1381 14.8619 12.25 15 12.25C15.138 12.25 15.25 12.1381 15.25 12C15.25 11.8619 15.138 11.75 15 11.75ZM13.4184 11.25C13.6992 10.6588 14.3019 10.25 15 10.25C15.9665 10.25 16.75 11.0335 16.75 12C16.75 12.9665 15.9665 13.75 15 13.75C14.3019 13.75 13.6992 13.3412 13.4184 12.75H4.00073V11.25H13.4184Z" fill="#D9D9D9"/>
</svg>
