<svg width="24" height="24" viewBox="0 0 24 24" fill="none" xmlns="http://www.w3.org/2000/svg">
<path fill-rule="evenodd" clip-rule="evenodd" d="M6 4.75C5.30964 4.75 4.75 5.30964 4.75 6V7C4.75 7.41421 4.41421 7.75 4 7.75C3.58579 7.75 3.25 7.41421 3.25 7V6C3.25 4.48122 4.48122 3.25 6 3.25H7C7.41421 3.25 7.75 3.58579 7.75 4C7.75 4.41421 7.41421 4.75 7 4.75H6ZM10.25 4C10.25 3.58579 10.5858 3.25 11 3.25H13C13.4142 3.25 13.75 3.58579 13.75 4C13.75 4.41421 13.4142 4.75 13 4.75H11C10.5858 4.75 10.25 4.41421 10.25 4ZM16.25 4C16.25 3.58579 16.5858 3.25 17 3.25H18C19.5188 3.25 20.75 4.48122 20.75 6V7C20.75 7.41421 20.4142 7.75 20 7.75C19.5858 7.75 19.25 7.41421 19.25 7V6C19.25 5.30964 18.6904 4.75 18 4.75H17C16.5858 4.75 16.25 4.41421 16.25 4ZM4 10.25C4.41421 10.25 4.75 10.5858 4.75 11V13C4.75 13.4142 4.41421 13.75 4 13.75C3.58579 13.75 3.25 13.4142 3.25 13V11C3.25 10.5858 3.58579 10.25 4 10.25ZM20 10.25C20.4142 10.25 20.75 10.5858 20.75 11V13C20.75 13.4142 20.4142 13.75 20 13.75C19.5858 13.75 19.25 13.4142 19.25 13V11C19.25 10.5858 19.5858 10.25 20 10.25ZM4 16.25C4.41421 16.25 4.75 16.5858 4.75 17V18C4.75 18.6904 5.30964 19.25 6 19.25H7C7.41421 19.25 7.75 19.5858 7.75 20C7.75 20.4142 7.41421 20.75 7 20.75H6C4.48122 20.75 3.25 19.5188 3.25 18V17C3.25 16.5858 3.58579 16.25 4 16.25ZM20 16.25C20.4142 16.25 20.75 16.5858 20.75 17V18C20.75 19.5188 19.5188 20.75 18 20.75H17C16.5858 20.75 16.25 20.4142 16.25 20C16.25 19.5858 16.5858 19.25 17 19.25H18C18.6904 19.25 19.25 18.6904 19.25 18V17C19.25 16.5858 19.5858 16.25 20 16.25ZM10.25 20C10.25 19.5858 10.5858 19.25 11 19.25H13C13.4142 19.25 13.75 19.5858 13.75 20C13.75 20.4142 13.4142 20.75 13 20.75H11C10.5858 20.75 10.25 20.4142 10.25 20Z" fill="#5D5D5D"/>
</svg>
