<svg width="24" height="24" viewBox="0 0 24 24" fill="none" xmlns="http://www.w3.org/2000/svg">
<path d="M3.16397 19.074C2.61625 18.4985 2.25 17.7961 2.25 16.9997V7H21.75V17C21.75 17.7963 21.3838 18.4985 20.836 19.074C20.292 19.6457 19.5402 20.1264 18.6686 20.5138C16.9234 21.2894 14.5651 21.75 12 21.75C9.4349 21.75 7.07658 21.2894 5.33143 20.5138C4.45981 20.1264 3.70801 19.6457 3.16397 19.074Z" fill="#5D5D5D"/>
<path d="M5.33143 3.48621C7.07658 2.7106 9.4349 2.25 12 2.25C14.5651 2.25 16.9234 2.7106 18.6686 3.48621C19.5402 3.8736 20.292 4.35431 20.836 4.92598C21.3838 5.50152 21.75 6.20368 21.75 7C21.75 7.79632 21.3838 8.49848 20.836 9.07402C20.292 9.64569 19.5402 10.1264 18.6686 10.5138C16.9234 11.2894 14.5651 11.75 12 11.75C9.4349 11.75 7.07658 11.2894 5.33143 10.5138C4.45981 10.1264 3.70801 9.64569 3.16397 9.07402C2.61625 8.49848 2.25 7.79632 2.25 7C2.25 6.20368 2.61625 5.50152 3.16397 4.92598C3.70801 4.35431 4.45981 3.8736 5.33143 3.48621Z" fill="#D9D9D9"/>
<path d="M4.27638 13.3756C3.93153 13.1461 3.46596 13.2397 3.23651 13.5845C3.00705 13.9294 3.1006 14.395 3.44546 14.6244C5.02987 15.6786 8.27206 16.75 12.0001 16.75C15.7281 16.75 18.9703 15.6786 20.5547 14.6244C20.8995 14.395 20.9931 13.9294 20.7636 13.5845C20.5342 13.2397 20.0686 13.1461 19.7238 13.3756C18.4333 14.2342 15.4956 15.25 12.0001 15.25C8.50456 15.25 5.56682 14.2342 4.27638 13.3756Z" fill="#D9D9D9"/>
</svg>
