<svg width="24" height="24" viewBox="0 0 24 24" fill="none" xmlns="http://www.w3.org/2000/svg">
<path fill-rule="evenodd" clip-rule="evenodd" d="M17.4697 8.46967C17.7626 8.17678 18.2374 8.17678 18.5303 8.46967L21.5303 11.4697C21.8232 11.7626 21.8232 12.2374 21.5303 12.5303L18.5303 15.5303C18.2374 15.8232 17.7626 15.8232 17.4697 15.5303C17.1768 15.2374 17.1768 14.7626 17.4697 14.4697L19.1893 12.75H15C14.5858 12.75 14.25 12.4142 14.25 12C14.25 11.5858 14.5858 11.25 15 11.25H19.1893L17.4697 9.53033C17.1768 9.23744 17.1768 8.76256 17.4697 8.46967ZM2.25 19C2.25 18.5858 2.58579 18.25 3 18.25H4C4.25993 18.25 4.50133 18.3846 4.63799 18.6057C4.77464 18.8268 4.78707 19.1029 4.67082 19.3354L3.67082 21.3354C3.48558 21.7059 3.03507 21.8561 2.66459 21.6708C2.29411 21.4856 2.14394 21.0351 2.32918 20.6646L2.79996 19.723C2.48286 19.6355 2.25 19.3449 2.25 19Z" fill="#D9D9D9"/>
<path fill-rule="evenodd" clip-rule="evenodd" d="M5.25 8C5.25 5.92893 6.92893 4.25 9 4.25C11.0711 4.25 12.75 5.92893 12.75 8V16C12.75 18.0711 11.0711 19.75 9 19.75C6.92893 19.75 5.25 18.0711 5.25 16V8ZM9 5.75C7.75736 5.75 6.75 6.75736 6.75 8V16C6.75 17.2426 7.75736 18.25 9 18.25C10.2426 18.25 11.25 17.2426 11.25 16V8C11.25 6.75736 10.2426 5.75 9 5.75Z" fill="#5D5D5D"/>
</svg>
