<svg width="24" height="24" viewBox="0 0 24 24" fill="none" xmlns="http://www.w3.org/2000/svg">
<path fill-rule="evenodd" clip-rule="evenodd" d="M17.5304 8.46967C17.8233 8.76256 17.8233 9.23744 17.5304 9.53033L15.8107 11.25H20C20.4142 11.25 20.75 11.5858 20.75 12C20.75 12.4142 20.4142 12.75 20 12.75H15.8107L17.5304 14.4697C17.8233 14.7626 17.8233 15.2374 17.5304 15.5303C17.2375 15.8232 16.7626 15.8232 16.4697 15.5303L13.4697 12.5303C13.1768 12.2374 13.1768 11.7626 13.4697 11.4697L16.4697 8.46967C16.7626 8.17678 17.2375 8.17678 17.5304 8.46967ZM11.25 19C11.25 18.5858 11.5858 18.25 12 18.25H13C13.2599 18.25 13.5013 18.3846 13.638 18.6057C13.7746 18.8268 13.7871 19.1029 13.6708 19.3354L12.6708 21.3354C12.4856 21.7059 12.0351 21.8561 11.6646 21.6708C11.2941 21.4856 11.1439 21.0351 11.3292 20.6646L11.8 19.723C11.4829 19.6355 11.25 19.3449 11.25 19Z" fill="#D9D9D9"/>
<path fill-rule="evenodd" clip-rule="evenodd" d="M3.25 8C3.25 5.92893 4.92893 4.25 7 4.25C9.07107 4.25 10.75 5.92893 10.75 8V16C10.75 18.0711 9.07107 19.75 7 19.75C4.92893 19.75 3.25 18.0711 3.25 16V8ZM7 5.75C5.75736 5.75 4.75 6.75736 4.75 8V16C4.75 17.2426 5.75736 18.25 7 18.25C8.24264 18.25 9.25 17.2426 9.25 16V8C9.25 6.75736 8.24264 5.75 7 5.75Z" fill="#5D5D5D"/>
</svg>
