<svg width="24" height="24" viewBox="0 0 24 24" fill="none" xmlns="http://www.w3.org/2000/svg">
<path d="M13.5162 2.08873C12.5882 1.50981 11.4117 1.50981 10.4837 2.08873C8.62146 3.25051 7.09619 3.9211 4.91702 4.15548C3.50896 4.30693 2.21411 5.45326 2.28158 7.03058C2.36705 9.02886 2.6841 11.4581 3.87944 13.9373C5.07893 16.4252 7.14072 18.9177 10.6452 21.0761C11.4747 21.5871 12.5252 21.5871 13.3548 21.0761C16.8592 18.9177 18.921 16.4252 20.1205 13.9373C21.3158 11.4581 21.6329 9.02886 21.7184 7.03058C21.7858 5.45326 20.491 4.30693 19.0829 4.15548C16.9037 3.9211 15.3785 3.25051 13.5162 2.08873Z" fill="#5D5D5D"/>
</svg>
