<svg width="24" height="24" viewBox="0 0 24 24" fill="none" xmlns="http://www.w3.org/2000/svg">
<path d="M10.5 3.25C8.70507 3.25 7.25 4.70507 7.25 6.5V10.25H6.75V9.5C6.75 8.25736 5.74264 7.25 4.5 7.25C3.25736 7.25 2.25 8.25736 2.25 9.5V11C2.25 13.0711 3.92893 14.75 6 14.75H7.25V20C7.25 20.4142 7.58579 20.75 8 20.75H13C13.4142 20.75 13.75 20.4142 13.75 20V16.75H14.7427C16.9559 16.75 18.75 14.9559 18.75 12.7427V11.5C18.75 10.2574 17.7426 9.25 16.5 9.25C15.2574 9.25 14.25 10.2574 14.25 11.5V12.25H13.75V6.5C13.75 4.70507 12.2949 3.25 10.5 3.25Z" fill="#5D5D5D"/>
<path d="M18 2.25C16.4812 2.25 15.25 3.48122 15.25 5C15.25 6.51878 16.4812 7.75 18 7.75C19.5188 7.75 20.75 6.51878 20.75 5C20.75 3.48122 19.5188 2.25 18 2.25Z" fill="#D9D9D9"/>
<path d="M3.25 20C3.25 19.5858 3.58579 19.25 4 19.25H20C20.4142 19.25 20.75 19.5858 20.75 20C20.75 20.4142 20.4142 20.75 20 20.75H4C3.58579 20.75 3.25 20.4142 3.25 20Z" fill="#D9D9D9"/>
</svg>
