<svg width="24" height="24" viewBox="0 0 24 24" fill="none" xmlns="http://www.w3.org/2000/svg">
<path fill-rule="evenodd" clip-rule="evenodd" d="M7 11.75C5.20507 11.75 3.75 13.2051 3.75 15C3.75 16.7949 5.20507 18.25 7 18.25H9C9.41421 18.25 9.75 18.5858 9.75 19C9.75 19.4142 9.41421 19.75 9 19.75H7C4.37665 19.75 2.25 17.6234 2.25 15C2.25 12.3766 4.37665 10.25 7 10.25H9C9.41421 10.25 9.75 10.5858 9.75 11C9.75 11.4142 9.41421 11.75 9 11.75H7ZM14.25 11C14.25 10.5858 14.5858 10.25 15 10.25H17C19.6234 10.25 21.75 12.3766 21.75 15C21.75 17.6234 19.6234 19.75 17 19.75H15C14.5858 19.75 14.25 19.4142 14.25 19C14.25 18.5858 14.5858 18.25 15 18.25H17C18.7949 18.25 20.25 16.7949 20.25 15C20.25 13.2051 18.7949 11.75 17 11.75H15C14.5858 11.75 14.25 11.4142 14.25 11Z" fill="#5D5D5D"/>
<path fill-rule="evenodd" clip-rule="evenodd" d="M8.25 15C8.25 14.5858 8.58579 14.25 9 14.25H15C15.4142 14.25 15.75 14.5858 15.75 15C15.75 15.4142 15.4142 15.75 15 15.75H9C8.58579 15.75 8.25 15.4142 8.25 15Z" fill="#D9D9D9"/>
<path fill-rule="evenodd" clip-rule="evenodd" d="M12 2.25C12.4142 2.25 12.75 2.58579 12.75 3V7C12.75 7.41421 12.4142 7.75 12 7.75C11.5858 7.75 11.25 7.41421 11.25 7V3C11.25 2.58579 11.5858 2.25 12 2.25ZM4.46967 3.46967C4.76256 3.17678 5.23744 3.17678 5.53033 3.46967L8.53033 6.46967C8.82322 6.76256 8.82322 7.23744 8.53033 7.53033C8.23744 7.82322 7.76256 7.82322 7.46967 7.53033L4.46967 4.53033C4.17678 4.23744 4.17678 3.76256 4.46967 3.46967ZM19.5303 3.46967C19.8232 3.76256 19.8232 4.23744 19.5303 4.53033L16.5303 7.53033C16.2374 7.82322 15.7626 7.82322 15.4697 7.53033C15.1768 7.23744 15.1768 6.76256 15.4697 6.46967L18.4697 3.46967C18.7626 3.17678 19.2374 3.17678 19.5303 3.46967Z" fill="#D9D9D9"/>
</svg>
