<svg width="24" height="24" viewBox="0 0 24 24" fill="none" xmlns="http://www.w3.org/2000/svg">
<path fill-rule="evenodd" clip-rule="evenodd" d="M14.25 4C14.25 3.58579 14.5858 3.25 15 3.25H20C20.4142 3.25 20.75 3.58579 20.75 4V9C20.75 9.41421 20.4142 9.75 20 9.75C19.5858 9.75 19.25 9.41421 19.25 9V5.81066L5.81066 19.25H9C9.41421 19.25 9.75 19.5858 9.75 20C9.75 20.4142 9.41421 20.75 9 20.75H4C3.58579 20.75 3.25 20.4142 3.25 20V15C3.25 14.5858 3.58579 14.25 4 14.25C4.41421 14.25 4.75 14.5858 4.75 15V18.1893L18.1893 4.75H15C14.5858 4.75 14.25 4.41421 14.25 4Z" fill="#5D5D5D"/>
</svg>
