<svg width="24" height="24" viewBox="0 0 24 24" fill="none" xmlns="http://www.w3.org/2000/svg">
<path d="M10.25 19.9297V16.75L5.56153 16.75C4.29966 16.75 3.19971 15.8912 2.89366 14.667L2.45183 12.8996C2.29262 12.2628 2.36647 11.59 2.66005 11.0028L5.77639 4.77016C6.24222 3.8385 7.19445 3.25 8.23607 3.25L13.3029 3.25001C13.7077 3.25001 14.1076 3.33938 14.4739 3.51175L17.1709 4.78095C18.1348 5.23452 18.75 6.20395 18.75 7.2692V13.1716C18.75 13.9009 18.4603 14.6004 17.9445 15.1162L16.6704 16.3903C16.611 16.4496 16.5647 16.5072 16.5277 16.5656C16.1944 17.0926 15.226 18.7091 14.8741 20.1237C14.7841 20.4856 14.6401 20.9161 14.3908 21.2886C14.1342 21.6721 13.7355 22.0349 13.1505 22.1413C12.6653 22.2295 12.2168 22.1976 11.8426 22.1216C10.6934 21.8881 10.25 20.7836 10.25 19.9297Z" fill="#5D5D5D"/>
<path d="M20 15.75C20.9665 15.75 21.75 14.9665 21.75 14V6C21.75 5.0335 20.9665 4.25 20 4.25H19C18.0335 4.25 17.25 5.0335 17.25 6V14C17.25 14.9666 18.0335 15.75 19 15.75H20Z" fill="#D9D9D9"/>
</svg>
