<svg width="24" height="24" viewBox="0 0 24 24" fill="none" xmlns="http://www.w3.org/2000/svg">
<path d="M3.25 13C3.25 14.5188 4.48122 15.75 6 15.75H18C19.5188 15.75 20.75 14.5188 20.75 13V11C20.75 9.48122 19.5188 8.25 18 8.25H6C4.48122 8.25 3.25 9.48122 3.25 11V13Z" fill="#5D5D5D"/>
<path fill-rule="evenodd" clip-rule="evenodd" d="M2.25 19C2.25 18.5858 2.58579 18.25 3 18.25L21 18.25C21.4142 18.25 21.75 18.5858 21.75 19C21.75 19.4142 21.4142 19.75 21 19.75L3 19.75C2.58579 19.75 2.25 19.4142 2.25 19ZM2.25 5C2.25 4.58579 2.58579 4.25 3 4.25L21 4.25C21.4142 4.25 21.75 4.58579 21.75 5C21.75 5.41421 21.4142 5.75 21 5.75L3 5.75C2.58579 5.75 2.25 5.41421 2.25 5Z" fill="#D9D9D9"/>
</svg>
