<svg width="24" height="24" viewBox="0 0 24 24" fill="none" xmlns="http://www.w3.org/2000/svg">
<path d="M11 3.25C9.48122 3.25 8.25 4.48122 8.25 6V18C8.25 19.5188 9.48122 20.75 11 20.75H13C14.5188 20.75 15.75 19.5188 15.75 18V6C15.75 4.48122 14.5188 3.25 13 3.25H11Z" fill="#5D5D5D"/>
<path fill-rule="evenodd" clip-rule="evenodd" d="M5 2.25C5.41421 2.25 5.75 2.58579 5.75 3V21C5.75 21.4142 5.41421 21.75 5 21.75C4.58579 21.75 4.25 21.4142 4.25 21V3C4.25 2.58579 4.58579 2.25 5 2.25ZM19 2.25C19.4142 2.25 19.75 2.58579 19.75 3V21C19.75 21.4142 19.4142 21.75 19 21.75C18.5858 21.75 18.25 21.4142 18.25 21V3C18.25 2.58579 18.5858 2.25 19 2.25Z" fill="#D9D9D9"/>
</svg>
