<svg width="24" height="24" viewBox="0 0 24 24" fill="none" xmlns="http://www.w3.org/2000/svg">
<path d="M17 8.25C16.5858 8.25 16.25 8.58579 16.25 9V12C16.25 12.4142 16.5858 12.75 17 12.75H21C21.4142 12.75 21.75 12.4142 21.75 12V11C21.75 9.48122 20.5188 8.25 19 8.25H17Z" fill="#D9D9D9"/>
<path d="M3 7.25C2.58579 7.25 2.25 7.58579 2.25 8C2.25 8.41421 2.58579 8.75 3 8.75H5C5.41421 8.75 5.75 8.41421 5.75 8C5.75 7.58579 5.41421 7.25 5 7.25H3Z" fill="#5D5D5D"/>
<path d="M3 11.25C2.58579 11.25 2.25 11.5858 2.25 12C2.25 12.4142 2.58579 12.75 3 12.75H5C5.41421 12.75 5.75 12.4142 5.75 12C5.75 11.5858 5.41421 11.25 5 11.25H3Z" fill="#5D5D5D"/>
<path d="M3 15.25C2.58579 15.25 2.25 15.5858 2.25 16C2.25 16.4142 2.58579 16.75 3 16.75H5C5.41421 16.75 5.75 16.4142 5.75 16C5.75 15.5858 5.41421 15.25 5 15.25H3Z" fill="#5D5D5D"/>
<path d="M8.25 9C8.25 7.48122 9.48122 6.25 11 6.25H17C17.4142 6.25 17.75 6.58579 17.75 7V11.25H21.75V13C21.75 14.4914 20.5627 15.7056 19.0817 15.7488L14.9183 15.75H13.0817L8.91798 15.5921C8.51986 15.3735 8.25 14.9503 8.25 14.4641V9Z" fill="#5D5D5D"/>
<path d="M13.0834 15.6668C13.0834 15.2883 12.9817 14.9316 12.8042 14.6246C12.7829 14.5879 12.7606 14.5519 12.7373 14.5167L12.7271 14.5015C12.354 13.9492 11.7198 13.5835 11 13.5835C10.2279 13.5835 9.55495 14.0039 9.19586 14.6246C9.01816 14.9318 8.91669 15.2886 8.91669 15.6668C8.91669 16.8174 9.84943 17.7502 11 17.7502C12.1506 17.7502 13.0834 16.8174 13.0834 15.6668Z" fill="#D9D9D9"/>
<path d="M17 13.5835C16.228 13.5835 15.5549 14.0039 15.1959 14.6246C15.0182 14.9318 14.9167 15.2886 14.9167 15.6668C14.9167 16.8174 15.8494 17.7502 17 17.7502C18.1506 17.7502 19.0834 16.8174 19.0834 15.6668C19.0834 15.2886 18.9819 14.9318 18.8042 14.6246C18.6214 14.3086 18.3582 14.0455 18.0422 13.8627C17.735 13.685 17.3782 13.5835 17 13.5835Z" fill="#D9D9D9"/>
</svg>
