<svg width="24" height="24" viewBox="0 0 24 24" fill="none" xmlns="http://www.w3.org/2000/svg">
<path d="M16.3354 4.32918C16.1409 4.23195 15.9139 4.22389 15.713 4.30709C15.5121 4.39029 15.3572 4.55657 15.2885 4.76283L14.2885 7.76283C14.2324 7.93112 14.2378 8.11384 14.3036 8.27854L16.097 12.7619L11.5315 16.4143C11.3536 16.5567 11.25 16.7722 11.25 17V21C11.25 21.2353 11.3605 21.457 11.5484 21.5988C11.7362 21.7405 11.9798 21.7858 12.206 21.7211L19.206 19.7211C19.4441 19.6531 19.6332 19.472 19.7115 19.2372L21.7115 13.2372C21.7502 13.1211 21.7599 12.9974 21.7398 12.8767L20.7398 6.8767C20.7003 6.64001 20.55 6.43649 20.3354 6.32918L16.3354 4.32918Z" fill="black"/>
<path d="M12.3355 2.32918C12.1243 2.22361 11.8758 2.22361 11.6646 2.32918L7.66464 4.32918C7.3308 4.4961 7.17051 4.88309 7.28853 5.23717L8.20166 7.97654L6.30369 12.7215C6.18097 13.0283 6.2735 13.3792 6.53152 13.5857L11.5315 17.5857C11.8054 17.8048 12.1947 17.8048 12.4686 17.5857L17.4686 13.5857C17.7266 13.3792 17.8191 13.0283 17.6964 12.7215L15.7984 7.97654L16.7116 5.23717C16.8296 4.88309 16.6693 4.4961 16.3355 4.32918L12.3355 2.32918Z" fill="#5D5D5D"/>
<path d="M8.71151 4.76283C8.63957 4.54702 8.47357 4.37551 8.26021 4.29659C8.04685 4.21766 7.8092 4.23984 7.61413 4.35688L2.61413 7.35688C2.38822 7.49242 2.25 7.73655 2.25 8V13C2.25 13.0806 2.263 13.1607 2.28849 13.2372L4.28849 19.2372C4.36677 19.472 4.55592 19.6531 4.79396 19.7211L11.794 21.7211C12.0202 21.7858 12.2638 21.7405 12.4516 21.5988C12.6395 21.457 12.75 21.2353 12.75 21V17C12.75 16.7722 12.6464 16.5567 12.4685 16.4144L7.903 12.7619L9.69636 8.27854C9.76224 8.11384 9.76761 7.93112 9.71151 7.76283L8.71151 4.76283Z" fill="#D9D9D9"/>
</svg>
