<svg width="24" height="24" viewBox="0 0 24 24" fill="none" xmlns="http://www.w3.org/2000/svg">
<path fill-rule="evenodd" clip-rule="evenodd" d="M9 6.75C8.30964 6.75 7.75 7.30964 7.75 8V10C7.75 10.6904 8.30964 11.25 9 11.25H11.25V6.75H9ZM12.75 6.75H17C17.4142 6.75 17.75 6.41421 17.75 6C17.75 5.58579 17.4142 5.25 17 5.25H9C7.48122 5.25 6.25 6.48122 6.25 8V10C6.25 11.5188 7.48122 12.75 9 12.75H11.25V17.25H7C6.58579 17.25 6.25 17.5858 6.25 18C6.25 18.4142 6.58579 18.75 7 18.75H15C16.5188 18.75 17.75 17.5188 17.75 16V14C17.75 12.4812 16.5188 11.25 15 11.25H12.75V6.75ZM12.75 12.75V17.25H15C15.6904 17.25 16.25 16.6904 16.25 16V14C16.25 13.3096 15.6904 12.75 15 12.75H12.75Z" fill="#5D5D5D"/>
<path fill-rule="evenodd" clip-rule="evenodd" d="M12 3.25C12.4142 3.25 12.75 3.58579 12.75 4V20C12.75 20.4142 12.4142 20.75 12 20.75C11.5858 20.75 11.25 20.4142 11.25 20V4C11.25 3.58579 11.5858 3.25 12 3.25Z" fill="#D9D9D9"/>
</svg>
