<svg width="24" height="24" viewBox="0 0 24 24" fill="none" xmlns="http://www.w3.org/2000/svg">
<path fill-rule="evenodd" clip-rule="evenodd" d="M12 2.25C12.4142 2.25 12.75 2.58579 12.75 3V15.1893L14.4697 13.4697C14.7626 13.1768 15.2374 13.1768 15.5303 13.4697C15.8232 13.7626 15.8232 14.2374 15.5303 14.5303L12.5303 17.5303C12.3897 17.671 12.1989 17.75 12 17.75C11.8011 17.75 11.6103 17.671 11.4697 17.5303L8.46967 14.5303C8.17678 14.2374 8.17678 13.7626 8.46967 13.4697C8.76256 13.1768 9.23744 13.1768 9.53033 13.4697L11.25 15.1893V3C11.25 2.58579 11.5858 2.25 12 2.25Z" fill="#5D5D5D"/>
<path fill-rule="evenodd" clip-rule="evenodd" d="M4.25 21C4.25 20.5858 4.58579 20.25 5 20.25H19C19.4142 20.25 19.75 20.5858 19.75 21C19.75 21.4142 19.4142 21.75 19 21.75H5C4.58579 21.75 4.25 21.4142 4.25 21Z" fill="#D9D9D9"/>
</svg>
