<svg width="24" height="24" viewBox="0 0 24 24" fill="none" xmlns="http://www.w3.org/2000/svg">
<path d="M19 18.75C20.5188 18.75 21.75 17.5188 21.75 16V8C21.75 6.48122 20.5188 5.25 19 5.25H9.2475C8.4636 5.25 7.71696 5.58454 7.19519 6.16956L3.62762 10.1696C2.69737 11.2126 2.69737 12.7874 3.62762 13.8304L7.19519 17.8304C7.71696 18.4155 8.4636 18.75 9.2475 18.75H19Z" fill="#5D5D5D"/>
<path fill-rule="evenodd" clip-rule="evenodd" d="M14.5303 14.5303C14.2374 14.8232 13.7626 14.8232 13.4697 14.5303L12 13.0607L10.5303 14.5303C10.2374 14.8232 9.76256 14.8232 9.46967 14.5303C9.17678 14.2374 9.17678 13.7626 9.46967 13.4697L10.9393 12L9.46967 10.5303C9.17678 10.2374 9.17678 9.76256 9.46967 9.46967C9.76256 9.17678 10.2374 9.17678 10.5303 9.46967L12 10.9393L13.4697 9.46967C13.7626 9.17678 14.2374 9.17678 14.5303 9.46967C14.8232 9.76256 14.8232 10.2374 14.5303 10.5303L13.0607 12L14.5303 13.4697C14.8232 13.7626 14.8232 14.2374 14.5303 14.5303Z" fill="#D9D9D9"/>
</svg>
