<svg width="24" height="24" viewBox="0 0 24 24" fill="none" xmlns="http://www.w3.org/2000/svg">
<path d="M10.0303 6.96967C9.73738 6.67678 9.26251 6.67678 8.96961 6.96967L3.88383 12.0555C2.80989 13.1294 2.80988 14.8706 3.88382 15.9445L8.0554 20.1161C9.12934 21.1901 10.8705 21.1901 11.9445 20.1161L17.0303 15.0303C17.1709 14.8897 17.2499 14.6989 17.2499 14.5C17.2499 14.3011 17.1709 14.1103 17.0303 13.9697L10.0303 6.96967Z" fill="#5D5D5D"/>
<path d="M15.9445 3.88383C14.8706 2.80989 13.1294 2.80988 12.0554 3.88382L8.43933 7.49994L16.5 15.5606L20.1161 11.9445C21.19 10.8705 21.1901 9.12934 20.1161 8.0554L15.9445 3.88383Z" fill="#D9D9D9"/>
</svg>
