<svg width="24" height="24" viewBox="0 0 24 24" fill="none" xmlns="http://www.w3.org/2000/svg">
<path fill-rule="evenodd" clip-rule="evenodd" d="M8.25 19C8.25 18.5858 8.58579 18.25 9 18.25L21 18.25C21.4142 18.25 21.75 18.5858 21.75 19C21.75 19.4142 21.4142 19.75 21 19.75L9 19.75C8.58579 19.75 8.25 19.4142 8.25 19Z" fill="black"/>
<path d="M10.0303 6.96967C9.73738 6.67678 9.26251 6.67678 8.96961 6.96967L3.88383 12.0555C2.80989 13.1294 2.80988 14.8706 3.88382 15.9445L6.88383 18.9445C7.39955 19.4603 8.09902 19.75 8.82837 19.75H11.1715C11.9009 19.75 12.6003 19.4603 13.1161 18.9445L17.0303 15.0303C17.3232 14.7374 17.3232 14.2626 17.0303 13.9697L10.0303 6.96967Z" fill="#5D5D5D"/>
<path d="M15.9447 3.88383C14.8707 2.80989 13.1295 2.80988 12.0556 3.88382L8.43945 7.49994L16.5001 15.5606L20.1162 11.9445C21.1902 10.8705 21.1902 9.12934 20.1162 8.0554L15.9447 3.88383Z" fill="#D9D9D9"/>
</svg>
