<svg width="24" height="24" viewBox="0 0 24 24" fill="none" xmlns="http://www.w3.org/2000/svg">
<path d="M12.636 2.6025C12.4989 2.38321 12.2586 2.25 12 2.25C11.7414 2.25 11.5011 2.38321 11.364 2.6025L6.364 10.6025C6.24626 10.7909 6.21809 11.0218 6.2871 11.233C6.35611 11.4441 6.51519 11.6138 6.72146 11.6964L11.7215 13.6964C11.9003 13.7679 12.0997 13.7679 12.2785 13.6964L17.2785 11.6964C17.4848 11.6138 17.6439 11.4441 17.7129 11.233C17.7819 11.0218 17.7537 10.7909 17.636 10.6025L12.636 2.6025Z" fill="#5D5D5D"/>
<path d="M7.27854 14.3037C6.95973 14.1762 6.59504 14.2814 6.39322 14.5592C6.19141 14.837 6.20402 15.2164 6.42384 15.4802L11.4238 21.4802C11.5663 21.6512 11.7774 21.7501 12 21.7501C12.2226 21.7501 12.4337 21.6512 12.5762 21.4802L17.5762 15.4802C17.796 15.2164 17.8086 14.837 17.6068 14.5592C17.405 14.2814 17.0403 14.1762 16.7215 14.3037L12 16.1923L7.27854 14.3037Z" fill="#D9D9D9"/>
</svg>
