<svg width="24" height="24" viewBox="0 0 24 24" fill="none" xmlns="http://www.w3.org/2000/svg">
<path fill-rule="evenodd" clip-rule="evenodd" d="M12 2.25C6.61522 2.25 2.25 6.61522 2.25 12C2.25 17.3848 6.61522 21.75 12 21.75C17.3848 21.75 21.75 17.3848 21.75 12C21.75 6.61522 17.3848 2.25 12 2.25Z" fill="#5D5D5D"/>
<path d="M12.6431 6.61413C12.5075 6.38822 12.2634 6.25 12 6.25C11.7365 6.25 11.4924 6.38822 11.3568 6.61413L8.35684 11.6141C8.2398 11.8092 8.21762 12.0469 8.29655 12.2602C8.37547 12.4736 8.54697 12.6396 8.76279 12.7115L11.7628 13.7115C11.9167 13.7628 12.0832 13.7628 12.2371 13.7115L15.2371 12.7115C15.4529 12.6396 15.6244 12.4736 15.7034 12.2602C15.7823 12.0469 15.7601 11.8092 15.6431 11.6141L12.6431 6.61413Z" fill="#D9D9D9"/>
<path d="M9.23713 14.2885C8.88068 14.1697 8.49131 14.333 8.32623 14.6705C8.16114 15.008 8.2713 15.4156 8.58394 15.624L11.5839 17.624C11.8359 17.792 12.1641 17.792 12.416 17.624L15.416 15.624C15.7286 15.4156 15.8388 15.008 15.6737 14.6705C15.5086 14.333 15.1192 14.1697 14.7628 14.2885L12 15.2094L9.23713 14.2885Z" fill="#D9D9D9"/>
</svg>
