<svg width="24" height="24" viewBox="0 0 24 24" fill="none" xmlns="http://www.w3.org/2000/svg">
<path d="M12 2.25C6.61522 2.25 2.25 6.61522 2.25 12C2.25 17.3848 6.61522 21.75 12 21.75C17.3848 21.75 21.75 17.3848 21.75 12C21.75 6.61522 17.3848 2.25 12 2.25Z" fill="#5D5D5D"/>
<path fill-rule="evenodd" clip-rule="evenodd" d="M7.58299 10.25H7C6.58579 10.25 6.25 10.5858 6.25 11C6.25 11.4142 6.58579 11.75 7 11.75H7.25648C7.25218 11.8328 7.25 11.9162 7.25 12C7.25 12.0838 7.25218 12.1672 7.25648 12.25H7C6.58579 12.25 6.25 12.5858 6.25 13C6.25 13.4142 6.58579 13.75 7 13.75H7.58299C8.27975 15.507 9.99394 16.75 12 16.75C13.3138 16.75 14.5042 16.2156 15.3633 15.3542C15.6558 15.0609 15.6551 14.5861 15.3619 14.2936C15.0686 14.0011 14.5937 14.0017 14.3012 14.295C13.712 14.8858 12.8992 15.25 12 15.25C10.8499 15.25 9.83841 14.6523 9.26068 13.75H11C11.4142 13.75 11.75 13.4142 11.75 13C11.75 12.5858 11.4142 12.25 11 12.25H8.75944C8.75319 12.1676 8.75 12.0842 8.75 12C8.75 11.9158 8.75319 11.8324 8.75944 11.75H11C11.4142 11.75 11.75 11.4142 11.75 11C11.75 10.5858 11.4142 10.25 11 10.25H9.26068C9.83841 9.34775 10.8499 8.75 12 8.75C12.8856 8.75 13.6872 9.10321 14.2741 9.67814C14.57 9.96799 15.0448 9.9631 15.3347 9.6672C15.6245 9.3713 15.6196 8.89645 15.3237 8.60659C14.4678 7.76817 13.2937 7.25 12 7.25C9.99394 7.25 8.27975 8.49301 7.58299 10.25Z" fill="#D9D9D9"/>
</svg>
