<svg width="24" height="24" viewBox="0 0 24 24" fill="none" xmlns="http://www.w3.org/2000/svg">
<path fill-rule="evenodd" clip-rule="evenodd" d="M5.87582 10.75C5.79331 11.154 5.75 11.572 5.75 12C5.75 12.428 5.79331 12.846 5.87582 13.25H10C10.4142 13.25 10.75 13.5858 10.75 14C10.75 14.4142 10.4142 14.75 10 14.75H6.38983C7.4126 16.8218 9.55521 18.25 12.0367 18.25C13.7686 18.25 15.3351 17.5548 16.4724 16.429C16.7667 16.1376 17.2416 16.14 17.533 16.4344C17.8244 16.7287 17.822 17.2036 17.5276 17.495C16.1201 18.8883 14.1785 19.75 12.0367 19.75C8.71151 19.75 5.86955 17.6742 4.75431 14.75H3C2.58579 14.75 2.25 14.4142 2.25 14C2.25 13.5858 2.58579 13.25 3 13.25H4.35071C4.28445 12.8431 4.25 12.4256 4.25 12C4.25 11.5744 4.28445 11.1569 4.35071 10.75H3C2.58579 10.75 2.25 10.4142 2.25 10C2.25 9.58579 2.58579 9.25 3 9.25H4.75431C5.86955 6.3258 8.71151 4.25 12.0367 4.25C14.1754 4.25 16.1145 5.10921 17.5216 6.499C17.8163 6.79008 17.8192 7.26494 17.5281 7.55964C17.237 7.85433 16.7622 7.85726 16.4675 7.56618C15.3306 6.44323 13.7661 5.75 12.0367 5.75C9.55521 5.75 7.4126 7.17816 6.38983 9.25H10C10.4142 9.25 10.75 9.58579 10.75 10C10.75 10.4142 10.4142 10.75 10 10.75H5.87582Z" fill="#5D5D5D"/>
<path fill-rule="evenodd" clip-rule="evenodd" d="M2.25 10C2.25 9.58579 2.58579 9.25 3 9.25H10C10.4142 9.25 10.75 9.58579 10.75 10C10.75 10.4142 10.4142 10.75 10 10.75H3C2.58579 10.75 2.25 10.4142 2.25 10ZM2.25 14C2.25 13.5858 2.58579 13.25 3 13.25H10C10.4142 13.25 10.75 13.5858 10.75 14C10.75 14.4142 10.4142 14.75 10 14.75H3C2.58579 14.75 2.25 14.4142 2.25 14Z" fill="#D9D9D9"/>
</svg>
