<svg width="24" height="24" viewBox="0 0 24 24" fill="none" xmlns="http://www.w3.org/2000/svg">
<path d="M14.2788 4.20825L13.9594 3.25H10.0406L9.72116 4.2082L9.71774 4.22226C9.71088 4.25062 9.70061 4.29356 9.68741 4.35011C9.66102 4.46321 9.62296 4.63065 9.5771 4.84464C9.48535 5.27281 9.36261 5.88639 9.2398 6.6233C9.19887 6.86882 9.15803 7.12752 9.11837 7.39716C10.0393 7.30845 11.0183 7.25 12 7.25C12.9817 7.25 13.9607 7.30845 14.8816 7.39716C14.842 7.12752 14.8011 6.86882 14.7602 6.62329C14.6374 5.88639 14.5146 5.27281 14.4229 4.84464C14.377 4.63064 14.339 4.4632 14.3126 4.3501C14.2994 4.29356 14.2891 4.25062 14.2823 4.22226L14.2788 4.20825Z" fill="#D9D9D9"/>
<path d="M15.0755 8.92445C14.0981 8.82072 13.0473 8.75 12 8.75C10.9527 8.75 9.90191 8.82072 8.92445 8.92445C8.8207 9.90208 8.75 10.9528 8.75 12C8.75 13.0472 8.8207 14.0979 8.92445 15.0755C9.90192 15.1793 10.9527 15.25 12 15.25C13.0473 15.25 14.0981 15.1793 15.0755 15.0755C15.1793 14.0979 15.25 13.0472 15.25 12C15.25 10.9528 15.1793 9.90208 15.0755 8.92445Z" fill="#D9D9D9"/>
<path d="M16.6028 14.8816C16.6915 13.9609 16.75 12.9818 16.75 12C16.75 11.0182 16.6915 10.0391 16.6028 9.11838C16.9436 9.16849 17.2668 9.22048 17.5679 9.27213L19.8062 9.72597L20.75 10.0406V13.9594L19.7923 14.2786L19.7817 14.2812C19.7551 14.2876 19.7149 14.2972 19.6622 14.3095C19.5568 14.334 19.4012 14.3694 19.2035 14.4121C18.808 14.4974 18.2451 14.6116 17.579 14.726C17.2747 14.7782 16.9477 14.8309 16.6028 14.8816Z" fill="#D9D9D9"/>
<path d="M14.8816 16.6028C13.9607 16.6915 12.9817 16.75 12 16.75C11.0183 16.75 10.0393 16.6915 9.11837 16.6028C9.15803 16.8725 9.19887 17.1312 9.2398 17.3767C9.36261 18.1136 9.48535 18.7272 9.5771 19.1553C9.62296 19.3693 9.66102 19.5368 9.68741 19.6499C9.70061 19.7064 9.71088 19.7494 9.71774 19.7777L9.72119 19.7919L10.0406 20.75H13.9594L14.2789 19.7917L14.2823 19.7777C14.2891 19.7494 14.2994 19.7064 14.3126 19.6499C14.339 19.5368 14.377 19.3693 14.4229 19.1553C14.5146 18.7272 14.6374 18.1136 14.7602 17.3767C14.8011 17.1312 14.842 16.8725 14.8816 16.6028Z" fill="#D9D9D9"/>
<path d="M3.25 13.9594V10.0406L4.19377 9.72597L6.43206 9.27213C6.73323 9.22048 7.05644 9.16849 7.39716 9.11837C7.30846 10.0391 7.25 11.0182 7.25 12C7.25 12.9818 7.30846 13.9609 7.39716 14.8816C7.05229 14.8309 6.72535 14.7782 6.42106 14.726C5.75497 14.6116 5.19202 14.4974 4.79648 14.4121C4.59881 14.3694 4.44323 14.334 4.33779 14.3095C4.28508 14.2972 4.24493 14.2876 4.21834 14.2812L4.20751 14.2786L3.25 13.9594Z" fill="#D9D9D9"/>
<path d="M15.7094 20.2435C15.7163 20.2233 15.7224 20.2027 15.7277 20.1817L15.7287 20.1776L15.7311 20.1676L15.7402 20.1305C15.748 20.0983 15.7592 20.0514 15.7733 19.9907C15.8016 19.8695 15.8417 19.6931 15.8896 19.4696C15.9853 19.0228 16.1126 18.3864 16.2398 17.6233C16.3017 17.2516 16.3638 16.8489 16.4223 16.4223C16.9302 16.3527 17.4046 16.2779 17.8329 16.2043C18.5235 16.0857 19.1076 15.9673 19.5199 15.8783C19.7262 15.8338 19.8898 15.7966 20.0025 15.7704C20.0588 15.7572 20.1025 15.7468 20.1325 15.7396L20.167 15.7313L20.1764 15.729L20.1803 15.728C20.2026 15.7225 20.2243 15.716 20.2456 15.7087L20.75 15.5406V18C20.75 19.5188 19.5188 20.75 18 20.75H15.5406L15.7094 20.2435Z" fill="#5D5D5D"/>
<path d="M16.4223 7.57765C16.3638 7.15114 16.3017 6.74834 16.2398 6.3767C16.1126 5.6136 15.9853 4.97718 15.8896 4.53035C15.8417 4.30685 15.8016 4.13053 15.7733 4.00926C15.7592 3.94862 15.748 3.90171 15.7402 3.86953L15.7311 3.83241L15.7287 3.82236L15.7276 3.81809C15.7222 3.79655 15.7159 3.77545 15.7088 3.75484L15.5406 3.25H18C19.5188 3.25 20.75 4.48122 20.75 6V8.45943L20.2481 8.29211C20.2161 8.28097 20.1831 8.27186 20.149 8.26496L17.8549 7.7998L17.8422 7.79732L17.8329 7.79567C17.4046 7.72211 16.9302 7.64732 16.4223 7.57765Z" fill="#5D5D5D"/>
<path d="M8.45943 3.25H6C4.48122 3.25 3.25 4.48122 3.25 6V8.45942L3.75222 8.29202C3.78405 8.28092 3.817 8.27184 3.85095 8.26496L6.14504 7.7998C6.15239 7.79831 6.15975 7.79693 6.16713 7.79566C6.5954 7.72211 7.06975 7.64732 7.57765 7.57765C7.63615 7.15114 7.69826 6.74834 7.7602 6.3767C7.88739 5.6136 8.01465 4.97718 8.1104 4.53035C8.15829 4.30685 8.19835 4.13054 8.22665 4.00926C8.2408 3.94862 8.25201 3.90171 8.2598 3.86953L8.26885 3.83241L8.27133 3.82236L8.27234 3.81831C8.27752 3.79758 8.28352 3.77727 8.29029 3.7574L8.45943 3.25Z" fill="#5D5D5D"/>
<path d="M7.57765 16.4223C7.06976 16.3527 6.59542 16.2779 6.16715 16.2043C5.4765 16.0857 4.89241 15.9673 4.48008 15.8783C4.27382 15.8338 4.11027 15.7966 3.99755 15.7704C3.94119 15.7572 3.89751 15.7468 3.86754 15.7396L3.83298 15.7313L3.82364 15.729L3.81991 15.728C3.79883 15.7228 3.77817 15.7168 3.75797 15.7099L3.25 15.5406V18C3.25 19.5188 4.48122 20.75 6 20.75H8.45942L8.29067 20.2438C8.28377 20.2236 8.27766 20.203 8.27239 20.1819L8.27133 20.1776L8.26885 20.1676L8.2598 20.1305C8.25201 20.0983 8.2408 20.0514 8.22665 19.9907C8.19835 19.8695 8.15829 19.6931 8.1104 19.4696C8.01465 19.0228 7.88739 18.3864 7.7602 17.6233C7.69826 17.2516 7.63615 16.8489 7.57765 16.4223Z" fill="#5D5D5D"/>
</svg>
