<svg width="24" height="24" viewBox="0 0 24 24" fill="none" xmlns="http://www.w3.org/2000/svg">
<path fill-rule="evenodd" clip-rule="evenodd" d="M3.46967 8.46967C3.76256 8.17678 4.23744 8.17678 4.53033 8.46967L8.5 12.4393L12.4697 8.46967C12.7626 8.17678 13.2374 8.17678 13.5303 8.46967C13.8232 8.76256 13.8232 9.23744 13.5303 9.53033L9.56066 13.5L13.5303 17.4697C13.8232 17.7626 13.8232 18.2374 13.5303 18.5303C13.2374 18.8232 12.7626 18.8232 12.4697 18.5303L8.5 14.5607L4.53033 18.5303C4.23744 18.8232 3.76256 18.8232 3.46967 18.5303C3.17678 18.2374 3.17678 17.7626 3.46967 17.4697L7.43934 13.5L3.46967 9.53033C3.17678 9.23744 3.17678 8.76256 3.46967 8.46967Z" fill="#5D5D5D"/>
<path fill-rule="evenodd" clip-rule="evenodd" d="M16.25 5.5C16.25 4.25736 17.2574 3.25 18.5 3.25C19.7426 3.25 20.75 4.25736 20.75 5.5V7C20.75 7.25076 20.6247 7.48494 20.416 7.62404L17.9771 9.25H20C20.4142 9.25 20.75 9.58579 20.75 10C20.75 10.4142 20.4142 10.75 20 10.75H17C16.5858 10.75 16.25 10.4142 16.25 10V9C16.25 8.74924 16.3753 8.51506 16.584 8.37596L19.25 6.59861V5.5C19.25 5.08579 18.9142 4.75 18.5 4.75C18.0858 4.75 17.75 5.08579 17.75 5.5V6C17.75 6.41421 17.4142 6.75 17 6.75C16.5858 6.75 16.25 6.41421 16.25 6V5.5Z" fill="#D9D9D9"/>
</svg>
