<svg width="24" height="24" viewBox="0 0 24 24" fill="none" xmlns="http://www.w3.org/2000/svg">
<path d="M12.5303 7.46967C12.3897 7.32902 12.1989 7.25 12 7.25C11.8011 7.25 11.6103 7.32902 11.4697 7.46967L5.05545 13.8839C4.53972 14.3996 4.24999 15.0991 4.24999 15.8284V16.7627C4.24999 16.8393 4.23765 16.9153 4.21343 16.988C3.63689 18.7176 5.2824 20.3631 7.01202 19.7866C7.08467 19.7623 7.16074 19.75 7.23732 19.75H8.17157C8.90091 19.75 9.60039 19.4603 10.1161 18.9445L16.5303 12.5303C16.671 12.3897 16.75 12.1989 16.75 12C16.75 11.8011 16.671 11.6103 16.5303 11.4697L12.5303 7.46967Z" fill="#D9D9D9"/>
<path d="M20.1027 3.16703C19.1213 2.51277 17.8245 2.59107 16.929 3.35867L15.8025 4.32422C15.3718 4.69342 14.7294 4.66875 14.3283 4.26761L14.2803 4.2196C13.297 3.23635 11.7029 3.23635 10.7196 4.2196C9.73637 5.20285 9.73637 6.79701 10.7196 7.78026L16.2196 13.2803C17.2029 14.2635 18.797 14.2635 19.7803 13.2803C20.7635 12.297 20.7635 10.7029 19.7803 9.7196L19.7323 9.6716C19.3311 9.27046 19.3065 8.62811 19.6757 8.19738L20.6412 7.07091C21.4088 6.17537 21.4871 4.8786 20.8328 3.89721C20.64 3.608 20.3919 3.35983 20.1027 3.16703Z" fill="#5D5D5D"/>
</svg>
