<svg width="24" height="24" viewBox="0 0 24 24" fill="none" xmlns="http://www.w3.org/2000/svg">
<path d="M7 2.25C5.48122 2.25 4.25 3.48122 4.25 5V19C4.25 20.5188 5.48122 21.75 7 21.75H17C18.5188 21.75 19.75 20.5188 19.75 19V8.82843C19.75 8.09908 19.4603 7.39961 18.9445 6.88388L15.1161 3.05546C14.6004 2.53973 13.9009 2.25 13.1716 2.25H7Z" fill="#5D5D5D"/>
<path fill-rule="evenodd" clip-rule="evenodd" d="M13 3.25C13.4142 3.25 13.75 3.58579 13.75 4V7C13.75 7.69036 14.3096 8.25 15 8.25H18C18.4142 8.25 18.75 8.58579 18.75 9C18.75 9.41421 18.4142 9.75 18 9.75H15C13.4812 9.75 12.25 8.51878 12.25 7V4C12.25 3.58579 12.5858 3.25 13 3.25Z" fill="#D9D9D9"/>
</svg>
