<svg width="24" height="24" viewBox="0 0 24 24" fill="none" xmlns="http://www.w3.org/2000/svg">
<path d="M6 3.25C4.48122 3.25 3.25 4.48122 3.25 6V18C3.25 19.5188 4.48122 20.75 6 20.75H7.75V3.25H6Z" fill="#D9D9D9"/>
<path d="M18 3.25H16.25V20.75H18C19.5188 20.75 20.75 19.5188 20.75 18V6C20.75 4.48122 19.5188 3.25 18 3.25Z" fill="#D9D9D9"/>
<path d="M7.75134 16.75V20.75H16.25V16.75H20.75V15.25H16.25V12.75H20.75V11.25H16.25V8.75H20.75V7.25H16.25V3.25H7.75134V7.25H3.25V8.75H7.75134V11.25H3.25V12.75H7.75134V15.25H3.25V16.75H7.75134Z" fill="#5D5D5D"/>
</svg>
