<svg width="24" height="24" viewBox="0 0 24 24" fill="none" xmlns="http://www.w3.org/2000/svg">
<path d="M12 2.25C6.61522 2.25 2.25 6.61522 2.25 12C2.25 17.3848 6.61522 21.75 12 21.75C17.3848 21.75 21.75 17.3848 21.75 12C21.75 6.61522 17.3848 2.25 12 2.25Z" fill="#5D5D5D"/>
<path d="M14.5399 5.06254L14.222 5.74185L14.222 5.74185L14.5399 5.06254ZM8.61839 5.54302L8.19517 4.92384L8.19517 4.92384L8.61839 5.54302ZM11.4432 4.52549L11.512 5.27233L11.512 5.27233L11.4432 4.52549ZM12.75 10.5C12.75 10.0858 12.4142 9.75 12 9.75C11.5858 9.75 11.25 10.0858 11.25 10.5H12.75ZM10.0219 19.2043C9.90677 19.6022 10.136 20.0181 10.5339 20.1333C10.9317 20.2484 11.3476 20.0192 11.4628 19.6213L10.0219 19.2043ZM14.5399 15.9375L15.2792 16.064L15.2792 16.064L14.5399 15.9375ZM13.0462 19.1201C12.9321 19.5183 13.1625 19.9336 13.5607 20.0476C13.9589 20.1616 14.3742 19.9312 14.4882 19.533L13.0462 19.1201ZM6.71467 12.0346C6.73376 11.6208 6.41381 11.2699 6.00004 11.2508C5.58626 11.2317 5.23536 11.5517 5.21626 11.9654L6.71467 12.0346ZM4.67667 16.4899C4.59775 16.8965 4.8634 17.2901 5.27003 17.3691C5.67665 17.448 6.07027 17.1823 6.14919 16.7757L4.67667 16.4899ZM5.4627 8.81306C5.35945 9.2142 5.60094 9.62308 6.00208 9.72633C6.40322 9.82957 6.81211 9.58808 6.91535 9.18694L5.4627 8.81306ZM15.3889 15.3793C15.4501 14.9696 15.1676 14.5879 14.758 14.5267C14.3483 14.4655 13.9666 14.748 13.9054 15.1576L15.3889 15.3793ZM14.2387 11.3472C14.2277 11.7613 14.5545 12.1059 14.9685 12.1169C15.3826 12.1279 15.7272 11.8012 15.7382 11.3871L14.2387 11.3472ZM18.7147 12.0346C18.7338 11.6208 18.4138 11.2699 18 11.2508C17.5863 11.2317 17.2354 11.5517 17.2163 11.9654L18.7147 12.0346ZM16.4134 17.7141C16.3181 18.1172 16.5677 18.5212 16.9708 18.6164C17.3739 18.7117 17.7779 18.4621 17.8732 18.059L16.4134 17.7141ZM17.0846 9.18694C17.1879 9.58808 17.5968 9.82957 17.9979 9.72633C18.3991 9.62308 18.6405 9.2142 18.5373 8.81306L17.0846 9.18694ZM7.25203 18.3653C7.14809 18.7663 7.38887 19.1756 7.78983 19.2795C8.19079 19.3835 8.60009 19.1427 8.70404 18.7417L7.25203 18.3653ZM11.8612 13.5L12.608 13.5694L11.8612 13.5ZM11.4384 16.5L10.7016 16.3602L11.4384 16.5ZM9.75 10.5C9.75 9.25736 10.7574 8.25 12 8.25V6.75C9.92893 6.75 8.25 8.42893 8.25 10.5H9.75ZM12 8.25C13.2426 8.25 14.25 9.25736 14.25 10.5H15.75C15.75 8.42893 14.0711 6.75 12 6.75V8.25ZM12 5.25C12.7957 5.25 13.5482 5.42653 14.222 5.74185L14.8578 4.38322C13.989 3.97672 13.0199 3.75 12 3.75V5.25ZM9.0416 6.16221C9.75798 5.67255 10.601 5.35615 11.512 5.27233L11.3745 3.77864C10.2023 3.88651 9.11631 4.29423 8.19517 4.92384L9.0416 6.16221ZM11.512 5.27233C11.6725 5.25757 11.8353 5.25 12 5.25V3.75C11.7893 3.75 11.5807 3.75968 11.3745 3.77864L11.512 5.27233ZM13.8007 15.8109C13.6081 16.9357 13.3555 18.0399 13.0462 19.1201L14.4882 19.533C14.8125 18.4005 15.0773 17.243 15.2792 16.064L13.8007 15.8109ZM5.21626 11.9654C5.14519 13.5056 4.96268 15.0164 4.67667 16.4899L6.14919 16.7757C6.44901 15.231 6.64022 13.6479 6.71467 12.0346L5.21626 11.9654ZM6.91535 9.18694C7.23623 7.94024 8.00494 6.87078 9.0416 6.16221L8.19517 4.92384C6.8653 5.83282 5.87628 7.20616 5.4627 8.81306L6.91535 9.18694ZM13.9054 15.1576C13.8727 15.3761 13.8378 15.5939 13.8007 15.8109L15.2792 16.064C15.3181 15.8365 15.3547 15.6083 15.3889 15.3793L13.9054 15.1576ZM14.25 10.5C14.25 10.7833 14.2462 11.0657 14.2387 11.3472L15.7382 11.3871C15.7461 11.0923 15.75 10.7966 15.75 10.5H14.25ZM17.2163 11.9654C17.1254 13.9352 16.8522 15.8568 16.4134 17.7141L17.8732 18.059C18.3332 16.1118 18.6195 14.0979 18.7147 12.0346L17.2163 11.9654ZM14.222 5.74185C15.6263 6.39891 16.6915 7.65955 17.0846 9.18694L18.5373 8.81306C18.0309 6.84542 16.6616 5.22725 14.8578 4.38322L14.222 5.74185ZM8.25 10.5C8.25 13.1515 7.91695 15.8005 7.25203 18.3653L8.70404 18.7417C9.40128 16.0522 9.75 13.2766 9.75 10.5H8.25ZM11.25 10.5C11.25 11.4884 11.2041 12.466 11.1144 13.4306L12.608 13.5694C12.702 12.5587 12.75 11.5349 12.75 10.5H11.25ZM11.1144 13.4306C11.0223 14.4214 10.884 15.3986 10.7016 16.3602L12.1753 16.6398C12.3665 15.6318 12.5115 14.6076 12.608 13.5694L11.1144 13.4306ZM10.7016 16.3602C10.5186 17.3247 10.2913 18.2735 10.0219 19.2043L11.4628 19.6213C11.7452 18.6454 11.9835 17.6508 12.1753 16.6398L10.7016 16.3602Z" fill="#D9D9D9"/>
</svg>
