<svg width="24" height="24" viewBox="0 0 24 24" fill="none" xmlns="http://www.w3.org/2000/svg">
<path fill-rule="evenodd" clip-rule="evenodd" d="M10 3.25C8.90742 3.25 7.58283 3.5198 6.57155 3.77235C6.05733 3.90076 5.60761 4.02902 5.28614 4.12525C5.12523 4.17342 4.99597 4.21371 4.9063 4.24217C4.86145 4.2564 4.82647 4.26769 4.80234 4.27553L4.77439 4.28467L4.76675 4.28719L4.76345 4.28828L4.25 4.45894V15.0396L5.23655 14.7117L5.24299 14.7096L5.26622 14.702C5.28713 14.6952 5.31873 14.685 5.36004 14.6719C5.44269 14.6457 5.56404 14.6078 5.71631 14.5622C6.0212 14.471 6.44811 14.3492 6.93498 14.2277C7.92588 13.9802 9.10129 13.75 10 13.75C10.8619 13.75 11.5109 13.9616 12.2634 14.2117L12.2875 14.2197C13.0336 14.4677 13.8827 14.75 15 14.75C16.2271 14.75 17.7537 14.409 18.8074 14.1302C19.9916 13.8169 20.75 12.7352 20.75 11.5572V6.77231C20.75 4.87522 18.9137 3.61598 17.1699 3.97766C16.4063 4.13605 15.6305 4.25 15 4.25C14.1381 4.25 13.4891 4.03839 12.7366 3.78828L12.7125 3.78027C11.9664 3.53227 11.1173 3.25 10 3.25ZM5 5C4.76345 4.28828 4.76345 4.28828 4.76345 4.28828L5 5Z" fill="#5D5D5D"/>
<path fill-rule="evenodd" clip-rule="evenodd" d="M5 2.25C5.41421 2.25 5.75 2.58579 5.75 3V21C5.75 21.4142 5.41421 21.75 5 21.75C4.58579 21.75 4.25 21.4142 4.25 21V3C4.25 2.58579 4.58579 2.25 5 2.25Z" fill="#D9D9D9"/>
</svg>
