<svg width="24" height="24" viewBox="0 0 24 24" fill="none" xmlns="http://www.w3.org/2000/svg">
<path d="M12.6327 2.59741C12.4537 2.31608 12.1105 2.18674 11.7903 2.27997C11.4702 2.3732 11.25 2.66661 11.25 3.00006V9.25006H5C4.72626 9.25006 4.47427 9.3992 4.34255 9.63915C4.21082 9.87911 4.22029 10.1718 4.36725 10.4027L11.3673 21.4027C11.5463 21.684 11.8895 21.8134 12.2097 21.7202C12.5298 21.6269 12.75 21.3335 12.75 21.0001V14.7501H19C19.2737 14.7501 19.5257 14.6009 19.6575 14.361C19.7892 14.121 19.7797 13.8283 19.6327 13.5974L12.6327 2.59741Z" fill="#5D5D5D"/>
</svg>
