<svg width="24" height="24" viewBox="0 0 24 24" fill="none" xmlns="http://www.w3.org/2000/svg">
<path fill-rule="evenodd" clip-rule="evenodd" d="M17.4697 3.46967C17.7626 3.17678 18.2374 3.17678 18.5303 3.46967L21.5303 6.46967C21.8232 6.76256 21.8232 7.23744 21.5303 7.53033L18.5303 10.5303C18.2374 10.8232 17.7626 10.8232 17.4697 10.5303C17.1768 10.2374 17.1768 9.76256 17.4697 9.46967L19.1893 7.75H16C14.2051 7.75 12.75 9.20507 12.75 11V14C12.75 16.0711 11.0711 17.75 9 17.75C8.58579 17.75 8.25 17.4142 8.25 17C8.25 16.5858 8.58579 16.25 9 16.25C10.2426 16.25 11.25 15.2426 11.25 14V11C11.25 8.37665 13.3766 6.25 16 6.25H19.1893L17.4697 4.53033C17.1768 4.23744 17.1768 3.76256 17.4697 3.46967Z" fill="#D9D9D9"/>
<path d="M6 13.25C3.92893 13.25 2.25 14.9289 2.25 17C2.25 19.0711 3.92893 20.75 6 20.75C8.07107 20.75 9.75 19.0711 9.75 17C9.75 14.9289 8.07107 13.25 6 13.25Z" fill="#5D5D5D"/>
</svg>
