<svg width="24" height="24" viewBox="0 0 24 24" fill="none" xmlns="http://www.w3.org/2000/svg">
<path d="M12 2.25C9.37192 2.25 7.15689 4.01248 6.47008 6.41973C4.13909 6.9515 2.25 8.71034 2.25 11C2.25 13.7709 4.98919 15.75 8 15.75H16C19.0108 15.75 21.75 13.7709 21.75 11C21.75 8.71034 19.8609 6.9515 17.5299 6.41973C16.8431 4.01248 14.6281 2.25 12 2.25Z" fill="#5D5D5D"/>
<path d="M5 17.25C4.58579 17.25 4.25 17.5858 4.25 18C4.25 18.4142 4.58579 18.75 5 18.75H12C12.4142 18.75 12.75 18.4142 12.75 18C12.75 17.5858 12.4142 17.25 12 17.25H5Z" fill="#D9D9D9"/>
<path d="M15 17.25C14.5858 17.25 14.25 17.5858 14.25 18C14.25 18.4142 14.5858 18.75 15 18.75H15.009C15.4232 18.75 15.759 18.4142 15.759 18C15.759 17.5858 15.4232 17.25 15.009 17.25H15Z" fill="#D9D9D9"/>
<path d="M18 17.25C17.5858 17.25 17.25 17.5858 17.25 18C17.25 18.4142 17.5858 18.75 18 18.75H19C19.4142 18.75 19.75 18.4142 19.75 18C19.75 17.5858 19.4142 17.25 19 17.25H18Z" fill="#D9D9D9"/>
<path d="M7 20.25C6.58579 20.25 6.25 20.5858 6.25 21C6.25 21.4142 6.58579 21.75 7 21.75H8C8.41421 21.75 8.75 21.4142 8.75 21C8.75 20.5858 8.41421 20.25 8 20.25H7Z" fill="#D9D9D9"/>
<path d="M11 20.25C10.5858 20.25 10.25 20.5858 10.25 21C10.25 21.4142 10.5858 21.75 11 21.75H11.009C11.4232 21.75 11.759 21.4142 11.759 21C11.759 20.5858 11.4232 20.25 11.009 20.25H11Z" fill="#D9D9D9"/>
<path d="M14 20.25C13.5858 20.25 13.25 20.5858 13.25 21C13.25 21.4142 13.5858 21.75 14 21.75H17C17.4142 21.75 17.75 21.4142 17.75 21C17.75 20.5858 17.4142 20.25 17 20.25H14Z" fill="#D9D9D9"/>
</svg>
