<svg width="24" height="24" viewBox="0 0 24 24" fill="none" xmlns="http://www.w3.org/2000/svg">
<path d="M5 3.25C3.48122 3.25 2.25 4.48122 2.25 6V17C2.25 18.5188 3.48122 19.75 5 19.75H19C20.5188 19.75 21.75 18.5188 21.75 17V9C21.75 7.48122 20.5188 6.25 19 6.25H11.8284C11.4969 6.25 11.179 6.1183 10.9445 5.88388L9.11612 4.05546C8.60039 3.53973 7.90092 3.25 7.17157 3.25H5Z" fill="#5D5D5D"/>
<path fill-rule="evenodd" clip-rule="evenodd" d="M15.5303 10.4697C15.8232 10.7626 15.8232 11.2374 15.5303 11.5303L11.5303 15.5303C11.2374 15.8232 10.7626 15.8232 10.4697 15.5303L8.46967 13.5303C8.17678 13.2374 8.17678 12.7626 8.46967 12.4697C8.76256 12.1768 9.23744 12.1768 9.53033 12.4697L11 13.9393L14.4697 10.4697C14.7626 10.1768 15.2374 10.1768 15.5303 10.4697Z" fill="#D9D9D9"/>
</svg>
