<svg width="24" height="24" viewBox="0 0 24 24" fill="none" xmlns="http://www.w3.org/2000/svg">
<path d="M5 3.25C3.48122 3.25 2.25 4.48122 2.25 6V17C2.25 18.5188 3.48122 19.75 5 19.75H19C20.5188 19.75 21.75 18.5188 21.75 17V9C21.75 7.48122 20.5188 6.25 19 6.25H11.8284C11.4969 6.25 11.179 6.1183 10.9445 5.88388L9.11612 4.05546C8.60039 3.53973 7.90092 3.25 7.17157 3.25H5Z" fill="#5D5D5D"/>
<path fill-rule="evenodd" clip-rule="evenodd" d="M9.25 13C9.25 12.5858 9.58579 12.25 10 12.25H14C14.4142 12.25 14.75 12.5858 14.75 13C14.75 13.4142 14.4142 13.75 14 13.75H10C9.58579 13.75 9.25 13.4142 9.25 13Z" fill="#D9D9D9"/>
</svg>
