<svg width="24" height="24" viewBox="0 0 24 24" fill="none" xmlns="http://www.w3.org/2000/svg">
<path d="M12.6708 2.66459C12.5438 2.4105 12.2841 2.25 12 2.25C11.7159 2.25 11.4562 2.4105 11.3292 2.66459L9.03648 7.25H4C3.71593 7.25 3.45623 7.4105 3.32918 7.66459C3.20214 7.91868 3.22956 8.22274 3.4 8.45L6.0625 12L3.4 15.55C3.22956 15.7773 3.20214 16.0813 3.32918 16.3354C3.45623 16.5895 3.71593 16.75 4 16.75H9.03648L11.3292 21.3354C11.4562 21.5895 11.7159 21.75 12 21.75C12.2841 21.75 12.5438 21.5895 12.6708 21.3354L14.9635 16.75H20C20.2841 16.75 20.5438 16.5895 20.6708 16.3354C20.7979 16.0813 20.7705 15.7773 20.6 15.55L17.9375 12L20.6 8.45C20.7705 8.22274 20.7979 7.91868 20.6708 7.66459C20.5438 7.4105 20.2841 7.25 20 7.25H14.9635L12.6708 2.66459Z" fill="#5D5D5D"/>
<path fill-rule="evenodd" clip-rule="evenodd" d="M9.6025 8.16391C9.95375 7.94437 10.4165 8.05115 10.636 8.40241L12 10.5848L13.364 8.40241C13.5835 8.05115 14.0462 7.94437 14.3975 8.16391C14.7488 8.38344 14.8555 8.84615 14.636 9.1974L13.3532 11.2499H16C16.4142 11.2499 16.75 11.5857 16.75 11.9999C16.75 12.4141 16.4142 12.7499 16 12.7499H13.3532L14.636 14.8024C14.8555 15.1537 14.7488 15.6164 14.3975 15.8359C14.0462 16.0554 13.5835 15.9487 13.364 15.5974L12 13.415L10.636 15.5974C10.4165 15.9487 9.95375 16.0554 9.6025 15.8359C9.25125 15.6164 9.14447 15.1537 9.364 14.8024L10.6468 12.7499H8C7.58579 12.7499 7.25 12.4141 7.25 11.9999C7.25 11.5857 7.58579 11.2499 8 11.2499H10.6468L9.364 9.1974C9.14447 8.84615 9.25125 8.38344 9.6025 8.16391Z" fill="#D9D9D9"/>
</svg>
