<svg width="24" height="24" viewBox="0 0 24 24" fill="none" xmlns="http://www.w3.org/2000/svg">
<path d="M17.6964 5.72146C17.6147 5.5174 17.4477 5.35941 17.2394 5.28925C17.0312 5.21908 16.8026 5.24381 16.6141 5.35688L12.5851 7.77428C11.7568 8.27127 11.25 9.16641 11.25 10.1324V21C11.25 21.2657 11.3906 21.5116 11.6197 21.6464C11.8487 21.7812 12.1319 21.7847 12.3642 21.6556L19.8243 17.5111C21.0346 16.8387 21.5563 15.3714 21.0421 14.0859L17.6964 5.72146Z" fill="black"/>
<path d="M13.4149 2.97441C12.544 2.45189 11.456 2.45189 10.5851 2.97441L6.61413 5.35702C6.38822 5.49256 6.25 5.73669 6.25 6.00014C6.25 6.26359 6.38822 6.50772 6.61413 6.64326L10.5851 9.02586C11.456 9.54839 12.544 9.54839 13.4149 9.02586L17.3859 6.64326C17.6118 6.50772 17.75 6.26359 17.75 6.00014C17.75 5.73669 17.6118 5.49256 17.3859 5.35702L13.4149 2.97441Z" fill="#5D5D5D"/>
<path d="M7.38584 5.35688C7.19738 5.24381 6.96881 5.21908 6.76053 5.28925C6.55226 5.35941 6.38523 5.5174 6.30361 5.72146L2.95785 14.0859C2.44364 15.3714 2.96533 16.8387 4.17564 17.5111L11.6357 21.6556C11.868 21.7847 12.1513 21.7812 12.3803 21.6464C12.6093 21.5116 12.75 21.2657 12.75 21V10.1324C12.75 9.16641 12.2431 8.27127 11.4148 7.77428L7.38584 5.35688Z" fill="#D9D9D9"/>
</svg>
