<svg width="24" height="24" viewBox="0 0 24 24" fill="none" xmlns="http://www.w3.org/2000/svg">
<path d="M7 2.25C5.48122 2.25 4.25 3.48122 4.25 5V19C4.25 20.5188 5.48122 21.75 7 21.75H15C16.5188 21.75 17.75 20.5188 17.75 19V5C17.75 3.48122 16.5188 2.25 15 2.25H7Z" fill="#5D5D5D"/>
<path d="M8 5.25C7.58579 5.25 7.25 5.58579 7.25 6V11C7.25 11.4142 7.58579 11.75 8 11.75H14C14.4142 11.75 14.75 11.4142 14.75 11V6C14.75 5.58579 14.4142 5.25 14 5.25H8Z" fill="#D9D9D9"/>
<path d="M8 13.25C7.58579 13.25 7.25 13.5858 7.25 14C7.25 14.4142 7.58579 14.75 8 14.75H10C10.4142 14.75 10.75 14.4142 10.75 14C10.75 13.5858 10.4142 13.25 10 13.25H8Z" fill="#D9D9D9"/>
<path d="M19.4697 6.46967C19.7626 6.17678 20.2374 6.17678 20.5303 6.46967L20.9445 6.88388C21.4603 7.39961 21.75 8.09908 21.75 8.82843V14C21.75 15.5188 20.5188 16.75 19 16.75H17C16.5858 16.75 16.25 16.4142 16.25 16C16.25 15.5858 16.5858 15.25 17 15.25H19C19.6904 15.25 20.25 14.6904 20.25 14V8.82843C20.25 8.49691 20.1183 8.17896 19.8839 7.94454L19.4697 7.53033C19.1768 7.23744 19.1768 6.76256 19.4697 6.46967Z" fill="#D9D9D9"/>
</svg>
