<svg width="24" height="24" viewBox="0 0 24 24" fill="none" xmlns="http://www.w3.org/2000/svg">
<path fill-rule="evenodd" clip-rule="evenodd" d="M12 3.42322C11.4038 2.70637 10.5052 2.25 9.5 2.25C7.70507 2.25 6.25 3.70507 6.25 5.5C6.25 6.14432 6.4375 6.74485 6.76091 7.25L12 11L17.2391 7.25C17.5625 6.74485 17.75 6.14432 17.75 5.5C17.75 3.70507 16.2949 2.25 14.5 2.25C13.4948 2.25 12.5962 2.70637 12 3.42322ZM9.5 3.75C8.5335 3.75 7.75 4.5335 7.75 5.5C7.75 6.4665 8.5335 7.25 9.5 7.25H11.25V5.5C11.25 4.5335 10.4665 3.75 9.5 3.75ZM14.5 7.25C15.4665 7.25 16.25 6.4665 16.25 5.5C16.25 4.5335 15.4665 3.75 14.5 3.75C13.5335 3.75 12.75 4.5335 12.75 5.5V7.25H14.5Z" fill="#5D5D5D"/>
<path d="M19.75 13.6465V19C19.75 20.5188 18.5188 21.75 17 21.75H7C5.48122 21.75 4.25 20.5188 4.25 19V13.6465H19.75Z" fill="#5D5D5D"/>
<path d="M5 7.25C3.48122 7.25 2.25 8.48122 2.25 10V11C2.25 12.5188 3.48122 13.75 5 13.75H19C20.5188 13.75 21.75 12.5188 21.75 11V10C21.75 8.48122 20.5188 7.25 19 7.25H5Z" fill="#D9D9D9"/>
</svg>
