<svg width="24" height="24" viewBox="0 0 24 24" fill="none" xmlns="http://www.w3.org/2000/svg">
<path fill-rule="evenodd" clip-rule="evenodd" d="M6.58281 20.1077C8.1325 21.145 9.99674 21.75 12 21.75C17.1836 21.75 21.4224 17.7048 21.7319 12.599C21.7439 12.4009 21.75 12.2012 21.75 12C21.75 11.3489 21.6861 10.7119 21.5639 10.0953C21.0975 7.74133 19.7849 5.69407 17.9587 4.2822C16.3111 3.00835 14.243 2.25 12 2.25C9.50333 2.25 7.22428 3.1894 5.49981 4.73283C3.75933 6.29061 2.58041 8.46667 2.30947 10.9176C2.27016 11.2732 2.25 11.6344 2.25 12C2.25 12.7436 2.33338 13.4687 2.49161 14.166C3.05171 16.6343 4.54685 18.7449 6.58281 20.1077Z" fill="#5D5D5D"/>
<path d="M17.9587 4.28217C17.631 4.02882 17.16 4.08909 16.9066 4.41679C16.7464 4.62401 16.7116 4.88856 16.7906 5.11912C16.6946 5.13443 16.5991 5.15681 16.5052 5.18614L16.4077 5.21656C15.8334 5.39589 15.3703 5.82425 15.1468 6.38289L14.7023 7.49434C14.574 7.81502 14.311 8.06297 13.9834 8.17219C13.4216 8.35945 13.0872 8.93573 13.2033 9.5164L13.2913 9.95635C13.4126 10.5632 13.9455 11 14.5643 11C15.1231 11 15.6192 10.6424 15.7959 10.1123L15.8175 10.0474C15.9344 9.69689 16.1857 9.40715 16.5161 9.24192L16.8292 9.08539C16.9415 9.02922 17.0654 8.99998 17.191 8.99998C17.6378 8.99998 18 9.36219 18 9.80899V9.85455C18 10.1002 17.8943 10.334 17.7098 10.4963L16.1946 11.8288C16.0654 11.9425 15.9221 12.0389 15.7682 12.1159L14.7282 12.6359C14.266 12.867 13.9279 13.2885 13.8025 13.7898C13.6211 14.5155 13.9155 15.277 14.5379 15.6919L15 16L15.4437 16.2219C15.7999 16.3999 16.0707 16.7122 16.1967 17.09C16.3353 17.5058 16.6454 17.8329 17.0367 17.9983L17.1885 18.1222C17.9438 18.739 19.141 18.7278 19.7989 17.8523C20.3543 17.1133 20.3631 16.1655 20.014 15.4082L19.6811 14.686C19.675 14.6727 19.6685 14.6598 19.6618 14.647L19.6153 14.4612C19.5409 14.1636 19.5754 13.8491 19.7126 13.5747C19.8935 13.2129 19.8935 12.787 19.7126 12.4252L19.6821 12.3641C19.3601 11.7203 19.5738 10.9559 20.1401 10.5619L20.4998 10.499C21.1035 10.3934 21.5189 9.78183 21.3291 9.15802C20.733 7.19913 19.538 5.50318 17.9587 4.28217Z" fill="#D9D9D9"/>
<path d="M6.99997 18.0067C7.13009 18.3111 7.32326 18.642 7.61264 19.0518C7.82119 19.3472 7.78933 19.7493 7.53688 20.0081C7.28442 20.2669 6.88324 20.3088 6.58278 20.1077C5.90016 19.6508 5.27862 19.11 4.7328 18.5002C4.36458 18.0888 4.03073 17.6458 3.7358 17.1758C3.2314 16.372 2.84079 15.489 2.58691 14.5496C2.49381 14.2051 2.48543 13.8585 2.53012 13.5358L2.67999 12.4536C2.71116 12.2286 2.67871 11.9992 2.58631 11.7916C2.39393 11.3594 2.30232 10.8578 2.3898 10.3461C2.62474 8.97189 3.14714 7.69591 3.89235 6.58265C4.32155 5.94149 5.01935 5.57373 5.74103 5.50524C6.25214 5.45673 6.817 5.42969 7.32861 5.56664C7.85252 5.70689 8.30159 6.01343 8.60482 6.5415C8.85458 6.83357 9 7.2105 9 7.61143C9 7.86695 8.94051 8.11896 8.82624 8.3475L8.5 8.99998L7.8923 9.91154C7.65522 10.2672 7.22599 10.4432 6.80747 10.3566C6.45946 10.2845 6.09864 10.3937 5.84894 10.6466L5.5 11L5.30902 11.191C4.86221 11.6378 4.86221 12.3622 5.30902 12.809C5.43462 12.9346 5.58773 13.0292 5.75623 13.0854L6.5521 13.3507C6.84665 13.4489 7.1143 13.6143 7.33385 13.8338L7.73604 14.236C7.90963 14.4096 8.04042 14.6212 8.11805 14.8541L8.16479 14.9943C8.3627 15.5881 8.13874 16.2408 7.61801 16.588C7.23191 16.8454 7 17.2787 7 17.7427V18C7 18.0022 6.99999 18.0044 6.99997 18.0067Z" fill="#D9D9D9"/>
</svg>
