<svg width="24" height="24" viewBox="0 0 24 24" fill="none" xmlns="http://www.w3.org/2000/svg">
<path d="M10 9.25C9.13442 9.25 8.31935 9.65753 7.8 10.35L5.8 13.0167C5.44299 13.4927 5.25 14.0716 5.25 14.6667V19C5.25 20.5188 6.48122 21.75 8 21.75H13C14.5188 21.75 15.75 20.5188 15.75 19V14.6667C15.75 14.0716 15.557 13.4927 15.2 13.0167L13.2 10.35C12.6807 9.65753 11.8656 9.25 11 9.25H10Z" fill="#5D5D5D"/>
<path d="M21 3.25C20.5858 3.25 20.25 3.58579 20.25 4C20.25 4.41421 20.5858 4.75 21 4.75H21.009C21.4232 4.75 21.759 4.41421 21.759 4C21.759 3.58579 21.4232 3.25 21.009 3.25H21Z" fill="#D9D9D9"/>
<path d="M18 5.25C17.5858 5.25 17.25 5.58579 17.25 6C17.25 6.41421 17.5858 6.75 18 6.75H18.009C18.4232 6.75 18.759 6.41421 18.759 6C18.759 5.58579 18.4232 5.25 18.009 5.25H18Z" fill="#D9D9D9"/>
<path d="M10.5 6.25C9.25736 6.25 8.25 7.25736 8.25 8.5V10C8.25 10.4142 8.58579 10.75 9 10.75H12C12.4142 10.75 12.75 10.4142 12.75 10V8.5C12.75 7.25736 11.7426 6.25 10.5 6.25Z" fill="#D9D9D9"/>
<path d="M15 7.25C14.5858 7.25 14.25 7.58579 14.25 8C14.25 8.41421 14.5858 8.75 15 8.75H15.009C15.4232 8.75 15.759 8.41421 15.759 8C15.759 7.58579 15.4232 7.25 15.009 7.25H15Z" fill="#D9D9D9"/>
<path d="M21 7.25C20.5858 7.25 20.25 7.58579 20.25 8C20.25 8.41421 20.5858 8.75 21 8.75H21.009C21.4232 8.75 21.759 8.41421 21.759 8C21.759 7.58579 21.4232 7.25 21.009 7.25H21Z" fill="#D9D9D9"/>
<path d="M18 9.25C17.5858 9.25 17.25 9.58579 17.25 10C17.25 10.4142 17.5858 10.75 18 10.75H18.009C18.4232 10.75 18.759 10.4142 18.759 10C18.759 9.58579 18.4232 9.25 18.009 9.25H18Z" fill="#D9D9D9"/>
<path d="M21 11.25C20.5858 11.25 20.25 11.5858 20.25 12C20.25 12.4142 20.5858 12.75 21 12.75H21.009C21.4232 12.75 21.759 12.4142 21.759 12C21.759 11.5858 21.4232 11.25 21.009 11.25H21Z" fill="#D9D9D9"/>
</svg>
