<svg width="24" height="24" viewBox="0 0 24 24" fill="none" xmlns="http://www.w3.org/2000/svg">
<path d="M19 3.25C20.5188 3.25 21.75 4.48122 21.75 6V18C21.75 19.5188 20.5188 20.75 19 20.75C17.4812 20.75 16.25 19.5188 16.25 18V6C16.25 4.48122 17.4812 3.25 19 3.25Z" fill="#5D5D5D"/>
<path d="M12 7.25C13.5188 7.25 14.75 8.48122 14.75 10V18C14.75 19.5188 13.5188 20.75 12 20.75C10.4812 20.75 9.25 19.5188 9.25 18V10C9.25 8.48122 10.4812 7.25 12 7.25Z" fill="#5D5D5D"/>
<path d="M5 11.25C6.51878 11.25 7.75 12.4812 7.75 14V18C7.75 19.5188 6.51878 20.75 5 20.75C3.48122 20.75 2.25 19.5188 2.25 18V14C2.25 12.4812 3.48122 11.25 5 11.25Z" fill="#5D5D5D"/>
</svg>
