<svg width="24" height="24" viewBox="0 0 24 24" fill="none" xmlns="http://www.w3.org/2000/svg">
<path d="M19 11.25C17.4812 11.25 16.25 12.4812 16.25 14V18C16.25 19.5188 17.4812 20.75 19 20.75C20.5188 20.75 21.75 19.5188 21.75 18V14C21.75 12.4812 20.5188 11.25 19 11.25Z" fill="#5D5D5D"/>
<path d="M12 7.25C10.4812 7.25 9.25 8.48122 9.25 10V18C9.25 19.5188 10.4812 20.75 12 20.75C13.5188 20.75 14.75 19.5188 14.75 18V10C14.75 8.48122 13.5188 7.25 12 7.25Z" fill="#5D5D5D"/>
<path d="M5 3.25C3.48122 3.25 2.25 4.48122 2.25 6V18C2.25 19.5188 3.48122 20.75 5 20.75C6.51878 20.75 7.75 19.5188 7.75 18V6C7.75 4.48122 6.51878 3.25 5 3.25Z" fill="#5D5D5D"/>
</svg>
