<svg width="24" height="24" viewBox="0 0 24 24" fill="none" xmlns="http://www.w3.org/2000/svg">
<path fill-rule="evenodd" clip-rule="evenodd" d="M5 4.25C5.41421 4.25 5.75 4.58579 5.75 5V11.25H12.25V5C12.25 4.58579 12.5858 4.25 13 4.25C13.4142 4.25 13.75 4.58579 13.75 5V19C13.75 19.4142 13.4142 19.75 13 19.75C12.5858 19.75 12.25 19.4142 12.25 19V12.75H5.75V19C5.75 19.4142 5.41421 19.75 5 19.75C4.58579 19.75 4.25 19.4142 4.25 19V5C4.25 4.58579 4.58579 4.25 5 4.25Z" fill="#5D5D5D"/>
<path fill-rule="evenodd" clip-rule="evenodd" d="M19.287 12.3071C19.5673 12.4232 19.75 12.6967 19.75 13V19C19.75 19.4142 19.4142 19.75 19 19.75C18.5858 19.75 18.25 19.4142 18.25 19V14.8107L17.5303 15.5304C17.2374 15.8232 16.7626 15.8232 16.4697 15.5304C16.1768 15.2375 16.1768 14.7626 16.4697 14.4697L18.4697 12.4697C18.6842 12.2552 19.0068 12.191 19.287 12.3071Z" fill="#D9D9D9"/>
</svg>
