<svg width="24" height="24" viewBox="0 0 24 24" fill="none" xmlns="http://www.w3.org/2000/svg">
<path fill-rule="evenodd" clip-rule="evenodd" d="M5 4.25C5.41421 4.25 5.75 4.58579 5.75 5V11.25H12.25V5C12.25 4.58579 12.5858 4.25 13 4.25C13.4142 4.25 13.75 4.58579 13.75 5V19C13.75 19.4142 13.4142 19.75 13 19.75C12.5858 19.75 12.25 19.4142 12.25 19V12.75H5.75V19C5.75 19.4142 5.41421 19.75 5 19.75C4.58579 19.75 4.25 19.4142 4.25 19V5C4.25 4.58579 4.58579 4.25 5 4.25Z" fill="#5D5D5D"/>
<path fill-rule="evenodd" clip-rule="evenodd" d="M16.25 14.5C16.25 13.2574 17.2574 12.25 18.5 12.25C19.7426 12.25 20.75 13.2574 20.75 14.5V16C20.75 16.2508 20.6247 16.4849 20.416 16.624L17.9771 18.25H20C20.4142 18.25 20.75 18.5858 20.75 19C20.75 19.4142 20.4142 19.75 20 19.75H17C16.5858 19.75 16.25 19.4142 16.25 19V18C16.25 17.7492 16.3753 17.5151 16.584 17.376L19.25 15.5986V14.5C19.25 14.0858 18.9142 13.75 18.5 13.75C18.0858 13.75 17.75 14.0858 17.75 14.5V15C17.75 15.4142 17.4142 15.75 17 15.75C16.5858 15.75 16.25 15.4142 16.25 15V14.5Z" fill="#D9D9D9"/>
</svg>
