<svg width="24" height="24" viewBox="0 0 24 24" fill="none" xmlns="http://www.w3.org/2000/svg">
<path fill-rule="evenodd" clip-rule="evenodd" d="M5 4.25C5.41421 4.25 5.75 4.58579 5.75 5V11.25H12.25V5C12.25 4.58579 12.5858 4.25 13 4.25C13.4142 4.25 13.75 4.58579 13.75 5V19C13.75 19.4142 13.4142 19.75 13 19.75C12.5858 19.75 12.25 19.4142 12.25 19V12.75H5.75V19C5.75 19.4142 5.41421 19.75 5 19.75C4.58579 19.75 4.25 19.4142 4.25 19V5C4.25 4.58579 4.58579 4.25 5 4.25Z" fill="#5D5D5D"/>
<path fill-rule="evenodd" clip-rule="evenodd" d="M17 12.25C17.4142 12.25 17.75 12.5858 17.75 13V15.25H19.25V13C19.25 12.5858 19.5858 12.25 20 12.25C20.4142 12.25 20.75 12.5858 20.75 13V19C20.75 19.4142 20.4142 19.75 20 19.75C19.5858 19.75 19.25 19.4142 19.25 19V16.75H17C16.5858 16.75 16.25 16.4142 16.25 16V13C16.25 12.5858 16.5858 12.25 17 12.25Z" fill="#D9D9D9"/>
</svg>
