<svg width="24" height="24" viewBox="0 0 24 24" fill="none" xmlns="http://www.w3.org/2000/svg">
<path d="M20 7V12L18.4144 17.5494C18.1691 18.408 17.3843 19 16.4914 19H8.99996C7.99996 19 5.99996 16 5.99996 16C5.99996 16 5.63096 12.679 4.89296 10.5667C4.63243 9.82101 4.96968 8.63636 5.70928 8.359L6.64884 8.00667C7.30259 7.76152 7.99996 8.24479 7.99996 8.943V5C7.99996 4.44772 8.44767 4 8.99996 4H11C11 3.44772 11.4477 3 12 3H13C13.5522 3 14 3.44772 14 4V5C14 4.44772 14.4477 4 15 4H16C16.5522 4 17 4.44772 17 5V6H19C19.5522 6 20 6.44772 20 7Z" fill="#D9D9D9"/>
<path fill-rule="evenodd" clip-rule="evenodd" d="M10.4184 3.25C10.6993 2.65876 11.3019 2.25 12 2.25H13C13.7158 2.25 14.3312 2.67978 14.6023 3.29537C14.7301 3.26569 14.8632 3.25 15 3.25H16C16.9665 3.25 17.75 4.0335 17.75 5V5.25H19C19.9665 5.25 20.75 6.0335 20.75 7V12C20.75 12.0697 20.7403 12.139 20.7211 12.206L19.1356 17.7555C18.7983 18.9361 17.7192 19.75 16.4914 19.75H8.99999C8.69792 19.75 8.42888 19.6408 8.22483 19.5295C8.01247 19.4137 7.80834 19.261 7.62127 19.1007C7.247 18.7799 6.87246 18.3685 6.54882 17.9801C6.22171 17.5876 5.92953 17.1978 5.7201 16.9079C5.61502 16.7624 5.52992 16.6408 5.47071 16.555C5.44108 16.5121 5.41789 16.4781 5.40186 16.4545L5.38327 16.4269L5.37817 16.4193L5.37607 16.4162C5.30957 16.3165 5.26783 16.202 5.25458 16.0829L5.25369 16.075L5.25066 16.0487C5.24793 16.0251 5.24376 15.9897 5.23816 15.9436C5.22697 15.8514 5.21006 15.7165 5.18744 15.5477C5.14217 15.2097 5.07422 14.7372 4.98368 14.2002C4.80078 13.1154 4.53229 11.8082 4.18496 10.8141C3.98822 10.251 4.02999 9.59288 4.21603 9.04577C4.39878 8.50834 4.78401 7.90499 5.44597 7.65676L6.38552 7.30443C6.67582 7.19556 6.97104 7.16878 7.24999 7.20939V5C7.24999 4.0335 8.03349 3.25 8.99999 3.25H10.4184ZM10.25 4.75H8.99999C8.86192 4.75 8.74999 4.86193 8.74999 5V12C8.74999 12.4142 8.4142 12.75 7.99999 12.75C7.58577 12.75 7.24999 12.4142 7.24999 12V8.943C7.24999 8.76845 7.07564 8.64763 6.91221 8.70892L5.97265 9.06125C5.89501 9.09037 5.74181 9.21803 5.63617 9.52868C5.53382 9.82967 5.53723 10.1368 5.60102 10.3193C5.99169 11.4375 6.2767 12.847 6.4628 13.9508C6.55676 14.508 6.62718 14.9978 6.67416 15.3485C6.69507 15.5046 6.71138 15.6335 6.72308 15.7288C6.77607 15.8052 6.84847 15.9083 6.93612 16.0296C7.13295 16.3022 7.40326 16.6624 7.70115 17.0199C8.00252 17.3815 8.31548 17.7201 8.59746 17.9618C8.73851 18.0827 8.85469 18.1644 8.94311 18.2127C8.98629 18.2362 9.01263 18.2462 9.02393 18.25H16.4914C17.0495 18.25 17.54 17.88 17.6933 17.3434L19.25 11.895V7C19.25 6.86193 19.1381 6.75 19 6.75H17.75V8.5C17.75 8.91421 17.4142 9.25 17 9.25C16.5858 9.25 16.25 8.91421 16.25 8.5V5C16.25 4.86193 16.1381 4.75 16 4.75H15C14.8619 4.75 14.75 4.86193 14.75 5V8.5C14.75 8.91421 14.4142 9.25 14 9.25C13.5858 9.25 13.25 8.91421 13.25 8.5V4C13.25 3.86193 13.1381 3.75 13 3.75H12C11.8619 3.75 11.75 3.86193 11.75 4V8.5C11.75 8.91421 11.4142 9.25 11 9.25C10.5858 9.25 10.25 8.91421 10.25 8.5V4.75Z" fill="#5D5D5D"/>
</svg>
