<svg width="24" height="24" viewBox="0 0 24 24" fill="none" xmlns="http://www.w3.org/2000/svg">
<path d="M19.9999 7V14L18.4144 19.5494C18.1691 20.408 17.3843 21 16.4913 21H8.99994C7.99994 21 5.99994 18 5.99994 18C5.99994 18 4.85623 13.8826 3.70573 11.901C3.40018 11.3747 3.38493 10.615 3.81524 10.1847L4.18464 9.8153C4.61495 9.38499 5.32662 9.43557 5.69175 9.92241L7.99994 13V5C7.99994 4.44772 8.44766 4 8.99994 4H10.9999C10.9999 3.44772 11.4477 3 11.9999 3H12.9999C13.5522 3 13.9999 3.44772 13.9999 4V5C13.9999 4.44772 14.4477 4 14.9999 4H15.9999C16.5522 4 16.9999 4.44772 16.9999 5V6H18.9999C19.5522 6 19.9999 6.44772 19.9999 7Z" fill="#D9D9D9"/>
<path fill-rule="evenodd" clip-rule="evenodd" d="M10.4184 3.25C10.6992 2.65876 11.3019 2.25 12 2.25H13C13.7158 2.25 14.3312 2.67978 14.6023 3.29537C14.7301 3.26569 14.8632 3.25 15 3.25H16C16.9665 3.25 17.75 4.0335 17.75 5V5.25H19C19.9665 5.25 20.75 6.0335 20.75 7V14C20.75 14.0697 20.7403 14.139 20.7211 14.206L19.1356 19.7555C18.7983 20.9361 17.7192 21.75 16.4914 21.75H8.99998C8.6979 21.75 8.42887 21.6408 8.22482 21.5295C8.01246 21.4137 7.80833 21.261 7.62126 21.1007C7.24698 20.7799 6.87245 20.3685 6.54881 19.9801C6.2217 19.5876 5.92952 19.1978 5.72009 18.9079C5.61501 18.7624 5.52991 18.6408 5.47069 18.555C5.44107 18.5121 5.41787 18.4781 5.40185 18.4545L5.38326 18.4269L5.37815 18.4193L5.37606 18.4162C5.37599 18.4161 5.37594 18.416 5.99998 18L5.37606 18.4162C5.332 18.3501 5.29861 18.2773 5.27735 18.2008C5.27735 18.2008 5.27736 18.2008 5.27735 18.2008L5.27446 18.1904L5.26511 18.1572C5.25677 18.1277 5.24425 18.0837 5.22785 18.0267C5.19503 17.9127 5.14667 17.7468 5.08498 17.5414C4.9615 17.1302 4.78509 16.5617 4.57347 15.9328C4.14412 14.6569 3.59069 13.1965 3.05715 12.2776C2.64225 11.5629 2.53736 10.402 3.28495 9.65437L3.65435 9.28497C4.40739 8.53193 5.6528 8.62044 6.29178 9.47241L7.24998 10.75V5C7.24998 4.0335 8.03348 3.25 8.99998 3.25H10.4184ZM10.25 4.75H8.99998C8.86191 4.75 8.74998 4.86193 8.74998 5V13C8.74998 13.3228 8.5434 13.6094 8.23715 13.7115C7.93089 13.8136 7.59367 13.7083 7.39998 13.45L5.09178 10.3724C5.0005 10.2507 4.82258 10.2381 4.71501 10.3456L4.34561 10.715C4.23257 10.8281 4.15818 11.1865 4.35437 11.5244C4.97133 12.5871 5.56501 14.1762 5.99514 15.4544C6.21326 16.1026 6.39469 16.6873 6.52161 17.11C6.58512 17.3215 6.6351 17.4929 6.66932 17.6118C6.67642 17.6364 6.68284 17.6588 6.68856 17.6788C6.69376 17.6864 6.69926 17.6944 6.70504 17.7028C6.7591 17.7811 6.83806 17.8939 6.93611 18.0296C7.13294 18.3022 7.40325 18.6624 7.70114 19.0199C8.00251 19.3815 8.31547 19.7201 8.59744 19.9618C8.7385 20.0827 8.85468 20.1644 8.9431 20.2127C8.98628 20.2362 9.01262 20.2462 9.02392 20.25H16.4914C17.0495 20.25 17.54 19.88 17.6933 19.3434L19.25 13.895V7C19.25 6.86193 19.138 6.75 19 6.75H17.75V12C17.75 12.4142 17.4142 12.75 17 12.75C16.5858 12.75 16.25 12.4142 16.25 12V5C16.25 4.86193 16.138 4.75 16 4.75H15C14.8619 4.75 14.75 4.86193 14.75 5V12C14.75 12.4142 14.4142 12.75 14 12.75C13.5858 12.75 13.25 12.4142 13.25 12V4C13.25 3.86193 13.138 3.75 13 3.75H12C11.8619 3.75 11.75 3.86193 11.75 4V12C11.75 12.4142 11.4142 12.75 11 12.75C10.5858 12.75 10.25 12.4142 10.25 12V4.75Z" fill="#5D5D5D"/>
</svg>
