<svg width="24" height="24" viewBox="0 0 24 24" fill="none" xmlns="http://www.w3.org/2000/svg">
<path fill-rule="evenodd" clip-rule="evenodd" d="M11 3.75C10.3096 3.75 9.75 4.30964 9.75 5V7.00002C9.75 7.41423 9.41421 7.75002 9 7.75002C8.58579 7.75002 8.25 7.41423 8.25 7.00002V5C8.25 3.48121 9.48122 2.24999 11 2.25L13 2.25001C14.5188 2.25001 15.75 3.48123 15.75 5.00001V7.00002C15.75 7.41423 15.4142 7.75002 15 7.75002C14.5858 7.75002 14.25 7.41423 14.25 7.00002V5.00001C14.25 4.30965 13.6904 3.75001 13 3.75001L11 3.75Z" fill="#D9D9D9"/>
<path d="M5 6.25C3.48122 6.25 2.25 7.48122 2.25 9V17C2.25 18.5188 3.48122 19.75 5 19.75H19C20.5188 19.75 21.75 18.5188 21.75 17V9C21.75 7.48122 20.5188 6.25 19 6.25H5Z" fill="#5D5D5D"/>
</svg>
