<svg width="24" height="24" viewBox="0 0 24 24" fill="none" xmlns="http://www.w3.org/2000/svg">
<path d="M19.0381 8.41122C18.1594 8.07492 15.6307 7.24835 11.9976 7.25C8.36447 7.25165 5.83651 8.08052 4.95808 8.41762C4.64403 8.53814 4.38139 8.72562 4.16805 8.9382L3.00258 10.0995C2.52079 10.5795 2.24969 11.2312 2.25 11.9112L2.25059 13.1911C2.25124 14.6082 3.40478 15.7506 4.81997 15.75L6.65387 15.7492C7.87555 15.7486 8.93089 14.8894 9.17114 13.6907L9.31439 12.976C9.39026 12.5974 9.65514 12.3173 9.98499 12.2327C10.6358 12.0658 11.4193 11.9073 11.9997 11.9071C12.5801 11.9068 13.3638 12.0646 14.0147 12.2309C14.3446 12.3152 14.6098 12.5951 14.686 12.9735L14.8299 13.6881C15.0713 14.8866 16.1274 15.7449 17.3491 15.7443L19.183 15.7435C20.5982 15.7428 21.7507 14.5993 21.75 13.1823L21.7494 11.9024C21.7491 11.2223 21.4774 10.5709 20.9952 10.0913L19.8286 8.93108C19.6151 8.71869 19.3523 8.53145 19.0381 8.41122Z" fill="#5D5D5D"/>
</svg>
