<svg width="24" height="24" viewBox="0 0 24 24" fill="none" xmlns="http://www.w3.org/2000/svg">
<path d="M12 2.25C6.61522 2.25 2.25 6.61522 2.25 12C2.25 17.3848 6.61522 21.75 12 21.75C17.3848 21.75 21.75 17.3848 21.75 12C21.75 6.61522 17.3848 2.25 12 2.25Z" fill="#5D5D5D"/>
<path fill-rule="evenodd" clip-rule="evenodd" d="M8.25 9C8.25 8.58579 8.58579 8.25 9 8.25H9.00898C9.4232 8.25 9.75898 8.58579 9.75898 9C9.75898 9.41421 9.4232 9.75 9.00898 9.75H9C8.58579 9.75 8.25 9.41421 8.25 9ZM14.25 9C14.25 8.58579 14.5858 8.25 15 8.25H15.009C15.4232 8.25 15.759 8.58579 15.759 9C15.759 9.41421 15.4232 9.75 15.009 9.75H15C14.5858 9.75 14.25 9.41421 14.25 9ZM7 11.25C7.41421 11.25 7.75 11.5858 7.75 12C7.75 12.5322 8.10801 13.6219 8.88565 14.594C9.64428 15.5423 10.6985 16.25 12 16.25C13.3434 16.25 14.3955 15.6267 15.1285 14.7643C15.8765 13.8843 16.25 12.8027 16.25 12C16.25 11.5858 16.5858 11.25 17 11.25C17.4142 11.25 17.75 11.5858 17.75 12C17.75 13.1973 17.2235 14.6157 16.2715 15.7357C15.3045 16.8733 13.8566 17.75 12 17.75C10.1015 17.75 8.65572 16.7077 7.71435 15.531C6.79199 14.3781 6.25 12.9678 6.25 12C6.25 11.5858 6.58579 11.25 7 11.25Z" fill="#D9D9D9"/>
</svg>
