<svg width="24" height="24" viewBox="0 0 24 24" fill="none" xmlns="http://www.w3.org/2000/svg">
<path fill-rule="evenodd" clip-rule="evenodd" d="M3.25 8C3.25 5.37665 5.37665 3.25 8 3.25H16C18.6234 3.25 20.75 5.37665 20.75 8V18C20.75 18.4142 20.4142 18.75 20 18.75C19.5858 18.75 19.25 18.4142 19.25 18V8C19.25 6.20507 17.7949 4.75 16 4.75H8C6.20507 4.75 4.75 6.20507 4.75 8V18C4.75 18.4142 4.41421 18.75 4 18.75C3.58579 18.75 3.25 18.4142 3.25 18V8Z" fill="#5D5D5D"/>
<path d="M6 12.25C4.48122 12.25 3.25 13.4812 3.25 15V18C3.25 19.5188 4.48122 20.75 6 20.75C7.51878 20.75 8.75 19.5188 8.75 18V15C8.75 13.4812 7.51878 12.25 6 12.25Z" fill="#D9D9D9"/>
<path d="M18 12.25C16.4812 12.25 15.25 13.4812 15.25 15V18C15.25 19.5188 16.4812 20.75 18 20.75C19.5188 20.75 20.75 19.5188 20.75 18V15C20.75 13.4812 19.5188 12.25 18 12.25Z" fill="#D9D9D9"/>
</svg>
