<svg width="24" height="24" viewBox="0 0 24 24" fill="none" xmlns="http://www.w3.org/2000/svg">
<path d="M8.05096 2.25508C9.41217 2.31985 10.7406 3.00086 12 4.20369C13.2594 3.00086 14.5878 2.31985 15.949 2.25509C17.5291 2.17991 18.9648 2.94272 20.1863 4.27948C21.4641 5.67785 21.8547 7.24148 21.727 8.77831C21.602 10.2826 20.984 11.7422 20.2903 13.0076C19.9118 13.6978 19.2196 14.5789 18.4385 15.4799C17.6462 16.3938 16.7229 17.3729 15.8477 18.2689C14.9716 19.1658 14.1386 19.9847 13.525 20.5791C13.218 20.8764 12.9656 21.1179 12.7897 21.2853C12.7017 21.3689 12.6329 21.4341 12.5858 21.4785L12.5321 21.5292L12.5131 21.547C12.2255 21.8168 11.7778 21.8175 11.489 21.549C11.489 21.549 11.4894 21.5494 12 21L11.489 21.549L11.4705 21.5318L11.4172 21.482C11.3706 21.4383 11.3023 21.3742 11.215 21.2919C11.0405 21.1272 10.7901 20.8895 10.4854 20.5964C9.87619 20.0104 9.04854 19.2016 8.17582 18.3112C7.30405 17.4217 6.38212 16.4456 5.58648 15.5258C4.80095 14.6178 4.10251 13.724 3.70971 13.0076C3.01594 11.7422 2.39796 10.2826 2.273 8.7783C2.14534 7.24147 2.53592 5.67785 3.81369 4.27947C5.03517 2.94271 6.47093 2.1799 8.05096 2.25508Z" fill="#5D5D5D"/>
</svg>
