<svg width="24" height="24" viewBox="0 0 24 24" fill="none" xmlns="http://www.w3.org/2000/svg">
<path fill-rule="evenodd" clip-rule="evenodd" d="M12 2.25C12.4142 2.25 12.75 2.58579 12.75 3V3.25H20C20.4142 3.25 20.75 3.58579 20.75 4C20.75 4.41421 20.4142 4.75 20 4.75H12.75V8C12.75 8.41421 12.4142 8.75 12 8.75C11.5858 8.75 11.25 8.41421 11.25 8V4.75H4C3.58579 4.75 3.25 4.41421 3.25 4C3.25 3.58579 3.58579 3.25 4 3.25H11.25V3C11.25 2.58579 11.5858 2.25 12 2.25Z" fill="#D9D9D9"/>
<path d="M3.75 7C3.75 6.58579 3.41421 6.25 3 6.25C2.58579 6.25 2.25 6.58579 2.25 7V10C2.25 10.4142 2.58579 10.75 3 10.75H5C6.54103 10.75 7.67597 11.0659 8.47704 11.6201C9.26315 12.1639 9.80467 12.9902 10.0688 14.1762C10.3611 15.4882 11.4433 16.75 13 16.75H19C20.5188 16.75 21.75 15.5188 21.75 14V12.8284C21.75 12.0991 21.4603 11.3996 20.9445 10.8839L18.1161 8.05546C17.6004 7.53973 16.9009 7.25 16.1716 7.25H3.75V7Z" fill="#5D5D5D"/>
<path fill-rule="evenodd" clip-rule="evenodd" d="M13 15.25C13.4142 15.25 13.75 15.5858 13.75 16V19.25H19.25V19C19.25 18.5858 19.5858 18.25 20 18.25C20.4142 18.25 20.75 18.5858 20.75 19V20C20.75 20.4142 20.4142 20.75 20 20.75H9C8.58579 20.75 8.25 20.4142 8.25 20C8.25 19.5858 8.58579 19.25 9 19.25H12.25V16C12.25 15.5858 12.5858 15.25 13 15.25Z" fill="#D9D9D9"/>
</svg>
