<svg width="24" height="24" viewBox="0 0 24 24" fill="none" xmlns="http://www.w3.org/2000/svg">
<path fill-rule="evenodd" clip-rule="evenodd" d="M12 2.25C6.61522 2.25 2.25 6.61522 2.25 12C2.25 17.3848 6.61522 21.75 12 21.75C17.3848 21.75 21.75 17.3848 21.75 12C21.75 6.61522 17.3848 2.25 12 2.25Z" fill="#5D5D5D"/>
<path fill-rule="evenodd" clip-rule="evenodd" d="M9.22535 7.21848C9.91755 6.52938 10.8934 6.25 12.009 6.25C13.1246 6.25 14.0977 6.52944 14.786 7.22086C15.4737 7.91167 15.75 8.88609 15.75 10C15.75 11.4969 14.5893 12.1781 13.7423 12.4613C13.3894 12.5793 13.0434 12.6481 12.759 12.6888V14C12.759 14.4142 12.4232 14.75 12.009 14.75C11.5948 14.75 11.259 14.4142 11.259 14V12C11.259 11.5864 11.5938 11.2509 12.0073 11.25C12.0076 11.25 12.0079 11.25 12.0082 11.25C12.0083 11.25 12.0084 11.25 12.0085 11.25C12.0085 11.25 12.0085 11.25 12.0085 11.25L12.0082 11.25H12.0081L12.0095 11.25L12.0259 11.2497C12.0418 11.2493 12.0676 11.2486 12.1017 11.2469C12.1701 11.2437 12.271 11.237 12.3933 11.2234C12.6415 11.1957 12.9594 11.1414 13.2667 11.0387C13.9152 10.8219 14.25 10.5031 14.25 10C14.25 9.11391 14.0308 8.58833 13.723 8.27914C13.4158 7.97056 12.8934 7.75 12.009 7.75C11.1246 7.75 10.5959 7.97062 10.2836 8.28152C9.97195 8.5918 9.75 9.11731 9.75 10C9.75 10.4142 9.41421 10.75 9 10.75C8.58579 10.75 8.25 10.4142 8.25 10C8.25 8.88269 8.53254 7.9082 9.22535 7.21848ZM11.25 17C11.25 16.5858 11.5858 16.25 12 16.25H12.009C12.4232 16.25 12.759 16.5858 12.759 17C12.759 17.4142 12.4232 17.75 12.009 17.75H12C11.5858 17.75 11.25 17.4142 11.25 17Z" fill="#D9D9D9"/>
</svg>
