<svg width="24" height="24" viewBox="0 0 24 24" fill="none" xmlns="http://www.w3.org/2000/svg">
<path d="M8 2.25C7.86407 2.25 7.73069 2.28694 7.61413 2.35688L2.61413 5.35688C2.38822 5.49242 2.25 5.73655 2.25 6C2.25 6.26345 2.38822 6.50758 2.61413 6.64312L7.61413 9.64312C7.73069 9.71306 7.86407 9.75 8 9.75H16C16.1359 9.75 16.2693 9.71306 16.3859 9.64312L21.3859 6.64312C21.6118 6.50758 21.75 6.26345 21.75 6C21.75 5.73655 21.6118 5.49242 21.3859 5.35688L16.3859 2.35688C16.2693 2.28694 16.1359 2.25 16 2.25H8Z" fill="#5D5D5D"/>
<path d="M21.75 6C21.75 5.7298 21.6047 5.48048 21.3695 5.34735C21.1344 5.21422 20.8458 5.21786 20.6141 5.35688L15.6141 8.35688C15.3882 8.49242 15.25 8.73655 15.25 9V21C15.25 21.2702 15.3953 21.5195 15.6305 21.6527C15.8656 21.7858 16.1542 21.7821 16.3859 21.6431L21.3859 18.6431C21.6118 18.5076 21.75 18.2634 21.75 18V6Z" fill="black"/>
<path d="M3.38587 5.35688C3.15417 5.21786 2.86561 5.21422 2.63048 5.34735C2.39534 5.48048 2.25 5.7298 2.25 6V18C2.25 18.2634 2.38822 18.5076 2.61413 18.6431L7.61413 21.6431C7.73069 21.7131 7.86407 21.75 8 21.75H16C16.4142 21.75 16.75 21.4142 16.75 21V9C16.75 8.58579 16.4142 8.25 16 8.25H8.20774L3.38587 5.35688Z" fill="#D9D9D9"/>
</svg>
