<svg width="24" height="24" viewBox="0 0 24 24" fill="none" xmlns="http://www.w3.org/2000/svg">
<path d="M12 4.25C5.6157 4.25 3.24296 8.97766 2.54198 10.9284C2.292 11.6241 2.292 12.3759 2.54198 13.0716C3.24296 15.0223 5.6157 19.75 12 19.75C18.3843 19.75 20.757 15.0223 21.458 13.0716C21.708 12.3759 21.708 11.6241 21.458 10.9284C20.757 8.97766 18.3843 4.25 12 4.25Z" fill="#5D5D5D"/>
<path d="M12 8.25C9.92893 8.25 8.25 9.92893 8.25 12C8.25 14.0711 9.92893 15.75 12 15.75C14.0711 15.75 15.75 14.0711 15.75 12C15.75 9.92893 14.0711 8.25 12 8.25Z" fill="#D9D9D9"/>
<path fill-rule="evenodd" clip-rule="evenodd" d="M3.46967 3.46967C3.76256 3.17678 4.23744 3.17678 4.53033 3.46967L20.5303 19.4697C20.8232 19.7626 20.8232 20.2374 20.5303 20.5303C20.2374 20.8232 19.7626 20.8232 19.4697 20.5303L3.46967 4.53033C3.17678 4.23744 3.17678 3.76256 3.46967 3.46967Z" fill="black"/>
</svg>
