<svg width="24" height="24" viewBox="0 0 24 24" fill="none" xmlns="http://www.w3.org/2000/svg">
<path d="M12 2.25C6.61522 2.25 2.25 6.61522 2.25 12C2.25 15.3812 3.97173 18.3599 6.58281 20.1077C8.1325 21.145 9.99674 21.75 12 21.75C14.0033 21.75 15.8675 21.145 17.4172 20.1077C20.0283 18.3599 21.75 15.3812 21.75 12C21.75 6.61522 17.3848 2.25 12 2.25Z" fill="#D9D9D9"/>
<path d="M13.25 7.50002C13.25 7.19668 13.0673 6.9232 12.787 6.80711C12.5068 6.69103 12.1842 6.75519 11.9697 6.96969L10.9697 7.96969C10.829 8.11034 10.75 8.30111 10.75 8.50002V10C10.75 10.4142 11.0858 10.75 11.5 10.75H12.5C12.9142 10.75 13.25 10.4142 13.25 10V7.50002Z" fill="black"/>
<path d="M10 9.25C9.58587 9.25 9.25013 9.58566 9.25 9.99976L9.25 10.0013L9.24995 10.0096L9.24958 10.0465C9.24914 10.0798 9.24823 10.1303 9.24639 10.1957C9.2427 10.3265 9.23527 10.5166 9.22031 10.7486C9.19026 11.2143 9.13038 11.8403 9.0121 12.4908C8.89284 13.1468 8.71957 13.797 8.47528 14.3263C8.26449 14.783 8.03167 15.0832 7.79594 15.25H7.00038C6.58616 15.25 6.25 15.5858 6.25 16V19.4845C6.25 19.7347 6.37483 19.9685 6.58281 20.1077C8.1325 21.145 9.99674 21.75 12 21.75C14.0033 21.75 15.8675 21.145 17.4172 20.1077C17.6252 19.9685 17.75 19.7347 17.75 19.4845V16C17.75 15.5858 17.4142 15.25 17 15.25H16.2041C15.9683 15.0832 15.7355 14.783 15.5247 14.3263C15.2804 13.797 15.1072 13.1468 14.9879 12.4908C14.8696 11.8403 14.8097 11.2143 14.7797 10.7486C14.7647 10.5166 14.7573 10.3265 14.7536 10.1957C14.7518 10.1303 14.7509 10.0798 14.7504 10.0465L14.75 10.0096L14.75 10.0013L14.75 9.99976C14.7499 9.58566 14.4141 9.25 14 9.25H10Z" fill="#5D5D5D"/>
</svg>
