<svg width="24" height="24" viewBox="0 0 24 24" fill="none" xmlns="http://www.w3.org/2000/svg">
<path fill-rule="evenodd" clip-rule="evenodd" d="M12 2.25C6.61522 2.25 2.25 6.61522 2.25 12C2.25 17.3848 6.61522 21.75 12 21.75C17.3848 21.75 21.75 17.3848 21.75 12C21.75 11.6528 21.7318 11.3096 21.6963 10.9713C21.2823 7.02679 18.5189 3.78533 14.8319 2.66785C13.9348 2.39594 12.9838 2.25 12 2.25Z" fill="#D9D9D9"/>
<path d="M10.5304 12.9697C10.2375 12.6768 9.76258 12.6768 9.46969 12.9697L7.96969 14.4697C7.76882 14.6705 7.69867 14.9677 7.78851 15.2372L8.28851 16.7372C8.37071 16.9838 8.57473 17.1702 8.82771 17.2299C9.08069 17.2897 9.34655 17.2141 9.53035 17.0303L11.5304 15.0303C11.8232 14.7374 11.8232 14.2626 11.5304 13.9697L10.5304 12.9697Z" fill="black"/>
<path d="M14.8319 2.66801C14.5672 2.58775 14.2797 2.65979 14.0841 2.85543L9.96967 6.96983C9.67678 7.26272 9.67678 7.73759 9.96967 8.03049C10.3236 8.38438 10.4029 8.93679 10.071 9.8265C9.74453 10.7015 9.09424 11.6681 8.41074 12.5362C8.17569 12.8347 8.2013 13.2621 8.46996 13.5308L10.9697 16.0305C11.2626 16.3234 11.7374 16.3234 12.0303 16.0305C12.737 15.3238 13.6314 14.6698 14.5241 14.4072C15.3642 14.1601 16.1921 14.253 16.9697 15.0305C17.2626 15.3234 17.7374 15.3234 18.0303 15.0305L21.4807 11.5801C21.6407 11.4201 21.7199 11.1965 21.6963 10.9715C21.2823 7.02694 18.5189 3.78549 14.8319 2.66801Z" fill="#5D5D5D"/>
</svg>
