<svg width="24" height="24" viewBox="0 0 24 24" fill="none" xmlns="http://www.w3.org/2000/svg">
<path fill-rule="evenodd" clip-rule="evenodd" d="M6.53033 8.46967C6.82322 8.76256 6.82322 9.23744 6.53033 9.53033L4.81066 11.25H19.1893L17.4697 9.53033C17.1768 9.23744 17.1768 8.76256 17.4697 8.46967C17.7626 8.17678 18.2374 8.17678 18.5303 8.46967L21.5303 11.4697C21.8232 11.7626 21.8232 12.2374 21.5303 12.5303L18.5303 15.5303C18.2374 15.8232 17.7626 15.8232 17.4697 15.5303C17.1768 15.2374 17.1768 14.7626 17.4697 14.4697L19.1893 12.75H4.81066L6.53033 14.4697C6.82322 14.7626 6.82322 15.2374 6.53033 15.5303C6.23744 15.8232 5.76256 15.8232 5.46967 15.5303L2.46967 12.5303C2.17678 12.2374 2.17678 11.7626 2.46967 11.4697L5.46967 8.46967C5.76256 8.17678 6.23744 8.17678 6.53033 8.46967Z" fill="#5D5D5D"/>
</svg>
