<svg width="24" height="24" viewBox="0 0 24 24" fill="none" xmlns="http://www.w3.org/2000/svg">
<path d="M12.6512 2.6279C12.5177 2.39421 12.2691 2.25 12 2.25C11.7309 2.25 11.4824 2.39421 11.3488 2.6279L7.34882 9.6279C7.20788 9.87455 7.21838 10.1797 7.37596 10.416L11.376 16.416C11.4632 16.5469 11.5894 16.647 11.7367 16.7022L19.7367 19.7022C20.0196 19.8084 20.3386 19.7343 20.5459 19.5143C20.7531 19.2944 20.8081 18.9715 20.6854 18.6954L16.6854 9.6954C16.6751 9.67234 16.6637 9.64981 16.6512 9.6279L12.6512 2.6279Z" fill="#5D5D5D"/>
<path d="M12.3046 2.31467C12.0083 2.183 11.661 2.2566 11.4436 2.49713C11.2262 2.73765 11.188 3.09064 11.3488 3.37214L15.33 10.3392L19.3147 19.3046C19.4538 19.6177 19.7873 19.7967 20.1251 19.7395C20.4628 19.6824 20.719 19.4037 20.7474 19.0623L21.7474 7.06232C21.7739 6.74427 21.5963 6.44429 21.3046 6.31467L12.3046 2.31467Z" fill="black"/>
<path d="M12.6512 3.37214C12.8121 3.09064 12.7738 2.73765 12.5564 2.49713C12.339 2.2566 11.9917 2.183 11.6954 2.31467L2.69541 6.31467C2.40377 6.44429 2.2261 6.74427 2.25261 7.06232L3.25261 19.0623C3.27927 19.3823 3.50663 19.6498 3.81811 19.7276L11.8181 21.7276C11.9375 21.7575 12.0625 21.7575 12.1819 21.7276L20.1819 19.7276C20.5004 19.648 20.7301 19.3705 20.7488 19.0427C20.7675 18.7149 20.5708 18.4131 20.2634 18.2978L12.4899 15.3827L8.88117 9.96968L12.6512 3.37214Z" fill="#D9D9D9"/>
</svg>
