<svg width="24" height="24" viewBox="0 0 24 24" fill="none" xmlns="http://www.w3.org/2000/svg">
<path d="M12.75 3C12.75 2.58579 12.4142 2.25 12 2.25C11.5858 2.25 11.25 2.58579 11.25 3V4C11.25 4.41421 11.5858 4.75 12 4.75C12.4142 4.75 12.75 4.41421 12.75 4V3Z" fill="#D9D9D9"/>
<path d="M6.03033 4.96967C5.73744 4.67678 5.26256 4.67678 4.96967 4.96967C4.67678 5.26256 4.67678 5.73744 4.96967 6.03033L5.96967 7.03033C6.26256 7.32322 6.73744 7.32322 7.03033 7.03033C7.32322 6.73744 7.32322 6.26256 7.03033 5.96967L6.03033 4.96967Z" fill="#D9D9D9"/>
<path d="M19.0303 6.03033C19.3232 5.73744 19.3232 5.26256 19.0303 4.96967C18.7374 4.67678 18.2626 4.67678 17.9697 4.96967L16.9697 5.96967C16.6768 6.26256 16.6768 6.73744 16.9697 7.03033C17.2626 7.32322 17.7374 7.32322 18.0303 7.03033L19.0303 6.03033Z" fill="#D9D9D9"/>
<path d="M14 19.75C14.4142 19.75 14.75 19.4142 14.75 19V18.1178L14.8812 17.7117C14.9925 17.3678 15.159 16.8544 15.3798 16.1768C15.4468 15.971 15.5374 15.8123 15.6556 15.6411C15.6849 15.5988 15.7272 15.5409 15.776 15.4741C15.8805 15.3311 16.0147 15.1474 16.1143 14.9884C16.4851 14.3963 16.75 13.6482 16.75 12.3333C16.75 9.58354 14.6787 7.25 12 7.25C9.32125 7.25 7.25 9.58354 7.25 12.3333C7.25 13.6482 7.51495 14.3963 7.8857 14.9884C7.98527 15.1474 8.11951 15.3311 8.22395 15.474C8.2728 15.5409 8.31514 15.5988 8.34436 15.6411C8.46256 15.8123 8.55319 15.971 8.62022 16.1768C8.84098 16.8544 9.0075 17.3678 9.11878 17.7117L9.25 18.1178V19C9.25 19.4142 9.58579 19.75 10 19.75H14Z" fill="#D9D9D9"/>
<path d="M3 10.25C2.58579 10.25 2.25 10.5858 2.25 11C2.25 11.4142 2.58579 11.75 3 11.75H4C4.41421 11.75 4.75 11.4142 4.75 11C4.75 10.5858 4.41421 10.25 4 10.25H3Z" fill="#D9D9D9"/>
<path d="M20 10.25C19.5858 10.25 19.25 10.5858 19.25 11C19.25 11.4142 19.5858 11.75 20 11.75H21C21.4142 11.75 21.75 11.4142 21.75 11C21.75 10.5858 21.4142 10.25 21 10.25H20Z" fill="#D9D9D9"/>
<path d="M10 17.25C9.58579 17.25 9.25 17.5858 9.25 18V19C9.25 20.5188 10.4812 21.75 12 21.75C13.5188 21.75 14.75 20.5188 14.75 19V18C14.75 17.5858 14.4142 17.25 14 17.25H10Z" fill="#5D5D5D"/>
</svg>
