<svg width="24" height="24" viewBox="0 0 24 24" fill="none" xmlns="http://www.w3.org/2000/svg">
<path d="M4 10.25C3.58579 10.25 3.25 10.5858 3.25 11V15C3.25 15.4142 3.58579 15.75 4 15.75H9.25V20C9.25 20.4142 9.58579 20.75 10 20.75H14C14.4142 20.75 14.75 20.4142 14.75 20V15.75H20C20.4142 15.75 20.75 15.4142 20.75 15V11C20.75 10.5858 20.4142 10.25 20 10.25H4Z" fill="#5D5D5D"/>
<path d="M4 3.25C3.58579 3.25 3.25 3.58579 3.25 4V11.75H20.75V4C20.75 3.58579 20.4142 3.25 20 3.25H4Z" fill="#D9D9D9"/>
</svg>
