<svg width="24" height="24" viewBox="0 0 24 24" fill="none" xmlns="http://www.w3.org/2000/svg">
<path fill-rule="evenodd" clip-rule="evenodd" d="M6.00415 3.25049C4.48557 3.25013 3.25416 4.48073 3.2535 5.99931L3.25293 18.0037C3.25402 19.5217 4.48491 20.7518 6.00293 20.7518L18.0019 20.7511C19.52 20.7501 20.7501 19.5191 20.7501 18.0011V6.00331C20.7501 4.48478 19.5193 3.25367 18.0007 3.25331L6.00415 3.25049Z" fill="#5D5D5D"/>
<path d="M15 7.25C13.4812 7.25 12.25 8.48122 12.25 10C12.25 11.5188 13.4812 12.75 15 12.75C16.5188 12.75 17.75 11.5188 17.75 10C17.75 8.48122 16.5188 7.25 15 7.25Z" fill="#D9D9D9"/>
<path d="M8.55755 9.49833C8.41992 9.34537 8.22548 9.25568 8.01979 9.25026C7.81409 9.24484 7.6152 9.32417 7.4697 9.46967L3.46967 13.4697C3.32889 13.6105 3.24986 13.8015 3.25 14.0006L3.25287 18.004C3.25396 19.522 4.48486 20.752 6.00287 20.752H18.6838L8.55755 9.49833Z" fill="#D9D9D9"/>
</svg>
