<svg width="24" height="24" viewBox="0 0 24 24" fill="none" xmlns="http://www.w3.org/2000/svg">
<path d="M7 2.25C5.48122 2.25 4.25 3.48122 4.25 5V15C4.25 16.5188 5.48122 17.75 7 17.75H17C18.5188 17.75 19.75 16.5188 19.75 15V5C19.75 3.48122 18.5188 2.25 17 2.25H7Z" fill="#D9D9D9"/>
<path d="M5 11.25C4.0335 11.25 3.25 12.0335 3.25 13V18C3.25 19.5188 4.48122 20.75 6 20.75H18C19.5188 20.75 20.75 19.5188 20.75 18V13C20.75 12.0335 19.9665 11.25 19 11.25H16.5C15.2574 11.25 14.25 12.2574 14.25 13.5C14.25 13.9142 13.9142 14.25 13.5 14.25H10.5C10.0858 14.25 9.75 13.9142 9.75 13.5C9.75 12.2574 8.74264 11.25 7.5 11.25H5Z" fill="#5D5D5D"/>
</svg>
