<svg width="24" height="24" viewBox="0 0 24 24" fill="none" xmlns="http://www.w3.org/2000/svg">
<path fill-rule="evenodd" clip-rule="evenodd" d="M3.25 4C3.25 3.58579 3.58579 3.25 4 3.25H20C20.4142 3.25 20.75 3.58579 20.75 4C20.75 4.41421 20.4142 4.75 20 4.75H4C3.58579 4.75 3.25 4.41421 3.25 4ZM10.25 9C10.25 8.58579 10.5858 8.25 11 8.25H20C20.4142 8.25 20.75 8.58579 20.75 9C20.75 9.41421 20.4142 9.75 20 9.75H11C10.5858 9.75 10.25 9.41421 10.25 9ZM10.25 15C10.25 14.5858 10.5858 14.25 11 14.25H20C20.4142 14.25 20.75 14.5858 20.75 15C20.75 15.4142 20.4142 15.75 20 15.75H11C10.5858 15.75 10.25 15.4142 10.25 15ZM3.25 20C3.25 19.5858 3.58579 19.25 4 19.25H20C20.4142 19.25 20.75 19.5858 20.75 20C20.75 20.4142 20.4142 20.75 20 20.75H4C3.58579 20.75 3.25 20.4142 3.25 20Z" fill="#D9D9D9"/>
<path fill-rule="evenodd" clip-rule="evenodd" d="M3.46967 8.46967C3.76256 8.17678 4.23744 8.17678 4.53033 8.46967L7.53033 11.4697C7.82322 11.7626 7.82322 12.2374 7.53033 12.5303L4.53033 15.5303C4.23744 15.8232 3.76256 15.8232 3.46967 15.5303C3.17678 15.2374 3.17678 14.7626 3.46967 14.4697L5.93934 12L3.46967 9.53033C3.17678 9.23744 3.17678 8.76256 3.46967 8.46967Z" fill="#5D5D5D"/>
</svg>
