<svg width="24" height="24" viewBox="0 0 24 24" fill="none" xmlns="http://www.w3.org/2000/svg">
<path fill-rule="evenodd" clip-rule="evenodd" d="M3.25 4C3.25 3.58579 3.58579 3.25 4 3.25H20C20.4142 3.25 20.75 3.58579 20.75 4C20.75 4.41421 20.4142 4.75 20 4.75H4C3.58579 4.75 3.25 4.41421 3.25 4ZM3.25 9C3.25 8.58579 3.58579 8.25 4 8.25H13C13.4142 8.25 13.75 8.58579 13.75 9C13.75 9.41421 13.4142 9.75 13 9.75H4C3.58579 9.75 3.25 9.41421 3.25 9ZM3.25 15C3.25 14.5858 3.58579 14.25 4 14.25H13C13.4142 14.25 13.75 14.5858 13.75 15C13.75 15.4142 13.4142 15.75 13 15.75H4C3.58579 15.75 3.25 15.4142 3.25 15ZM3.25 20C3.25 19.5858 3.58579 19.25 4 19.25H20C20.4142 19.25 20.75 19.5858 20.75 20C20.75 20.4142 20.4142 20.75 20 20.75H4C3.58579 20.75 3.25 20.4142 3.25 20Z" fill="#D9D9D9"/>
<path fill-rule="evenodd" clip-rule="evenodd" d="M20.5303 8.46967C20.8232 8.76256 20.8232 9.23744 20.5303 9.53033L18.0607 12L20.5303 14.4697C20.8232 14.7626 20.8232 15.2374 20.5303 15.5303C20.2374 15.8232 19.7626 15.8232 19.4697 15.5303L16.4697 12.5303C16.1768 12.2374 16.1768 11.7626 16.4697 11.4697L19.4697 8.46967C19.7626 8.17678 20.2374 8.17678 20.5303 8.46967Z" fill="#5D5D5D"/>
</svg>
