<svg width="24" height="24" viewBox="0 0 24 24" fill="none" xmlns="http://www.w3.org/2000/svg">
<path d="M5.99548 7.75C3.65035 7.75244 1.75 9.6543 1.75 12C1.75 14.3464 3.65146 16.2487 5.99754 16.25L5.99959 16.25L6.02345 16.2493C6.04715 16.2484 6.08604 16.2465 6.13832 16.2425C6.24304 16.2344 6.4006 16.2176 6.59696 16.1832C6.99103 16.114 7.53277 15.9751 8.11505 15.6979C9.26055 15.1524 10.5998 14.0573 11.2816 11.7845L11.2833 11.779C12.102 9.05538 13.7616 7.65193 15.2401 6.94787C15.9703 6.60015 16.6473 6.42654 17.1439 6.33942C17.3928 6.29575 17.5985 6.27344 17.7458 6.26203C17.8194 6.25631 17.8787 6.25331 17.9217 6.25174C17.9431 6.25095 17.9606 6.25052 17.9737 6.25029L17.9902 6.25007L17.9959 6.25003L17.9982 6.25002L18 6.25C21.1757 6.25 23.75 8.82438 23.75 12L23.75 12.0052C23.7472 15.1784 21.1739 17.75 18 17.75V17.75L17.9967 17.75L17.9926 17.75L17.9823 17.7498L17.9529 17.7491C17.9294 17.7484 17.8984 17.747 17.8603 17.7444C17.784 17.7394 17.6793 17.7297 17.5502 17.7112C17.292 17.6743 16.9352 17.6023 16.5128 17.4615C15.6656 17.1791 14.5613 16.622 13.4697 15.5303C13.1768 15.2374 13.1768 14.7626 13.4697 14.4697C13.7626 14.1768 14.2374 14.1768 14.5303 14.4697C15.4387 15.378 16.3344 15.8209 16.9872 16.0385C17.3148 16.1477 17.583 16.2007 17.7623 16.2263C17.8519 16.2391 17.9191 16.245 17.96 16.2478C17.9805 16.2491 17.9944 16.2497 18.0012 16.2499L18.0025 16.25C20.3486 16.2486 22.25 14.3464 22.25 12L22.25 11.9955C22.2476 9.65121 20.3471 7.75135 18.0025 7.75002L18.0004 7.75005L17.9766 7.75074C17.9529 7.7516 17.914 7.75349 17.8617 7.75754C17.757 7.76566 17.5994 7.78241 17.4031 7.81686C17.009 7.88599 16.4672 8.02489 15.885 8.30216C14.7395 8.84764 13.4002 9.94277 12.7184 12.2155L12.717 12.2202C11.8983 14.9444 10.2386 16.348 8.75995 17.0522C8.02973 17.3999 7.35272 17.5735 6.85616 17.6606C6.60721 17.7043 6.40149 17.7266 6.25425 17.738C6.18057 17.7437 6.1213 17.7467 6.07836 17.7483C6.05688 17.7491 6.03945 17.7495 6.02632 17.7497L6.00986 17.75L6.0041 17.75L6.00184 17.75L6 17.75C2.82436 17.75 0.25 15.1757 0.25 12C0.25 8.82438 2.82436 6.25 6 6.25H6.00156L6.00331 6.25001L6.00736 6.25003L6.0177 6.25016L6.04713 6.25088C6.07057 6.25163 6.10161 6.25303 6.13973 6.25557C6.21595 6.26065 6.32067 6.27034 6.44982 6.28879C6.70797 6.32567 7.06483 6.39771 7.48717 6.53849C8.33445 6.82091 9.43871 7.37805 10.5303 8.46967C10.8232 8.76256 10.8232 9.23744 10.5303 9.53033C10.2374 9.82322 9.76256 9.82322 9.46967 9.53033C8.56129 8.62195 7.66555 8.17909 7.01283 7.96151C6.68517 7.85229 6.41703 7.79933 6.23768 7.77371C6.14808 7.76091 6.08092 7.75498 6.03995 7.75225C6.01948 7.75088 6.0056 7.75032 5.99877 7.7501L5.99548 7.75Z" fill="#5D5D5D"/>
</svg>
