<svg width="24" height="24" viewBox="0 0 24 24" fill="none" xmlns="http://www.w3.org/2000/svg">
<path fill-rule="evenodd" clip-rule="evenodd" d="M15.2954 4.31083C15.6762 4.474 15.8525 4.91491 15.6894 5.29563L12.6894 12.2956C12.5262 12.6763 12.0853 12.8527 11.7046 12.6895C11.3238 12.5264 11.1475 12.0855 11.3107 11.7047L14.3107 4.70475C14.4738 4.32403 14.9147 4.14767 15.2954 4.31083Z" fill="#D9D9D9"/>
<path fill-rule="evenodd" clip-rule="evenodd" d="M11.9999 2.25C11.5857 2.25 11.2499 2.58579 11.2499 3C11.2499 3.41421 11.5857 3.75 11.9999 3.75C12.2552 3.75 12.593 3.88231 13.0499 4.225C13.0871 4.25289 13.1244 4.28161 13.1618 4.31113C12.9467 4.32912 12.7298 4.35241 12.5189 4.38255C12.0583 4.44834 11.563 4.55472 11.1633 4.74408C10.7912 4.9203 10.2499 5.29895 10.2499 6C10.2499 6.41421 10.5857 6.75 10.9999 6.75C11.3682 6.75 11.6745 6.4846 11.7379 6.13463C11.7548 6.12491 11.7769 6.1132 11.8054 6.09968C11.9994 6.00779 12.3166 5.92668 12.731 5.86747C13.3998 5.77192 14.159 5.75409 14.6896 5.75077C15.1109 6.17457 15.4874 6.56661 15.775 6.95005C16.1176 7.40694 16.2499 7.74474 16.2499 8.00001C16.2499 8.41422 16.5857 8.75001 16.9999 8.75001C17.4142 8.75001 17.7499 8.41422 17.7499 8.00001C17.7499 7.2553 17.3823 6.59313 16.975 6.05005C16.7197 5.70962 16.4155 5.3737 16.1046 5.05105C16.4524 4.80516 16.8496 4.5907 17.2371 4.46152C17.8925 4.24307 18.2741 4.33479 18.4696 4.53034C18.7625 4.82323 19.2374 4.82323 19.5303 4.53034C19.8232 4.23745 19.8232 3.76258 19.5303 3.46968C18.7258 2.66522 17.6074 2.75695 16.7628 3.0385C16.1441 3.24473 15.538 3.58998 15.0337 3.97741C14.6853 3.63836 14.3203 3.30276 13.9499 3.025C13.4069 2.61769 12.7447 2.25 11.9999 2.25ZM11.6902 6.16794C11.6902 6.16794 11.6923 6.16486 11.6998 6.15919C11.6944 6.1652 11.6902 6.16794 11.6902 6.16794Z" fill="#5D5D5D"/>
<path d="M7.59949 12.3659C9.12713 11.4012 10.3152 11.25 11.9999 11.25C13.6847 11.25 14.8728 11.4012 16.4004 12.3659C17.4906 13.0543 18.3169 14.3674 18.8469 15.3899C19.1215 15.9198 19.3357 16.4103 19.4813 16.7682C19.5543 16.9476 19.6105 17.0947 19.6488 17.1982C19.668 17.25 19.6827 17.2909 19.6929 17.3195L19.7047 17.3531L19.708 17.3627L19.7094 17.3666C19.7811 17.5763 19.7566 17.8078 19.642 17.9976C19.5273 18.1873 19.3346 18.3167 19.1156 18.3509L16.7689 18.7171C16.6329 18.7383 16.4823 18.7521 16.322 18.7472C15.01 18.7069 13.354 18.2316 12.4664 17.9486C12.1639 17.8522 11.8365 17.8522 11.5336 17.9487C10.6509 18.2299 9.01318 18.6985 7.68618 18.7461C7.52259 18.752 7.36827 18.7386 7.22804 18.717L4.85357 18.3511C4.63312 18.3171 4.43923 18.1868 4.32454 17.9955C4.20984 17.8042 4.18624 17.5718 4.26014 17.3614L4.26174 17.3568L4.26514 17.3473L4.27725 17.3138C4.28767 17.2852 4.30277 17.2443 4.3224 17.1926C4.36164 17.0893 4.4191 16.9422 4.4936 16.763C4.64224 16.4054 4.86047 15.9152 5.13911 15.3857C5.67689 14.3638 6.51138 13.053 7.59949 12.3659Z" fill="#5D5D5D"/>
<path fill-rule="evenodd" clip-rule="evenodd" d="M20.7423 16.2959C21.1312 16.1536 21.5619 16.3535 21.7043 16.7424C21.8467 17.1314 21.6468 17.5621 21.2578 17.7045L21.2476 17.7082C21.2578 17.7045 21.2578 17.7045 21.2578 17.7045L21.2547 17.7056L21.2476 17.7082L21.2219 17.7175C21.1998 17.7254 21.1678 17.7368 21.1268 17.7511C21.045 17.7797 20.9272 17.8202 20.7808 17.8686C20.4884 17.9652 20.0795 18.094 19.613 18.2231C18.6998 18.4756 17.492 18.7502 16.5 18.7502C15.1563 18.7502 13.3875 18.2425 12.4665 17.9489C12.1639 17.8524 11.8365 17.8524 11.5336 17.9489C10.6168 18.241 8.86689 18.7415 7.50475 18.7502C6.494 18.7566 5.28431 18.4814 4.37312 18.2268C3.90775 18.0968 3.50123 17.9666 3.21075 17.8689C3.0653 17.8199 2.94841 17.7789 2.86716 17.7499C2.82652 17.7354 2.79476 17.7238 2.77276 17.7158L2.74718 17.7064L2.74008 17.7037L2.73798 17.703L2.74718 17.7064L2.73688 17.7025C2.34899 17.5572 2.15234 17.125 2.29766 16.7371C2.44295 16.3493 2.8751 16.1526 3.26294 16.2978M20.7423 16.2959L20.7366 16.2979L20.7159 16.3054C20.6971 16.3121 20.6687 16.3222 20.6315 16.3353C20.557 16.3613 20.4475 16.3989 20.3102 16.4443C20.0352 16.5352 19.6506 16.6564 19.2131 16.7773C18.3184 17.0248 17.2762 17.2502 16.5 17.2502C15.4183 17.2502 13.8552 16.8172 12.9221 16.5197C12.3229 16.3287 11.6772 16.3289 11.0783 16.5197C10.1551 16.8138 8.60334 17.2432 7.49523 17.2502C6.70579 17.2552 5.66548 17.0304 4.77672 16.7821C4.34211 16.6607 3.96116 16.5388 3.68917 16.4472C3.55339 16.4015 3.44529 16.3636 3.37187 16.3374C3.33517 16.3243 3.30717 16.3141 3.28874 16.3073L3.2684 16.2998L3.26294 16.2978" fill="#D9D9D9"/>
</svg>
