<svg width="24" height="24" viewBox="0 0 24 24" fill="none" xmlns="http://www.w3.org/2000/svg">
<path fill-rule="evenodd" clip-rule="evenodd" d="M20.5304 3.46967C20.8233 3.76256 20.8233 4.23744 20.5304 4.53033L20.0608 5L21.5304 6.46967C21.8233 6.76256 21.8233 7.23744 21.5304 7.53033C21.2375 7.82322 20.7627 7.82322 20.4698 7.53033L19.0001 6.06066L17.0608 8L17.5304 8.46967C17.8233 8.76256 17.8233 9.23744 17.5304 9.53033C17.2375 9.82322 16.7627 9.82322 16.4698 9.53033L16.0001 9.06066L13.066 11.9948C12.7731 12.2877 12.2982 12.2877 12.0053 11.9948C11.7124 11.7019 11.7124 11.227 12.0053 10.9341L19.4698 3.46967C19.7627 3.17678 20.2375 3.17678 20.5304 3.46967Z" fill="#D9D9D9"/>
<path d="M9 9.25C5.82436 9.25 3.25 11.8244 3.25 15C3.25 18.1756 5.82436 20.75 9 20.75C12.1756 20.75 14.75 18.1756 14.75 15C14.75 13.4124 14.1056 11.9739 13.0659 10.9341C12.0261 9.89441 10.5876 9.25 9 9.25Z" fill="#5D5D5D"/>
</svg>
