<svg width="24" height="24" viewBox="0 0 24 24" fill="none" xmlns="http://www.w3.org/2000/svg">
<path d="M11.2809 2.90469C10.073 2.42154 8.77893 3.37843 8.88696 4.67485L9.16559 8.01844L6.98559 7.47344C6.66397 7.39304 6.38746 7.18816 6.2169 6.90388L5.31436 5.39965C5.11175 5.06197 4.79502 4.8079 4.42142 4.68336C3.35317 4.32728 2.25 5.1224 2.25 6.24843V8.1717C2.25 8.90104 2.53973 9.60052 3.05546 10.1162L3.17484 10.2356C3.44223 10.503 3.76188 10.7124 4.11384 10.8506L17.3732 16.0597C17.6935 16.1855 18.0346 16.2501 18.3788 16.2501H19.8258C21.3209 16.2501 22.1275 14.4964 21.1545 13.3612L19.9041 11.9025C19.6022 11.5503 19.2161 11.2802 18.7818 11.1173L15.5518 9.90607L12.8478 4.04737C12.6603 3.64109 12.3243 3.32207 11.9088 3.15589L11.2809 2.90469Z" fill="#5D5D5D"/>
<path fill-rule="evenodd" clip-rule="evenodd" d="M3.25 20C3.25 19.5858 3.58579 19.25 4 19.25H20C20.4142 19.25 20.75 19.5858 20.75 20C20.75 20.4142 20.4142 20.75 20 20.75H4C3.58579 20.75 3.25 20.4142 3.25 20Z" fill="#D9D9D9"/>
</svg>
