<svg width="24" height="24" viewBox="0 0 24 24" fill="none" xmlns="http://www.w3.org/2000/svg">
<path d="M6.96423 13.3444C6.73772 13.2185 6.46228 13.2185 6.23577 13.3444L2.63577 15.3444C2.39767 15.4767 2.25 15.7276 2.25 16C2.25 16.2724 2.39767 16.5233 2.63577 16.6556L11.6358 21.6556C11.8623 21.7815 12.1377 21.7815 12.3642 21.6556L21.3642 16.6556C21.6023 16.5233 21.75 16.2724 21.75 16C21.75 15.7276 21.6023 15.4767 21.3642 15.3444L17.7642 13.3444C17.5377 13.2185 17.2623 13.2185 17.0358 13.3444L12 16.142L6.96423 13.3444Z" fill="#5D5D5D"/>
<path d="M6.96423 9.34438C6.73772 9.21854 6.46228 9.21854 6.23577 9.34438L2.63577 11.3444C2.39767 11.4767 2.25 11.7276 2.25 12C2.25 12.2724 2.39767 12.5233 2.63577 12.6556L11.6358 17.6556C11.8623 17.7815 12.1377 17.7815 12.3642 17.6556L21.3642 12.6556C21.6023 12.5233 21.75 12.2724 21.75 12C21.75 11.7276 21.6023 11.4767 21.3642 11.3444L17.7642 9.34438C17.5377 9.21854 17.2623 9.21854 17.0358 9.34438L12 12.142L6.96423 9.34438Z" fill="#D9D9D9"/>
<path d="M12.3642 2.34438C12.1377 2.21854 11.8623 2.21854 11.6358 2.34438L2.63577 7.34438C2.39767 7.47666 2.25 7.72762 2.25 8C2.25 8.27238 2.39767 8.52334 2.63577 8.65562L11.6358 13.6556C11.8623 13.7815 12.1377 13.7815 12.3642 13.6556L21.3642 8.65562C21.6023 8.52334 21.75 8.27238 21.75 8C21.75 7.72762 21.6023 7.47666 21.3642 7.34438L12.3642 2.34438Z" fill="#5D5D5D"/>
</svg>
