<svg width="24" height="24" viewBox="0 0 24 24" fill="none" xmlns="http://www.w3.org/2000/svg">
<path d="M7.98274 2.66419C9.5732 2.77616 11.1983 3.29975 12.2942 4.24993L19 4.24994C20.5188 4.24994 21.75 5.48116 21.75 6.99994V16.9999C21.75 18.5187 20.5188 19.7499 19 19.7499H12C11.8011 19.7499 11.6103 19.6709 11.4697 19.5303C10.6674 18.728 9.14981 18.2499 7.5 18.2499C5.85019 18.2499 4.33259 18.728 3.53033 19.5303C3.31583 19.7448 2.99325 19.8089 2.71299 19.6929C2.43273 19.5768 2.25 19.3033 2.25 18.9999V5.75639C2.25 5.12656 2.46253 4.37461 3.09437 3.89273C4.41266 2.88731 6.26964 2.54359 7.98274 2.66419Z" fill="#5D5D5D"/>
<path fill-rule="evenodd" clip-rule="evenodd" d="M12 6.25C12.4142 6.25 12.75 6.58579 12.75 7V17C12.75 17.4142 12.4142 17.75 12 17.75C11.5858 17.75 11.25 17.4142 11.25 17V7C11.25 6.58579 11.5858 6.25 12 6.25Z" fill="#D9D9D9"/>
</svg>
