<svg width="24" height="24" viewBox="0 0 24 24" fill="none" xmlns="http://www.w3.org/2000/svg">
<path d="M9.75 17.75H14.25V18C14.25 18.4142 14.5858 18.75 15 18.75C15.4142 18.75 15.75 18.4142 15.75 18V17.1122L15.779 17.0187C15.8202 16.8867 15.8822 16.6904 15.9649 16.4356C16.1302 15.9259 16.3782 15.182 16.7072 14.2496C16.8186 13.9341 16.9701 13.6908 17.1583 13.4392C17.2119 13.3675 17.2819 13.2792 17.3595 13.1814C17.5121 12.9887 17.6942 12.759 17.8386 12.5461C18.3609 11.7762 18.75 10.7868 18.75 9C18.75 5.27208 15.7279 2.25 12 2.25C8.27208 2.25 5.25 5.27208 5.25 9C5.25 10.7868 5.63908 11.7762 6.16137 12.5461C6.30577 12.759 6.4878 12.9886 6.64048 13.1813C6.71807 13.2792 6.78809 13.3675 6.84173 13.4392C7.02994 13.6908 7.18141 13.9341 7.29276 14.2496C7.62182 15.182 7.86977 15.9259 8.03513 16.4356C8.1178 16.6904 8.17981 16.8867 8.22098 17.0187L8.25 17.1122V18C8.25 18.4142 8.58579 18.75 9 18.75C9.41421 18.75 9.75 18.4142 9.75 18V17.75Z" fill="#D9D9D9"/>
<path d="M12.75 13C12.75 12.5858 12.4142 12.25 12 12.25C11.5858 12.25 11.25 12.5858 11.25 13V16.25H9C8.58579 16.25 8.25 16.5858 8.25 17V18C8.25 20.0711 9.92893 21.75 12 21.75C14.0711 21.75 15.75 20.0711 15.75 18V17C15.75 16.5858 15.4142 16.25 15 16.25H12.75V13Z" fill="#5D5D5D"/>
</svg>
