<svg width="24" height="24" viewBox="0 0 24 24" fill="none" xmlns="http://www.w3.org/2000/svg">
<path d="M13.75 4.07048V7.25017L18.4385 7.25016C19.7003 7.25017 20.8003 8.10898 21.1063 9.33319L21.5482 11.1005C21.7074 11.7374 21.6335 12.4102 21.34 12.9973L18.2236 19.23C17.7578 20.1617 16.8056 20.7502 15.7639 20.7502L10.6971 20.7502C10.2923 20.7502 9.89243 20.6608 9.52614 20.4884L6.82907 19.2192C5.86521 18.7656 5.25 17.7962 5.25 16.731V10.8286C5.25 10.0992 5.53974 9.39973 6.05548 8.884L7.32963 7.60988C7.38896 7.55055 7.43535 7.49301 7.47231 7.43456C7.80558 6.90759 8.77401 5.2911 9.12589 3.87646C9.2159 3.51457 9.3599 3.08408 9.60917 2.71156C9.8658 2.32804 10.2645 1.96523 10.8495 1.85889C11.3347 1.77069 11.7832 1.80254 12.1574 1.87857C13.3066 2.11202 13.75 3.2166 13.75 4.07048Z" fill="#5D5D5D"/>
<path d="M4 8.25C3.0335 8.25 2.25 9.0335 2.25 10V18C2.25 18.9665 3.0335 19.75 4 19.75H5C5.9665 19.75 6.75 18.9665 6.75 18V9.99996C6.75 9.03341 5.96645 8.25 5 8.25H4Z" fill="#D9D9D9"/>
</svg>
