<svg width="24" height="24" viewBox="0 0 24 24" fill="none" xmlns="http://www.w3.org/2000/svg">
<path fill-rule="evenodd" clip-rule="evenodd" d="M17.7434 5.51287C17.8278 5.91839 17.5674 6.31555 17.1619 6.39995L9.70459 7.95192C9.65245 8.20738 9.55701 8.44704 9.42647 8.66287L16.131 14.7229C16.2994 14.8751 16.3898 15.0954 16.3769 15.322C16.364 15.5486 16.2492 15.7572 16.0646 15.8893C15.8727 16.0266 15.7501 16.249 15.7501 16.5C15.7501 16.5336 15.7522 16.5662 15.7563 16.598C15.8068 16.9887 15.5464 17.3518 15.1602 17.4294L7.60194 18.9476C7.46522 19.1311 7.24652 19.25 7.00005 19.25C6.58584 19.25 6.25005 18.9142 6.25005 18.5C6.25005 18.4665 6.24789 18.4338 6.24379 18.4021C6.19334 18.0114 6.45371 17.6482 6.83992 17.5707L14.2904 16.0741C14.3412 15.8089 14.4387 15.5603 14.5736 15.3372L7.86906 9.27711C7.70068 9.12491 7.61028 8.90465 7.62319 8.67804C7.6361 8.45143 7.75095 8.24286 7.93553 8.11078C8.12745 7.97345 8.25005 7.75105 8.25005 7.50002C8.25005 7.47144 8.24849 7.44351 8.24549 7.41626C8.20329 7.03214 8.45986 6.67882 8.8382 6.60009L16.8563 4.93141C17.2618 4.84702 17.659 5.10734 17.7434 5.51287Z" fill="#D9D9D9"/>
<path d="M18.5 3.25C17.2574 3.25 16.25 4.25736 16.25 5.5C16.25 5.5834 16.2546 5.66602 16.2635 5.74757C16.3873 6.87408 17.3408 7.75 18.5 7.75C19.7426 7.75 20.75 6.74264 20.75 5.5C20.75 4.25736 19.7426 3.25 18.5 3.25Z" fill="#5D5D5D"/>
<path d="M7.5 5.25C6.25736 5.25 5.25 6.25736 5.25 7.5C5.25 8.74264 6.25736 9.75 7.5 9.75C7.98683 9.75 8.43957 9.59452 8.80837 9.33063C9.37696 8.92376 9.75 8.25545 9.75 7.5C9.75 7.41659 9.74543 7.33398 9.73647 7.25243C9.61271 6.12592 8.65916 5.25 7.5 5.25Z" fill="#5D5D5D"/>
<path d="M16.5 14.25C16.0132 14.25 15.5604 14.4055 15.1916 14.6694C14.623 15.0762 14.25 15.7446 14.25 16.5C14.25 16.598 14.2563 16.6948 14.2686 16.7901C14.4114 17.896 15.3554 18.75 16.5 18.75C17.7426 18.75 18.75 17.7426 18.75 16.5C18.75 15.2574 17.7426 14.25 16.5 14.25Z" fill="#5D5D5D"/>
<path d="M5.5 16.25C4.25736 16.25 3.25 17.2574 3.25 18.5C3.25 19.7426 4.25736 20.75 5.5 20.75C6.74264 20.75 7.75 19.7426 7.75 18.5C7.75 18.402 7.7437 18.3052 7.73139 18.2099C7.58856 17.104 6.6446 16.25 5.5 16.25Z" fill="#5D5D5D"/>
</svg>
