<svg width="24" height="24" viewBox="0 0 24 24" fill="none" xmlns="http://www.w3.org/2000/svg">
<path fill-rule="evenodd" clip-rule="evenodd" d="M4.46967 3.46967C4.76256 3.17678 5.23744 3.17678 5.53033 3.46967L7.53033 5.46967C7.82322 5.76256 7.82322 6.23744 7.53033 6.53033C7.23744 6.82322 6.76256 6.82322 6.46967 6.53033L5.75 5.81066V18.1893L6.46967 17.4697C6.76256 17.1768 7.23744 17.1768 7.53033 17.4697C7.82322 17.7626 7.82322 18.2374 7.53033 18.5303L5.53033 20.5303C5.23744 20.8232 4.76256 20.8232 4.46967 20.5303L2.46967 18.5303C2.17678 18.2374 2.17678 17.7626 2.46967 17.4697C2.76256 17.1768 3.23744 17.1768 3.53033 17.4697L4.25 18.1893V5.81066L3.53033 6.53033C3.23744 6.82322 2.76256 6.82322 2.46967 6.53033C2.17678 6.23744 2.17678 5.76256 2.46967 5.46967L4.46967 3.46967Z" fill="#5D5D5D"/>
<path fill-rule="evenodd" clip-rule="evenodd" d="M10.25 6C10.25 5.58579 10.5858 5.25 11 5.25H21C21.4142 5.25 21.75 5.58579 21.75 6C21.75 6.41421 21.4142 6.75 21 6.75H11C10.5858 6.75 10.25 6.41421 10.25 6ZM10.25 10C10.25 9.58579 10.5858 9.25 11 9.25H21C21.4142 9.25 21.75 9.58579 21.75 10C21.75 10.4142 21.4142 10.75 21 10.75H11C10.5858 10.75 10.25 10.4142 10.25 10ZM10.25 14C10.25 13.5858 10.5858 13.25 11 13.25H21C21.4142 13.25 21.75 13.5858 21.75 14C21.75 14.4142 21.4142 14.75 21 14.75H11C10.5858 14.75 10.25 14.4142 10.25 14ZM10.25 18C10.25 17.5858 10.5858 17.25 11 17.25H19C19.4142 17.25 19.75 17.5858 19.75 18C19.75 18.4142 19.4142 18.75 19 18.75H11C10.5858 18.75 10.25 18.4142 10.25 18Z" fill="#D9D9D9"/>
</svg>
