<svg width="24" height="24" viewBox="0 0 24 24" fill="none" xmlns="http://www.w3.org/2000/svg">
<path fill-rule="evenodd" clip-rule="evenodd" d="M20.5303 3.46967C20.8232 3.76256 20.8232 4.23744 20.5303 4.53033L17.5303 7.53033C17.2374 7.82322 16.7626 7.82322 16.4697 7.53033C16.1768 7.23744 16.1768 6.76256 16.4697 6.46967L19.4697 3.46967C19.7626 3.17678 20.2374 3.17678 20.5303 3.46967ZM14.5303 9.46967C14.8232 9.76256 14.8232 10.2374 14.5303 10.5303L10.5303 14.5303C10.2374 14.8232 9.76256 14.8232 9.46967 14.5303C9.17678 14.2374 9.17678 13.7626 9.46967 13.4697L13.4697 9.46967C13.7626 9.17678 14.2374 9.17678 14.5303 9.46967ZM7.53033 16.4697C7.82322 16.7626 7.82322 17.2374 7.53033 17.5303L4.53033 20.5303C4.23744 20.8232 3.76256 20.8232 3.46967 20.5303C3.17678 20.2374 3.17678 19.7626 3.46967 19.4697L6.46967 16.4697C6.76256 16.1768 7.23744 16.1768 7.53033 16.4697Z" fill="#5D5D5D"/>
</svg>
