<svg width="24" height="24" viewBox="0 0 24 24" fill="none" xmlns="http://www.w3.org/2000/svg">
<path fill-rule="evenodd" clip-rule="evenodd" d="M17.9697 6.03022C18.2626 6.32311 18.2626 6.79798 17.9697 7.09088L7.091 17.9696C6.79811 18.2624 6.32323 18.2624 6.03034 17.9696C5.73745 17.6767 5.73745 17.2018 6.03034 16.9089L16.909 6.03022C17.2019 5.73732 17.6768 5.73732 17.9697 6.03022Z" fill="#D9D9D9"/>
<path d="M18.5 3.25C17.2574 3.25 16.25 4.25736 16.25 5.5C16.25 6.74264 17.2574 7.75 18.5 7.75C19.7426 7.75 20.75 6.74264 20.75 5.5C20.75 4.25736 19.7426 3.25 18.5 3.25Z" fill="#5D5D5D"/>
<path d="M5.5 16.25C4.25736 16.25 3.25 17.2574 3.25 18.5C3.25 19.7426 4.25736 20.75 5.5 20.75C6.74264 20.75 7.75 19.7426 7.75 18.5C7.75 17.2574 6.74264 16.25 5.5 16.25Z" fill="#5D5D5D"/>
</svg>
