<svg width="24" height="24" viewBox="0 0 24 24" fill="none" xmlns="http://www.w3.org/2000/svg">
<path fill-rule="evenodd" clip-rule="evenodd" d="M20.5303 3.46967C20.8232 3.76256 20.8232 4.23744 20.5303 4.53033L20.5107 4.54994C20.2178 4.84283 19.743 4.84283 19.4501 4.54994C19.1572 4.25704 19.1572 3.78217 19.4501 3.48928L19.4697 3.46967C19.7626 3.17678 20.2374 3.17678 20.5303 3.46967ZM18.5499 5.45006C18.8428 5.74296 18.8428 6.21783 18.5499 6.51072L18.5107 6.54994C18.2178 6.84283 17.743 6.84283 17.4501 6.54994C17.1572 6.25704 17.1572 5.78217 17.4501 5.48928L17.4893 5.45006C17.7822 5.15717 18.257 5.15717 18.5499 5.45006ZM16.5499 7.45006C16.8428 7.74295 16.8428 8.21783 16.5499 8.51072L16.5107 8.54994C16.2178 8.84283 15.743 8.84283 15.4501 8.54994C15.1572 8.25704 15.1572 7.78217 15.4501 7.48928L15.4893 7.45006C15.7822 7.15717 16.257 7.15717 16.5499 7.45006ZM14.5499 9.45006C14.8428 9.74296 14.8428 10.2178 14.5499 10.5107L14.5107 10.5499C14.2178 10.8428 13.743 10.8428 13.4501 10.5499C13.1572 10.257 13.1572 9.78217 13.4501 9.48928L13.4893 9.45006C13.7822 9.15717 14.257 9.15717 14.5499 9.45006ZM12.5499 11.4501C12.8428 11.743 12.8428 12.2178 12.5499 12.5107L12.5107 12.5499C12.2178 12.8428 11.743 12.8428 11.4501 12.5499C11.1572 12.257 11.1572 11.7822 11.4501 11.4893L11.4893 11.4501C11.7822 11.1572 12.257 11.1572 12.5499 11.4501ZM10.5499 13.4501C10.8428 13.743 10.8428 14.2178 10.5499 14.5107L10.5107 14.5499C10.2178 14.8428 9.74296 14.8428 9.45006 14.5499C9.15717 14.257 9.15717 13.7822 9.45006 13.4893L9.48928 13.4501C9.78217 13.1572 10.257 13.1572 10.5499 13.4501ZM8.54994 15.4501C8.84283 15.743 8.84283 16.2178 8.54994 16.5107L8.51072 16.5499C8.21783 16.8428 7.74296 16.8428 7.45006 16.5499C7.15717 16.257 7.15717 15.7822 7.45006 15.4893L7.48928 15.4501C7.78217 15.1572 8.25704 15.1572 8.54994 15.4501ZM6.54994 17.4501C6.84283 17.743 6.84283 18.2178 6.54994 18.5107L6.51072 18.5499C6.21783 18.8428 5.74296 18.8428 5.45006 18.5499C5.15717 18.257 5.15717 17.7822 5.45006 17.4893L5.48928 17.4501C5.78217 17.1572 6.25704 17.1572 6.54994 17.4501ZM4.54994 19.4501C4.84283 19.743 4.84283 20.2178 4.54994 20.5107L4.53033 20.5303C4.23744 20.8232 3.76256 20.8232 3.46967 20.5303C3.17678 20.2374 3.17678 19.7626 3.46967 19.4697L3.48928 19.4501C3.78217 19.1572 4.25704 19.1572 4.54994 19.4501Z" fill="#5D5D5D"/>
</svg>
