<svg width="24" height="24" viewBox="0 0 24 24" fill="none" xmlns="http://www.w3.org/2000/svg">
<path fill-rule="evenodd" clip-rule="evenodd" d="M12.2954 4.31059C12.6762 4.47376 12.8525 4.91467 12.6894 5.29539L7.13741 18.2499H16C16.4142 18.2499 16.75 18.5857 16.75 18.9999C16.75 19.4142 16.4142 19.7499 16 19.7499H6C5.7479 19.7499 5.51265 19.6233 5.37387 19.4128C5.23509 19.2023 5.21133 18.9362 5.31064 18.7045L11.3106 4.70451C11.4738 4.32379 11.9147 4.14742 12.2954 4.31059Z" fill="#5D5D5D"/>
<path fill-rule="evenodd" clip-rule="evenodd" d="M15.7184 10.7844C15.8374 11.1812 15.6123 11.5993 15.2155 11.7183L5.21553 14.7183C4.81878 14.8373 4.40067 14.6122 4.28164 14.2155C4.16262 13.8187 4.38776 13.4006 4.7845 13.2816L14.7845 10.2816C15.1812 10.1626 15.5994 10.3877 15.7184 10.7844Z" fill="#D9D9D9"/>
</svg>
