<svg width="24" height="24" viewBox="0 0 24 24" fill="none" xmlns="http://www.w3.org/2000/svg">
<path d="M12 5.25C11.5858 5.25 11.25 5.58579 11.25 6V7.25H5C4.80109 7.25 4.61032 7.32902 4.46967 7.46967L2.46967 9.46967C2.17678 9.76256 2.17678 10.2374 2.46967 10.5303L4.46967 12.5303C4.61032 12.671 4.80109 12.75 5 12.75H12C12.4142 12.75 12.75 12.4142 12.75 12V10.75H19C19.1989 10.75 19.3897 10.671 19.5303 10.5303L21.5303 8.53033C21.8232 8.23744 21.8232 7.76256 21.5303 7.46967L19.5303 5.46967C19.3897 5.32902 19.1989 5.25 19 5.25H12Z" fill="#5D5D5D"/>
<path fill-rule="evenodd" clip-rule="evenodd" d="M12 2.25C12.4142 2.25 12.75 2.58579 12.75 3V20.25H14C14.4142 20.25 14.75 20.5858 14.75 21C14.75 21.4142 14.4142 21.75 14 21.75H10C9.58579 21.75 9.25 21.4142 9.25 21C9.25 20.5858 9.58579 20.25 10 20.25H11.25V3C11.25 2.58579 11.5858 2.25 12 2.25Z" fill="#D9D9D9"/>
</svg>
