<svg width="24" height="24" viewBox="0 0 24 24" fill="none" xmlns="http://www.w3.org/2000/svg">
<path fill-rule="evenodd" clip-rule="evenodd" d="M11 3.75C9.75736 3.75 8.75 4.75736 8.75 6V10C8.75 10.4142 8.41421 10.75 8 10.75C7.58579 10.75 7.25 10.4142 7.25 10V6C7.25 3.92893 8.92893 2.25 11 2.25H13C15.0711 2.25 16.75 3.92893 16.75 6V10C16.75 10.4142 16.4142 10.75 16 10.75C15.5858 10.75 15.25 10.4142 15.25 10V6C15.25 4.75736 14.2426 3.75 13 3.75H11Z" fill="#D9D9D9"/>
<path d="M6 9.25C4.48122 9.25 3.25 10.4812 3.25 12V18C3.25 19.5188 4.48122 20.75 6 20.75H18C19.5188 20.75 20.75 19.5188 20.75 18V12C20.75 10.4812 19.5188 9.25 18 9.25H6Z" fill="#5D5D5D"/>
<path fill-rule="evenodd" clip-rule="evenodd" d="M12 13.25C12.4142 13.25 12.75 13.5858 12.75 14V16C12.75 16.4142 12.4142 16.75 12 16.75C11.5858 16.75 11.25 16.4142 11.25 16V14C11.25 13.5858 11.5858 13.25 12 13.25Z" fill="#D9D9D9"/>
</svg>
