<svg width="24" height="24" viewBox="0 0 24 24" fill="none" xmlns="http://www.w3.org/2000/svg">
<path d="M13.5303 7.46967C13.2374 7.17678 12.7625 7.17678 12.4696 7.46967L4.88383 15.0555C3.80988 16.1294 3.80988 17.8706 4.88383 18.9445L5.0554 19.1161C6.12934 20.1901 7.87054 20.1901 8.94448 19.1161L16.5303 11.5303C16.8232 11.2374 16.8232 10.7626 16.5303 10.4697L13.5303 7.46967Z" fill="#5D5D5D"/>
<path d="M8.75 3C8.75 2.58579 8.41421 2.25 8 2.25C7.58579 2.25 7.25 2.58579 7.25 3V3.75H6.5C6.08579 3.75 5.75 4.08579 5.75 4.5C5.75 4.91421 6.08579 5.25 6.5 5.25H7.25V6C7.25 6.41421 7.58579 6.75 8 6.75C8.41421 6.75 8.75 6.41421 8.75 6V5.25H9.5C9.91421 5.25 10.25 4.91421 10.25 4.5C10.25 4.08579 9.91421 3.75 9.5 3.75H8.75V3Z" fill="#D9D9D9"/>
<path d="M4.75 9C4.75 8.58579 4.41421 8.25 4 8.25C3.58579 8.25 3.25 8.58579 3.25 9V9.25H3C2.58579 9.25 2.25 9.58579 2.25 10C2.25 10.4142 2.58579 10.75 3 10.75H3.25V11C3.25 11.4142 3.58579 11.75 4 11.75C4.41421 11.75 4.75 11.4142 4.75 11V10.75H5C5.41421 10.75 5.75 10.4142 5.75 10C5.75 9.58579 5.41421 9.25 5 9.25H4.75V9Z" fill="#D9D9D9"/>
<path d="M18.9447 4.88389C17.8707 3.80995 16.1295 3.80994 15.0556 4.88389L11.9395 8L16.0001 12.0607L19.1162 8.94455C20.1902 7.87061 20.1902 6.1294 19.1162 5.05546L18.9447 4.88389Z" fill="#D9D9D9"/>
<path d="M18 14.25C18.4142 14.25 18.75 14.5858 18.75 15V16.25H20C20.4142 16.25 20.75 16.5858 20.75 17C20.75 17.4142 20.4142 17.75 20 17.75H18.75V19C18.75 19.4142 18.4142 19.75 18 19.75C17.5858 19.75 17.25 19.4142 17.25 19V17.75H16C15.5858 17.75 15.25 17.4142 15.25 17C15.25 16.5858 15.5858 16.25 16 16.25H17.25V15C17.25 14.5858 17.5858 14.25 18 14.25Z" fill="#D9D9D9"/>
</svg>
