<svg width="24" height="24" viewBox="0 0 24 24" fill="none" xmlns="http://www.w3.org/2000/svg">
<path d="M13.3355 3.88391C12.505 3.42249 11.495 3.42249 10.6645 3.88391L3.50993 7.85866C2.73229 8.29068 2.25 9.11034 2.25 9.99992V17.9999C2.25 19.5187 3.48122 20.7499 5 20.7499H19C20.5188 20.7499 21.75 19.5187 21.75 17.9999V9.99992C21.75 9.11034 21.2677 8.29068 20.4901 7.85866L13.3355 3.88391Z" fill="#5D5D5D"/>
<path d="M13.3355 3.88391C12.505 3.42249 11.495 3.42249 10.6645 3.88391L3.07587 8.09981C2.56614 8.38299 2.25 8.92027 2.25 9.50338C2.25 10.0796 2.55874 10.6116 3.05902 10.8975L9.16675 14.3876C9.58227 14.625 10.0526 14.7499 10.5311 14.7499H13.4689C13.9474 14.7499 14.4177 14.625 14.8333 14.3876L20.941 10.8975C21.4413 10.6116 21.75 10.0796 21.75 9.50338C21.75 8.92027 21.4339 8.38299 20.9241 8.0998L13.3355 3.88391Z" fill="#D9D9D9"/>
</svg>
