<svg width="24" height="24" viewBox="0 0 24 24" fill="none" xmlns="http://www.w3.org/2000/svg">
<path d="M5 4.25C3.48122 4.25 2.25 5.48122 2.25 7V17C2.25 18.5188 3.48122 19.75 5 19.75H19C20.5188 19.75 21.75 18.5188 21.75 17V7C21.75 5.48122 20.5188 4.25 19 4.25H5Z" fill="#5D5D5D"/>
<path d="M4.30278 4.25C3.16906 4.25 2.25 5.16906 2.25 6.30278C2.25 6.98913 2.59302 7.63007 3.1641 8.01079L10.4746 12.8844C11.3983 13.5003 12.6017 13.5003 13.5254 12.8844L20.8359 8.01079C21.407 7.63007 21.75 6.98913 21.75 6.30278C21.75 5.16906 20.8309 4.25 19.6972 4.25H4.30278Z" fill="#D9D9D9"/>
</svg>
