<svg width="24" height="24" viewBox="0 0 24 24" fill="none" xmlns="http://www.w3.org/2000/svg">
<path d="M12 2.25C6.61522 2.25 2.25 6.61522 2.25 12C2.25 17.3848 6.61522 21.75 12 21.75C17.3848 21.75 21.75 17.3848 21.75 12C21.75 11.3268 21.6817 10.6688 21.5513 10.0328C20.771 6.22573 17.7743 3.22899 13.9672 2.44869C13.3312 2.31833 12.6732 2.25 12 2.25Z" fill="#D9D9D9"/>
<path d="M11.0304 11.9697C10.7375 11.6768 10.2626 11.6768 9.96969 11.9697L8.46969 13.4697C8.26882 13.6705 8.19867 13.9677 8.28851 14.2372L8.78851 15.7372C8.87071 15.9838 9.07473 16.1702 9.32771 16.2299C9.58069 16.2897 9.84655 16.2141 10.0304 16.0303L12.0304 14.0303C12.3232 13.7374 12.3232 13.2626 12.0304 12.9697L11.0304 11.9697Z" fill="black"/>
<path d="M13.9672 2.44888C13.7203 2.39828 13.4645 2.47506 13.2863 2.65328L9.96967 5.96986C9.67678 6.26275 9.67678 6.73763 9.96967 7.03052L10.9393 8.00019L8.46967 10.4699C8.17678 10.7628 8.17678 11.2376 8.46967 11.5305L12.4697 15.5305C12.7626 15.8234 13.2374 15.8234 13.5303 15.5305L16 13.0609L16.9697 14.0305C17.2626 14.3234 17.7374 14.3234 18.0303 14.0305L21.3469 10.7139C21.5251 10.5357 21.6019 10.2799 21.5513 10.033C20.771 6.22592 17.7743 3.22918 13.9672 2.44888Z" fill="#5D5D5D"/>
</svg>
