<svg width="24" height="24" viewBox="0 0 24 24" fill="none" xmlns="http://www.w3.org/2000/svg">
<path d="M12 2.25C6.61522 2.25 2.25 6.61522 2.25 12C2.25 15.3812 3.97173 18.3599 6.58281 20.1077C8.1325 21.145 9.99674 21.75 12 21.75C14.0033 21.75 15.8675 21.145 17.4172 20.1077C20.0283 18.3599 21.75 15.3812 21.75 12C21.75 6.61522 17.3848 2.25 12 2.25Z" fill="#D9D9D9"/>
<path d="M13.75 7C13.75 6.74007 13.6154 6.49867 13.3943 6.36201C13.1732 6.22536 12.8971 6.21293 12.6646 6.32918L10.6646 7.32918C10.4105 7.45622 10.25 7.71592 10.25 8V11C10.25 11.4142 10.5858 11.75 11 11.75H13C13.4142 11.75 13.75 11.4142 13.75 11V7Z" fill="black"/>
<path d="M9 10.25C8.58579 10.25 8.25 10.5858 8.25 11V15.25H7C6.58579 15.25 6.25 15.5858 6.25 16V19.4845C6.25 19.7347 6.37483 19.9685 6.58281 20.1077C8.1325 21.145 9.99674 21.75 12 21.75C14.0033 21.75 15.8675 21.145 17.4172 20.1077C17.6252 19.9685 17.75 19.7347 17.75 19.4845V16C17.75 15.5858 17.4138 15.25 16.9996 15.25H15.75V11C15.75 10.5858 15.4142 10.25 15 10.25H9Z" fill="#5D5D5D"/>
</svg>
