<svg width="24" height="24" viewBox="0 0 24 24" fill="none" xmlns="http://www.w3.org/2000/svg">
<path d="M9.45043 11.4008C9.22322 11.2301 8.91905 11.2026 8.66483 11.3296C8.41061 11.4565 8.25 11.7163 8.25 12.0005V21.0001C8.25 21.3035 8.43273 21.577 8.71299 21.693C8.99324 21.8091 9.31583 21.745 9.53033 21.5305L12 19.0608L14.4697 21.5305C14.6842 21.745 15.0068 21.8091 15.287 21.693C15.5673 21.577 15.75 21.3035 15.75 21.0001V12.0005C15.75 11.7163 15.5894 11.4565 15.3352 11.3296C15.0809 11.2026 14.7768 11.2301 14.5496 11.4008C13.8393 11.9343 12.9576 12.2501 12 12.2501C11.0424 12.2501 10.1607 11.9343 9.45043 11.4008Z" fill="#5D5D5D"/>
<path d="M12 2.25C8.82436 2.25 6.25 4.82436 6.25 8C6.25 9.88167 7.15465 11.5523 8.54957 12.6C9.51065 13.3219 10.7064 13.75 12 13.75C13.2936 13.75 14.4894 13.3219 15.4504 12.6C16.8454 11.5523 17.75 9.88167 17.75 8C17.75 4.82436 15.1756 2.25 12 2.25Z" fill="#D9D9D9"/>
</svg>
