<svg width="24" height="24" viewBox="0 0 24 24" fill="none" xmlns="http://www.w3.org/2000/svg">
<path d="M9.18895 3.25H6C4.48122 3.25 3.25 4.48122 3.25 6V8.28917C3.27665 8.29569 3.31078 8.304 3.35182 8.31391C3.46294 8.34073 3.62454 8.37921 3.82495 8.42546C4.22608 8.51803 4.78115 8.64137 5.39714 8.76456C6.39317 8.96377 7.50249 9.15292 8.37608 9.2222C8.47396 8.03685 8.61638 6.88241 8.75759 5.89393C8.88397 5.00929 9.01034 4.25105 9.10522 3.71341C9.13705 3.53304 9.16535 3.37739 9.18895 3.25Z" fill="#5D5D5D"/>
<path d="M3.25 15.8316V18C3.25 19.5188 4.48122 20.75 6 20.75H9.18895C9.16535 20.6226 9.13705 20.467 9.10522 20.2866C9.01034 19.749 8.88397 18.9907 8.75759 18.1061C8.69639 17.6777 8.63496 17.2181 8.57703 16.7383C7.53365 16.6846 6.19525 16.4539 5.10297 16.2354C4.46896 16.1086 3.89903 15.982 3.48766 15.887C3.40122 15.8671 3.32171 15.8485 3.25 15.8316Z" fill="#5D5D5D"/>
<path d="M15.7154 20.75C15.7095 20.7192 15.7023 20.6817 15.694 20.6379C15.6672 20.4961 15.6287 20.2882 15.5824 20.0259C15.4898 19.501 15.3661 18.7593 15.2425 17.8939C15.1091 16.9598 14.9768 15.8892 14.8829 14.7962C15.8122 14.8774 17.0173 15.0549 18.1268 15.2398C18.8704 15.3637 19.5528 15.4878 20.0493 15.5809C20.2975 15.6274 20.499 15.6662 20.6382 15.6932L20.75 15.7151V18C20.75 19.5188 19.5188 20.75 18 20.75H15.7154Z" fill="#5D5D5D"/>
<path d="M20.75 8.1871C20.6309 8.16423 20.4881 8.13704 20.3258 8.1066C19.8223 8.0122 19.1297 7.88626 18.3734 7.76021C17.3122 7.58334 16.0871 7.39944 15.0825 7.30835C15.1339 6.89007 15.1881 6.48673 15.2425 6.10607C15.3661 5.24071 15.4898 4.49895 15.5824 3.97409C15.6287 3.71175 15.6672 3.50385 15.694 3.36208C15.7023 3.31829 15.7095 3.28081 15.7154 3.25H18C19.5188 3.25 20.75 4.48122 20.75 6V8.1871Z" fill="#5D5D5D"/>
<path d="M3.25 9.83165V14.2892C3.27665 14.2957 3.31078 14.304 3.35182 14.3139C3.46294 14.3407 3.62454 14.3792 3.82495 14.4255C4.22608 14.518 4.78115 14.6414 5.39714 14.7646C6.4081 14.9668 7.53578 15.1586 8.41521 15.2252C8.31659 14.156 8.25006 13.047 8.25006 12C8.25006 11.5808 8.26072 11.1516 8.27985 10.719C7.28775 10.6419 6.09404 10.4337 5.10297 10.2354C4.46896 10.1086 3.89903 9.98198 3.48766 9.88705C3.40122 9.8671 3.32171 9.84854 3.25 9.83165Z" fill="#D9D9D9"/>
<path d="M20.75 14.1871C20.6309 14.1642 20.4881 14.137 20.3258 14.1066C19.8223 14.0122 19.1297 13.8863 18.3734 13.7602C17.2036 13.5653 15.8347 13.3617 14.7815 13.2834C14.7613 12.8484 14.7501 12.4182 14.7501 12C14.7501 10.9702 14.8184 9.86715 14.9194 8.79944C15.8436 8.88208 17.0317 9.0573 18.1268 9.2398C18.8704 9.36375 19.5528 9.4878 20.0493 9.58091C20.2975 9.62744 20.499 9.66618 20.6382 9.69325L20.75 9.71515V14.1871Z" fill="#D9D9D9"/>
<path d="M9.78387 10.6655C9.76222 11.1179 9.75006 11.5655 9.75006 12L9.90641 15.0607C10.2787 14.9061 10.649 14.666 11.084 14.376L11.1369 14.3407C11.7075 13.9599 12.4033 13.4956 13.2816 13.3209C13.2614 12.8748 13.2501 12.4321 13.2501 12C13.2501 10.9709 13.3143 9.88201 13.4102 8.82974C12.9247 8.96274 12.4736 9.25237 11.9161 9.62404L11.8632 9.65931C11.3069 10.0306 10.6315 10.4813 9.78387 10.6655Z" fill="#D9D9D9"/>
<path d="M10.7154 20.75H14.189C14.1654 20.6226 14.137 20.467 14.1052 20.2866C14.0103 19.749 13.884 18.9907 13.7576 18.1061C13.6188 17.1343 13.4788 16.0021 13.3811 14.8379C12.9066 14.9744 12.4624 15.2598 11.9161 15.624L11.8632 15.6593C11.371 15.9878 10.7856 16.3785 10.0703 16.5917C10.1253 17.0457 10.1838 17.483 10.2425 17.8939C10.3661 18.7593 10.4898 19.501 10.5824 20.0259C10.6287 20.2882 10.6672 20.4961 10.694 20.6379C10.7023 20.6817 10.7095 20.7192 10.7154 20.75Z" fill="#D9D9D9"/>
<path d="M14.189 3.25C14.1654 3.37739 14.1371 3.53304 14.1052 3.71341C14.0103 4.25105 13.884 5.00929 13.7576 5.89393C13.6958 6.32619 13.6339 6.79018 13.5755 7.27461C12.5565 7.39332 11.7697 7.91838 11.1369 8.34069L11.084 8.37596C10.6446 8.66895 10.2712 8.91094 9.89502 9.06543C9.98793 8.02058 10.1147 7.00071 10.2425 6.10607C10.3661 5.24071 10.4898 4.49895 10.5824 3.97409C10.6287 3.71175 10.6672 3.50385 10.694 3.36208C10.7023 3.31829 10.7095 3.28081 10.7154 3.25H14.189Z" fill="#D9D9D9"/>
</svg>
