<svg width="24" height="24" viewBox="0 0 24 24" fill="none" xmlns="http://www.w3.org/2000/svg">
<path fill-rule="evenodd" clip-rule="evenodd" d="M12 2.25C12.4142 2.25 12.75 2.58579 12.75 3V7.18934L14.4697 5.46967C14.7626 5.17678 15.2374 5.17678 15.5303 5.46967C15.8232 5.76256 15.8232 6.23744 15.5303 6.53033L12.5303 9.53033C12.3897 9.67098 12.1989 9.75 12 9.75C11.8011 9.75 11.6103 9.67098 11.4697 9.53033L8.46967 6.53033C8.17678 6.23744 8.17678 5.76256 8.46967 5.46967C8.76256 5.17678 9.23744 5.17678 9.53033 5.46967L11.25 7.18934V3C11.25 2.58579 11.5858 2.25 12 2.25ZM8.46967 17.4697L11.4697 14.4697C11.7626 14.1768 12.2374 14.1768 12.5303 14.4697L15.5303 17.4697C15.8232 17.7626 15.8232 18.2374 15.5303 18.5303C15.2374 18.8232 14.7626 18.8232 14.4697 18.5303L12.75 16.8107V21C12.75 21.4142 12.4142 21.75 12 21.75C11.5858 21.75 11.25 21.4142 11.25 21V16.8107L9.53033 18.5303C9.23744 18.8232 8.76256 18.8232 8.46967 18.5303C8.17678 18.2374 8.17678 17.7626 8.46967 17.4697Z" fill="#5D5D5D"/>
<path fill-rule="evenodd" clip-rule="evenodd" d="M4.25 12C4.25 11.5858 4.58579 11.25 5 11.25H19C19.4142 11.25 19.75 11.5858 19.75 12C19.75 12.4142 19.4142 12.75 19 12.75H5C4.58579 12.75 4.25 12.4142 4.25 12Z" fill="#D9D9D9"/>
</svg>
