<svg width="24" height="24" viewBox="0 0 24 24" fill="none" xmlns="http://www.w3.org/2000/svg">
<path fill-rule="evenodd" clip-rule="evenodd" d="M2.25 5C2.25 4.58579 2.58579 4.25 3 4.25H15C15.4142 4.25 15.75 4.58579 15.75 5C15.75 5.41421 15.4142 5.75 15 5.75H9.75V19C9.75 19.4142 9.41421 19.75 9 19.75C8.58579 19.75 8.25 19.4142 8.25 19V5.75H3C2.58579 5.75 2.25 5.41421 2.25 5Z" fill="#5D5D5D"/>
<path fill-rule="evenodd" clip-rule="evenodd" d="M14.25 12C14.25 11.5858 14.5858 11.25 15 11.25H21C21.4142 11.25 21.75 11.5858 21.75 12C21.75 12.4142 21.4142 12.75 21 12.75H18.75V19C18.75 19.4142 18.4142 19.75 18 19.75C17.5858 19.75 17.25 19.4142 17.25 19V12.75H15C14.5858 12.75 14.25 12.4142 14.25 12Z" fill="#D9D9D9"/>
</svg>
