<svg width="24" height="24" viewBox="0 0 24 24" fill="none" xmlns="http://www.w3.org/2000/svg">
<path d="M19.4359 3.6103C19.7012 3.4208 19.8137 3.0816 19.7142 2.77112C19.6147 2.46064 19.326 2.25 18.9999 2.25H4.99993C4.6739 2.25 4.38521 2.46064 4.28571 2.77112C4.18621 3.0816 4.2987 3.4208 4.564 3.6103L11.564 8.6103C11.8248 8.79657 12.1751 8.79657 12.4359 8.6103L19.4359 3.6103Z" fill="#5D5D5D"/>
<path d="M18.9999 21.75C19.326 21.75 19.6147 21.5394 19.7142 21.2289C19.8137 20.9184 19.7012 20.5792 19.4359 20.3897L12.4359 15.3897C12.1751 15.2034 11.8248 15.2034 11.564 15.3897L4.564 20.3897C4.2987 20.5792 4.18621 20.9184 4.28571 21.2289C4.38521 21.5394 4.6739 21.75 4.99993 21.75H18.9999Z" fill="#5D5D5D"/>
<path fill-rule="evenodd" clip-rule="evenodd" d="M21.75 12C21.75 12.4142 21.4142 12.75 21 12.75L3 12.75C2.58579 12.75 2.25 12.4142 2.25 12C2.25 11.5858 2.58579 11.25 3 11.25L21 11.25C21.4142 11.25 21.75 11.5858 21.75 12Z" fill="#D9D9D9"/>
</svg>
