<svg width="24" height="24" viewBox="0 0 24 24" fill="none" xmlns="http://www.w3.org/2000/svg">
<path d="M3.6103 4.56412C3.4208 4.29882 3.0816 4.18633 2.77112 4.28583C2.46064 4.38533 2.25 4.67402 2.25 5.00005V19.0001C2.25 19.3261 2.46064 19.6148 2.77112 19.7143C3.0816 19.8138 3.4208 19.7013 3.6103 19.436L8.6103 12.436C8.79657 12.1752 8.79657 11.8249 8.6103 11.5641L3.6103 4.56412Z" fill="#5D5D5D"/>
<path d="M21.75 5.00005C21.75 4.67402 21.5394 4.38533 21.2289 4.28583C20.9184 4.18633 20.5792 4.29882 20.3897 4.56412L15.3897 11.5641C15.2034 11.8249 15.2034 12.1752 15.3897 12.436L20.3897 19.436C20.5792 19.7013 20.9184 19.8138 21.2289 19.7143C21.5394 19.6148 21.75 19.3261 21.75 19.0001V5.00005Z" fill="#5D5D5D"/>
<path fill-rule="evenodd" clip-rule="evenodd" d="M12 2.25C12.4142 2.25 12.75 2.58579 12.75 3V21C12.75 21.4142 12.4142 21.75 12 21.75C11.5858 21.75 11.25 21.4142 11.25 21V3C11.25 2.58579 11.5858 2.25 12 2.25Z" fill="#D9D9D9"/>
</svg>
