<svg width="24" height="24" viewBox="0 0 24 24" fill="none" xmlns="http://www.w3.org/2000/svg">
<path d="M8.00001 2.25C7.80109 2.25 7.61033 2.32902 7.46968 2.46967C7.32902 2.61032 7.25034 2.82755 7.25034 3.02646L7.25068 3.05042C7.25129 3.07841 7.25247 3.11726 7.25472 3.16571C7.25922 3.26249 7.26805 3.39825 7.28538 3.56289C7.31985 3.8904 7.38893 4.34127 7.52886 4.83104C7.65464 5.27127 7.84692 5.77371 8.14305 6.25H7.00001C6.58579 6.25 6.25001 6.58579 6.25001 7C6.25001 7.41421 6.58579 7.75 7.00001 7.75H7.70429C7.4529 7.93322 7.18783 8.14611 6.91846 8.39572C5.41919 9.78503 3.89199 12.2081 3.4077 16.8018C3.17228 19.0349 4.74677 21.0172 6.9474 21.3547C8.46472 21.5875 10.1825 21.75 12 21.75C13.8175 21.75 15.5353 21.5875 17.0526 21.3547C19.2532 21.0172 20.8277 19.0349 20.5923 16.8018C20.108 12.2081 18.5808 9.78503 17.0816 8.39572C16.8122 8.14611 16.5471 7.93322 16.2957 7.75H17C17.4142 7.75 17.75 7.41421 17.75 7C17.75 6.58579 17.4142 6.25 17 6.25H15.857C16.1531 5.77371 16.3454 5.27127 16.4712 4.83104C16.6111 4.34127 16.6802 3.8904 16.7146 3.56289C16.732 3.39825 16.7408 3.26249 16.7453 3.16571C16.7475 3.11726 16.7487 3.07841 16.7493 3.05042L16.7499 3.01666L16.75 3.00614L16.75 3.00251L16.75 3C16.75 2.80109 16.671 2.61032 16.5303 2.46967C16.3897 2.32902 16.1989 2.25 16 2.25H8.00001Z" fill="#5D5D5D"/>
<path fill-rule="evenodd" clip-rule="evenodd" d="M6.25 7C6.25 6.58579 6.58579 6.25 7 6.25H17C17.4142 6.25 17.75 6.58579 17.75 7C17.75 7.41421 17.4142 7.75 17 7.75H7C6.58579 7.75 6.25 7.41421 6.25 7Z" fill="#D9D9D9"/>
<path fill-rule="evenodd" clip-rule="evenodd" d="M12 9.25C12.4142 9.25 12.75 9.58579 12.75 10V10.25H14.5C14.9142 10.25 15.25 10.5858 15.25 11C15.25 11.4142 14.9142 11.75 14.5 11.75H12.75V13.25H13C14.2426 13.25 15.25 14.2574 15.25 15.5C15.25 16.7426 14.2426 17.75 13 17.75H12.75V18C12.75 18.4142 12.4142 18.75 12 18.75C11.5858 18.75 11.25 18.4142 11.25 18V17.75H9.5C9.08579 17.75 8.75 17.4142 8.75 17C8.75 16.5858 9.08579 16.25 9.5 16.25H11.25V14.75H11C9.75736 14.75 8.75 13.7426 8.75 12.5C8.75 11.2574 9.75736 10.25 11 10.25H11.25V10C11.25 9.58579 11.5858 9.25 12 9.25ZM11.25 11.75H11C10.5858 11.75 10.25 12.0858 10.25 12.5C10.25 12.9142 10.5858 13.25 11 13.25H11.25V11.75ZM12.75 14.75V16.25H13C13.4142 16.25 13.75 15.9142 13.75 15.5C13.75 15.0858 13.4142 14.75 13 14.75H12.75Z" fill="#D9D9D9"/>
</svg>
