<svg width="24" height="24" viewBox="0 0 24 24" fill="none" xmlns="http://www.w3.org/2000/svg">
<path d="M10 14.25C9.58579 14.25 9.25 14.5858 9.25 15V19.25H8C7.58579 19.25 7.25 19.5858 7.25 20C7.25 20.4142 7.58579 20.75 8 20.75H16C16.4142 20.75 16.75 20.4142 16.75 20C16.75 19.5858 16.4142 19.25 16 19.25H14.75V15C14.75 14.5858 14.4142 14.25 14 14.25H10Z" fill="#5D5D5D"/>
<path d="M4 3.25C3.58579 3.25 3.25 3.58579 3.25 4V15C3.25 15.4142 3.58579 15.75 4 15.75H20C20.4142 15.75 20.75 15.4142 20.75 15V4C20.75 3.58579 20.4142 3.25 20 3.25H4Z" fill="#D9D9D9"/>
</svg>
