<svg width="24" height="24" viewBox="0 0 24 24" fill="none" xmlns="http://www.w3.org/2000/svg">
<path d="M15.8212 3.22057C15.8662 2.97772 15.7887 2.7283 15.6141 2.55367C15.4395 2.37903 15.19 2.30156 14.9472 2.34654C12.2743 2.84154 10.25 5.18369 10.25 8.00023C10.25 8.42474 10.2961 8.83933 10.3839 9.23898C10.4703 9.6322 10.8518 9.88707 11.2481 9.8164C11.4916 9.77298 11.7428 9.75022 12 9.75022C14.0318 9.75022 15.7321 11.1767 16.151 13.0834C16.1599 13.124 16.1683 13.1649 16.176 13.2059C16.2529 13.6129 16.6452 13.8806 17.0522 13.8037C17.2252 13.7711 17.3731 13.6814 17.4799 13.5578C19.607 12.9928 21.2485 11.2409 21.6537 9.05305C21.6987 8.8102 21.6212 8.56078 21.4466 8.38614C21.2719 8.2115 21.0225 8.13404 20.7797 8.17901C20.5275 8.22572 20.2669 8.25023 20 8.25023C17.6528 8.25023 15.75 6.34744 15.75 4.00023C15.75 3.7333 15.7745 3.47277 15.8212 3.22057Z" fill="#D9D9D9"/>
<path d="M12 8.25C11.6542 8.25 11.3149 8.28062 10.9848 8.33946C8.814 8.72652 7.06632 10.3295 6.47006 12.4197C4.13908 12.9515 2.25 14.7103 2.25 17C2.25 19.7709 4.98919 21.75 8 21.75H16C19.0108 21.75 21.75 19.7709 21.75 17C21.75 14.7103 19.8609 12.9515 17.5299 12.4197C16.8431 10.0126 14.6282 8.25 12 8.25Z" fill="#5D5D5D"/>
</svg>
