<svg width="24" height="24" viewBox="0 0 24 24" fill="none" xmlns="http://www.w3.org/2000/svg">
<path d="M10.1034 3.60331C10.1836 3.33853 10.1116 3.05107 9.91594 2.85543C9.7203 2.65979 9.43284 2.58775 9.16806 2.66801C5.16515 3.88126 2.25 7.59929 2.25 12.0002C2.25 17.3849 6.61522 21.7502 12 21.7502C16.4009 21.7502 20.1189 18.835 21.3321 14.8321C21.4124 14.5673 21.3404 14.2799 21.1447 14.0842C20.9491 13.8886 20.6616 13.8165 20.3968 13.8968C19.6392 14.1264 18.8347 14.2502 18 14.2502C13.4437 14.2502 9.75 10.5565 9.75 6.00016C9.75 5.16541 9.87374 4.36091 10.1034 3.60331Z" fill="#5D5D5D"/>
</svg>
