<svg width="24" height="24" viewBox="0 0 24 24" fill="none" xmlns="http://www.w3.org/2000/svg">
<path d="M8.45879 13.6258L7.46888 13.7083L7.02726 12.7147C6.91926 12.4717 6.69066 12.304 6.42644 12.274C6.28622 12.2581 6.14392 12.25 6 12.25C3.92893 12.25 2.25 13.9289 2.25 16C2.25 18.0711 3.92893 19.75 6 19.75C8.07107 19.75 9.75 18.0711 9.75 16C9.75 15.2516 9.52999 14.5523 9.15089 13.966C9.00062 13.7336 8.73458 13.6029 8.45879 13.6258Z" fill="#D9D9D9"/>
<path d="M18 12.25C15.9289 12.25 14.25 13.9289 14.25 16C14.25 18.0711 15.9289 19.75 18 19.75C20.0711 19.75 21.75 18.0711 21.75 16C21.75 13.9289 20.0711 12.25 18 12.25Z" fill="#D9D9D9"/>
<path d="M12 3.25C11.5858 3.25 11.25 3.58579 11.25 4C11.25 4.41421 11.5858 4.75 12 4.75H13.25V5C13.25 5.08061 13.263 5.1607 13.2885 5.23717L13.9594 7.25H12C11.8519 7.25 11.7072 7.29383 11.584 7.37596L8.77292 9.25H5C4.74612 9.25 4.50947 9.37844 4.37113 9.59131C4.24352 9.78768 4.21553 10.0313 4.29289 10.25H3C2.58579 10.25 2.25 10.5858 2.25 11C2.25 11.4142 2.58579 11.75 3 11.75H4.95704L6.147 14.4274L5.37596 15.584C5.1462 15.9286 5.23933 16.3943 5.58397 16.624C5.92862 16.8538 6.39427 16.7607 6.62404 16.416L7.42316 15.2173L13.0623 14.7474C13.3613 14.7225 13.6166 14.5218 13.7115 14.2372L15.0416 10.2469L17.2978 16.2633C17.4432 16.6512 17.8755 16.8477 18.2633 16.7022C18.6512 16.5568 18.8477 16.1245 18.7022 15.7367L16.0823 8.75H17C17.4142 8.75 17.75 8.41421 17.75 8V6C17.75 5.58579 17.4142 5.25 17 5.25H14.8739L14.75 4.87829V4C14.75 3.58579 14.4142 3.25 14 3.25H12Z" fill="#5D5D5D"/>
</svg>
