<svg width="24" height="24" viewBox="0 0 24 24" fill="none" xmlns="http://www.w3.org/2000/svg">
<path d="M8.1819 9.77246C7.84803 9.689 7.50019 9.84347 7.33824 10.1471L3.33824 17.6471C3.21426 17.8796 3.22134 18.16 3.35688 18.3859C3.49242 18.6118 3.73655 18.7501 4 18.7501H20C20.2634 18.7501 20.5076 18.6118 20.6431 18.3859C20.7787 18.16 20.7857 17.8796 20.6618 17.6471L16.6618 10.1471C16.5587 9.95394 16.3764 9.81543 16.1627 9.76793C15.949 9.72044 15.7252 9.76871 15.55 9.90007L13.8356 11.1859L8.1819 9.77246Z" fill="#5D5D5D"/>
<path d="M12.6618 2.64706C12.5314 2.40266 12.277 2.25 12 2.25C11.723 2.25 11.4686 2.40266 11.3382 2.64706L7.33824 10.1471C7.22955 10.3508 7.22082 10.5933 7.31455 10.8044C7.40829 11.0155 7.59404 11.1716 7.8181 11.2276L13.8181 12.7276C14.0372 12.7824 14.2693 12.7355 14.45 12.6L16.45 11.1C16.7459 10.878 16.8358 10.4735 16.6618 10.1471L12.6618 2.64706Z" fill="#D9D9D9"/>
</svg>
