<svg width="24" height="24" viewBox="0 0 24 24" fill="none" xmlns="http://www.w3.org/2000/svg">
<path fill-rule="evenodd" clip-rule="evenodd" d="M10.6604 4.64443C10.5295 4.40149 10.2759 4.25 10 4.25C9.72409 4.25 9.47046 4.40149 9.33965 4.64443L2.33965 17.6444C2.21449 17.8769 2.22075 18.158 2.35611 18.3846C2.49148 18.6112 2.73602 18.75 3 18.75H21C21.2657 18.75 21.5116 18.6094 21.6464 18.3803C21.7812 18.1513 21.7847 17.8681 21.6556 17.6358L16.6556 8.63577C16.5233 8.39767 16.2724 8.25 16 8.25C15.7276 8.25 15.4767 8.39767 15.3444 8.63577L14.0572 10.9528L10.6604 4.64443Z" fill="#5D5D5D"/>
<path d="M10.6604 4.64443C10.5295 4.40149 10.2759 4.25 10 4.25C9.72409 4.25 9.47046 4.40149 9.33965 4.64443L5.83965 11.1444C5.73469 11.3394 5.72121 11.5707 5.80282 11.7765C5.88444 11.9823 6.0528 12.1415 6.26283 12.2115L10.7628 13.7115C10.9705 13.7807 11.1981 13.7558 11.3859 13.6431L13.8859 12.1431C14.2294 11.937 14.3503 11.4972 14.1604 11.1444L10.6604 4.64443Z" fill="#D9D9D9"/>
</svg>
