<svg width="24" height="24" viewBox="0 0 24 24" fill="none" xmlns="http://www.w3.org/2000/svg">
<path d="M12 3.25C8.82436 3.25 6.25 5.82436 6.25 9V15C6.25 18.1756 8.82436 20.75 12 20.75C15.1756 20.75 17.75 18.1756 17.75 15V9C17.75 5.82436 15.1756 3.25 12 3.25Z" fill="#5D5D5D"/>
<path fill-rule="evenodd" clip-rule="evenodd" d="M12 4.25C12.4142 4.25 12.75 4.58579 12.75 5V9.25H16C16.4142 9.25 16.75 9.58579 16.75 10C16.75 10.4142 16.4142 10.75 16 10.75H8C7.58579 10.75 7.25 10.4142 7.25 10C7.25 9.58579 7.58579 9.25 8 9.25H11.25V5C11.25 4.58579 11.5858 4.25 12 4.25Z" fill="#D9D9D9"/>
</svg>
