<svg width="24" height="24" viewBox="0 0 24 24" fill="none" xmlns="http://www.w3.org/2000/svg">
<path d="M6 8.25C4.48122 8.25 3.25 9.48122 3.25 11C3.25 12.5188 4.48122 13.75 6 13.75H18C19.5188 13.75 20.75 12.5188 20.75 11C20.75 9.48122 19.5188 8.25 18 8.25H6Z" fill="#D9D9D9"/>
<path d="M12.416 2.37596C12.1641 2.20801 11.8359 2.20801 11.584 2.37596L8.58397 4.37596C8.23933 4.60573 8.1462 5.07138 8.37596 5.41603C8.60573 5.76067 9.07138 5.8538 9.41603 5.62404L11.25 4.40139V15.25H6C4.48122 15.25 3.25 16.4812 3.25 18C3.25 19.5188 4.48122 20.75 6 20.75H18C19.5188 20.75 20.75 19.5188 20.75 18C20.75 16.4812 19.5188 15.25 18 15.25H12.75V4.40139L14.584 5.62404C14.9286 5.8538 15.3943 5.76067 15.624 5.41603C15.8538 5.07138 15.7607 4.60573 15.416 4.37596L12.416 2.37596Z" fill="#5D5D5D"/>
</svg>
