<svg width="24" height="24" viewBox="0 0 24 24" fill="none" xmlns="http://www.w3.org/2000/svg">
<path d="M18 15.75C19.5188 15.75 20.75 14.5188 20.75 13C20.75 11.4812 19.5188 10.25 18 10.25H6C4.48122 10.25 3.25 11.4812 3.25 13C3.25 14.5188 4.48121 15.75 6 15.75H18Z" fill="#D9D9D9"/>
<path d="M8.58397 19.624L11.584 21.624C11.8359 21.792 12.1641 21.792 12.416 21.624L15.416 19.624C15.7607 19.3943 15.8538 18.9286 15.624 18.584C15.3943 18.2393 14.9286 18.1462 14.584 18.376L12.75 19.5986L12.75 8.75H18C19.5188 8.75 20.75 7.51878 20.75 6C20.75 4.48122 19.5188 3.25 18 3.25H6C4.48122 3.25 3.25 4.48122 3.25 6C3.25 7.51878 4.48122 8.75 6 8.75H11.25V19.5986L9.41603 18.376C9.07138 18.1462 8.60573 18.2393 8.37596 18.584C8.1462 18.9286 8.23933 19.3943 8.58397 19.624Z" fill="#5D5D5D"/>
</svg>
