<svg width="24" height="24" viewBox="0 0 24 24" fill="none" xmlns="http://www.w3.org/2000/svg">
<path fill-rule="evenodd" clip-rule="evenodd" d="M5 10.25C5.41421 10.25 5.75 10.5858 5.75 11C5.75 12.0466 6.07016 13.6333 7.00865 14.9368C7.9196 16.202 9.44444 17.25 12 17.25C14.5556 17.25 16.0804 16.202 16.9913 14.9368C17.9298 13.6333 18.25 12.0466 18.25 11C18.25 10.5858 18.5858 10.25 19 10.25C19.4142 10.25 19.75 10.5858 19.75 11C19.75 12.2867 19.3702 14.2 18.2087 15.8132C17.1202 17.325 15.3731 18.5299 12.75 18.723V21C12.75 21.4142 12.4142 21.75 12 21.75C11.5858 21.75 11.25 21.4142 11.25 21V18.723C8.62694 18.5299 6.87979 17.325 5.79135 15.8132C4.62984 14.2 4.25 12.2867 4.25 11C4.25 10.5858 4.58579 10.25 5 10.25Z" fill="#D9D9D9"/>
<path d="M12 2.25C9.92893 2.25 8.25 3.92893 8.25 6V11C8.25 13.0711 9.92893 14.75 12 14.75C14.0711 14.75 15.75 13.0711 15.75 11V6C15.75 3.92893 14.0711 2.25 12 2.25Z" fill="#5D5D5D"/>
<path fill-rule="evenodd" clip-rule="evenodd" d="M3.46967 3.46967C3.76256 3.17678 4.23744 3.17678 4.53033 3.46967L20.5303 19.4697C20.8232 19.7626 20.8232 20.2374 20.5303 20.5303C20.2374 20.8232 19.7626 20.8232 19.4697 20.5303L3.46967 4.53033C3.17678 4.23744 3.17678 3.76256 3.46967 3.46967Z" fill="black"/>
</svg>
