<svg width="24" height="24" viewBox="0 0 24 24" fill="none" xmlns="http://www.w3.org/2000/svg">
<path fill-rule="evenodd" clip-rule="evenodd" d="M3.71299 3.30711C3.99324 3.19103 4.31583 3.25519 4.53033 3.46969L19.25 18.1894V5.81068L14.5303 10.5304C14.2374 10.8232 13.7626 10.8232 13.4697 10.5304C13.1768 10.2375 13.1768 9.76259 13.4697 9.46969L19.4697 3.46969C19.6842 3.25519 20.0068 3.19103 20.287 3.30711C20.5673 3.4232 20.75 3.69668 20.75 4.00002V20C20.75 20.3034 20.5673 20.5768 20.287 20.6929C20.0068 20.809 19.6842 20.7449 19.4697 20.5304L4.75 5.81068V18.1894L9.46967 13.4697C9.76256 13.1768 10.2374 13.1768 10.5303 13.4697C10.8232 13.7626 10.8232 14.2375 10.5303 14.5304L4.53033 20.5304C4.31583 20.7449 3.99324 20.809 3.71299 20.6929C3.43273 20.5768 3.25 20.3034 3.25 20V4.00002C3.25 3.69668 3.43273 3.4232 3.71299 3.30711Z" fill="#5D5D5D"/>
</svg>
