<svg width="24" height="24" viewBox="0 0 24 24" fill="none" xmlns="http://www.w3.org/2000/svg">
<path fill-rule="evenodd" clip-rule="evenodd" d="M10.25 7C10.25 6.58579 10.5858 6.25 11 6.25H20C20.4142 6.25 20.75 6.58579 20.75 7C20.75 7.41421 20.4142 7.75 20 7.75H11C10.5858 7.75 10.25 7.41421 10.25 7ZM10.25 17C10.25 16.5858 10.5858 16.25 11 16.25H20C20.4142 16.25 20.75 16.5858 20.75 17C20.75 17.4142 20.4142 17.75 20 17.75H11C10.5858 17.75 10.25 17.4142 10.25 17Z" fill="#D9D9D9"/>
<path d="M6.75 4.00002C6.75 3.69668 6.56727 3.4232 6.28701 3.30711C6.00676 3.19103 5.68417 3.25519 5.46967 3.46969L3.46967 5.46969C3.17678 5.76259 3.17678 6.23746 3.46967 6.53035C3.76256 6.82325 4.23744 6.82325 4.53033 6.53035L5.25 5.81068V10C5.25 10.4142 5.58579 10.75 6 10.75C6.41421 10.75 6.75 10.4142 6.75 10V4.00002Z" fill="#5D5D5D"/>
<path d="M5.5 13.25C4.25736 13.25 3.25 14.2574 3.25 15.5V16C3.25 16.4142 3.58579 16.75 4 16.75C4.41421 16.75 4.75 16.4142 4.75 16V15.5C4.75 15.0858 5.08579 14.75 5.5 14.75C5.91421 14.75 6.25 15.0858 6.25 15.5V16.5986L3.58397 18.376C3.37533 18.5151 3.25 18.7493 3.25 19V20C3.25 20.4142 3.58579 20.75 4 20.75H7C7.41421 20.75 7.75 20.4142 7.75 20C7.75 19.5858 7.41421 19.25 7 19.25H4.97708L7.41603 17.6241C7.62467 17.485 7.75 17.2508 7.75 17V15.5C7.75 14.2574 6.74264 13.25 5.5 13.25Z" fill="#5D5D5D"/>
</svg>
