<svg width="24" height="24" viewBox="0 0 24 24" fill="none" xmlns="http://www.w3.org/2000/svg">
<path d="M8.82843 2.25C8.09908 2.25 7.39961 2.53973 6.88388 3.05546L3.05546 6.88388C2.53973 7.39961 2.25 8.09908 2.25 8.82843V15.1716C2.25 15.9009 2.53973 16.6004 3.05546 17.1161L6.88388 20.9445C7.39961 21.4603 8.09908 21.75 8.82843 21.75H15.1716C15.9009 21.75 16.6004 21.4603 17.1161 20.9445L20.9445 17.1161C21.4603 16.6004 21.75 15.9009 21.75 15.1716V8.82843C21.75 8.09908 21.4603 7.39961 20.9445 6.88388L17.1161 3.05546C16.6004 2.53973 15.9009 2.25 15.1716 2.25H8.82843Z" fill="#5D5D5D"/>
</svg>
