<svg width="24" height="24" viewBox="0 0 24 24" fill="none" xmlns="http://www.w3.org/2000/svg">
<path d="M14 14L19 12L12 21L14 14Z" fill="black" stroke="black" stroke-width="1.5" stroke-linejoin="round"/>
<path d="M12.5921 2.5396C12.38 2.26697 12.0092 2.1744 11.6939 2.31537C11.3786 2.45635 11.2004 2.79441 11.2622 3.13422L13.2622 14.1342C13.3024 14.3557 13.4401 14.5474 13.6371 14.6564C13.8341 14.7653 14.0696 14.78 14.2786 14.6964L19.2786 12.6964C19.4974 12.6089 19.6623 12.4236 19.724 12.1962C19.7856 11.9688 19.7367 11.7256 19.5921 11.5396L12.5921 2.5396Z" fill="#5D5D5D"/>
<path d="M12.7379 2.86587C12.685 2.57485 12.466 2.34211 12.1787 2.27163C11.8914 2.20115 11.5896 2.3061 11.408 2.53958L4.40799 11.5396C4.19734 11.8104 4.19734 12.1897 4.40799 12.4605L11.408 21.4605C11.5814 21.6834 11.8654 21.7901 12.1427 21.7363C12.42 21.6826 12.6435 21.4777 12.7211 21.2061L14.7211 14.2061C14.7527 14.0955 14.7585 13.9791 14.7379 13.8659L12.7379 2.86587Z" fill="#D9D9D9"/>
</svg>
