<svg width="24" height="24" viewBox="0 0 24 24" fill="none" xmlns="http://www.w3.org/2000/svg">
<path fill-rule="evenodd" clip-rule="evenodd" d="M17.25 3C17.25 2.58579 17.5858 2.25 18 2.25H18.009C18.4232 2.25 18.759 2.58579 18.759 3C18.759 3.41421 18.4232 3.75 18.009 3.75H18C17.5858 3.75 17.25 3.41421 17.25 3ZM16.25 6C16.25 5.0335 17.0335 4.25 18 4.25C18.9665 4.25 19.75 5.0335 19.75 6C19.75 6.41421 19.4142 6.75 19 6.75H17C16.5858 6.75 16.25 6.41421 16.25 6ZM17.25 10C17.25 9.58579 17.5858 9.25 18 9.25H18.009C18.4232 9.25 18.759 9.58579 18.759 10C18.759 10.4142 18.4232 10.75 18.009 10.75H18C17.5858 10.75 17.25 10.4142 17.25 10ZM3.25 11C3.25 10.5858 3.58579 10.25 4 10.25H4.00898C4.4232 10.25 4.75898 10.5858 4.75898 11C4.75898 11.4142 4.4232 11.75 4.00898 11.75H4C3.58579 11.75 3.25 11.4142 3.25 11ZM16.25 13C16.25 12.0335 17.0335 11.25 18 11.25C18.9665 11.25 19.75 12.0335 19.75 13C19.75 13.4142 19.4142 13.75 19 13.75H17C16.5858 13.75 16.25 13.4142 16.25 13ZM2.25 14C2.25 13.0335 3.0335 12.25 4 12.25C4.9665 12.25 5.75 13.0335 5.75 14C5.75 14.4142 5.41421 14.75 5 14.75H3C2.58579 14.75 2.25 14.4142 2.25 14ZM17.25 18C17.25 17.5858 17.5858 17.25 18 17.25H18.009C18.4232 17.25 18.759 17.5858 18.759 18C18.759 18.4142 18.4232 18.75 18.009 18.75H18C17.5858 18.75 17.25 18.4142 17.25 18ZM16.25 21C16.25 20.0335 17.0335 19.25 18 19.25C18.9665 19.25 19.75 20.0335 19.75 21C19.75 21.4142 19.4142 21.75 19 21.75H17C16.5858 21.75 16.25 21.4142 16.25 21Z" fill="#5D5D5D"/>
<path fill-rule="evenodd" clip-rule="evenodd" d="M9.25 5C9.25 4.58579 9.58579 4.25 10 4.25H14C14.4142 4.25 14.75 4.58579 14.75 5C14.75 5.41421 14.4142 5.75 14 5.75H10.75V11.25H14C14.4142 11.25 14.75 11.5858 14.75 12C14.75 12.4142 14.4142 12.75 14 12.75H10.75V18.25H14C14.4142 18.25 14.75 18.5858 14.75 19C14.75 19.4142 14.4142 19.75 14 19.75H10C9.58579 19.75 9.25 19.4142 9.25 19V12.75H8C7.58579 12.75 7.25 12.4142 7.25 12C7.25 11.5858 7.58579 11.25 8 11.25H9.25V5Z" fill="#D9D9D9"/>
</svg>
