<svg width="24" height="24" viewBox="0 0 24 24" fill="none" xmlns="http://www.w3.org/2000/svg">
<path d="M4.53697 3.47639C4.24779 3.17983 3.77296 3.17385 3.47639 3.46303C3.17983 3.75221 3.17385 4.22705 3.46303 4.52361L6.44537 7.58207C6.31991 7.8625 6.25 8.17335 6.25 8.5C6.25 8.84708 6.3289 9.17618 6.46942 9.46992L2.46967 13.4697C2.32902 13.6103 2.25 13.8011 2.25 14C2.25 14.1989 2.32902 14.3897 2.46967 14.5303L8.46967 20.5303C8.76256 20.8232 9.23744 20.8232 9.53033 20.5303L18.5303 11.5303C18.8232 11.2374 18.8232 10.7626 18.5303 10.4697L12.5303 4.46967C12.3897 4.32902 12.1989 4.25 12 4.25C11.8011 4.25 11.6103 4.32902 11.4697 4.46967L9.46992 6.46942C9.17618 6.3289 8.84708 6.25 8.5 6.25C8.13285 6.25 7.78596 6.33824 7.47974 6.49428L4.53697 3.47639Z" fill="#5D5D5D"/>
<path d="M19 14L19.624 13.584C19.4873 13.3789 19.2585 13.2541 19.0121 13.2501C18.7656 13.2461 18.533 13.3635 18.3897 13.5641L18.3876 13.5671L18.3825 13.5741L18.3643 13.5999C18.3487 13.6221 18.3261 13.6543 18.2976 13.6954C18.2407 13.7776 18.16 13.8954 18.0635 14.0402C17.8708 14.3292 17.6127 14.7291 17.3535 15.1697C17.0958 15.6079 16.8291 16.0995 16.6247 16.5697C16.4312 17.0147 16.25 17.5355 16.25 18C16.25 18.7439 16.6144 19.4251 17.0947 19.9053C17.5749 20.3856 18.2561 20.75 19 20.75C19.7439 20.75 20.4251 20.3856 20.9053 19.9053C21.3856 19.4251 21.75 18.7439 21.75 18C21.75 17.573 21.5581 17.0653 21.3729 16.6485C21.1707 16.1938 20.9069 15.7004 20.6512 15.2529C20.394 14.8029 20.1379 14.3868 19.9466 14.0839C19.8508 13.9321 19.7708 13.8081 19.7144 13.7216C19.6863 13.6783 19.664 13.6444 19.6486 13.6211L19.6308 13.5942L19.626 13.5869L19.6247 13.5849C19.6247 13.5849 19.624 13.584 19 14Z" fill="#D9D9D9"/>
<path d="M3.00002 13.25C2.69668 13.25 2.4232 13.4327 2.30711 13.713C2.19103 13.9932 2.25519 14.3158 2.46969 14.5303L8.46969 20.5303C8.76259 20.8232 9.23746 20.8232 9.53035 20.5303L16.8107 13.25H3.00002Z" fill="#D9D9D9"/>
</svg>
