<svg width="24" height="24" viewBox="0 0 24 24" fill="none" xmlns="http://www.w3.org/2000/svg">
<path fill-rule="evenodd" clip-rule="evenodd" d="M16.25 5C16.25 4.58579 16.5858 4.25 17 4.25H18C19.5188 4.25 20.75 5.48122 20.75 7V8C20.75 9.51878 19.5188 10.75 18 10.75H13C12.3096 10.75 11.75 11.3096 11.75 12V13C11.75 13.4142 11.4142 13.75 11 13.75C10.5858 13.75 10.25 13.4142 10.25 13V12C10.25 10.4812 11.4812 9.25 13 9.25H18C18.6904 9.25 19.25 8.69036 19.25 8V7C19.25 6.30964 18.6904 5.75 18 5.75H17C16.5858 5.75 16.25 5.41421 16.25 5Z" fill="#D9D9D9"/>
<path d="M6 2.25C4.48122 2.25 3.25 3.48122 3.25 5C3.25 6.51878 4.48122 7.75 6 7.75H15C16.5188 7.75 17.75 6.51878 17.75 5C17.75 3.48122 16.5188 2.25 15 2.25H6Z" fill="#5D5D5D"/>
<path d="M11 12.25C9.48122 12.25 8.25 13.4812 8.25 15V19C8.25 20.5188 9.48122 21.75 11 21.75C12.5188 21.75 13.75 20.5188 13.75 19V15C13.75 13.4812 12.5188 12.25 11 12.25Z" fill="#5D5D5D"/>
</svg>
