<svg width="24" height="24" viewBox="0 0 24 24" fill="none" xmlns="http://www.w3.org/2000/svg">
<path d="M12 2.25C6.61522 2.25 2.25 6.61522 2.25 12C2.25 14.7987 4.18396 17.6138 6.26573 19.3742C7.31795 20.2639 8.47907 20.9473 9.56074 21.2294C10.6357 21.5097 11.8207 21.4247 12.5857 20.4685C12.9142 20.0578 13.0619 19.5857 13.1358 19.163C13.2044 18.7706 13.217 18.3672 13.2272 18.0433L13.229 17.9843C13.2409 17.614 13.2546 17.3828 13.2967 17.2249C13.3008 17.2096 13.3046 17.1972 13.3078 17.1873C13.7574 17.0383 14.3365 16.9557 15.0238 16.8974C15.3015 16.8738 15.6247 16.8528 15.9591 16.8311C16.4012 16.8024 16.8628 16.7724 17.2645 16.7336C18.016 16.6609 18.7968 16.5419 19.4738 16.28C20.1616 16.0138 20.803 15.5755 21.1716 14.8338C21.48 14.2132 21.75 13.0954 21.75 12C21.75 6.61522 17.3848 2.25 12 2.25Z" fill="#5D5D5D"/>
<path fill-rule="evenodd" clip-rule="evenodd" d="M10.25 7C10.25 6.58579 10.5858 6.25 11 6.25H11.009C11.4232 6.25 11.759 6.58579 11.759 7C11.759 7.41421 11.4232 7.75 11.009 7.75H11C10.5858 7.75 10.25 7.41421 10.25 7ZM14.25 8C14.25 7.58579 14.5858 7.25 15 7.25H15.009C15.4232 7.25 15.759 7.58579 15.759 8C15.759 8.41421 15.4232 8.75 15.009 8.75H15C14.5858 8.75 14.25 8.41421 14.25 8ZM6.75 10C6.75 9.58579 7.08579 9.25 7.5 9.25H7.50898C7.9232 9.25 8.25898 9.58579 8.25898 10C8.25898 10.4142 7.9232 10.75 7.50898 10.75H7.5C7.08579 10.75 6.75 10.4142 6.75 10ZM16.25 12C16.25 11.5858 16.5858 11.25 17 11.25H17.009C17.4232 11.25 17.759 11.5858 17.759 12C17.759 12.4142 17.4232 12.75 17.009 12.75H17C16.5858 12.75 16.25 12.4142 16.25 12ZM7.25 14C7.25 13.5858 7.58579 13.25 8 13.25H8.00898C8.4232 13.25 8.75898 13.5858 8.75898 14C8.75898 14.4142 8.4232 14.75 8.00898 14.75H8C7.58579 14.75 7.25 14.4142 7.25 14Z" fill="#D9D9D9"/>
</svg>
