<svg width="24" height="24" viewBox="0 0 24 24" fill="none" xmlns="http://www.w3.org/2000/svg">
<path d="M17.7212 2.79398C17.6482 2.53846 17.4454 2.34065 17.1881 2.274C16.9309 2.20734 16.6576 2.28178 16.4697 2.46969L12.4697 6.46969C12.2771 6.66228 12.204 6.94416 12.2789 7.20606L16.2789 21.2061C16.3519 21.4616 16.5546 21.6594 16.8119 21.726C17.0691 21.7927 17.3424 21.7183 17.5303 21.5303L21.5303 17.5303C21.7229 17.3377 21.796 17.0559 21.7212 16.794L17.7212 2.79398Z" fill="black"/>
<path d="M7.00002 2.25C6.80111 2.25 6.61034 2.32902 6.46969 2.46967L2.46969 6.46967C2.25519 6.68417 2.19103 7.00676 2.30711 7.28701C2.4232 7.56727 2.69668 7.75 3.00002 7.75H13C13.1989 7.75 13.3897 7.67098 13.5304 7.53033L17.5304 3.53033C17.7449 3.31583 17.809 2.99324 17.6929 2.71299C17.5768 2.43273 17.3034 2.25 17 2.25H7.00002Z" fill="#5D5D5D"/>
<path d="M3.00001 6.25C2.76466 6.25 2.54297 6.36047 2.40124 6.54835C2.25952 6.73624 2.21421 6.97975 2.27886 7.20604L6.27886 21.206C6.37086 21.528 6.66515 21.75 7.00001 21.75H17C17.2353 21.75 17.457 21.6395 17.5988 21.4516C17.7405 21.2638 17.7858 21.0202 17.7211 20.794L13.7211 6.79396C13.6292 6.47198 13.3349 6.25 13 6.25H3.00001Z" fill="#D9D9D9"/>
</svg>
