<svg width="24" height="24" viewBox="0 0 24 24" fill="none" xmlns="http://www.w3.org/2000/svg">
<path d="M7.00002 2.25C6.80111 2.25 6.61034 2.32902 6.46969 2.46967L2.46969 6.46967C2.25519 6.68417 2.19103 7.00676 2.30711 7.28701C2.4232 7.56727 2.69668 7.75 3.00002 7.75H7.57715L10.2789 17.206C10.3709 17.528 10.6652 17.75 11 17.75H21C21.2354 17.75 21.4571 17.6395 21.5988 17.4516C21.7405 17.2638 21.7858 17.0202 21.7212 16.794L17.7212 2.79396C17.6292 2.47198 17.3349 2.25 17 2.25H7.00002Z" fill="#5D5D5D"/>
<path d="M15.8572 16.25C15.6218 16.25 15.4001 16.3605 15.2584 16.5484C15.1167 16.7362 15.0714 16.9798 15.136 17.206L16.2789 21.206C16.3519 21.4616 16.5547 21.6594 16.8119 21.726C17.0692 21.7927 17.3425 21.7182 17.5304 21.5303L21.5304 17.5303C21.7449 17.3158 21.809 16.9932 21.693 16.713C21.5769 16.4327 21.3034 16.25 21 16.25H15.8572Z" fill="black"/>
<path d="M3.00001 6.25C2.76466 6.25 2.54297 6.36047 2.40124 6.54835C2.25952 6.73624 2.21421 6.97975 2.27886 7.20604L6.27886 21.206C6.37086 21.528 6.66515 21.75 7.00001 21.75H17C17.2353 21.75 17.457 21.6395 17.5988 21.4516C17.7405 21.2638 17.7858 21.0202 17.7211 20.794L13.7211 6.79396C13.6292 6.47198 13.3349 6.25 13 6.25H3.00001Z" fill="#D9D9D9"/>
</svg>
