<svg width="24" height="24" viewBox="0 0 24 24" fill="none" xmlns="http://www.w3.org/2000/svg">
<path d="M12 2.25C6.61522 2.25 2.25 6.61522 2.25 12C2.25 17.3848 6.61522 21.75 12 21.75C17.3848 21.75 21.75 17.3848 21.75 12C21.75 11.0162 21.6041 10.0652 21.3321 9.16806C20.8609 7.61331 20.0124 6.22386 18.8943 5.10571C17.7761 3.98756 16.3867 3.13908 14.8319 2.66785C13.9348 2.39594 12.9838 2.25 12 2.25Z" fill="#D9D9D9"/>
<path fill-rule="evenodd" clip-rule="evenodd" d="M14.8319 2.66776C14.5672 2.58751 14.2797 2.65955 14.0841 2.85519L9.46968 7.46958C9.37356 7.5657 9.30537 7.68614 9.2724 7.81801L8.2724 11.818C8.21639 12.0421 8.26672 12.2794 8.40885 12.4615C8.54864 12.6405 8.76189 12.7464 8.9886 12.7498L8.99504 12.7502C9.00671 12.751 9.0309 12.753 9.06582 12.758C9.13578 12.768 9.24767 12.7897 9.38784 12.8364C9.66556 12.929 10.0613 13.1219 10.4697 13.5302C10.8781 13.9386 11.0709 14.3344 11.1635 14.6121C11.2102 14.7522 11.2319 14.8641 11.2419 14.9341C11.2469 14.969 11.2489 14.9932 11.2497 15.0049L11.2501 15.0113C11.2535 15.238 11.3594 15.4513 11.5384 15.5911C11.7205 15.7332 11.9579 15.7835 12.1819 15.7275L16.1819 14.7275C16.3138 14.6945 16.4342 14.6264 16.5303 14.5302L21.1447 9.91585C21.3404 9.72021 21.4124 9.43275 21.3322 9.16797C20.8609 7.61322 20.0124 6.22377 18.8943 5.10562C17.7762 3.98747 16.3867 3.13899 14.8319 2.66776ZM11.5303 12.4696C10.9606 11.8999 10.3792 11.594 9.91519 11.4315L10.5643 8.83495C10.696 8.86517 10.8468 8.90607 11.0128 8.96142C11.6656 9.179 12.5613 9.62186 13.4697 10.5302C14.3781 11.4386 14.8209 12.3344 15.0385 12.9871C15.0938 13.1531 15.1348 13.3039 15.165 13.4356L12.5684 14.0847C12.406 13.6207 12.1 13.0393 11.5303 12.4696Z" fill="#5D5D5D"/>
<path d="M9 12L8 16L12 15C12 15 12 14 11 13C10 12 9 12 9 12Z" fill="black" stroke="black" stroke-width="1.5" stroke-linecap="round" stroke-linejoin="round"/>
</svg>
