<svg width="24" height="24" viewBox="0 0 24 24" fill="none" xmlns="http://www.w3.org/2000/svg">
<path d="M12 2.25C6.61522 2.25 2.25 6.61522 2.25 12C2.25 15.8293 4.45765 19.1416 7.66622 20.7361C8.97257 21.3853 10.4448 21.75 12 21.75C13.5552 21.75 15.0274 21.3853 16.3338 20.7361C19.5423 19.1416 21.75 15.8293 21.75 12C21.75 6.61522 17.3848 2.25 12 2.25Z" fill="#D9D9D9"/>
<path fill-rule="evenodd" clip-rule="evenodd" d="M12.5857 6.53148C12.4433 6.35357 12.2278 6.25 12 6.25C11.7722 6.25 11.5567 6.35357 11.4144 6.53148L7.41435 11.5315C7.30796 11.6645 7.25 11.8297 7.25 12V20.0645C7.25 20.3492 7.41124 20.6094 7.66623 20.7361C8.97258 21.3853 10.4448 21.75 12 21.75C13.5552 21.75 15.0274 21.3853 16.3338 20.7361C16.5888 20.6094 16.75 20.3492 16.75 20.0645V12C16.75 11.8297 16.692 11.6645 16.5857 11.5315L12.5857 6.53148ZM10.7605 9.75H13.2395L15.0621 12.0282C14.9592 12.1454 14.8252 12.2794 14.6565 12.4143C14.1549 12.8156 13.3178 13.25 12 13.25C10.6822 13.25 9.84513 12.8156 9.34352 12.4143C9.17482 12.2794 9.04085 12.1454 8.93792 12.0282L10.7605 9.75Z" fill="#5D5D5D"/>
<path d="M12.5857 6.53148C12.4434 6.35357 12.2279 6.25 12.0001 6.25C11.7722 6.25 11.5567 6.35357 11.4144 6.53148L8.8396 9.75H15.1605L12.5857 6.53148Z" fill="black"/>
</svg>
