<svg width="24" height="24" viewBox="0 0 24 24" fill="none" xmlns="http://www.w3.org/2000/svg">
<path d="M14.0556 3.88383C15.1295 2.80989 16.8707 2.80988 17.9447 3.88382L20.1162 6.0554C21.1902 7.12934 21.1902 8.87055 20.1162 9.94449L18.0001 12.0606L11.9395 5.99994L14.0556 3.88383Z" fill="#D9D9D9"/>
<path d="M6 11.9393L12.0607 17.9999L10.1161 19.9445C9.60039 20.4602 8.90092 20.7499 8.17157 20.7499H4C3.58579 20.7499 3.25 20.4142 3.25 19.9999V15.8284C3.25 15.099 3.53973 14.3996 4.05546 13.8838L6 11.9393Z" fill="#D9D9D9"/>
<path d="M13.0001 4.93945L19.0608 11.0001L11.0001 19.0608L4.93945 13.0001L13.0001 4.93945Z" fill="#5D5D5D"/>
<path d="M3.25 16.6895L7.31066 20.7501H3.25V16.6895Z" fill="#5D5D5D"/>
</svg>
