<svg width="24" height="24" viewBox="0 0 24 24" fill="none" xmlns="http://www.w3.org/2000/svg">
<path d="M12 2.25C6.61522 2.25 2.25 6.61522 2.25 12C2.25 15.3812 3.97173 18.3599 6.58281 20.1077C8.1325 21.145 9.99674 21.75 12 21.75C14.0033 21.75 15.8675 21.145 17.4172 20.1077C20.0283 18.3599 21.75 15.3812 21.75 12C21.75 6.61522 17.3848 2.25 12 2.25Z" fill="#D9D9D9"/>
<path d="M12.624 6.58397C12.4849 6.37533 12.2508 6.25 12 6.25C11.7492 6.25 11.5151 6.37533 11.376 6.58397L10.376 8.08397C10.2938 8.20718 10.25 8.35193 10.25 8.5V11C10.25 11.4142 10.5858 11.75 11 11.75H13C13.4142 11.75 13.75 11.4142 13.75 11V8.5C13.75 8.35193 13.7062 8.20718 13.624 8.08397L12.624 6.58397Z" fill="black"/>
<path d="M9 10.25C8.69332 10.25 8.41754 10.4367 8.30364 10.7215L6.30364 15.7215C6.26821 15.81 6.25 15.9046 6.25 16V19.4845C6.25 19.7347 6.37483 19.9685 6.58281 20.1077C8.1325 21.145 9.99674 21.75 12 21.75C14.0033 21.75 15.8675 21.145 17.4172 20.1077C17.6252 19.9685 17.75 19.7347 17.75 19.4845V16C17.75 15.9046 17.7318 15.81 17.6964 15.7215L15.6964 10.7215C15.5825 10.4367 15.3067 10.25 15 10.25H9Z" fill="#5D5D5D"/>
</svg>
