<svg width="24" height="24" viewBox="0 0 24 24" fill="none" xmlns="http://www.w3.org/2000/svg">
<path d="M12 2.25C6.61522 2.25 2.25 6.61522 2.25 12C2.25 17.3848 6.61522 21.75 12 21.75C17.3848 21.75 21.75 17.3848 21.75 12C21.75 11.3268 21.6817 10.6688 21.5513 10.0328C20.771 6.22573 17.7743 3.22899 13.9672 2.44869C13.3312 2.31833 12.6732 2.25 12 2.25Z" fill="#D9D9D9"/>
<path d="M11.0303 10.9697C10.867 10.8064 10.6376 10.7274 10.4084 10.7556C10.1791 10.7838 9.9757 10.9161 9.85688 11.1141L8.35688 13.6141C8.28694 13.7307 8.25 13.8641 8.25 14V15C8.25 15.4142 8.58579 15.75 9 15.75H10C10.1359 15.75 10.2693 15.7131 10.3859 15.6431L12.8859 14.1431C13.0839 14.0243 13.2162 13.8209 13.2444 13.5916C13.2726 13.3624 13.1936 13.133 13.0303 12.9697L11.0303 10.9697Z" fill="black"/>
<path d="M13.9672 2.44888C13.7203 2.39828 13.4645 2.47506 13.2863 2.65328L10.4697 5.46986C10.3874 5.55219 10.3253 5.65256 10.2885 5.76302L8.78851 10.263C8.69867 10.5325 8.76882 10.8296 8.96969 11.0305L12.9697 15.0305C13.1706 15.2314 13.4677 15.3015 13.7372 15.2117L18.2372 13.7117C18.3476 13.6749 18.448 13.6129 18.5303 13.5305L21.3469 10.7139C21.5251 10.5357 21.6019 10.2799 21.5513 10.033C20.771 6.22592 17.7743 3.22918 13.9672 2.44888Z" fill="#5D5D5D"/>
</svg>
