<svg width="24" height="24" viewBox="0 0 24 24" fill="none" xmlns="http://www.w3.org/2000/svg">
<path d="M19.75 6.00005C19.75 5.67723 19.5434 5.39062 19.2372 5.28854C18.9309 5.18645 18.5937 5.29179 18.4 5.55005L15.4 9.55005C15.3026 9.67987 15.25 9.83777 15.25 10V21C15.25 21.3229 15.4566 21.6095 15.7628 21.7116C16.0691 21.8136 16.4063 21.7083 16.6 21.45L19.6 17.45C19.6974 17.3202 19.75 17.1623 19.75 17V6.00005Z" fill="black"/>
<path d="M12.2954 2.31064C12.1068 2.22979 11.8932 2.22979 11.7046 2.31064L4.70457 5.31064C4.49306 5.40129 4.33487 5.58401 4.27545 5.80632C4.21602 6.02863 4.26194 6.26591 4.40001 6.45L7.40001 10.45C7.54165 10.6389 7.76394 10.75 8.00001 10.75H16C16.2361 10.75 16.4584 10.6389 16.6 10.45L19.6 6.45C19.7381 6.26591 19.784 6.02863 19.7246 5.80632C19.6651 5.58401 19.507 5.40129 19.2954 5.31064L12.2954 2.31064Z" fill="#5D5D5D"/>
<path d="M5.6 5.55005C5.40631 5.29179 5.06909 5.18645 4.76283 5.28854C4.45657 5.39062 4.25 5.67723 4.25 6.00005V17C4.25 17.1623 4.30263 17.3202 4.4 17.45L7.4 21.45C7.54164 21.6389 7.76393 21.75 8 21.75H16C16.4142 21.75 16.75 21.4143 16.75 21V10C16.75 9.58583 16.4142 9.25005 16 9.25005H8.375L5.6 5.55005Z" fill="#D9D9D9"/>
</svg>
