<svg width="24" height="24" viewBox="0 0 24 24" fill="none" xmlns="http://www.w3.org/2000/svg">
<path d="M8.25 5.11454L8.25 18.8852L5.4521 19.3516C3.77588 19.6309 2.25 18.3383 2.25 16.639L2.25 7.36081C2.25 5.66148 3.77588 4.36886 5.4521 4.64823L8.25 5.11454Z" fill="#5D5D5D"/>
<path d="M15.75 6.36454L15.75 17.6352L19.4521 17.0182C20.7781 16.7972 21.75 15.6499 21.75 14.3056V9.69414C21.75 8.34984 20.7781 7.20256 19.4521 6.98156L15.75 6.36454Z" fill="#5D5D5D"/>
<path d="M9.75002 18.6353L14.2618 17.8833C14.2541 17.84 14.25 17.7954 14.25 17.7499L14.25 6.11456L9.75002 5.36456L9.75002 18.6353Z" fill="#D9D9D9"/>
</svg>
