<svg width="24" height="24" viewBox="0 0 24 24" fill="none" xmlns="http://www.w3.org/2000/svg">
<path d="M12 2.25C6.61522 2.25 2.25 6.61522 2.25 12C2.25 17.3848 6.61522 21.75 12 21.75C14.6957 21.75 17.137 20.655 18.9011 18.8874C20.6607 17.1244 21.75 14.6887 21.75 12C21.75 6.61522 17.3848 2.25 12 2.25Z" fill="#5D5D5D"/>
<path d="M12 2.25C11.5858 2.25 11.25 2.58579 11.25 3V12C11.25 12.4142 11.5858 12.75 12 12.75H21C21.4142 12.75 21.75 12.4142 21.75 12C21.75 6.61522 17.3848 2.25 12 2.25Z" fill="#D9D9D9"/>
<path d="M12 11.25C11.6965 11.25 11.423 11.4329 11.307 11.7133C11.191 11.9938 11.2554 12.3165 11.4702 12.5309L17.8405 18.8885C18.1337 19.1811 18.6086 19.1806 18.9012 18.8874C20.6607 17.1244 21.75 14.6887 21.75 12C21.75 11.5858 21.4142 11.25 21 11.25H12Z" fill="black"/>
</svg>
