<svg width="24" height="24" viewBox="0 0 24 24" fill="none" xmlns="http://www.w3.org/2000/svg">
<path d="M10 6.25C5.71979 6.25 2.25 9.71979 2.25 14C2.25 18.2802 5.71979 21.75 10 21.75C14.2802 21.75 17.75 18.2802 17.75 14C17.75 13.5858 17.4142 13.25 17 13.25H10.75V7C10.75 6.58579 10.4142 6.25 10 6.25Z" fill="#5D5D5D"/>
<path d="M14 2.25C13.5858 2.25 13.25 2.58579 13.25 3V10C13.25 10.4142 13.5858 10.75 14 10.75H21C21.4142 10.75 21.75 10.4142 21.75 10C21.75 5.71979 18.2802 2.25 14 2.25Z" fill="#D9D9D9"/>
</svg>
