<svg width="24" height="24" viewBox="0 0 24 24" fill="none" xmlns="http://www.w3.org/2000/svg">
<path d="M12 2.25C11.5259 2.25 11.0624 2.39032 10.6679 2.65329L10.542 2.73726C9.73476 3.27538 9.2499 4.18134 9.24992 5.15148L9.24997 8.45943L4.19518 10.1444C3.72963 10.2995 3.3448 10.6333 3.12534 11.0722C2.51021 12.3025 3.40482 13.75 4.7803 13.75L9.24994 13.75L9.24994 16.5631C9.24994 16.9168 9.0834 17.25 8.80041 17.4623L8.36235 17.791C7.60078 18.3623 7.35725 19.3968 7.78395 20.2479C8.27086 21.2191 9.45247 21.6123 10.4242 21.1264L11.4409 20.618C11.7928 20.4421 12.2071 20.4421 12.559 20.618L13.5743 21.1257C14.5469 21.612 15.7296 21.2178 16.2159 20.2452C16.6414 19.3941 16.3974 18.3605 15.6362 17.7896L15.1992 17.4619C14.9164 17.2498 14.7499 16.9169 14.7499 16.5633V13.75L19.2082 13.75C20.5864 13.75 21.4696 12.2837 20.8253 11.0654C20.6074 10.6536 20.2407 10.3404 19.7998 10.1897L14.75 8.46374V5.15139C14.75 4.1813 14.2652 3.2754 13.458 2.73729L13.332 2.65332C12.9376 2.39034 12.4741 2.25 12 2.25Z" fill="#5D5D5D"/>
</svg>
