<svg width="24" height="24" viewBox="0 0 24 24" fill="none" xmlns="http://www.w3.org/2000/svg">
<path d="M17.8284 3.25C17.0991 3.25 16.3996 3.53973 15.8839 4.05546L12.8519 7.08743L5.86523 3.59409C5.32056 3.32175 4.67944 3.32175 4.13477 3.59409C2.95362 4.18466 2.69817 5.75883 3.63195 6.69261L8.43934 11.5L6.03716 13.9022C5.81445 14.1249 5.5124 14.25 5.19745 14.25H4.78031C4.01801 14.25 3.32113 14.6807 2.98021 15.3625C2.43249 16.458 2.98198 17.7846 4.14388 18.1719L4.85539 18.409C5.20268 18.5248 5.4752 18.7973 5.59097 19.1446L5.82814 19.8561C6.21544 21.018 7.54203 21.5675 8.63748 21.0198C9.3193 20.6789 9.75 19.982 9.75 19.2197V18.8025C9.75 18.4876 9.87511 18.1855 10.0978 17.9628L12.5 15.5607L17.3074 20.3681C18.2412 21.3018 19.8153 21.0464 20.4059 19.8652C20.6782 19.3206 20.6782 18.6794 20.4059 18.1348L16.9126 11.1481L19.9445 8.11612C20.4603 7.60039 20.75 6.90092 20.75 6.17157V5.70711C20.75 5.05544 20.4911 4.43047 20.0303 3.96967C19.5695 3.50887 18.9446 3.25 18.2929 3.25H17.8284Z" fill="#5D5D5D"/>
</svg>
