<svg width="24" height="24" viewBox="0 0 24 24" fill="none" xmlns="http://www.w3.org/2000/svg">
<path fill-rule="evenodd" clip-rule="evenodd" d="M12 2.25C6.61522 2.25 2.25 6.61522 2.25 12C2.25 17.3848 6.61522 21.75 12 21.75C17.3848 21.75 21.75 17.3848 21.75 12C21.75 6.61522 17.3848 2.25 12 2.25Z" fill="#5D5D5D"/>
<path d="M10.3859 8.35688C10.1542 8.21786 9.86561 8.21422 9.63048 8.34735C9.39534 8.48048 9.25 8.7298 9.25 9V15C9.25 15.2702 9.39534 15.5195 9.63048 15.6526C9.86561 15.7858 10.1542 15.7821 10.3859 15.6431L15.3859 12.6431C15.6118 12.5076 15.75 12.2634 15.75 12C15.75 11.7366 15.6118 11.4924 15.3859 11.3569L10.3859 8.35688Z" fill="#D9D9D9"/>
</svg>
