<svg width="24" height="24" viewBox="0 0 24 24" fill="none" xmlns="http://www.w3.org/2000/svg">
<path fill-rule="evenodd" clip-rule="evenodd" d="M9 2.25C9.41421 2.25 9.75 2.58579 9.75 3V9C9.75 9.41421 9.41421 9.75 9 9.75C8.58579 9.75 8.25 9.41421 8.25 9V3C8.25 2.58579 8.58579 2.25 9 2.25ZM15 2.25C15.4142 2.25 15.75 2.58579 15.75 3V9C15.75 9.41421 15.4142 9.75 15 9.75C14.5858 9.75 14.25 9.41421 14.25 9V3C14.25 2.58579 14.5858 2.25 15 2.25Z" fill="#D9D9D9"/>
<path d="M6 8.25C5.58579 8.25 5.25 8.58579 5.25 9V13.3431C5.25 14.6029 5.75044 15.8111 6.64124 16.7019L9.05546 19.1161C9.18002 19.2407 9.25 19.4096 9.25 19.5858C9.25 20.781 10.219 21.75 11.4142 21.75H12.5858C13.781 21.75 14.75 20.781 14.75 19.5858C14.75 19.4096 14.82 19.2407 14.9445 19.1161L17.3588 16.7019C18.2496 15.8111 18.75 14.6029 18.75 13.3431V9C18.75 8.58579 18.4142 8.25 18 8.25H6Z" fill="#5D5D5D"/>
</svg>
