<svg width="24" height="24" viewBox="0 0 24 24" fill="none" xmlns="http://www.w3.org/2000/svg">
<path d="M12 2.25C6.61522 2.25 2.25 6.61522 2.25 12C2.25 17.3848 6.61522 21.75 12 21.75C17.3848 21.75 21.75 17.3848 21.75 12C21.75 6.61522 17.3848 2.25 12 2.25Z" fill="#5D5D5D"/>
<path fill-rule="evenodd" clip-rule="evenodd" d="M12 7.00744C12.4142 7.00744 12.75 7.34322 12.75 7.75744L12.75 11.2501L16.2426 11.2501C16.6569 11.2501 16.9926 11.5859 16.9926 12.0001C16.9926 12.4143 16.6569 12.7501 16.2426 12.7501L12.75 12.7501V16.2427C12.75 16.6569 12.4142 16.9927 12 16.9927C11.5858 16.9927 11.25 16.6569 11.25 16.2427V12.7501L7.75736 12.7501C7.34315 12.7501 7.00736 12.4143 7.00736 12.0001C7.00736 11.5859 7.34315 11.2501 7.75736 11.2501L11.25 11.2501L11.25 7.75744C11.25 7.34322 11.5858 7.00744 12 7.00744Z" fill="#D9D9D9"/>
</svg>
