<svg width="24" height="24" viewBox="0 0 24 24" fill="none" xmlns="http://www.w3.org/2000/svg">
<path d="M12 2.25C7.71979 2.25 4.25 5.71979 4.25 10C4.25 10.8388 4.51757 11.7438 4.90392 12.6276C5.29431 13.5207 5.82975 14.4453 6.41864 15.3377C7.59643 17.1224 9.02738 18.8372 10.0575 20.0004C11.0981 21.1754 12.9019 21.1754 13.9425 20.0004C14.9726 18.8372 16.4036 17.1224 17.5814 15.3377C18.1703 14.4453 18.7057 13.5207 19.0961 12.6276C19.4824 11.7438 19.75 10.8388 19.75 10C19.75 5.71979 16.2802 2.25 12 2.25Z" fill="#5D5D5D"/>
<path fill-rule="evenodd" clip-rule="evenodd" d="M12 6.25C12.4142 6.25 12.75 6.58579 12.75 7V9.25H15C15.4142 9.25 15.75 9.58579 15.75 10C15.75 10.4142 15.4142 10.75 15 10.75H12.75V13C12.75 13.4142 12.4142 13.75 12 13.75C11.5858 13.75 11.25 13.4142 11.25 13V10.75H9C8.58579 10.75 8.25 10.4142 8.25 10C8.25 9.58579 8.58579 9.25 9 9.25H11.25V7C11.25 6.58579 11.5858 6.25 12 6.25Z" fill="#D9D9D9"/>
</svg>
