<svg width="24" height="24" viewBox="0 0 24 24" fill="none" xmlns="http://www.w3.org/2000/svg">
<path d="M12 2.25C7.71979 2.25 4.25 5.71979 4.25 10C4.25 10.8388 4.51757 11.7438 4.90392 12.6276C5.29431 13.5207 5.82975 14.4453 6.41864 15.3377C7.59643 17.1224 9.02738 18.8372 10.0575 20.0004C11.0981 21.1754 12.9019 21.1754 13.9425 20.0004C14.9726 18.8372 16.4036 17.1224 17.5814 15.3377C18.1703 14.4453 18.7057 13.5207 19.0961 12.6276C19.4824 11.7438 19.75 10.8388 19.75 10C19.75 5.71979 16.2802 2.25 12 2.25Z" fill="#5D5D5D"/>
<path d="M12 6.25C11.5858 6.25 11.25 6.58579 11.25 7C11.25 7.41421 11.5858 7.75 12 7.75H12.009C12.4232 7.75 12.759 7.41421 12.759 7C12.759 6.58579 12.4232 6.25 12.009 6.25H12Z" fill="#D9D9D9"/>
<path d="M11 9.25C10.5858 9.25 10.25 9.58579 10.25 10C10.25 10.4142 10.5858 10.75 11 10.75H11.25V14C11.25 14.4142 11.5858 14.75 12 14.75C12.4142 14.75 12.75 14.4142 12.75 14V10C12.75 9.58579 12.4142 9.25 12 9.25H11Z" fill="#D9D9D9"/>
</svg>
