<svg width="24" height="24" viewBox="0 0 24 24" fill="none" xmlns="http://www.w3.org/2000/svg">
<path fill-rule="evenodd" clip-rule="evenodd" d="M12 2.25C8.50726 2.25 5.75 5.23965 5.75 8.83333C5.75 10.1354 6.46927 11.6745 7.2926 13.0439C8.13837 14.4507 9.18658 15.8252 10.0118 16.8366C11.0489 18.1077 12.9511 18.1077 13.9882 16.8366C14.8134 15.8252 15.8616 14.4507 16.7074 13.0439C17.5307 11.6745 18.25 10.1354 18.25 8.83333C18.25 5.23965 15.4927 2.25 12 2.25Z" fill="#5D5D5D"/>
<path d="M12 6.25C10.7574 6.25 9.75 7.25736 9.75 8.5C9.75 9.74264 10.7574 10.75 12 10.75C13.2426 10.75 14.25 9.74264 14.25 8.5C14.25 7.25736 13.2426 6.25 12 6.25Z" fill="#D9D9D9"/>
<path d="M6.72784 16.4556C6.82778 16.8576 6.58293 17.2645 6.18095 17.3644C5.29549 17.5845 4.62742 17.8427 4.19918 18.1031C3.83742 18.3231 3.76639 18.4665 3.7529 18.5003C3.76588 18.5333 3.82875 18.6556 4.11897 18.8462C4.48256 19.085 5.05823 19.3288 5.83677 19.5451C7.3833 19.9747 9.5626 20.25 12 20.25C14.4374 20.25 16.6167 19.9747 18.1632 19.5451C18.9418 19.3288 19.5174 19.085 19.881 18.8462C20.1712 18.6556 20.2341 18.5333 20.2471 18.5003C20.2336 18.4665 20.1626 18.3231 19.8008 18.1031C19.3726 17.8427 18.7045 17.5845 17.819 17.3644C17.4171 17.2645 17.1722 16.8576 17.2722 16.4556C17.3721 16.0536 17.779 15.8088 18.181 15.9087C19.1367 16.1463 19.9687 16.4497 20.5801 16.8214C21.1488 17.1672 21.75 17.7135 21.75 18.5C21.75 19.2358 21.2212 19.7606 20.7044 20.1C20.1572 20.4594 19.4148 20.7542 18.5647 20.9904C16.8539 21.4656 14.5332 21.75 12 21.75C9.46684 21.75 7.14614 21.4656 5.43531 20.9904C4.58516 20.7542 3.84282 20.4594 3.29556 20.1C2.77883 19.7606 2.25 19.2358 2.25 18.5C2.25 17.7135 2.85121 17.1672 3.41988 16.8214C4.03133 16.4497 4.86326 16.1463 5.81905 15.9087C6.22102 15.8088 6.6279 16.0536 6.72784 16.4556Z" fill="#D9D9D9"/>
</svg>
