<svg width="24" height="24" viewBox="0 0 24 24" fill="none" xmlns="http://www.w3.org/2000/svg">
<path d="M12 2.25C7.71979 2.25 4.25 5.71979 4.25 10C4.25 10.8388 4.51757 11.7438 4.90392 12.6276C5.29431 13.5207 5.82975 14.4453 6.41864 15.3377C7.59643 17.1224 9.02738 18.8372 10.0575 20.0004C11.0981 21.1754 12.9019 21.1754 13.9425 20.0004C14.9726 18.8372 16.4036 17.1224 17.5814 15.3377C18.1703 14.4453 18.7057 13.5207 19.0961 12.6276C19.4824 11.7438 19.75 10.8388 19.75 10C19.75 5.71979 16.2802 2.25 12 2.25Z" fill="#5D5D5D"/>
<path d="M10.9168 8.37554C11.134 7.99996 11.5383 7.75 12 7.75C12.6904 7.75 13.25 8.30964 13.25 9C13.25 9.69036 12.6904 10.25 12 10.25C11.5858 10.25 11.25 10.5858 11.25 11V12C11.25 12.4142 11.5858 12.75 12 12.75C12.4142 12.75 12.75 12.4142 12.75 12V11.6465C13.9043 11.32 14.75 10.2588 14.75 9C14.75 7.48122 13.5188 6.25 12 6.25C10.9812 6.25 10.0927 6.80444 9.61838 7.62446C9.41097 7.983 9.53349 8.4418 9.89204 8.6492C10.2506 8.85661 10.7094 8.73409 10.9168 8.37554Z" fill="#D9D9D9"/>
<path d="M12 14.25C11.5858 14.25 11.25 14.5858 11.25 15C11.25 15.4142 11.5858 15.75 12 15.75H12.009C12.4232 15.75 12.759 15.4142 12.759 15C12.759 14.5858 12.4232 14.25 12.009 14.25H12Z" fill="#D9D9D9"/>
</svg>
