<svg width="24" height="24" viewBox="0 0 24 24" fill="none" xmlns="http://www.w3.org/2000/svg">
<path d="M11.9999 2.25C11.0803 2.25 10.2107 2.43478 9.54322 2.76852C8.9206 3.07983 8.24995 3.64867 8.24995 4.5C8.24995 5.35133 8.9206 5.92017 9.54322 6.23148C10.2107 6.56522 11.0803 6.75 11.9999 6.75C12.9196 6.75 13.7892 6.56522 14.4567 6.23148C15.0793 5.92017 15.7499 5.35133 15.7499 4.5C15.7499 3.64867 15.0793 3.07983 14.4567 2.76852C13.7892 2.43478 12.9196 2.25 11.9999 2.25Z" fill="#5D5D5D"/>
<path d="M20.1495 7.22308C19.6897 6.42667 19.0948 5.76593 18.472 5.35474C17.8911 4.97119 17.0632 4.67481 16.3259 5.10048C15.5886 5.52615 15.4313 6.39136 15.473 7.08623C15.5177 7.83115 15.7925 8.67667 16.2524 9.47308C16.7122 10.2695 17.307 10.9302 17.9298 11.3414C18.5107 11.725 19.3386 12.0213 20.0759 11.5957C20.8132 11.17 20.9705 10.3048 20.9288 9.60993C20.8841 8.865 20.6093 8.01949 20.1495 7.22308Z" fill="#5D5D5D"/>
<path d="M7.67399 5.1005C6.93671 4.67483 6.10876 4.97121 5.52784 5.35476C4.90508 5.76595 4.31024 6.42668 3.85043 7.22309C3.39062 8.0195 3.11583 8.86501 3.07111 9.60994C3.02941 10.3048 3.18671 11.17 3.92399 11.5957C4.66126 12.0214 5.48921 11.725 6.07013 11.3414C6.6929 10.9302 7.28773 10.2695 7.74754 9.47309C8.20735 8.67668 8.48214 7.83117 8.52686 7.08624C8.56856 6.39138 8.41126 5.52616 7.67399 5.1005Z" fill="#5D5D5D"/>
<path d="M7.74761 14.2231C7.2878 13.4267 6.69296 12.7659 6.07019 12.3547C5.48928 11.9712 4.66133 11.6748 3.92405 12.1005C3.18677 12.5261 3.02947 13.3914 3.07118 14.0862C3.11589 14.8312 3.39069 15.6767 3.85049 16.4731C4.3103 17.2695 4.90514 17.9302 5.52791 18.3414C6.10882 18.725 6.93677 19.0213 7.67405 18.5957C8.41133 18.17 8.56863 17.3048 8.52692 16.6099C8.48221 15.865 8.20741 15.0195 7.74761 14.2231Z" fill="#5D5D5D"/>
<path d="M20.074 12.1005C19.3367 11.6748 18.5087 11.9712 17.9278 12.3548C17.3051 12.7659 16.7102 13.4267 16.2504 14.2231C15.7906 15.0195 15.5158 15.865 15.4711 16.6099C15.4294 17.3048 15.5867 18.17 16.324 18.5957C17.0613 19.0214 17.8892 18.725 18.4701 18.3414C19.0929 17.9302 19.6877 17.2695 20.1475 16.4731C20.6073 15.6767 20.8821 14.8312 20.9268 14.0862C20.9686 13.3914 20.8113 12.5262 20.074 12.1005Z" fill="#5D5D5D"/>
<path d="M11.9999 17.25C11.0803 17.25 10.2107 17.4348 9.54321 17.7685C8.92059 18.0798 8.24994 18.6487 8.24994 19.5C8.24994 20.3513 8.92059 20.9202 9.54321 21.2315C10.2107 21.5652 11.0803 21.75 11.9999 21.75C12.9196 21.75 13.7892 21.5652 14.4567 21.2315C15.0793 20.9202 15.7499 20.3513 15.7499 19.5C15.7499 18.6487 15.0793 18.0798 14.4567 17.7685C13.7892 17.4348 12.9196 17.25 11.9999 17.25Z" fill="#5D5D5D"/>
</svg>
