<svg width="24" height="24" viewBox="0 0 24 24" fill="none" xmlns="http://www.w3.org/2000/svg">
<path fill-rule="evenodd" clip-rule="evenodd" d="M7.08397 3.37596C7.3359 3.20801 7.6641 3.20801 7.91603 3.37596L12.416 6.37596C12.6247 6.51506 12.75 6.74924 12.75 7V9C12.75 9.41421 12.4142 9.75 12 9.75C11.5858 9.75 11.25 9.41421 11.25 9V7.40139L7.5 4.90139L3.75 7.40139V11.5587L7.5 13.642L16.1358 8.84438C16.3623 8.71854 16.6377 8.71854 16.8642 8.84438L21.3642 11.3444C21.6023 11.4767 21.75 11.7276 21.75 12V17C21.75 17.2508 21.6247 17.4849 21.416 17.624L16.916 20.624C16.6641 20.792 16.3359 20.792 16.084 20.624L11.584 17.624C11.3753 17.4849 11.25 17.2508 11.25 17V15C11.25 14.5858 11.5858 14.25 12 14.25C12.4142 14.25 12.75 14.5858 12.75 15V16.5986L16.5 19.0986L20.25 16.5986V12.4413L16.5 10.358L7.86423 15.1556C7.63772 15.2815 7.36228 15.2815 7.13577 15.1556L2.63577 12.6556C2.39767 12.5233 2.25 12.2724 2.25 12V7C2.25 6.74924 2.37533 6.51506 2.58397 6.37596L7.08397 3.37596Z" fill="#5D5D5D"/>
</svg>
