<svg width="24" height="24" viewBox="0 0 24 24" fill="none" xmlns="http://www.w3.org/2000/svg">
<path d="M12 2.25C6.61522 2.25 2.25 6.61522 2.25 12C2.25 17.3848 6.61522 21.75 12 21.75C17.3848 21.75 21.75 17.3848 21.75 12C21.75 6.61522 17.3848 2.25 12 2.25Z" fill="#5D5D5D"/>
<path fill-rule="evenodd" clip-rule="evenodd" d="M12 7.75C11.3108 7.75 10.75 8.3131 10.75 9C10.75 9.44345 10.8358 9.87514 10.9566 10.3497C10.9853 10.4624 11.0171 10.5814 11.0502 10.7049C11.0969 10.8794 11.146 11.0628 11.1919 11.25H13C13.4142 11.25 13.75 11.5858 13.75 12C13.75 12.4142 13.4142 12.75 13 12.75H11.4031C11.4031 13.1683 11.3445 13.6098 11.1896 14.0755C11.1209 14.2821 11.0348 14.4891 10.9295 14.6976C11.475 14.7721 12.0117 14.9547 12.4486 15.1033C12.5102 15.1243 12.5698 15.1446 12.6272 15.1638C13.2229 15.3632 13.567 15.4419 13.7989 15.4017C13.8805 15.3875 13.9424 15.3583 14.0069 15.2933C14.0817 15.2182 14.1874 15.0661 14.2885 14.7628C14.4195 14.3699 14.8442 14.1575 15.2372 14.2885C15.6301 14.4195 15.8425 14.8442 15.7115 15.2372C15.5626 15.6839 15.357 16.0631 15.0704 16.3512C14.7736 16.6496 14.424 16.8156 14.0554 16.8796C13.387 16.9956 12.6757 16.7618 12.1511 16.5862C12.0905 16.5659 12.0312 16.5459 11.9729 16.5263C11.4505 16.3501 11.0151 16.2033 10.5961 16.1694C10.1856 16.1362 9.84852 16.2181 9.52535 16.5353C9.22972 16.8254 8.75487 16.821 8.46473 16.5253C8.17459 16.2297 8.17903 15.7549 8.47466 15.4647C9.23 14.7234 9.59625 14.1135 9.76623 13.6022C9.86308 13.311 9.90309 13.0314 9.90307 12.75H9C8.58579 12.75 8.25 12.4142 8.25 12C8.25 11.5858 8.58579 11.25 9 11.25H9.64279C9.63429 11.2181 9.62568 11.1859 9.61697 11.1534C9.58027 11.0162 9.54191 10.8729 9.50292 10.7197C9.37303 10.2093 9.25 9.63299 9.25 9C9.25 7.4869 10.4801 6.25 12 6.25C13.5188 6.25 14.75 7.48122 14.75 9C14.75 9.41421 14.4142 9.75 14 9.75C13.5858 9.75 13.25 9.41421 13.25 9C13.25 8.30964 12.6904 7.75 12 7.75Z" fill="#D9D9D9"/>
</svg>
