<svg width="24" height="24" viewBox="0 0 24 24" fill="none" xmlns="http://www.w3.org/2000/svg">
<path fill-rule="evenodd" clip-rule="evenodd" d="M12 4.75C10.2051 4.75 8.75 6.20507 8.75 8C8.75 8.90623 8.91909 9.70931 9.11903 10.5245C9.14647 10.6363 9.17483 10.7495 9.2035 10.8639C9.23537 10.9911 9.26763 11.1199 9.29942 11.25H13C13.4142 11.25 13.75 11.5858 13.75 12C13.75 12.4142 13.4142 12.75 13 12.75H9.59127C9.60399 12.8553 9.61462 12.9612 9.62279 13.0675C9.69375 13.99 9.58501 14.9596 9.1077 16.0379C8.97279 16.3427 8.80966 16.6535 8.61521 16.9721C8.74126 16.9659 8.86719 16.9651 8.99293 16.9691C10.1207 17.0055 11.179 17.4393 12.0454 17.8106C12.1205 17.8428 12.1938 17.8744 12.2658 17.9054C12.6276 18.0613 12.9525 18.2013 13.2653 18.3137C13.6389 18.4479 13.9395 18.5211 14.1888 18.532C14.423 18.5421 14.5985 18.4972 14.7534 18.3972C14.9172 18.2915 15.1196 18.0838 15.3292 17.6646C15.5144 17.2941 15.9649 17.1439 16.3354 17.3292C16.7059 17.5144 16.8561 17.9649 16.6708 18.3354C16.3804 18.9162 16.0203 19.3648 15.5669 19.6574C15.1046 19.9559 14.6083 20.0516 14.1237 20.0305C13.6543 20.0101 13.1893 19.8802 12.7582 19.7254C12.3974 19.5958 12.0214 19.4336 11.6601 19.2778C11.591 19.248 11.5224 19.2184 11.4546 19.1894C10.571 18.8107 9.75426 18.4945 8.94457 18.4684C8.18874 18.444 7.38784 18.6728 6.53033 19.5303C6.23744 19.8232 5.76256 19.8232 5.46967 19.5303C5.17678 19.2374 5.17678 18.7626 5.46967 18.4697C6.67878 17.2606 7.36342 16.2727 7.73605 15.4308C8.10249 14.6029 8.18125 13.885 8.12721 13.1825C8.11606 13.0376 8.09946 12.8939 8.07835 12.75H6C5.58579 12.75 5.25 12.4142 5.25 12C5.25 11.5858 5.58579 11.25 6 11.25H7.75355C7.75324 11.2487 7.75292 11.2475 7.75261 11.2462C7.72305 11.1277 7.69279 11.0064 7.66222 10.8818C7.45591 10.0407 7.25 9.09377 7.25 8C7.25 5.37665 9.37665 3.25 12 3.25C14.6234 3.25 16.75 5.37665 16.75 8C16.75 8.41421 16.4142 8.75 16 8.75C15.5858 8.75 15.25 8.41421 15.25 8C15.25 6.20508 13.7949 4.75 12 4.75Z" fill="#5D5D5D"/>
<path fill-rule="evenodd" clip-rule="evenodd" d="M5.25 12C5.25 11.5858 5.58579 11.25 6 11.25H13C13.4142 11.25 13.75 11.5858 13.75 12C13.75 12.4142 13.4142 12.75 13 12.75H6C5.58579 12.75 5.25 12.4142 5.25 12Z" fill="#D9D9D9"/>
</svg>
