<svg width="24" height="24" viewBox="0 0 24 24" fill="none" xmlns="http://www.w3.org/2000/svg">
<path fill-rule="evenodd" clip-rule="evenodd" d="M12 3.25C12.4142 3.25 12.75 3.58579 12.75 4V9C12.75 9.41421 12.4142 9.75 12 9.75C11.5858 9.75 11.25 9.41421 11.25 9V4C11.25 3.58579 11.5858 3.25 12 3.25ZM9.67745 5.35181C9.85518 5.72596 9.69596 6.17334 9.32182 6.35108C7.20852 7.355 5.75 9.50792 5.75 12C5.75 15.4518 8.54822 18.25 12 18.25C15.4518 18.25 18.25 15.4518 18.25 12C18.25 9.50792 16.7915 7.355 14.6782 6.35108C14.304 6.17334 14.1448 5.72596 14.3226 5.35181C14.5003 4.97767 14.9477 4.81845 15.3218 4.99619C17.9384 6.23919 19.75 8.90729 19.75 12C19.75 16.2802 16.2802 19.75 12 19.75C7.71979 19.75 4.25 16.2802 4.25 12C4.25 8.90729 6.06159 6.23919 8.67818 4.99619C9.05232 4.81845 9.49971 4.97767 9.67745 5.35181Z" fill="#5D5D5D"/>
</svg>
