<svg width="24" height="24" viewBox="0 0 24 24" fill="none" xmlns="http://www.w3.org/2000/svg">
<path fill-rule="evenodd" clip-rule="evenodd" d="M12 15.25C12.4142 15.25 12.75 15.5858 12.75 16V17.5986L15.416 19.376C15.7607 19.6057 15.8538 20.0714 15.6241 20.416C15.3943 20.7607 14.9286 20.8538 14.584 20.624L12.75 19.4014V21C12.75 21.4142 12.4142 21.75 12 21.75C11.5858 21.75 11.25 21.4142 11.25 21V19.4014L9.41604 20.624C9.0714 20.8538 8.60575 20.7607 8.37598 20.416C8.14622 20.0714 8.23935 19.6057 8.58399 19.376L11.25 17.5986V16C11.25 15.5858 11.5858 15.25 12 15.25Z" fill="#D9D9D9"/>
<path d="M4 3.25C3.58579 3.25 3.25 3.58579 3.25 4C3.25 4.41421 3.58579 4.75 4 4.75H4.25V15.25H4C3.58579 15.25 3.25 15.5858 3.25 16C3.25 16.4142 3.58579 16.75 4 16.75H20C20.4142 16.75 20.75 16.4142 20.75 16C20.75 15.5858 20.4142 15.25 20 15.25H19.75V4.75H20C20.4142 4.75 20.75 4.41421 20.75 4C20.75 3.58579 20.4142 3.25 20 3.25H4Z" fill="#5D5D5D"/>
<path fill-rule="evenodd" clip-rule="evenodd" d="M15.4802 7.42385C15.7984 7.68903 15.8414 8.16195 15.5762 8.48016L13.0762 11.4802C12.9294 11.6563 12.71 11.7556 12.4808 11.7498C12.2516 11.7439 12.0376 11.6335 11.9 11.45L11.036 10.2981L9.62406 12.416C9.39429 12.7607 8.92864 12.8538 8.58399 12.6241C8.23935 12.3943 8.14622 11.9286 8.37598 11.584L10.376 8.58399C10.511 8.38147 10.7359 8.25706 10.9792 8.25031C11.2225 8.24355 11.454 8.3553 11.6 8.55002L12.531 9.79131L14.4239 7.51988C14.689 7.20167 15.1619 7.15868 15.4802 7.42385Z" fill="#D9D9D9"/>
</svg>
