<svg width="24" height="24" viewBox="0 0 24 24" fill="none" xmlns="http://www.w3.org/2000/svg">
<path d="M19 8.25H5C3.48122 8.25 2.25 9.48122 2.25 11V15.5C2.25 17.0188 3.48122 18.25 5 18.25H7C7.41421 18.25 7.75 17.9142 7.75 17.5V14.75H16.25V17.5C16.25 17.9142 16.5858 18.25 17 18.25H19C20.5188 18.25 21.75 17.0188 21.75 15.5V11C21.75 9.48122 20.5188 8.25 19 8.25Z" fill="#5D5D5D"/>
<path d="M7 2.25C6.58579 2.25 6.25 2.58579 6.25 3V9C6.25 9.41421 6.58579 9.75 7 9.75H17C17.4142 9.75 17.75 9.41421 17.75 9V3C17.75 2.58579 17.4142 2.25 17 2.25H7Z" fill="#D9D9D9"/>
<path d="M7 13.25C6.58579 13.25 6.25 13.5858 6.25 14V21C6.25 21.4142 6.58579 21.75 7 21.75H17C17.4142 21.75 17.75 21.4142 17.75 21V14C17.75 13.5858 17.4142 13.25 17 13.25H7Z" fill="#D9D9D9"/>
</svg>
