<svg width="24" height="24" viewBox="0 0 24 24" fill="none" xmlns="http://www.w3.org/2000/svg">
<path fill-rule="evenodd" clip-rule="evenodd" d="M12 2.25C6.61522 2.25 2.25 6.61522 2.25 12C2.25 14.912 3.52753 17.5265 5.55021 19.312C7.26856 20.8288 9.52761 21.75 12 21.75C14.4724 21.75 16.7314 20.8288 18.4498 19.312C20.4725 17.5265 21.75 14.912 21.75 12C21.75 6.61522 17.3848 2.25 12 2.25Z" fill="#5D5D5D"/>
<path d="M12 6.25C9.92893 6.25 8.25 7.92893 8.25 10C8.25 12.0711 9.92893 13.75 12 13.75C14.0711 13.75 15.75 12.0711 15.75 10C15.75 7.92893 14.0711 6.25 12 6.25Z" fill="#D9D9D9"/>
<path d="M12 15.25C10.3297 15.25 8.81358 15.73 7.66219 16.3429C7.0858 16.6497 6.58779 16.9967 6.19962 17.3474C5.82696 17.6842 5.49805 18.076 5.34423 18.4866L5.16309 18.9702L5.55025 19.312C7.2686 20.8288 9.52765 21.75 12 21.75C14.4724 21.75 16.7315 20.8288 18.4498 19.312L18.837 18.9702L18.6558 18.4866C18.502 18.076 18.1731 17.6842 17.8005 17.3474C17.4123 16.9967 16.9143 16.6497 16.3379 16.3429C15.1865 15.73 13.6704 15.25 12 15.25Z" fill="#D9D9D9"/>
</svg>
