<svg width="24" height="24" viewBox="0 0 24 24" fill="none" xmlns="http://www.w3.org/2000/svg">
<path d="M14 2.25C11.9289 2.25 10.25 3.92893 10.25 6C10.25 6.08395 10.2528 6.16732 10.2582 6.25H9C7.48122 6.25 6.25 7.48122 6.25 9V10.2582C6.16732 10.2528 6.08395 10.25 6 10.25C3.92893 10.25 2.25 11.9289 2.25 14C2.25 16.0711 3.92893 17.75 6 17.75C6.08395 17.75 6.16732 17.7472 6.25 17.7418V19C6.25 20.5188 7.48122 21.75 9 21.75H11.1707C11.4142 21.75 11.6425 21.6318 11.7831 21.433C11.9236 21.2343 11.959 20.9796 11.8778 20.7501C11.7953 20.5164 11.75 20.2643 11.75 20C11.75 18.7574 12.7574 17.75 14 17.75C15.2426 17.75 16.25 18.7574 16.25 20C16.25 20.2643 16.2047 20.5164 16.1222 20.7501C16.041 20.9796 16.0764 21.2343 16.2169 21.433C16.3575 21.6318 16.5858 21.75 16.8293 21.75H19C20.5188 21.75 21.75 20.5188 21.75 19V16.8293C21.75 16.5858 21.6318 16.3575 21.433 16.2169C21.2343 16.0764 20.9796 16.041 20.7501 16.1222C20.5164 16.2047 20.2643 16.25 20 16.25C18.7574 16.25 17.75 15.2426 17.75 14C17.75 12.7574 18.7574 11.75 20 11.75C20.2643 11.75 20.5164 11.7953 20.7501 11.8778C20.9796 11.959 21.2343 11.9236 21.433 11.7831C21.6318 11.6425 21.75 11.4142 21.75 11.1707V9C21.75 7.48122 20.5188 6.25 19 6.25H17.7418C17.7472 6.16732 17.75 6.08395 17.75 6C17.75 3.92893 16.0711 2.25 14 2.25Z" fill="#5D5D5D"/>
</svg>
