<svg width="24" height="24" viewBox="0 0 24 24" fill="none" xmlns="http://www.w3.org/2000/svg">
<path d="M12.6431 2.61419C12.4697 2.32512 12.1247 2.18729 11.7998 2.27728C11.4749 2.36727 11.25 2.66295 11.25 3.00007V13.5585C11.25 14.7422 12.0074 15.7931 13.1304 16.1674L20.7628 18.7116C21.0606 18.8108 21.3886 18.7142 21.585 18.4694C21.7814 18.2245 21.8046 17.8833 21.6431 17.6142L12.6431 2.61419Z" fill="#5D5D5D"/>
<path d="M21.2372 17.2885L11.25 13.9595V21C11.25 21.2411 11.3659 21.4675 11.5615 21.6085C11.757 21.7494 12.0085 21.7878 12.2372 21.7116L21.2372 18.7116C21.5434 18.6095 21.75 18.3229 21.75 18C21.75 17.6772 21.5434 17.3906 21.2372 17.2885Z" fill="black"/>
<path d="M12.75 3.00007C12.75 2.66295 12.5251 2.36727 12.2002 2.27728C11.8753 2.18729 11.5303 2.32512 11.3569 2.61419L2.35688 17.6142C2.23984 17.8093 2.21766 18.0469 2.29659 18.2603C2.37551 18.4736 2.54702 18.6396 2.76283 18.7116L11.7628 21.7116C11.9915 21.7878 12.243 21.7495 12.4385 21.6085C12.6341 21.4675 12.75 21.2411 12.75 21.0001V3.00007Z" fill="#D9D9D9"/>
</svg>
