<svg width="24" height="24" viewBox="0 0 24 24" fill="none" xmlns="http://www.w3.org/2000/svg">
<path d="M12.6431 2.61419C12.4697 2.32512 12.1247 2.18729 11.7998 2.27728C11.4749 2.36727 11.25 2.66295 11.25 3.00007V21.0001C11.25 21.2411 11.3659 21.4675 11.5615 21.6085C11.757 21.7495 12.0085 21.7878 12.2372 21.7116L21.2372 18.7116C21.453 18.6396 21.6245 18.4736 21.7034 18.2603C21.7823 18.0469 21.7602 17.8093 21.6431 17.6142L12.6431 2.61419Z" fill="#5D5D5D"/>
<path d="M12.75 3.00007C12.75 2.66295 12.5251 2.36727 12.2002 2.27728C11.8753 2.18729 11.5303 2.32512 11.3569 2.61419L2.35688 17.6142C2.23984 17.8093 2.21766 18.0469 2.29659 18.2603C2.37551 18.4736 2.54702 18.6396 2.76283 18.7116L11.7628 21.7116C11.9915 21.7878 12.243 21.7495 12.4385 21.6085C12.6341 21.4675 12.75 21.2411 12.75 21.0001V3.00007Z" fill="#D9D9D9"/>
</svg>
