<svg width="24" height="24" viewBox="0 0 24 24" fill="none" xmlns="http://www.w3.org/2000/svg">
<path fill-rule="evenodd" clip-rule="evenodd" d="M10.8558 2.26411C11.2476 2.18737 11.6308 2.43094 11.7276 2.81822C12.1336 4.44215 13.5205 5.40134 15.1591 6.53463C15.2065 6.56743 15.2541 6.60037 15.3019 6.63348C16.8737 7.72165 18.75 9.05465 18.75 11.5001V13.0001C18.75 13.4143 18.4142 13.7501 18 13.7501C17.5858 13.7501 17.25 13.4143 17.25 13.0001V11.5001C17.25 9.94559 16.1263 9.02859 14.4481 7.86676C14.356 7.80298 14.2621 7.73845 14.1669 7.67301C13.5348 7.23857 12.8439 6.76366 12.2143 6.19689L13.7425 16.8941C13.8011 17.3041 13.5161 17.684 13.1061 17.7426C12.696 17.8012 12.3161 17.5162 12.2576 17.1062L10.2576 3.10619C10.2011 2.711 10.4641 2.34085 10.8558 2.26411Z" fill="#5D5D5D"/>
<path d="M10 13.25C7.92893 13.25 6.25 14.9289 6.25 17C6.25 19.0711 7.92893 20.75 10 20.75C12.0711 20.75 13.75 19.0711 13.75 17C13.75 14.9289 12.0711 13.25 10 13.25Z" fill="#D9D9D9"/>
</svg>
