<svg width="24" height="24" viewBox="0 0 24 24" fill="none" xmlns="http://www.w3.org/2000/svg">
<path fill-rule="evenodd" clip-rule="evenodd" d="M10.148 3.75C9.42254 3.75 8.84946 4.36547 8.90115 5.08906L9.74811 16.9466C9.77762 17.3597 9.46661 17.7186 9.05345 17.7481C8.64029 17.7776 8.28143 17.4666 8.25192 17.0534L7.40496 5.19593C7.29125 3.60404 8.55203 2.25 10.148 2.25H16.1378C17.5805 2.25 18.778 3.36498 18.8808 4.80407L19.7481 16.9466C19.7776 17.3597 19.4666 17.7186 19.0535 17.7481C18.6403 17.7776 18.2814 17.4666 18.2519 17.0534L17.3846 4.91094C17.3379 4.25681 16.7936 3.75 16.1378 3.75H10.148Z" fill="#5D5D5D"/>
<path d="M6 13.25C3.92893 13.25 2.25 14.9289 2.25 17C2.25 19.0711 3.92893 20.75 6 20.75C8.07107 20.75 9.75 19.0711 9.75 17C9.75 14.9289 8.07107 13.25 6 13.25Z" fill="#D9D9D9"/>
<path d="M16 13.25C13.9289 13.25 12.25 14.9289 12.25 17C12.25 19.0711 13.9289 20.75 16 20.75C18.0711 20.75 19.75 19.0711 19.75 17C19.75 14.9289 18.0711 13.25 16 13.25Z" fill="#D9D9D9"/>
</svg>
