<svg width="24" height="24" viewBox="0 0 24 24" fill="none" xmlns="http://www.w3.org/2000/svg">
<path d="M12 2.25C9.37192 2.25 7.15689 4.01248 6.47008 6.41973C4.13909 6.9515 2.25 8.71034 2.25 11C2.25 13.7709 4.98919 15.75 8 15.75H16C19.0108 15.75 21.75 13.7709 21.75 11C21.75 8.71034 19.8609 6.9515 17.5299 6.41973C16.8431 4.01248 14.6281 2.25 12 2.25Z" fill="#5D5D5D"/>
<path fill-rule="evenodd" clip-rule="evenodd" d="M6 17.25C6.41421 17.25 6.75 17.5858 6.75 18V20C6.75 20.4142 6.41421 20.75 6 20.75C5.58579 20.75 5.25 20.4142 5.25 20V18C5.25 17.5858 5.58579 17.25 6 17.25ZM18 17.25C18.4142 17.25 18.75 17.5858 18.75 18V20C18.75 20.4142 18.4142 20.75 18 20.75C17.5858 20.75 17.25 20.4142 17.25 20V18C17.25 17.5858 17.5858 17.25 18 17.25ZM10 18.25C10.4142 18.25 10.75 18.5858 10.75 19V21C10.75 21.4142 10.4142 21.75 10 21.75C9.58579 21.75 9.25 21.4142 9.25 21V19C9.25 18.5858 9.58579 18.25 10 18.25ZM14 18.25C14.4142 18.25 14.75 18.5858 14.75 19V21C14.75 21.4142 14.4142 21.75 14 21.75C13.5858 21.75 13.25 21.4142 13.25 21V19C13.25 18.5858 13.5858 18.25 14 18.25Z" fill="#D9D9D9"/>
</svg>
