<svg width="24" height="24" viewBox="0 0 24 24" fill="none" xmlns="http://www.w3.org/2000/svg">
<path fill-rule="evenodd" clip-rule="evenodd" d="M12 5.75C6.33908 5.75 1.75 10.3391 1.75 16C1.75 16.4142 1.41421 16.75 1 16.75C0.585786 16.75 0.25 16.4142 0.25 16C0.25 9.51065 5.51065 4.25 12 4.25C18.4893 4.25 23.75 9.51065 23.75 16C23.75 16.4142 23.4142 16.75 23 16.75C22.5858 16.75 22.25 16.4142 22.25 16C22.25 10.3391 17.6609 5.75 12 5.75Z" fill="#D9D9D9"/>
<path fill-rule="evenodd" clip-rule="evenodd" d="M12 9.75C8.54822 9.75 5.75 12.5482 5.75 16C5.75 16.4142 5.41421 16.75 5 16.75C4.58579 16.75 4.25 16.4142 4.25 16C4.25 11.7198 7.71979 8.25 12 8.25C16.2802 8.25 19.75 11.7198 19.75 16C19.75 16.4142 19.4142 16.75 19 16.75C18.5858 16.75 18.25 16.4142 18.25 16C18.25 12.5482 15.4518 9.75 12 9.75Z" fill="#5D5D5D"/>
<path fill-rule="evenodd" clip-rule="evenodd" d="M12 13.75C10.7574 13.75 9.75 14.7574 9.75 16C9.75 16.4142 9.41421 16.75 9 16.75C8.58579 16.75 8.25 16.4142 8.25 16C8.25 13.9289 9.92893 12.25 12 12.25C14.0711 12.25 15.75 13.9289 15.75 16C15.75 16.4142 15.4142 16.75 15 16.75C14.5858 16.75 14.25 16.4142 14.25 16C14.25 14.7574 13.2426 13.75 12 13.75Z" fill="black"/>
</svg>
