<svg width="24" height="24" viewBox="0 0 24 24" fill="none" xmlns="http://www.w3.org/2000/svg">
<path d="M10.6199 10.5778L10.6171 10.5737C10.4771 10.371 10.2464 10.25 10 10.25C9.75361 10.25 9.52294 10.371 9.3829 10.5737L9.38013 10.5778L9.37308 10.588L9.34671 10.6266C9.32386 10.6601 9.29071 10.7089 9.24871 10.7714C9.16475 10.8962 9.04533 11.0757 8.90226 11.296C8.61653 11.736 8.23443 12.3418 7.85125 13.0023C7.4695 13.6604 7.0792 14.3856 6.7821 15.0618C6.49853 15.7073 6.25 16.4154 6.25 17C6.25 19.0711 7.92893 20.75 10 20.75C12.0711 20.75 13.75 19.0711 13.75 17C13.75 16.4154 13.5015 15.7073 13.2179 15.0618C12.9208 14.3856 12.5305 13.6604 12.1487 13.0023C11.7656 12.3418 11.3835 11.736 11.0977 11.296C10.9547 11.0757 10.8352 10.8962 10.7513 10.7714C10.7093 10.7089 10.6761 10.6601 10.6533 10.6266L10.6269 10.588L10.6199 10.5778Z" fill="#5D5D5D"/>
<path d="M6.09397 3.54207L6.09221 3.5398C5.95013 3.35696 5.73156 3.25 5.5 3.25C5.26844 3.25 5.04987 3.35696 4.90779 3.5398L4.90603 3.54207L4.90212 3.54712L4.88814 3.56529C4.87617 3.58088 4.85902 3.60335 4.83741 3.63191C4.79423 3.68899 4.73312 3.77063 4.66004 3.87066C4.51438 4.07002 4.31879 4.34563 4.12192 4.6473C3.92679 4.9463 3.72138 5.2846 3.56202 5.60702C3.42018 5.89399 3.25 6.29172 3.25 6.66667C3.25 7.89787 4.34285 8.75 5.5 8.75C6.65715 8.75 7.75 7.89787 7.75 6.66667C7.75 6.29172 7.57982 5.89399 7.43798 5.60702C7.27862 5.2846 7.07321 4.9463 6.87808 4.6473C6.68121 4.34563 6.48562 4.07002 6.33996 3.87066C6.26688 3.77063 6.20577 3.68899 6.16259 3.63191C6.14098 3.60335 6.12383 3.58088 6.11186 3.56529L6.09788 3.54712L6.09397 3.54207Z" fill="#5D5D5D"/>
<path d="M18 4.25C18.2464 4.25 18.4771 4.37102 18.6171 4.57375L19.6487 6.20945C19.9055 6.65206 20.1708 7.14448 20.3742 7.60734C20.564 8.03939 20.75 8.55352 20.75 9C20.75 10.5188 19.5188 11.75 18 11.75C16.4812 11.75 15.25 10.5188 15.25 9C15.25 8.55352 15.436 8.03939 15.6258 7.60734C15.8292 7.14448 16.0945 6.65206 16.3513 6.20945L17.3829 4.57375C17.5229 4.37102 17.7536 4.25 18 4.25Z" fill="#5D5D5D"/>
</svg>
