<svg width="24" height="24" viewBox="0 0 24 24" fill="none" xmlns="http://www.w3.org/2000/svg">
<path fill-rule="evenodd" clip-rule="evenodd" d="M14.4697 4.46967C14.1768 4.76256 14.1768 5.23744 14.4697 5.53033L16.1893 7.25H7C4.37665 7.25 2.25 9.37665 2.25 12C2.25 14.6234 4.37665 16.75 7 16.75H19C19.4142 16.75 19.75 16.4142 19.75 16C19.75 15.5858 19.4142 15.25 19 15.25H7C5.20507 15.25 3.75 13.7949 3.75 12C3.75 10.2051 5.20507 8.75 7 8.75H16.1893L14.4697 10.4697C14.1768 10.7626 14.1768 11.2374 14.4697 11.5303C14.7626 11.8232 15.2374 11.8232 15.5303 11.5303L18.5303 8.53033C18.8232 8.23744 18.8232 7.76256 18.5303 7.46967L15.5303 4.46967C15.2374 4.17678 14.7626 4.17678 14.4697 4.46967Z" fill="#5D5D5D"/>
</svg>
