<svg width="24" height="24" viewBox="0 0 24 24" fill="none" xmlns="http://www.w3.org/2000/svg">
<path fill-rule="evenodd" clip-rule="evenodd" d="M12 3.75C7.44365 3.75 3.75 7.44365 3.75 12C3.75 16.5563 7.44365 20.25 12 20.25C13.8688 20.25 15.3455 19.785 16.5215 19.001C17.7022 18.2138 18.6237 17.0756 19.3292 15.6646C19.5144 15.2941 19.9649 15.1439 20.3354 15.3292C20.7059 15.5144 20.8561 15.9649 20.6708 16.3354C19.8763 17.9244 18.7978 19.2862 17.3535 20.249C15.9045 21.215 14.1312 21.75 12 21.75C6.61522 21.75 2.25 17.3848 2.25 12C2.25 6.61522 6.61522 2.25 12 2.25C16.6539 2.25 20.5463 5.51072 21.5171 9.87221L22.376 8.58397C22.6057 8.23933 23.0714 8.1462 23.416 8.37596C23.7607 8.60573 23.8538 9.07138 23.624 9.41603L21.624 12.416C21.3943 12.7607 20.9286 12.8538 20.584 12.624L17.584 10.624C17.2393 10.3943 17.1462 9.92862 17.376 9.58397C17.6057 9.23933 18.0714 9.1462 18.416 9.37596L20.1156 10.509C19.4139 6.66438 16.0473 3.75 12 3.75Z" fill="#5D5D5D"/>
<path fill-rule="evenodd" clip-rule="evenodd" d="M12 6.25C12.4142 6.25 12.75 6.58579 12.75 7V11.6893L14.5303 13.4697C14.8232 13.7626 14.8232 14.2374 14.5303 14.5303C14.2374 14.8232 13.7626 14.8232 13.4697 14.5303L11.4697 12.5303C11.329 12.3897 11.25 12.1989 11.25 12V7C11.25 6.58579 11.5858 6.25 12 6.25Z" fill="#D9D9D9"/>
</svg>
