<svg width="24" height="24" viewBox="0 0 24 24" fill="none" xmlns="http://www.w3.org/2000/svg">
<path fill-rule="evenodd" clip-rule="evenodd" d="M12 21.25C15.5909 21.25 18.6478 18.9554 19.7807 15.7501C19.9188 15.3595 20.3473 15.1548 20.7378 15.2929C21.1283 15.4309 21.333 15.8594 21.195 16.2499C19.8569 20.0358 16.2464 22.75 12 22.75C7.34604 22.75 3.45368 19.4893 2.48285 15.1278L1.62402 16.416C1.39426 16.7607 0.928606 16.8538 0.58396 16.624C0.239313 16.3943 0.146183 15.9286 0.375948 15.584L2.37595 12.584C2.60571 12.2393 3.07136 12.1462 3.41601 12.376L6.41601 14.376C6.76066 14.6057 6.85379 15.0714 6.62402 15.416C6.39426 15.7607 5.92861 15.8538 5.58396 15.624L3.88437 14.491C4.58613 18.3356 7.95271 21.25 12 21.25ZM21.624 12.416C21.3943 12.7607 20.9286 12.8538 20.584 12.624L17.584 10.624C17.2393 10.3943 17.1462 9.92862 17.3759 9.58397C17.6057 9.23933 18.0714 9.1462 18.416 9.37596L20.1156 10.509C19.4138 6.66438 16.0473 3.75 12 3.75C8.40905 3.75 5.35214 6.04464 4.21923 9.24993C4.08119 9.64047 3.6527 9.84517 3.26216 9.70713C2.87163 9.56909 2.66693 9.1406 2.80497 8.75007C4.14308 4.9642 7.7536 2.25 12 2.25C16.6539 2.25 20.5463 5.51072 21.5171 9.87221L22.3759 8.58397C22.6057 8.23933 23.0714 8.1462 23.416 8.37596C23.7607 8.60573 23.8538 9.07138 23.624 9.41603L21.624 12.416Z" fill="#5D5D5D"/>
</svg>
