<svg width="24" height="24" viewBox="0 0 24 24" fill="none" xmlns="http://www.w3.org/2000/svg">
<path fill-rule="evenodd" clip-rule="evenodd" d="M4.46967 19.5303C4.76256 19.8232 5.23744 19.8232 5.53033 19.5303L10.409 14.6516C11.2877 13.773 12.7123 13.773 13.591 14.6517L18.4697 19.5303C18.7626 19.8232 19.2374 19.8232 19.5303 19.5303C19.8232 19.2374 19.8232 18.7626 19.5303 18.4697L14.6516 13.591C13.1872 12.1265 10.8128 12.1265 9.34835 13.591L4.46967 18.4697C4.17678 18.7626 4.17678 19.2374 4.46967 19.5303ZM13.591 9.34834C12.7123 10.227 11.2877 10.227 10.409 9.34835L5.53033 4.46966C5.23744 4.17677 4.76256 4.17677 4.46967 4.46966C4.17678 4.76256 4.17678 5.23743 4.46967 5.53032L9.34835 10.409C10.8128 11.8735 13.1872 11.8735 14.6517 10.409L19.5303 5.53032C19.8232 5.23743 19.8232 4.76256 19.5303 4.46966C19.2374 4.17677 18.7626 4.17677 18.4697 4.46966L13.591 9.34834Z" fill="#5D5D5D"/>
</svg>
