<svg width="24" height="24" viewBox="0 0 24 24" fill="none" xmlns="http://www.w3.org/2000/svg">
<path d="M15 3.25C14.8011 3.25 14.6103 3.32902 14.4697 3.46967L10.4697 7.46967C10.4263 7.51303 10.3884 7.56155 10.3569 7.61413L7.35688 12.6141C7.19124 12.8902 7.22027 13.2412 7.42901 13.4863C7.63774 13.7314 7.97963 13.8159 8.27854 13.6964L11.6537 12.3463L10.3036 15.7215C10.1841 16.0204 10.2686 16.3623 10.5137 16.571C10.7588 16.7797 11.1098 16.8088 11.3859 16.6431L16.3859 13.6431C16.4385 13.6116 16.487 13.5737 16.5303 13.5303L20.5303 9.53033C20.671 9.38968 20.75 9.19891 20.75 9V4C20.75 3.58579 20.4142 3.25 20 3.25H15Z" fill="#5D5D5D"/>
<path d="M4.53033 15.5303C4.82322 15.2374 4.82322 14.7626 4.53033 14.4697C4.23744 14.1768 3.76256 14.1768 3.46967 14.4697L2.46967 15.4697C2.17678 15.7626 2.17678 16.2374 2.46967 16.5303C2.76256 16.8232 3.23744 16.8232 3.53033 16.5303L4.53033 15.5303Z" fill="#5D5D5D"/>
<path d="M5.53033 19.5303C5.82322 19.2374 5.82322 18.7626 5.53033 18.4697C5.23744 18.1768 4.76256 18.1768 4.46967 18.4697L3.46967 19.4697C3.17678 19.7626 3.17678 20.2374 3.46967 20.5303C3.76256 20.8232 4.23744 20.8232 4.53033 20.5303L5.53033 19.5303Z" fill="#5D5D5D"/>
<path d="M9.53033 20.5303C9.82322 20.2374 9.82322 19.7626 9.53033 19.4697C9.23744 19.1768 8.76256 19.1768 8.46967 19.4697L7.46967 20.4697C7.17678 20.7626 7.17678 21.2374 7.46967 21.5303C7.76256 21.8232 8.23744 21.8232 8.53033 21.5303L9.53033 20.5303Z" fill="#5D5D5D"/>
<path d="M7.00001 7.25C6.76394 7.25 6.54165 7.36115 6.40001 7.55L3.40001 11.55C3.24925 11.751 3.20916 12.0142 3.29323 12.2509C3.3773 12.4877 3.57435 12.6667 3.8181 12.7276L6.53301 13.4063L6.46968 13.4697C6.32902 13.6103 6.25001 13.8011 6.25001 14V17C6.25001 17.4142 6.58579 17.75 7.00001 17.75H10C10.1989 17.75 10.3897 17.671 10.5303 17.5303L10.5937 17.467L11.2724 20.1819C11.3333 20.4257 11.5123 20.6227 11.7491 20.7068C11.9859 20.7908 12.249 20.7508 12.45 20.6L16.45 17.6C16.6389 17.4584 16.75 17.2361 16.75 17V13C16.75 12.7298 16.6047 12.4805 16.3695 12.3474C16.1344 12.2142 15.8458 12.2179 15.6141 12.3569L12.5232 14.2114L13.6964 11.2785C13.8078 11 13.7425 10.6818 13.5303 10.4697C13.3182 10.2575 13 10.1922 12.7215 10.3036L9.78857 11.4768L11.6431 8.38587C11.7821 8.15417 11.7858 7.86561 11.6527 7.63048C11.5195 7.39534 11.2702 7.25 11 7.25H7.00001Z" fill="#D9D9D9"/>
<path d="M16 7.25C15.5858 7.25 15.25 7.58579 15.25 8C15.25 8.41421 15.5858 8.75 16 8.75H16.009C16.4232 8.75 16.759 8.41421 16.759 8C16.759 7.58579 16.4232 7.25 16.009 7.25H16Z" fill="#D9D9D9"/>
</svg>
