<svg width="24" height="24" viewBox="0 0 24 24" fill="none" xmlns="http://www.w3.org/2000/svg">
<path d="M9.82843 2.25C9.09908 2.25 8.39961 2.53973 7.88388 3.05546L7.05546 3.88388C6.82104 4.1183 6.50309 4.25 6.17157 4.25H5C3.48122 4.25 2.25 5.48122 2.25 7V17C2.25 18.5188 3.48122 19.75 5 19.75H19C20.5188 19.75 21.75 18.5188 21.75 17V7C21.75 5.48122 20.5188 4.25 19 4.25H17.8284C17.4969 4.25 17.179 4.1183 16.9445 3.88388L16.1161 3.05546C15.6004 2.53973 14.9009 2.25 14.1716 2.25H9.82843Z" fill="#5D5D5D"/>
<path fill-rule="evenodd" clip-rule="evenodd" d="M12 8.75C11.4068 8.75 10.8528 8.90825 10.3755 9.18433C10.017 9.39174 9.55818 9.26922 9.35078 8.91067C9.14337 8.55213 9.26589 8.09333 9.62444 7.88592C10.3239 7.48133 11.136 7.25 12 7.25C13.8494 7.25 15.452 8.30696 16.2366 9.84977L16.3292 9.66459C16.5144 9.29411 16.9649 9.14394 17.3354 9.32918C17.7059 9.51442 17.856 9.96493 17.6708 10.3354L16.6708 12.3354C16.4856 12.7059 16.0351 12.8561 15.6646 12.6708L13.6646 11.6708C13.2941 11.4856 13.1439 11.0351 13.3292 10.6646C13.5144 10.2941 13.9649 10.1439 14.3354 10.3292L14.9513 10.6371C14.4359 9.52297 13.3082 8.75 12 8.75ZM7.32916 11.6646C7.5144 11.2941 7.96491 11.1439 8.33539 11.3292L10.3354 12.3292C10.7059 12.5144 10.856 12.9649 10.6708 13.3354C10.4856 13.7059 10.0351 13.8561 9.66457 13.6708L9.04868 13.3629C9.56405 14.477 10.6917 15.25 12 15.25C12.5932 15.25 13.1472 15.0918 13.6244 14.8157C13.983 14.6083 14.4418 14.7308 14.6492 15.0893C14.8566 15.4479 14.7341 15.9067 14.3755 16.1141C13.6761 16.5187 12.8639 16.75 12 16.75C10.1506 16.75 8.54799 15.693 7.76339 14.1502L7.6708 14.3354C7.48556 14.7059 7.03505 14.8561 6.66457 14.6708C6.29409 14.4856 6.14392 14.0351 6.32916 13.6646L7.32916 11.6646Z" fill="#D9D9D9"/>
</svg>
