<svg width="24" height="24" viewBox="0 0 24 24" fill="none" xmlns="http://www.w3.org/2000/svg">
<path fill-rule="evenodd" clip-rule="evenodd" d="M5.46967 8.46967C5.76256 8.17678 6.23744 8.17678 6.53033 8.46967L8.30545 10.2448C8.42403 8.39213 8.72774 6.71716 9.16717 5.39887C9.45317 4.54085 9.81026 3.79239 10.2432 3.24303C10.6695 2.70213 11.2575 2.25 12 2.25C12.7425 2.25 13.3305 2.70213 13.7568 3.24303C14.1897 3.79239 14.5468 4.54085 14.8328 5.39887C15.4075 7.12274 15.75 9.45654 15.75 12C15.75 14.5435 15.4075 16.8773 14.8328 18.6011C14.5468 19.4591 14.1897 20.2076 13.7568 20.757C13.3305 21.2979 12.7425 21.75 12 21.75C10.9549 21.75 10.2159 20.874 9.73476 19.9609C9.22024 18.9844 8.82468 17.6484 8.57192 16.1226C8.50423 15.7139 8.78063 15.3278 9.18927 15.2601C9.59792 15.1924 9.98406 15.4688 10.0518 15.8774C10.2899 17.315 10.6495 18.4791 11.0618 19.2617C11.5076 20.1077 11.8672 20.25 12 20.25C12.0859 20.25 12.2871 20.1985 12.5787 19.8285C12.8636 19.467 13.1529 18.8975 13.4098 18.1268C13.921 16.5933 14.25 14.4271 14.25 12C14.25 9.5729 13.921 7.4067 13.4098 5.87321C13.1529 5.10255 12.8636 4.53298 12.5787 4.1715C12.2871 3.80155 12.0859 3.75 12 3.75C11.9141 3.75 11.7129 3.80155 11.4213 4.1715C11.1364 4.53298 10.8471 5.10255 10.5902 5.87321C10.2153 6.99799 9.93833 8.46316 9.81734 10.122L11.4697 8.46967C11.7626 8.17678 12.2374 8.17678 12.5303 8.46967C12.8232 8.76256 12.8232 9.23744 12.5303 9.53033L9.53033 12.5303C9.23744 12.8232 8.76256 12.8232 8.46967 12.5303L5.46967 9.53033C5.17678 9.23744 5.17678 8.76256 5.46967 8.46967Z" fill="#5D5D5D"/>
</svg>
