<svg width="24" height="24" viewBox="0 0 24 24" fill="none" xmlns="http://www.w3.org/2000/svg">
<path fill-rule="evenodd" clip-rule="evenodd" d="M15.624 2.58405C15.8538 2.9287 15.7607 3.39435 15.416 3.62412L14.0614 4.52722C17.341 5.42987 19.75 8.43364 19.75 12.0001C19.75 16.2803 16.2802 19.7501 12 19.7501C7.71979 19.7501 4.25 16.2803 4.25 12.0001C4.25 11.5859 4.58579 11.2501 5 11.2501C5.41421 11.2501 5.75 11.5859 5.75 12.0001C5.75 15.4519 8.54822 18.2501 12 18.2501C15.4518 18.2501 18.25 15.4519 18.25 12.0001C18.25 9.07491 16.2404 6.61909 13.5266 5.93785L14.624 7.58405C14.8538 7.9287 14.7607 8.39435 14.416 8.62412C14.0714 8.85388 13.6057 8.76075 13.376 8.4161L11.376 5.4161C11.1462 5.07146 11.2393 4.60581 11.584 4.37604L14.584 2.37604C14.9286 2.14628 15.3943 2.23941 15.624 2.58405Z" fill="#5D5D5D"/>
</svg>
