<svg width="24" height="24" viewBox="0 0 24 24" fill="none" xmlns="http://www.w3.org/2000/svg">
<path d="M13.9445 7.88383C12.8705 6.80988 11.1293 6.80988 10.0554 7.88383L5.88383 12.0554C4.80988 13.1293 4.80988 14.8705 5.88383 15.9445L10.0554 20.1161C11.1293 21.19 12.8705 21.19 13.9445 20.1161L18.1161 15.9445C19.19 14.8705 19.19 13.1293 18.1161 12.0554L13.9445 7.88383Z" fill="#5D5D5D"/>
<path fill-rule="evenodd" clip-rule="evenodd" d="M5.69438 2.258C6.10423 2.31794 6.38788 2.69879 6.32793 3.10865L6.2181 3.85954C7.75749 2.84262 9.60284 2.2501 11.5858 2.2501C14.292 2.2501 16.7419 3.35361 18.5076 5.13335C18.7993 5.4274 18.7974 5.90227 18.5034 6.194C18.2093 6.48573 17.7344 6.48385 17.4427 6.1898C15.9471 4.6823 13.876 3.7501 11.5858 3.7501C9.87857 3.7501 8.29309 4.26813 6.97699 5.15636L7.69091 5.25752C8.10103 5.31563 8.38639 5.6952 8.32828 6.10532C8.27017 6.51543 7.8906 6.80079 7.48048 6.74268L5.09132 6.40416C4.8938 6.37617 4.71556 6.27064 4.59604 6.11091C4.47652 5.95118 4.42556 5.75042 4.45443 5.55302L4.84373 2.89155C4.90368 2.4817 5.28453 2.19805 5.69438 2.258Z" fill="#D9D9D9"/>
</svg>
