<svg width="24" height="24" viewBox="0 0 24 24" fill="none" xmlns="http://www.w3.org/2000/svg">
<path fill-rule="evenodd" clip-rule="evenodd" d="M15.5303 6.46967C15.8232 6.76256 15.8232 7.23744 15.5303 7.53033L13.7552 9.30545C15.6079 9.42403 17.2828 9.72774 18.6011 10.1672C19.4591 10.4532 20.2076 10.8103 20.757 11.2432C21.2979 11.6695 21.75 12.2575 21.75 13C21.75 13.7425 21.2979 14.3305 20.757 14.7568C20.2076 15.1897 19.4591 15.5468 18.6011 15.8328C16.8773 16.4075 14.5435 16.75 12 16.75C9.45654 16.75 7.12274 16.4075 5.39887 15.8328C4.54085 15.5468 3.79239 15.1897 3.24303 14.7568C2.70213 14.3305 2.25 13.7425 2.25 13C2.25 11.9549 3.12596 11.2159 4.0391 10.7348C5.01563 10.2202 6.3516 9.82468 7.87743 9.57192C8.28608 9.50423 8.67222 9.78063 8.73992 10.1893C8.80761 10.5979 8.53121 10.9841 8.12257 11.0518C6.68496 11.2899 5.52093 11.6495 4.73832 12.0618C3.89232 12.5076 3.75 12.8672 3.75 13C3.75 13.0859 3.80155 13.2871 4.17149 13.5787C4.53298 13.8636 5.10255 14.1529 5.87321 14.4098C7.4067 14.921 9.5729 15.25 12 15.25C14.4271 15.25 16.5933 14.921 18.1268 14.4098C18.8975 14.1529 19.467 13.8636 19.8285 13.5787C20.1985 13.2871 20.25 13.0859 20.25 13C20.25 12.9141 20.1985 12.7129 19.8285 12.4213C19.467 12.1364 18.8975 11.8471 18.1268 11.5902C17.002 11.2153 15.5368 10.9383 13.878 10.8173L15.5303 12.4697C15.8232 12.7626 15.8232 13.2374 15.5303 13.5303C15.2374 13.8232 14.7626 13.8232 14.4697 13.5303L11.4697 10.5303C11.1768 10.2374 11.1768 9.76256 11.4697 9.46967L14.4697 6.46967C14.7626 6.17678 15.2374 6.17678 15.5303 6.46967Z" fill="#5D5D5D"/>
</svg>
