<svg width="24" height="24" viewBox="0 0 24 24" fill="none" xmlns="http://www.w3.org/2000/svg">
<path d="M16.5303 2.46967C16.2374 2.17678 15.7626 2.17678 15.4697 2.46967L2.46967 15.4697C2.17678 15.7626 2.17678 16.2374 2.46967 16.5303L7.46967 21.5303C7.76256 21.8232 8.23744 21.8232 8.53033 21.5303L21.5303 8.53033C21.8232 8.23744 21.8232 7.76256 21.5303 7.46967L16.5303 2.46967Z" fill="#5D5D5D"/>
<path fill-rule="evenodd" clip-rule="evenodd" d="M13.25 4.68945L15.5303 6.96979C15.8232 7.26268 15.8232 7.73756 15.5303 8.03045C15.2374 8.32334 14.7626 8.32334 14.4697 8.03045L12.1893 5.75011L13.25 4.68945ZM10.5 7.43945L13.5303 10.4698C13.8232 10.7627 13.8232 11.2376 13.5303 11.5305C13.2374 11.8233 12.7626 11.8233 12.4697 11.5304L9.43933 8.50011L10.5 7.43945ZM7.99999 9.93945L10.5303 12.4698C10.8232 12.7627 10.8232 13.2376 10.5303 13.5305C10.2374 13.8233 9.76255 13.8233 9.46966 13.5304L6.93933 11.0001L7.99999 9.93945ZM5.49999 12.4395L8.53032 15.4698C8.82321 15.7627 8.82321 16.2376 8.53032 16.5305C8.23743 16.8233 7.76255 16.8233 7.46966 16.5304L4.43933 13.5001L5.49999 12.4395Z" fill="#D9D9D9"/>
</svg>
