<svg width="24" height="24" viewBox="0 0 24 24" fill="none" xmlns="http://www.w3.org/2000/svg">
<path d="M11.4983 2.43946C11.2776 2.24324 10.9622 2.19484 10.6928 2.31583C10.4234 2.43682 10.25 2.70467 10.25 3.00001V4.64873L4.5199 9.42385C4.27732 9.62599 4.18734 9.95843 4.29483 10.2553C4.40233 10.5522 4.68427 10.75 5.00004 10.75H10.25V11C10.25 11.4142 10.5858 11.75 11 11.75H20C20.3114 11.75 20.5904 11.5576 20.7011 11.2665C20.8117 10.9755 20.731 10.6463 20.4983 10.4395L11.4983 2.43946Z" fill="#D9D9D9"/>
<path fill-rule="evenodd" clip-rule="evenodd" d="M11 2.25C11.4142 2.25 11.75 2.58579 11.75 3V14C11.75 14.4142 11.4142 14.75 11 14.75C10.5858 14.75 10.25 14.4142 10.25 14V3C10.25 2.58579 10.5858 2.25 11 2.25Z" fill="black"/>
<path d="M3.00001 13.25C2.76295 13.25 2.53984 13.3621 2.39832 13.5523C2.2568 13.7424 2.21352 13.9883 2.2816 14.2154L2.97516 16.5285C3.23599 17.3984 3.91948 18.1173 4.84188 18.3518C5.66476 18.561 6.65228 18.7554 7.50476 18.75C8.86691 18.7413 10.6168 18.2408 11.5336 17.9487C11.8366 17.8522 12.1639 17.8522 12.4665 17.9486C13.3875 18.2423 15.1563 18.75 16.5 18.75C17.0568 18.75 17.541 18.4967 17.8839 18.1558L21.5288 14.5319C21.7442 14.3177 21.8092 13.9948 21.6933 13.714C21.5775 13.4332 21.3037 13.25 21 13.25H3.00001Z" fill="#5D5D5D"/>
<path d="M20.7423 16.7959C21.1312 16.6536 21.5619 16.8534 21.7043 17.2424C21.8467 17.6314 21.6468 18.0621 21.2578 18.2045L21.2528 18.2063L21.2411 18.2106L21.1979 18.2261C21.1606 18.2393 21.1067 18.2583 21.0383 18.2818C20.9015 18.3289 20.7061 18.3944 20.4688 18.4694C19.9959 18.6188 19.3494 18.8078 18.6649 18.962C17.9638 19.1199 17.1853 19.2502 16.5 19.2502C15.1563 19.2502 13.3875 18.7425 12.4665 18.4489C12.1639 18.3524 11.8366 18.3524 11.5336 18.4489C10.6168 18.741 8.86691 19.2415 7.50476 19.2502C6.79932 19.2547 6.00641 19.1226 5.29736 18.9617C4.6166 18.8072 3.97847 18.6179 3.51278 18.4682C3.27918 18.3931 3.0872 18.3275 2.95281 18.2802C2.88557 18.2566 2.83265 18.2376 2.79602 18.2243L2.75352 18.2087L2.74188 18.2044L2.7375 18.2028C2.34962 18.0575 2.15236 17.625 2.29767 17.2371C2.44297 16.8492 2.87513 16.6526 3.26299 16.7978L3.26485 16.7985L3.27314 16.8016L3.30862 16.8146C3.34044 16.8261 3.3882 16.8433 3.44994 16.865C3.57351 16.9084 3.75266 16.9697 3.97177 17.0402C4.41149 17.1815 5.00503 17.3572 5.62935 17.4989C6.29515 17.65 6.95854 17.7536 7.49525 17.7502C8.60335 17.7432 10.1551 17.3138 11.0783 17.0197C11.6772 16.8289 12.3229 16.8287 12.9221 17.0197C13.8552 17.3172 15.4183 17.7502 16.5 17.7502C17.0215 17.7502 17.6742 17.6476 18.3352 17.4987C18.9652 17.3567 19.5687 17.1807 20.0171 17.039C20.2405 16.9685 20.4237 16.907 20.5502 16.8634C20.6134 16.8417 20.6624 16.8244 20.6951 16.8128L20.7317 16.7997L20.7403 16.7966L20.7423 16.7959Z" fill="#D9D9D9"/>
</svg>
