<svg width="24" height="24" viewBox="0 0 24 24" fill="none" xmlns="http://www.w3.org/2000/svg">
<path d="M6 2.25C5.58579 2.25 5.25 2.58579 5.25 3C5.25 3.41421 5.58579 3.75 6 3.75H6.25V7.17157C6.25 7.90092 6.53973 8.60039 7.05546 9.11612L9.05546 11.1161C9.54361 11.6043 9.54361 12.3957 9.05546 12.8839L7.05546 14.8839C6.53973 15.3996 6.25 16.0991 6.25 16.8284V20.25H6C5.58579 20.25 5.25 20.5858 5.25 21C5.25 21.4142 5.58579 21.75 6 21.75H18C18.4142 21.75 18.75 21.4142 18.75 21C18.75 20.5858 18.4142 20.25 18 20.25H17.75V16.8284C17.75 16.0991 17.4603 15.3996 16.9445 14.8839L14.9445 12.8839C14.4564 12.3957 14.4564 11.6043 14.9445 11.1161L16.9445 9.11612C17.4603 8.60039 17.75 7.90092 17.75 7.17157V3.75H18C18.4142 3.75 18.75 3.41421 18.75 3C18.75 2.58579 18.4142 2.25 18 2.25H6Z" fill="#5D5D5D"/>
<path d="M6 2.25C5.58579 2.25 5.25 2.58579 5.25 3C5.25 3.41421 5.58579 3.75 6 3.75H18C18.4142 3.75 18.75 3.41421 18.75 3C18.75 2.58579 18.4142 2.25 18 2.25H6Z" fill="#D9D9D9"/>
<path d="M6 20.25C5.58579 20.25 5.25 20.5858 5.25 21C5.25 21.4142 5.58579 21.75 6 21.75H18C18.4142 21.75 18.75 21.4142 18.75 21C18.75 20.5858 18.4142 20.25 18 20.25H6Z" fill="#D9D9D9"/>
<path d="M10.5303 6.46967C10.2374 6.17678 9.76256 6.17678 9.46967 6.46967C9.17678 6.76256 9.17678 7.23744 9.46967 7.53033L10.0555 8.11612C11.1294 9.19006 12.8706 9.19006 13.9445 8.11612L14.5303 7.53033C14.8232 7.23744 14.8232 6.76256 14.5303 6.46967C14.2374 6.17678 13.7626 6.17678 13.4697 6.46967L12.8839 7.05546C12.3957 7.54361 11.6043 7.54361 11.1161 7.05546L10.5303 6.46967Z" fill="#D9D9D9"/>
<path d="M10 17.25C9.58579 17.25 9.25 17.5858 9.25 18C9.25 18.4142 9.58579 18.75 10 18.75H14C14.4142 18.75 14.75 18.4142 14.75 18C14.75 17.5858 14.4142 17.25 14 17.25H10Z" fill="#D9D9D9"/>
</svg>
