<svg width="24" height="24" viewBox="0 0 24 24" fill="none" xmlns="http://www.w3.org/2000/svg">
<path d="M6 2.25C5.58579 2.25 5.25 2.58579 5.25 3C5.25 3.41421 5.58579 3.75 6 3.75H6.25V7.17157C6.25 7.90092 6.53973 8.60039 7.05546 9.11612L9.05546 11.1161C9.54361 11.6043 9.54361 12.3957 9.05546 12.8839L7.05546 14.8839C6.53973 15.3996 6.25 16.0991 6.25 16.8284V20.25H6C5.58579 20.25 5.25 20.5858 5.25 21C5.25 21.4142 5.58579 21.75 6 21.75H18C18.4142 21.75 18.75 21.4142 18.75 21C18.75 20.5858 18.4142 20.25 18 20.25H17.75V16.8284C17.75 16.0991 17.4603 15.3996 16.9445 14.8839L14.9445 12.8839C14.4564 12.3957 14.4564 11.6043 14.9445 11.1161L16.9445 9.11612C17.4603 8.60039 17.75 7.90092 17.75 7.17157V3.75H18C18.4142 3.75 18.75 3.41421 18.75 3C18.75 2.58579 18.4142 2.25 18 2.25H6Z" fill="#5D5D5D"/>
<path fill-rule="evenodd" clip-rule="evenodd" d="M5.25 3C5.25 2.58579 5.58579 2.25 6 2.25H18C18.4142 2.25 18.75 2.58579 18.75 3C18.75 3.41421 18.4142 3.75 18 3.75H6C5.58579 3.75 5.25 3.41421 5.25 3ZM5.25 21C5.25 20.5858 5.58579 20.25 6 20.25H18C18.4142 20.25 18.75 20.5858 18.75 21C18.75 21.4142 18.4142 21.75 18 21.75H6C5.58579 21.75 5.25 21.4142 5.25 21Z" fill="#D9D9D9"/>
</svg>
