<svg width="24" height="24" viewBox="0 0 24 24" fill="none" xmlns="http://www.w3.org/2000/svg">
<path fill-rule="evenodd" clip-rule="evenodd" d="M6 3.25C4.48122 3.25 3.25 4.48122 3.25 6V18C3.25 19.5188 4.48122 20.75 6 20.75H18C19.5188 20.75 20.75 19.5188 20.75 18V9.82843C20.75 9.09908 20.4603 8.39961 19.9445 7.88388L15.5303 3.46967C15.3897 3.32902 15.1989 3.25 15 3.25H6Z" fill="#5D5D5D"/>
<path d="M15 3.25H8.25V6C8.25 7.51878 9.48122 8.75 11 8.75H13C14.5188 8.75 15.75 7.51878 15.75 6V4C15.75 3.58579 15.4142 3.25 15 3.25Z" fill="#D9D9D9"/>
<path d="M10 14.25C8.48122 14.25 7.25 15.4812 7.25 17V20.75H16.75V17C16.75 15.4812 15.5188 14.25 14 14.25H10Z" fill="#D9D9D9"/>
</svg>
