<svg width="24" height="24" viewBox="0 0 24 24" fill="none" xmlns="http://www.w3.org/2000/svg">
<path fill-rule="evenodd" clip-rule="evenodd" d="M3.25 4C3.25 3.58579 3.58579 3.25 4 3.25H8C8.41421 3.25 8.75 3.58579 8.75 4C8.75 4.41421 8.41421 4.75 8 4.75H5.81066L19.25 18.1893V16C19.25 15.5858 19.5858 15.25 20 15.25C20.4142 15.25 20.75 15.5858 20.75 16V20C20.75 20.4142 20.4142 20.75 20 20.75H16C15.5858 20.75 15.25 20.4142 15.25 20C15.25 19.5858 15.5858 19.25 16 19.25H18.1893L4.75 5.81066V8C4.75 8.41421 4.41421 8.75 4 8.75C3.58579 8.75 3.25 8.41421 3.25 8V4Z" fill="#5D5D5D"/>
<path fill-rule="evenodd" clip-rule="evenodd" d="M6.25 7C6.25 6.58579 6.58579 6.25 7 6.25H10C10.4142 6.25 10.75 6.58579 10.75 7C10.75 7.41421 10.4142 7.75 10 7.75H8.81066L16.25 15.1893V14C16.25 13.5858 16.5858 13.25 17 13.25C17.4142 13.25 17.75 13.5858 17.75 14V17C17.75 17.4142 17.4142 17.75 17 17.75H14C13.5858 17.75 13.25 17.4142 13.25 17C13.25 16.5858 13.5858 16.25 14 16.25H15.1893L7.75 8.81066V10C7.75 10.4142 7.41421 10.75 7 10.75C6.58579 10.75 6.25 10.4142 6.25 10V7Z" fill="#D9D9D9"/>
</svg>
