<svg width="24" height="24" viewBox="0 0 24 24" fill="none" xmlns="http://www.w3.org/2000/svg">
<path fill-rule="evenodd" clip-rule="evenodd" d="M20.592 5.53958C20.8463 5.86654 20.7874 6.33775 20.4604 6.59205L13.5073 12L20.4604 17.408C20.7874 17.6623 20.8463 18.1335 20.592 18.4605C20.3377 18.7874 19.8665 18.8464 19.5395 18.592L12.2857 12.9502L8.93388 15.5571C8.60692 15.8114 8.13571 15.7525 7.88141 15.4256C7.62711 15.0986 7.68601 14.6274 8.01297 14.3731L11.0641 12L8.01297 9.62697C7.68601 9.37267 7.62711 8.90146 7.88141 8.5745C8.13571 8.24754 8.60692 8.18864 8.93388 8.44294L12.2857 11.0499L19.5395 5.40802C19.8665 5.15372 20.3377 5.21262 20.592 5.53958Z" fill="#D9D9D9"/>
<path d="M6.5 4.25C4.70507 4.25 3.25 5.70507 3.25 7.5C3.25 9.29493 4.70507 10.75 6.5 10.75C7.54316 10.75 8.47172 10.2577 9.06516 9.49579C9.4941 8.94509 9.75 8.25138 9.75 7.5C9.75 5.70507 8.29493 4.25 6.5 4.25Z" fill="#5D5D5D"/>
<path d="M6.5 13.25C4.70507 13.25 3.25 14.7051 3.25 16.5C3.25 18.2949 4.70507 19.75 6.5 19.75C8.29493 19.75 9.75 18.2949 9.75 16.5C9.75 15.7486 9.4941 15.0549 9.06516 14.5042C8.47172 13.7423 7.54316 13.25 6.5 13.25Z" fill="#5D5D5D"/>
</svg>
