<svg width="24" height="24" viewBox="0 0 24 24" fill="none" xmlns="http://www.w3.org/2000/svg">
<path fill-rule="evenodd" clip-rule="evenodd" d="M20.7423 4.29587C21.1312 4.15356 21.5619 4.35346 21.7043 4.74239C21.8466 5.13136 21.6467 5.56211 21.2578 5.7045L21.2546 5.70565L21.2475 5.70823L21.2218 5.71748C21.1997 5.7254 21.1677 5.73677 21.1268 5.75109C21.045 5.77973 20.9272 5.82021 20.7808 5.86859C20.4883 5.96522 20.0795 6.09404 19.6129 6.22307C18.6997 6.47562 17.4919 6.7502 16.5 6.7502C15.508 6.7502 14.3002 6.47562 13.387 6.22307C12.9204 6.09404 12.5116 5.96522 12.2191 5.86859C12.1366 5.84131 12.0631 5.81655 12.0001 5.795C11.9384 5.81611 11.8667 5.84031 11.7862 5.86692C11.4966 5.9627 11.0912 6.09047 10.6269 6.2188C9.71661 6.47042 8.51185 6.7438 7.50472 6.75019C6.49397 6.7566 5.28428 6.48139 4.37309 6.22683C3.90772 6.09681 3.5012 5.96664 3.21072 5.86889C3.06527 5.81994 2.94838 5.77894 2.86713 5.74991C2.82649 5.73539 2.79473 5.72385 2.77273 5.71579L2.74715 5.70637L2.74005 5.70373L2.73795 5.70295L2.73685 5.70254C2.34896 5.55722 2.15231 5.12498 2.29763 4.73709C2.44292 4.34926 2.87507 4.15261 3.26291 4.29781M12.2586 4.29621L12.2633 4.29792L12.2841 4.30539C12.3028 4.31211 12.3313 4.32223 12.3685 4.33525C12.443 4.36131 12.5524 4.39895 12.6897 4.44432C12.9648 4.53519 13.3494 4.65637 13.7868 4.77734C14.6816 5.02479 15.7238 5.2502 16.5 5.2502C17.2762 5.2502 18.3184 5.02479 19.2131 4.77734C19.6505 4.65637 20.0352 4.53519 20.3102 4.44432C20.4475 4.39895 20.557 4.36131 20.6314 4.33525C20.6687 4.32223 20.6971 4.31211 20.7159 4.30539L20.7366 4.29792L20.7423 4.29587M12.2586 4.29621L12.2576 4.29586C12.0911 4.23492 11.9083 4.23499 11.7417 4.29606L11.7362 4.29806L11.7158 4.30542C11.6974 4.31205 11.6693 4.32204 11.6326 4.3349C11.5592 4.36065 11.4511 4.39786 11.3153 4.44277C11.0433 4.5327 10.6623 4.65278 10.2273 4.77302C9.33904 5.01854 8.29379 5.24515 7.4952 5.25022C6.70576 5.25523 5.66545 5.03044 4.77669 4.78214C4.34208 4.66073 3.96113 4.53876 3.68914 4.44723C3.55336 4.40153 3.44526 4.36361 3.37184 4.33737C3.33514 4.32426 3.30714 4.31408 3.28871 4.30733L3.26837 4.29984L3.26291 4.29781M20.7423 10.2959C21.1312 10.1536 21.5619 10.3535 21.7043 10.7424C21.8466 11.1314 21.6467 11.5621 21.2578 11.7045L21.2546 11.7056L21.2475 11.7082L21.2218 11.7175C21.1997 11.7254 21.1677 11.7368 21.1268 11.7511C21.045 11.7797 20.9272 11.8202 20.7808 11.8686C20.4883 11.9652 20.0795 12.094 19.6129 12.2231C18.6997 12.4756 17.4919 12.7502 16.5 12.7502C15.508 12.7502 14.3002 12.4756 13.387 12.2231C12.9204 12.094 12.5116 11.9652 12.2191 11.8686C12.1366 11.8413 12.0631 11.8165 12.0001 11.795C11.9384 11.8161 11.8667 11.8403 11.7862 11.8669C11.4966 11.9627 11.0912 12.0905 10.6269 12.2188C9.71661 12.4704 8.51185 12.7438 7.50472 12.7502C6.49397 12.7566 5.28428 12.4814 4.37309 12.2268C3.90772 12.0968 3.5012 11.9666 3.21072 11.8689C3.06527 11.8199 2.94838 11.7789 2.86713 11.7499C2.82649 11.7354 2.79473 11.7238 2.77273 11.7158L2.74715 11.7064L2.74005 11.7037L2.73795 11.703L2.73685 11.7025C2.34896 11.5572 2.15231 11.125 2.29763 10.7371C2.44294 10.3492 2.87518 10.1526 3.26307 10.2979L3.26837 10.2998L3.28871 10.3073C3.30714 10.3141 3.33514 10.3243 3.37184 10.3374C3.44526 10.3636 3.55336 10.4015 3.68914 10.4472C3.96113 10.5388 4.34208 10.6607 4.77669 10.7821C5.66545 11.0304 6.70576 11.2552 7.4952 11.2502C8.29379 11.2452 9.33904 11.0185 10.2273 10.773C10.6623 10.6528 11.0433 10.5327 11.3153 10.4428C11.4511 10.3979 11.5592 10.3606 11.6326 10.3349C11.6693 10.322 11.6974 10.3121 11.7158 10.3054L11.7362 10.2981L11.7408 10.2964C11.9074 10.2353 12.0911 10.2349 12.2577 10.2959L12.2633 10.2979L12.2841 10.3054C12.3028 10.3121 12.3313 10.3222 12.3685 10.3353C12.443 10.3613 12.5524 10.399 12.6897 10.4443C12.9648 10.5352 13.3494 10.6564 13.7868 10.7773C14.6816 11.0248 15.7238 11.2502 16.5 11.2502C17.2762 11.2502 18.3184 11.0248 19.2131 10.7773C19.6505 10.6564 20.0352 10.5352 20.3102 10.4443C20.4475 10.399 20.557 10.3613 20.6314 10.3353C20.6687 10.3222 20.6971 10.3121 20.7159 10.3054L20.7366 10.2979L20.7423 10.2959ZM20.7423 17.2959C21.1312 17.1536 21.5619 17.3535 21.7043 17.7424C21.8466 18.1314 21.6467 18.5621 21.2578 18.7045L21.2475 18.7082C21.2578 18.7045 21.2578 18.7045 21.2578 18.7045L21.2475 18.7082L21.2218 18.7175C21.1997 18.7254 21.1677 18.7368 21.1268 18.7511C21.045 18.7797 20.9272 18.8202 20.7808 18.8686C20.4883 18.9652 20.0795 19.094 19.6129 19.2231C18.6997 19.4756 17.4919 19.7502 16.5 19.7502C15.508 19.7502 14.3002 19.4756 13.387 19.2231C12.9204 19.094 12.5116 18.9652 12.2191 18.8686C12.1366 18.8413 12.0631 18.8165 12.0001 18.795C11.9384 18.8161 11.8667 18.8403 11.7862 18.8669C11.4966 18.9627 11.0912 19.0905 10.6269 19.2188C9.71661 19.4704 8.51185 19.7438 7.50472 19.7502C6.49397 19.7566 5.28428 19.4814 4.37309 19.2268C3.90772 19.0968 3.5012 18.9666 3.21072 18.8689C3.06527 18.8199 2.94838 18.7789 2.86713 18.7499C2.82649 18.7354 2.79473 18.7238 2.77273 18.7158L2.74715 18.7064L2.74005 18.7037L2.73795 18.703C2.73795 18.703 2.73685 18.7025 2.74005 18.7037L2.73685 18.7025C2.34896 18.5572 2.15231 18.125 2.29763 17.7371C2.44292 17.3492 2.87509 17.1526 3.26295 17.2978M3.26295 17.2978L3.26837 17.2998L3.28871 17.3073C3.30714 17.3141 3.33514 17.3243 3.37184 17.3374C3.44526 17.3636 3.55336 17.4015 3.68914 17.4472C3.96113 17.5388 4.34208 17.6607 4.77669 17.7821C5.66545 18.0304 6.70576 18.2552 7.4952 18.2502C8.29379 18.2452 9.33904 18.0185 10.2273 17.773C10.6623 17.6528 11.0433 17.5327 11.3153 17.4428C11.4511 17.3979 11.5592 17.3606 11.6326 17.3349C11.6693 17.322 11.6974 17.3121 11.7158 17.3054L11.7362 17.2981L11.7408 17.2964C11.9074 17.2353 12.0911 17.2349 12.2576 17.2959L12.2586 17.2962L12.2633 17.2979L12.2841 17.3054C12.3028 17.3121 12.3313 17.3222 12.3685 17.3353C12.443 17.3613 12.5524 17.3989 12.6897 17.4443C12.9648 17.5352 13.3494 17.6564 13.7868 17.7773C14.6816 18.0248 15.7238 18.2502 16.5 18.2502C17.2762 18.2502 18.3184 18.0248 19.2131 17.7773C19.6505 17.6564 20.0352 17.5352 20.3102 17.4443C20.4475 17.3989 20.557 17.3613 20.6314 17.3353C20.6687 17.3222 20.6971 17.3121 20.7159 17.3054L20.7366 17.2979L20.7423 17.2959" fill="#5D5D5D"/>
</svg>
