<svg width="24" height="24" viewBox="0 0 24 24" fill="none" xmlns="http://www.w3.org/2000/svg">
<path d="M13.5162 2.08873C12.5882 1.50981 11.4117 1.50981 10.4837 2.08873C8.62146 3.25051 7.09619 3.9211 4.91702 4.15548C3.50896 4.30693 2.21411 5.45326 2.28158 7.03058C2.36705 9.02886 2.6841 11.4581 3.87944 13.9373C5.07893 16.4252 7.14072 18.9177 10.6452 21.0761C11.4747 21.5871 12.5252 21.5871 13.3548 21.0761C16.8592 18.9177 18.921 16.4252 20.1205 13.9373C21.3158 11.4581 21.6329 9.02886 21.7184 7.03058C21.7858 5.45326 20.491 4.30693 19.0829 4.15548C16.9037 3.9211 15.3785 3.25051 13.5162 2.08873Z" fill="#5D5D5D"/>
<path fill-rule="evenodd" clip-rule="evenodd" d="M15.5303 8.46967C15.8232 8.76256 15.8232 9.23744 15.5303 9.53033L11.5303 13.5303C11.2374 13.8232 10.7626 13.8232 10.4697 13.5303L8.46967 11.5303C8.17678 11.2374 8.17678 10.7626 8.46967 10.4697C8.76256 10.1768 9.23744 10.1768 9.53033 10.4697L11 11.9393L14.4697 8.46967C14.7626 8.17678 15.2374 8.17678 15.5303 8.46967Z" fill="#D9D9D9"/>
</svg>
