<svg width="24" height="24" viewBox="0 0 24 24" fill="none" xmlns="http://www.w3.org/2000/svg">
<path fill-rule="evenodd" clip-rule="evenodd" d="M12 4.75C7.25732 4.75 3.75 7.71271 3.75 11C3.75 13.5859 5.15939 14.9775 6.25 15.6446V15.0787C6.25 13.2091 8.41265 12.1697 9.87257 13.3376C11.3803 14.5438 10.7464 16.9659 8.84107 17.2789L7.75 17.4581V18C7.75 18.9247 7.43723 19.6859 6.90533 20.2178C6.38048 20.7427 5.68552 21 5 21C4.31448 21 3.61952 20.7427 3.09467 20.2178C2.56277 19.6859 2.25 18.9247 2.25 18C2.25 17.5858 2.58579 17.25 3 17.25C3.41421 17.25 3.75 17.5858 3.75 18C3.75 18.5753 3.93723 18.9391 4.15533 19.1572C4.38048 19.3823 4.68552 19.5 5 19.5C5.31448 19.5 5.61952 19.3823 5.84467 19.1572C6.06277 18.9391 6.25 18.5753 6.25 18V17.3333C4.83954 16.7029 2.25 14.9164 2.25 11C2.25 6.5553 6.80156 3.25 12 3.25C17.1984 3.25 21.75 6.5553 21.75 11C21.75 15.4447 17.1984 18.75 12 18.75C11.5858 18.75 11.25 18.4142 11.25 18C11.25 17.5858 11.5858 17.25 12 17.25C16.7427 17.25 20.25 14.2873 20.25 11C20.25 7.71271 16.7427 4.75 12 4.75ZM7.75 15.938L8.59796 15.7987C9.2215 15.6963 9.42896 14.9036 8.93553 14.5089C8.45775 14.1267 7.75 14.4668 7.75 15.0787V15.938Z" fill="#5D5D5D"/>
</svg>
