<svg width="24" height="24" viewBox="0 0 24 24" fill="none" xmlns="http://www.w3.org/2000/svg">
<path d="M10.148 2.25C8.55203 2.25 7.29125 3.60404 7.40496 5.19593L8.25192 17.0534C8.28069 17.4562 8.6232 17.7639 9.02675 17.7495C9.4303 17.7351 9.75002 17.4038 9.75002 17C9.75002 16.8272 9.73827 16.6567 9.71546 16.4894L9.01978 6.75H17.516L18.2519 17.0534C18.2807 17.4562 18.6232 17.7639 19.0268 17.7495C19.4303 17.7351 19.75 17.4038 19.75 17C19.75 16.8272 19.7383 16.6567 19.7155 16.4894L18.8808 4.80407C18.778 3.36498 17.5805 2.25 16.1378 2.25H10.148Z" fill="#5D5D5D"/>
<path d="M6 13.25C3.92893 13.25 2.25 14.9289 2.25 17C2.25 19.0711 3.92893 20.75 6 20.75C8.07107 20.75 9.75 19.0711 9.75 17C9.75 16.8175 9.7369 16.6375 9.71149 16.4612C9.44972 14.6452 7.88844 13.25 6 13.25Z" fill="#D9D9D9"/>
<path d="M16 13.25C13.9289 13.25 12.25 14.9289 12.25 17C12.25 19.0711 13.9289 20.75 16 20.75C18.0711 20.75 19.75 19.0711 19.75 17C19.75 16.8175 19.7369 16.6375 19.7115 16.4612C19.4497 14.6452 17.8884 13.25 16 13.25Z" fill="#D9D9D9"/>
</svg>
