<svg width="24" height="24" viewBox="0 0 24 24" fill="none" xmlns="http://www.w3.org/2000/svg">
<path d="M10.4115 2.46615C8.72268 2.31262 7.2987 3.7093 7.41952 5.40079L8.25185 17.0534C8.28062 17.4562 8.62313 17.7639 9.02668 17.7495C9.43023 17.7351 9.74995 17.4038 9.74995 17C9.74995 16.8272 9.7382 16.6567 9.71539 16.4894L9.0252 6.82683L18.5115 7.68922L19.2519 18.0534C19.2806 18.4562 19.6231 18.7639 20.0267 18.7495C20.4302 18.7351 20.7499 18.4038 20.7499 18C20.7499 17.8272 20.7382 17.6567 20.7154 17.4894L19.8691 5.64198C19.7731 4.29779 18.7172 3.22121 17.3751 3.09921L10.4115 2.46615Z" fill="#5D5D5D"/>
<path d="M6 13.25C3.92893 13.25 2.25 14.9289 2.25 17C2.25 19.0711 3.92893 20.75 6 20.75C8.07107 20.75 9.75 19.0711 9.75 17C9.75 16.8175 9.7369 16.6375 9.71149 16.4612C9.44972 14.6452 7.88844 13.25 6 13.25Z" fill="#D9D9D9"/>
<path d="M17 14.25C14.9289 14.25 13.25 15.9289 13.25 18C13.25 20.0711 14.9289 21.75 17 21.75C19.0711 21.75 20.75 20.0711 20.75 18C20.75 17.8175 20.7369 17.6375 20.7115 17.4612C20.4497 15.6452 18.8884 14.25 17 14.25Z" fill="#D9D9D9"/>
</svg>
