<svg width="24" height="24" viewBox="0 0 24 24" fill="none" xmlns="http://www.w3.org/2000/svg">
<path d="M11.7276 2.81822C11.6308 2.43094 11.2476 2.18737 10.8558 2.26411C10.4641 2.34085 10.2012 2.71156 10.2576 3.10674L12.2575 17.1062C12.3132 17.4958 12.6606 17.7761 13.0532 17.7482C13.4458 17.7203 13.75 17.3937 13.75 17.0001C13.75 16.6542 13.703 16.318 13.6145 15.9983L12.8148 10.4002C13.4235 10.8373 14.1077 11.1982 14.7207 11.5214C14.8111 11.5691 14.9004 11.6162 14.9872 11.6623C15.701 12.0418 16.2762 12.3734 16.6796 12.7602C17.0541 13.1194 17.25 13.4964 17.25 14.0001C17.25 14.4143 17.5858 14.7501 18 14.7501C18.4142 14.7501 18.75 14.4143 18.75 14.0001V11.0001C18.75 8.52809 16.8372 7.32698 15.2681 6.36138L15.1656 6.29834C13.5088 5.27935 12.131 4.43197 11.7276 2.81822Z" fill="#5D5D5D"/>
<path d="M10 13.25C7.92893 13.25 6.25 14.9289 6.25 17C6.25 19.0711 7.92893 20.75 10 20.75C12.0711 20.75 13.75 19.0711 13.75 17C13.75 16.6343 13.6974 16.2795 13.5989 15.9436C13.1428 14.3875 11.7052 13.25 10 13.25Z" fill="#D9D9D9"/>
</svg>
