<svg width="24" height="24" viewBox="0 0 24 24" fill="none" xmlns="http://www.w3.org/2000/svg">
<path d="M6 3.25C4.48122 3.25 3.25 4.48122 3.25 6V7.75H20.75V6C20.75 4.48122 19.5188 3.25 18 3.25H6Z" fill="#D9D9D9"/>
<path fill-rule="evenodd" clip-rule="evenodd" d="M8.75 7.74609V3.25H7.25V7.74609H3.25V18C3.25 19.5188 4.48122 20.75 6 20.75H18C19.5188 20.75 20.75 19.5188 20.75 18V7.74609H16.75V3.25H15.25V7.74609H12.75V3.25H11.25V7.74609H8.75Z" fill="#5D5D5D"/>
<path d="M9.63048 10.3474C9.86561 10.2142 10.1542 10.2179 10.3859 10.3569L15.3859 13.3569C15.6118 13.4924 15.75 13.7366 15.75 14C15.75 14.2634 15.6118 14.5076 15.3859 14.6431L10.3859 17.6431C10.1542 17.7821 9.86561 17.7858 9.63048 17.6526C9.39534 17.5195 9.25 17.2702 9.25 17V11C9.25 10.7298 9.39534 10.4805 9.63048 10.3474Z" fill="#D9D9D9"/>
</svg>
