<svg width="24" height="24" viewBox="0 0 24 24" fill="none" xmlns="http://www.w3.org/2000/svg">
<path fill-rule="evenodd" clip-rule="evenodd" d="M11.3117 2.25C10.1731 2.25 9.25 3.17305 9.25 4.3117V4.56876C9.25 4.64757 9.19029 4.77315 9.03018 4.83962C8.87601 4.90363 8.74939 4.86031 8.68999 4.8009L8.41333 4.52425C7.53801 3.64893 6.11884 3.64893 5.24352 4.52425L4.52424 5.24353C3.64893 6.11884 3.64893 7.53802 4.52424 8.41333L4.8009 8.68999C4.86031 8.7494 4.90363 8.87601 4.83962 9.03018C4.77315 9.19029 4.64757 9.25 4.56877 9.25H4.3117C3.17305 9.25 2.25 10.1731 2.25 11.3117V12.6883C2.25 13.8269 3.17305 14.75 4.3117 14.75H4.71979L4.72276 14.7506C4.72493 14.7514 4.72963 14.7533 4.73611 14.7581C4.75011 14.7683 4.76644 14.7871 4.77669 14.8134C4.78621 14.8379 4.78668 14.8593 4.78415 14.8732C4.78193 14.8853 4.77709 14.8902 4.77709 14.8902L4.45871 15.2085C3.61957 16.0477 3.61957 17.4082 4.45871 18.2473L5.42355 19.2121C6.19943 19.988 7.45739 19.988 8.23327 19.2121L8.27778 19.1676C8.39932 19.0461 8.63174 18.9871 8.885 19.0984C9.13415 19.2078 9.25 19.4125 9.25 19.5725V19.6883C9.25 20.8269 10.1731 21.75 11.3117 21.75H12.6883C13.8269 21.75 14.75 20.8269 14.75 19.6883V19.4312C14.75 19.3524 14.8097 19.2269 14.9698 19.1604C15.124 19.0964 15.2506 19.1397 15.31 19.1991L15.3971 19.2862C16.1321 20.0212 17.3238 20.0212 18.0587 19.2862L19.2862 18.0587C20.0212 17.3238 20.0212 16.1321 19.2862 15.3971L19.1991 15.31C19.1397 15.2506 19.0964 15.124 19.1604 14.9698C19.2269 14.8097 19.3524 14.75 19.4312 14.75H19.6883C20.8269 14.75 21.75 13.8269 21.75 12.6883V11.3117C21.75 10.1731 20.8269 9.25 19.6883 9.25H19.5725C19.4125 9.25 19.2078 9.13415 19.0984 8.885C18.9871 8.63174 19.0461 8.39932 19.1676 8.27778L19.2121 8.23328C19.988 7.4574 19.988 6.19945 19.2121 5.42358L18.2473 4.45871C17.4082 3.61959 16.0477 3.61959 15.2085 4.45871L14.8901 4.77713C14.8901 4.77713 14.8853 4.78193 14.8732 4.78415C14.8593 4.78668 14.8379 4.78621 14.8134 4.77669C14.7871 4.76644 14.7683 4.75011 14.7581 4.73611C14.7533 4.72963 14.7514 4.72493 14.7506 4.72276L14.75 4.71976V4.3117C14.75 3.17305 13.8269 2.25 12.6883 2.25H11.3117Z" fill="#5D5D5D"/>
<path d="M12 15C13.6569 15 15 13.6569 15 12C15 10.3431 13.6569 9 12 9C10.3431 9 9 10.3431 9 12C9 13.6569 10.3431 15 12 15Z" fill="#D9D9D9"/>
</svg>
