<svg width="24" height="24" viewBox="0 0 24 24" fill="none" xmlns="http://www.w3.org/2000/svg">
<path fill-rule="evenodd" clip-rule="evenodd" d="M13.3046 2.31458C13.6831 2.48281 13.8536 2.92603 13.6854 3.30455L11.9318 7.24994H16.2904L18.3146 2.69534C18.4829 2.31683 18.9261 2.14636 19.3046 2.31458C19.6831 2.48281 19.8536 2.92603 19.6854 3.30455L17.9318 7.24994H21C21.4142 7.24994 21.75 7.58573 21.75 7.99994C21.75 8.41416 21.4142 8.74994 21 8.74994H17.2652L14.3763 15.2499H19C19.4142 15.2499 19.75 15.5857 19.75 15.9999C19.75 16.4142 19.4142 16.7499 19 16.7499H13.7096L11.6854 21.3045C11.5171 21.6831 11.0739 21.8535 10.6954 21.6853C10.3169 21.5171 10.1464 21.0739 10.3146 20.6953L12.0682 16.7499H7.70963L5.68536 21.3045C5.51713 21.6831 5.07391 21.8535 4.6954 21.6853C4.31688 21.5171 4.14641 21.0739 4.31464 20.6953L6.06815 16.7499H3C2.58579 16.7499 2.25 16.4142 2.25 15.9999C2.25 15.5857 2.58579 15.2499 3 15.2499H6.73482L9.62371 8.74994H5C4.58579 8.74994 4.25 8.41416 4.25 7.99994C4.25 7.58573 4.58579 7.24994 5 7.24994H10.2904L12.3146 2.69534C12.4829 2.31683 12.9261 2.14636 13.3046 2.31458ZM11.2652 8.74994L8.37629 15.2499H12.7348L15.6237 8.74994H11.2652Z" fill="#5D5D5D"/>
</svg>
