<svg width="24" height="24" viewBox="0 0 24 24" fill="none" xmlns="http://www.w3.org/2000/svg">
<path fill-rule="evenodd" clip-rule="evenodd" d="M18.6708 5.66451C18.8561 6.03499 18.7059 6.4855 18.3354 6.67074L7.67705 11.9999L18.3354 17.3291C18.7059 17.5143 18.8561 17.9648 18.6708 18.3353C18.4856 18.7058 18.0351 18.856 17.6646 18.6707L5.66459 12.6707C5.4105 12.5437 5.25 12.284 5.25 11.9999C5.25 11.7158 5.4105 11.4561 5.66459 11.3291L17.6646 5.3291C18.0351 5.14386 18.4856 5.29403 18.6708 5.66451Z" fill="#D9D9D9"/>
<path d="M21 6C21 7.65685 19.6569 9 18 9C16.8255 9 15.8087 8.32508 15.3161 7.34193C15.1138 6.93815 15 6.48237 15 6C15 4.34315 16.3431 3 18 3C19.6569 3 21 4.34315 21 6Z" fill="#5D5D5D"/>
<path d="M21 18C21 19.6569 19.6569 21 18 21C16.3431 21 15 19.6569 15 18C15 17.5176 15.1138 17.0619 15.3161 16.6581C15.8087 15.6749 16.8255 15 18 15C19.6569 15 21 16.3431 21 18Z" fill="#5D5D5D"/>
<path d="M21 18C21 19.6569 19.6569 21 18 21C16.3431 21 15 19.6569 15 18C15 17.5176 15.1138 17.0619 15.3161 16.6581C15.8087 15.6749 16.8255 15 18 15C19.6569 15 21 16.3431 21 18Z" fill="#5D5D5D"/>
<path d="M9 12C9 12.4824 8.88616 12.9381 8.68387 13.3419C8.19134 14.3251 7.17449 15 6 15C4.34315 15 3 13.6569 3 12C3 10.3431 4.34315 9 6 9C7.17449 9 8.19134 9.67492 8.68387 10.6581C8.88616 11.0619 9 11.5176 9 12Z" fill="#5D5D5D"/>
<path d="M21 6C21 7.65685 19.6569 9 18 9C16.8255 9 15.8087 8.32508 15.3161 7.34193C15.1138 6.93815 15 6.48237 15 6C15 4.34315 16.3431 3 18 3C19.6569 3 21 4.34315 21 6Z" stroke="#5D5D5D" stroke-width="1.5" stroke-linecap="round" stroke-linejoin="round"/>
<path d="M21 18C21 19.6569 19.6569 21 18 21C16.3431 21 15 19.6569 15 18C15 17.5176 15.1138 17.0619 15.3161 16.6581C15.8087 15.6749 16.8255 15 18 15C19.6569 15 21 16.3431 21 18Z" stroke="#5D5D5D" stroke-width="1.5" stroke-linecap="round" stroke-linejoin="round"/>
<path d="M21 18C21 19.6569 19.6569 21 18 21C16.3431 21 15 19.6569 15 18C15 17.5176 15.1138 17.0619 15.3161 16.6581C15.8087 15.6749 16.8255 15 18 15C19.6569 15 21 16.3431 21 18Z" stroke="#5D5D5D" stroke-width="1.5" stroke-linecap="round" stroke-linejoin="round"/>
<path d="M9 12C9 12.4824 8.88616 12.9381 8.68387 13.3419C8.19134 14.3251 7.17449 15 6 15C4.34315 15 3 13.6569 3 12C3 10.3431 4.34315 9 6 9C7.17449 9 8.19134 9.67492 8.68387 10.6581C8.88616 11.0619 9 11.5176 9 12Z" stroke="#5D5D5D" stroke-width="1.5" stroke-linecap="round" stroke-linejoin="round"/>
</svg>
