<svg width="24" height="24" viewBox="0 0 24 24" fill="none" xmlns="http://www.w3.org/2000/svg">
<path d="M10.75 2.25C9.92157 2.25 9.25 2.92157 9.25 3.75C9.25 4.57843 9.92157 5.25 10.75 5.25H13.25C14.0784 5.25 14.75 4.57843 14.75 3.75C14.75 2.92157 14.0784 2.25 13.25 2.25H10.75Z" fill="#5D5D5D"/>
<path d="M8 3.75C6.48122 3.75 5.25 4.98122 5.25 6.5V11.5C5.25 11.7599 5.38459 12.0013 5.6057 12.138C5.82681 12.2746 6.10292 12.2871 6.33541 12.1708L11.441 9.61803C11.7929 9.44208 12.2071 9.44208 12.559 9.61803L17.6646 12.1708C17.8971 12.2871 18.1732 12.2746 18.3943 12.138C18.6154 12.0013 18.75 11.7599 18.75 11.5V6.5C18.75 4.98122 17.5188 3.75 16 3.75H8Z" fill="#D9D9D9"/>
<path d="M13.2298 8.27665C12.4556 7.88955 11.5444 7.88955 10.7702 8.27665L5.10701 11.1082C3.9495 11.687 3.35215 12.9945 3.67236 14.2484L4.43409 17.2311C4.68397 18.2095 5.47687 19.0561 6.57525 19.1908C6.88771 19.2291 7.20236 19.2522 7.50476 19.2502C8.86691 19.2416 10.6168 18.741 11.5336 18.449C11.8366 18.3525 12.1639 18.3524 12.4665 18.4489C13.3875 18.7425 15.1563 19.2503 16.5 19.2503C16.7902 19.2503 17.0932 19.227 17.3951 19.1896C18.4869 19.0541 19.2789 18.2164 19.5337 17.2432L20.3147 14.2599C20.6439 13.002 20.0472 11.6853 18.8841 11.1038L13.2298 8.27665Z" fill="#5D5D5D"/>
<path d="M20.7423 16.7959C21.1312 16.6536 21.5619 16.8534 21.7043 17.2424C21.8467 17.6314 21.6468 18.0621 21.2578 18.2045L21.2528 18.2063L21.2411 18.2106L21.1979 18.2261C21.1606 18.2393 21.1067 18.2583 21.0383 18.2818C20.9015 18.3289 20.7061 18.3944 20.4688 18.4694C19.9959 18.6188 19.3494 18.8078 18.6649 18.962C17.9638 19.1199 17.1853 19.2502 16.5 19.2502C15.1563 19.2502 13.3875 18.7425 12.4665 18.4489C12.1639 18.3524 11.8366 18.3524 11.5336 18.4489C10.6168 18.741 8.86691 19.2415 7.50476 19.2502C6.79932 19.2547 6.00641 19.1226 5.29736 18.9617C4.6166 18.8072 3.97847 18.6179 3.51278 18.4682C3.27918 18.3931 3.0872 18.3275 2.95281 18.2802C2.88557 18.2566 2.83265 18.2376 2.79602 18.2243L2.75352 18.2087L2.74188 18.2044L2.7375 18.2028C2.34962 18.0575 2.15236 17.625 2.29767 17.2371C2.44297 16.8492 2.87513 16.6526 3.26299 16.7978L3.26485 16.7985L3.27314 16.8016L3.30862 16.8146C3.34044 16.8261 3.3882 16.8433 3.44994 16.865C3.57351 16.9084 3.75266 16.9697 3.97177 17.0402C4.41149 17.1815 5.00503 17.3572 5.62935 17.4989C6.29515 17.65 6.95854 17.7536 7.49525 17.7502C8.60335 17.7432 10.1551 17.3138 11.0783 17.0197C11.6772 16.8289 12.3229 16.8287 12.9221 17.0197C13.8552 17.3172 15.4183 17.7502 16.5 17.7502C17.0215 17.7502 17.6742 17.6476 18.3352 17.4987C18.9652 17.3567 19.5687 17.1807 20.0171 17.039C20.2405 16.9685 20.4237 16.907 20.5502 16.8634C20.6134 16.8417 20.6624 16.8244 20.6951 16.8128L20.7317 16.7997L20.7403 16.7966L20.7423 16.7959Z" fill="#D9D9D9"/>
</svg>
