<svg width="24" height="24" viewBox="0 0 24 24" fill="none" xmlns="http://www.w3.org/2000/svg">
<path d="M8 3.25C7.58579 3.25 7.25 3.58579 7.25 4V7C7.25 7.41421 7.58579 7.75 8 7.75H11C11.2411 7.75 11.4675 7.63411 11.6084 7.43853C11.7494 7.24296 11.7877 6.99154 11.7115 6.76283L10.7115 3.76283C10.6094 3.45657 10.3228 3.25 10 3.25H8Z" fill="#5D5D5D"/>
<path d="M6 6.25C5.58579 6.25 5.25 6.58579 5.25 7V11C5.25 11.4142 5.58579 11.75 6 11.75H14C14.231 11.75 14.449 11.6436 14.5912 11.4616C14.7333 11.2795 14.7836 11.0422 14.7276 10.8181L13.7276 6.8181C13.6441 6.48422 13.3442 6.25 13 6.25H6Z" fill="#D9D9D9"/>
<path fill-rule="evenodd" clip-rule="evenodd" d="M3.25 11C3.25 10.5858 3.58579 10.25 4 10.25H21C21.4142 10.25 21.75 10.5858 21.75 11C21.75 13.3343 20.6514 15.9331 20.0664 17.1619C19.7291 17.8705 19.0808 18.3821 18.3068 18.5383C17.7102 18.6588 17.0741 18.75 16.5 18.75C15.1563 18.75 13.3875 18.2423 12.4665 17.9486C12.1698 17.8541 11.8493 17.8522 11.5514 17.9432C11.5454 17.945 11.5395 17.9468 11.5336 17.9487C10.6168 18.2408 8.8669 18.7413 7.50476 18.75C7.01323 18.7531 6.48379 18.6901 5.97594 18.5996C4.94808 18.4165 4.18034 17.6174 3.96497 16.6358C3.67586 15.3182 3.25 13.0392 3.25 11Z" fill="#5D5D5D"/>
<path d="M20.7423 16.7959C21.1312 16.6536 21.5619 16.8534 21.7043 17.2424C21.8467 17.6314 21.6468 18.0621 21.2578 18.2045L21.2528 18.2063L21.2411 18.2106L21.1979 18.2261C21.1606 18.2393 21.1067 18.2583 21.0383 18.2818C20.9015 18.3289 20.7061 18.3944 20.4688 18.4694C19.9959 18.6188 19.3494 18.8078 18.6649 18.962C17.9638 19.1199 17.1853 19.2502 16.5 19.2502C15.1563 19.2502 13.3875 18.7425 12.4665 18.4489C12.1639 18.3524 11.8366 18.3524 11.5336 18.4489C10.6168 18.741 8.86691 19.2415 7.50476 19.2502C6.79932 19.2547 6.00641 19.1226 5.29736 18.9617C4.6166 18.8072 3.97847 18.6179 3.51278 18.4682C3.27918 18.3931 3.0872 18.3275 2.95281 18.2802C2.88557 18.2566 2.83265 18.2376 2.79602 18.2243L2.75352 18.2087L2.74188 18.2044L2.7375 18.2028C2.34962 18.0575 2.15236 17.625 2.29767 17.2371C2.44297 16.8492 2.87513 16.6526 3.26299 16.7978L3.26485 16.7985L3.27314 16.8016L3.30862 16.8146C3.34044 16.8261 3.3882 16.8433 3.44994 16.865C3.57351 16.9084 3.75266 16.9697 3.97177 17.0402C4.41149 17.1815 5.00503 17.3572 5.62935 17.4989C6.29515 17.65 6.95854 17.7536 7.49525 17.7502C8.60335 17.7432 10.1551 17.3138 11.0783 17.0197C11.6772 16.8289 12.3229 16.8287 12.9221 17.0197C13.8552 17.3172 15.4183 17.7502 16.5 17.7502C17.0215 17.7502 17.6742 17.6476 18.3352 17.4987C18.9652 17.3567 19.5687 17.1807 20.0171 17.039C20.2405 16.9685 20.4237 16.907 20.5502 16.8634C20.6134 16.8417 20.6624 16.8244 20.6951 16.8128L20.7317 16.7997L20.7403 16.7966L20.7423 16.7959Z" fill="#D9D9D9"/>
</svg>
