<svg width="24" height="24" viewBox="0 0 24 24" fill="none" xmlns="http://www.w3.org/2000/svg">
<path d="M12 2.25C6.61522 2.25 2.25 6.61522 2.25 12C2.25 17.3848 6.61522 21.75 12 21.75C17.3848 21.75 21.75 17.3848 21.75 12C21.75 6.61522 17.3848 2.25 12 2.25Z" fill="#5D5D5D"/>
<path d="M9 8.25C8.58579 8.25 8.25 8.58579 8.25 9C8.25 9.41421 8.58579 9.75 9 9.75H9.00898C9.4232 9.75 9.75898 9.41421 9.75898 9C9.75898 8.58579 9.4232 8.25 9.00898 8.25H9Z" fill="#D9D9D9"/>
<path d="M15 8.25C14.5858 8.25 14.25 8.58579 14.25 9C14.25 9.41421 14.5858 9.75 15 9.75H15.009C15.4232 9.75 15.759 9.41421 15.759 9C15.759 8.58579 15.4232 8.25 15.009 8.25H15Z" fill="#D9D9D9"/>
<path d="M11 13.25C10.5858 13.25 10.25 13.5858 10.25 14C10.25 14.4142 10.5858 14.75 11 14.75H13C13.4142 14.75 13.75 14.4142 13.75 14C13.75 13.5858 13.4142 13.25 13 13.25H11Z" fill="#D9D9D9"/>
</svg>
