<svg width="24" height="24" viewBox="0 0 24 24" fill="none" xmlns="http://www.w3.org/2000/svg">
<path d="M4.00024 3.25C3.58603 3.25 3.25024 3.58579 3.25024 4C3.25024 4.41421 3.58603 4.75 4.00024 4.75H4.53657L5.25024 6.17708V13C5.25024 14.5188 6.48146 15.75 8.00024 15.75H18.2102C19.6114 15.75 20.7886 14.6964 20.9433 13.3037L21.4989 8.30369C21.6799 6.67468 20.4047 5.25 18.7657 5.25H6.46373L5.67085 3.66454C5.54379 3.41048 5.28411 3.25 5.00005 3.25H4.00024Z" fill="#5D5D5D"/>
<path d="M8.00024 18.25C7.03375 18.25 6.25024 19.0335 6.25024 20C6.25024 20.9665 7.03375 21.75 8.00024 21.75C8.96674 21.75 9.75024 20.9665 9.75024 20C9.75024 19.0335 8.96674 18.25 8.00024 18.25Z" fill="#D9D9D9"/>
<path d="M17.0002 18.25C16.0337 18.25 15.2502 19.0335 15.2502 20C15.2502 20.9665 16.0337 21.75 17.0002 21.75C17.9667 21.75 18.7502 20.9665 18.7502 20C18.7502 19.0335 17.9667 18.25 17.0002 18.25Z" fill="#D9D9D9"/>
</svg>
