<svg width="24" height="24" viewBox="0 0 24 24" fill="none" xmlns="http://www.w3.org/2000/svg">
<path fill-rule="evenodd" clip-rule="evenodd" d="M17.4697 3.46967C17.7626 3.17678 18.2374 3.17678 18.5303 3.46967L21.5303 6.46967C21.8232 6.76256 21.8232 7.23744 21.5303 7.53033L18.5303 10.5303C18.2374 10.8232 17.7626 10.8232 17.4697 10.5303C17.1768 10.2374 17.1768 9.76256 17.4697 9.46967L19.1893 7.75H17.9225C16.9352 7.75 16.0014 8.19879 15.3847 8.96974L12.9605 12L15.3847 15.0303C16.0014 15.8012 16.9352 16.25 17.9225 16.25H19.1893L17.4697 14.5303C17.1768 14.2374 17.1768 13.7626 17.4697 13.4697C17.7626 13.1768 18.2374 13.1768 18.5303 13.4697L21.5303 16.4697C21.8232 16.7626 21.8232 17.2374 21.5303 17.5303L18.5303 20.5303C18.2374 20.8232 17.7626 20.8232 17.4697 20.5303C17.1768 20.2374 17.1768 19.7626 17.4697 19.4697L19.1893 17.75H17.9225C16.4795 17.75 15.1148 17.0941 14.2134 15.9673L12 13.2006L9.78663 15.9673C8.88521 17.0941 7.52047 17.75 6.0775 17.75H3C2.58579 17.75 2.25 17.4142 2.25 17C2.25 16.5858 2.58579 16.25 3 16.25H6.0775C7.0648 16.25 7.99856 15.8012 8.61532 15.0303L11.0395 12L8.61532 8.96974C7.99857 8.19879 7.0648 7.75 6.0775 7.75H3C2.58579 7.75 2.25 7.41421 2.25 7C2.25 6.58579 2.58579 6.25 3 6.25H6.0775C7.52047 6.25 8.88521 6.90593 9.78663 8.0327L12 10.7994L14.2134 8.0327C15.1148 6.90593 16.4795 6.25 17.9225 6.25H19.1893L17.4697 4.53033C17.1768 4.23744 17.1768 3.76256 17.4697 3.46967Z" fill="#5D5D5D"/>
</svg>
