<svg width="24" height="24" viewBox="0 0 24 24" fill="none" xmlns="http://www.w3.org/2000/svg">
<path fill-rule="evenodd" clip-rule="evenodd" d="M4.25 6C4.25 4.48122 5.48122 3.25 7 3.25H13C13.4142 3.25 13.75 3.58579 13.75 4C13.75 4.41421 13.4142 4.75 13 4.75H7C6.30964 4.75 5.75 5.30964 5.75 6V18C5.75 18.6904 6.30964 19.25 7 19.25H13C13.4142 19.25 13.75 19.5858 13.75 20C13.75 20.4142 13.4142 20.75 13 20.75H7C5.48122 20.75 4.25 19.5188 4.25 18V6Z" fill="#D9D9D9"/>
<path fill-rule="evenodd" clip-rule="evenodd" d="M15.55 7.40004C15.8814 7.15152 16.3515 7.21867 16.6 7.55004L19.6 11.55C19.8 11.8167 19.8 12.1834 19.6 12.45L16.6 16.45C16.3515 16.7814 15.8814 16.8486 15.55 16.6C15.2186 16.3515 15.1515 15.8814 15.4 15.55L17.5 12.75H9C8.58579 12.75 8.25 12.4143 8.25 12C8.25 11.5858 8.58579 11.25 9 11.25H17.5L15.4 8.45004C15.1515 8.11867 15.2186 7.64857 15.55 7.40004Z" fill="#5D5D5D"/>
</svg>
