<svg width="24" height="24" viewBox="0 0 24 24" fill="none" xmlns="http://www.w3.org/2000/svg">
<path fill-rule="evenodd" clip-rule="evenodd" d="M10.25 4C10.25 3.58579 10.5858 3.25 11 3.25H17C18.5188 3.25 19.75 4.48122 19.75 6V18C19.75 19.5188 18.5188 20.75 17 20.75H11C10.5858 20.75 10.25 20.4142 10.25 20C10.25 19.5858 10.5858 19.25 11 19.25H17C17.6904 19.25 18.25 18.6904 18.25 18V6C18.25 5.30964 17.6904 4.75 17 4.75H11C10.5858 4.75 10.25 4.41421 10.25 4Z" fill="#D9D9D9"/>
<path fill-rule="evenodd" clip-rule="evenodd" d="M11.55 7.40004C11.8814 7.15152 12.3515 7.21867 12.6 7.55004L15.6 11.55C15.8 11.8167 15.8 12.1834 15.6 12.45L12.6 16.45C12.3515 16.7814 11.8814 16.8486 11.55 16.6C11.2186 16.3515 11.1515 15.8814 11.4 15.55L13.5 12.75H5C4.58579 12.75 4.25 12.4143 4.25 12C4.25 11.5858 4.58579 11.25 5 11.25H13.5L11.4 8.45004C11.1515 8.11867 11.2186 7.64857 11.55 7.40004Z" fill="#5D5D5D"/>
</svg>
