<svg width="24" height="24" viewBox="0 0 24 24" fill="none" xmlns="http://www.w3.org/2000/svg">
<path d="M14.3616 4.34294C14.6012 4.47478 14.75 4.72655 14.75 5V19C14.75 19.2734 14.6012 19.5252 14.3616 19.6571C14.1221 19.7889 13.8297 19.7799 13.5987 19.6336L7.46669 15.75H4C3.72987 15.75 3.48061 15.6047 3.34745 15.3697L3.34585 15.3669L3.34282 15.3615L3.33262 15.3431C3.32405 15.3277 3.31201 15.3057 3.29699 15.2779C3.26697 15.2223 3.22495 15.1429 3.17492 15.0443C3.07516 14.8477 2.94205 14.5717 2.80844 14.2534C2.55282 13.6443 2.25 12.7768 2.25 12C2.25 11.2232 2.55282 10.3557 2.80844 9.74663C2.94205 9.42831 3.07516 9.15235 3.17492 8.95573C3.22495 8.85713 3.26697 8.77774 3.29699 8.7221C3.31201 8.69427 3.32405 8.67233 3.33262 8.65685L3.34282 8.63853L3.34585 8.63313L3.34733 8.63051C3.48049 8.39548 3.72987 8.25 4 8.25H7.46669L13.5987 4.36639C13.8297 4.22008 14.1221 4.21109 14.3616 4.34294Z" fill="#5D5D5D"/>
<path fill-rule="evenodd" clip-rule="evenodd" d="M3.46967 3.46967C3.76256 3.17678 4.23744 3.17678 4.53033 3.46967L20.5303 19.4697C20.8232 19.7626 20.8232 20.2374 20.5303 20.5303C20.2374 20.8232 19.7626 20.8232 19.4697 20.5303L3.46967 4.53033C3.17678 4.23744 3.17678 3.76256 3.46967 3.46967Z" fill="black"/>
</svg>
