<svg width="24" height="24" viewBox="0 0 24 24" fill="none" xmlns="http://www.w3.org/2000/svg">
<path fill-rule="evenodd" clip-rule="evenodd" d="M4.25 9C4.25 6.37665 6.37665 4.25 9 4.25C11.6234 4.25 13.75 6.37665 13.75 9V19C13.75 19.4142 13.4142 19.75 13 19.75C12.5858 19.75 12.25 19.4142 12.25 19V12.75H5.75V19C5.75 19.4142 5.41421 19.75 5 19.75C4.58579 19.75 4.25 19.4142 4.25 19V9ZM5.75 11.25H12.25V9C12.25 7.20507 10.7949 5.75 9 5.75C7.20507 5.75 5.75 7.20507 5.75 9V11.25Z" fill="#5D5D5D"/>
<path fill-rule="evenodd" clip-rule="evenodd" d="M18.4697 4.46967C18.7626 4.17678 19.2374 4.17678 19.5303 4.46967L21.5303 6.46967C21.8232 6.76256 21.8232 7.23744 21.5303 7.53033C21.2374 7.82322 20.7626 7.82322 20.4697 7.53033L19 6.06066L17.5303 7.53033C17.2374 7.82322 16.7626 7.82322 16.4697 7.53033C16.1768 7.23744 16.1768 6.76256 16.4697 6.46967L18.4697 4.46967Z" fill="#D9D9D9"/>
</svg>
