<svg width="24" height="24" viewBox="0 0 24 24" fill="none" xmlns="http://www.w3.org/2000/svg">
<path fill-rule="evenodd" clip-rule="evenodd" d="M12 2.25C6.61522 2.25 2.25 6.61522 2.25 12C2.25 17.3848 6.61522 21.75 12 21.75C17.3848 21.75 21.75 17.3848 21.75 12C21.75 6.61522 17.3848 2.25 12 2.25Z" fill="#5D5D5D"/>
<path d="M9 8.25C8.58579 8.25 8.25 8.58579 8.25 9C8.25 9.41421 8.58579 9.75 9 9.75H9.00898C9.4232 9.75 9.75898 9.41421 9.75898 9C9.75898 8.58579 9.4232 8.25 9.00898 8.25H9Z" fill="#D9D9D9"/>
<path d="M15 8.25C14.5858 8.25 14.25 8.58579 14.25 9C14.25 9.41421 14.5858 9.75 15 9.75H15.009C15.4232 9.75 15.759 9.41421 15.759 9C15.759 8.58579 15.4232 8.25 15.009 8.25H15Z" fill="#D9D9D9"/>
<path d="M7 11.25C6.58579 11.25 6.25 11.5858 6.25 12C6.25 12.9678 6.79199 14.3781 7.71435 15.531C8.65572 16.7077 10.1015 17.75 12 17.75C13.8566 17.75 15.3045 16.8733 16.2715 15.7357C17.2235 14.6157 17.75 13.1973 17.75 12C17.75 11.5858 17.4142 11.25 17 11.25H7Z" fill="#D9D9D9"/>
</svg>
