<svg width="24" height="24" viewBox="0 0 24 24" fill="none" xmlns="http://www.w3.org/2000/svg">
<path fill-rule="evenodd" clip-rule="evenodd" d="M8.46963 2.46967C8.76252 2.17678 9.2374 2.17678 9.53029 2.46967L12 4.93934L14.4696 2.46967C14.7625 2.17678 15.2374 2.17678 15.5303 2.46967C15.8232 2.76256 15.8232 3.23744 15.5303 3.53033L12.75 6.31066V10.7865L17.3867 8.46811L18.2884 5.76283C18.4194 5.36987 18.8442 5.1575 19.2371 5.28849C19.6301 5.41947 19.8425 5.84421 19.7115 6.23717L18.9486 8.52566L21.2371 9.28849C21.6301 9.41947 21.8425 9.84421 21.7115 10.2372C21.5805 10.6301 21.1557 10.8425 20.7628 10.7115L18.0575 9.80975L13.677 12L18.0575 14.1902L20.7628 13.2885C21.1557 13.1575 21.5805 13.3699 21.7115 13.7628C21.8425 14.1558 21.6301 14.5805 21.2371 14.7115L18.9486 15.4743L19.7115 17.7628C19.8425 18.1558 19.6301 18.5805 19.2371 18.7115C18.8442 18.8425 18.4194 18.6301 18.2884 18.2372L17.3867 15.5319L12.75 13.2135V17.6893L15.5303 20.4697C15.8232 20.7626 15.8232 21.2374 15.5303 21.5303C15.2374 21.8232 14.7625 21.8232 14.4696 21.5303L12 19.0607L9.53029 21.5303C9.2374 21.8232 8.76252 21.8232 8.46963 21.5303C8.17674 21.2374 8.17674 20.7626 8.46963 20.4697L11.25 17.6893V13.2135L6.61323 15.5319L5.71147 18.2372C5.58049 18.6301 5.15575 18.8425 4.76279 18.7115C4.36983 18.5805 4.15746 18.1558 4.28845 17.7628L5.05128 15.4743L2.76279 14.7115C2.36983 14.5805 2.15746 14.1558 2.28845 13.7628C2.41943 13.3699 2.84417 13.1575 3.23713 13.2885L5.94241 14.1902L10.3229 12L5.94241 9.80975L3.23713 10.7115C2.84417 10.8425 2.41943 10.6301 2.28845 10.2372C2.15746 9.84421 2.36983 9.41947 2.76279 9.28849L5.24996 8.45943V5C5.24996 4.58579 5.58575 4.25 5.99996 4.25C6.41417 4.25 6.74996 4.58579 6.74996 5V8.53647L11.25 10.7865V6.31066L8.46963 3.53033C8.17674 3.23744 8.17674 2.76256 8.46963 2.46967Z" fill="#5D5D5D"/>
</svg>
