<svg width="24" height="24" viewBox="0 0 24 24" fill="none" xmlns="http://www.w3.org/2000/svg">
<path d="M12 2.25C9.37192 2.25 7.15689 4.01248 6.47008 6.41973C4.13909 6.9515 2.25 8.71034 2.25 11C2.25 13.7709 4.98919 15.75 8 15.75H16C19.0108 15.75 21.75 13.7709 21.75 11C21.75 8.71034 19.8609 6.9515 17.5299 6.41973C16.8431 4.01248 14.6281 2.25 12 2.25Z" fill="#5D5D5D"/>
<path d="M6 17.25C5.58579 17.25 5.25 17.5858 5.25 18C5.25 18.4142 5.58579 18.75 6 18.75H6.00898C6.4232 18.75 6.75898 18.4142 6.75898 18C6.75898 17.5858 6.4232 17.25 6.00898 17.25H6Z" fill="#D9D9D9"/>
<path d="M10 17.25C9.58579 17.25 9.25 17.5858 9.25 18C9.25 18.4142 9.58579 18.75 10 18.75H10.009C10.4232 18.75 10.759 18.4142 10.759 18C10.759 17.5858 10.4232 17.25 10.009 17.25H10Z" fill="#D9D9D9"/>
<path d="M14 17.25C13.5858 17.25 13.25 17.5858 13.25 18C13.25 18.4142 13.5858 18.75 14 18.75H14.009C14.4232 18.75 14.759 18.4142 14.759 18C14.759 17.5858 14.4232 17.25 14.009 17.25H14Z" fill="#D9D9D9"/>
<path d="M18 17.25C17.5858 17.25 17.25 17.5858 17.25 18C17.25 18.4142 17.5858 18.75 18 18.75H18.009C18.4232 18.75 18.759 18.4142 18.759 18C18.759 17.5858 18.4232 17.25 18.009 17.25H18Z" fill="#D9D9D9"/>
<path d="M6 20.25C5.58579 20.25 5.25 20.5858 5.25 21C5.25 21.4142 5.58579 21.75 6 21.75H6.00898C6.4232 21.75 6.75898 21.4142 6.75898 21C6.75898 20.5858 6.4232 20.25 6.00898 20.25H6Z" fill="#D9D9D9"/>
<path d="M10 20.25C9.58579 20.25 9.25 20.5858 9.25 21C9.25 21.4142 9.58579 21.75 10 21.75H10.009C10.4232 21.75 10.759 21.4142 10.759 21C10.759 20.5858 10.4232 20.25 10.009 20.25H10Z" fill="#D9D9D9"/>
<path d="M14 20.25C13.5858 20.25 13.25 20.5858 13.25 21C13.25 21.4142 13.5858 21.75 14 21.75H14.009C14.4232 21.75 14.759 21.4142 14.759 21C14.759 20.5858 14.4232 20.25 14.009 20.25H14Z" fill="#D9D9D9"/>
<path d="M18 20.25C17.5858 20.25 17.25 20.5858 17.25 21C17.25 21.4142 17.5858 21.75 18 21.75H18.009C18.4232 21.75 18.759 21.4142 18.759 21C18.759 20.5858 18.4232 20.25 18.009 20.25H18Z" fill="#D9D9D9"/>
</svg>
