<svg width="24" height="24" viewBox="0 0 24 24" fill="none" xmlns="http://www.w3.org/2000/svg">
<path d="M7.00002 4.25C6.80111 4.25 6.61034 4.32902 6.46969 4.46967L4.46969 6.46967C4.25519 6.68417 4.19103 7.00676 4.30711 7.28701C4.4232 7.56727 4.69668 7.75 5.00002 7.75H17C17.1989 7.75 17.3897 7.67098 17.5304 7.53033L19.5304 5.53033C19.7449 5.31583 19.809 4.99324 19.6929 4.71299C19.5768 4.43273 19.3034 4.25 19 4.25H7.00002Z" fill="#5D5D5D"/>
<path d="M5.00002 10.25C4.69668 10.25 4.4232 10.4327 4.30711 10.713C4.19103 10.9932 4.25519 11.3158 4.46969 11.5303L6.46969 13.5303C6.61034 13.671 6.80111 13.75 7.00002 13.75H19C19.3034 13.75 19.5768 13.5673 19.6929 13.287C19.809 13.0068 19.7449 12.6842 19.5304 12.4697L17.5304 10.4697C17.3897 10.329 17.1989 10.25 17 10.25H5.00002Z" fill="#5D5D5D"/>
<path d="M7.00002 16.25C6.80111 16.25 6.61034 16.329 6.46969 16.4697L4.46969 18.4697C4.25519 18.6842 4.19103 19.0068 4.30711 19.287C4.4232 19.5673 4.69668 19.75 5.00002 19.75H17C17.1989 19.75 17.3897 19.671 17.5304 19.5303L19.5304 17.5303C19.7449 17.3158 19.809 16.9932 19.6929 16.713C19.5768 16.4327 19.3034 16.25 19 16.25H7.00002Z" fill="#5D5D5D"/>
</svg>
