<svg width="24" height="24" viewBox="0 0 24 24" fill="none" xmlns="http://www.w3.org/2000/svg">
<path fill-rule="evenodd" clip-rule="evenodd" d="M7 2.25C7.41421 2.25 7.75 2.58579 7.75 3V19.1893L10.4697 16.4697C10.7626 16.1768 11.2374 16.1768 11.5303 16.4697C11.8232 16.7626 11.8232 17.2374 11.5303 17.5303L7.53033 21.5303C7.23744 21.8232 6.76256 21.8232 6.46967 21.5303L2.46967 17.5303C2.17678 17.2374 2.17678 16.7626 2.46967 16.4697C2.76256 16.1768 3.23744 16.1768 3.53033 16.4697L6.25 19.1893V3C6.25 2.58579 6.58579 2.25 7 2.25Z" fill="#5D5D5D"/>
<path fill-rule="evenodd" clip-rule="evenodd" d="M14.25 5C14.25 4.58579 14.5858 4.25 15 4.25H17C17.4142 4.25 17.75 4.58579 17.75 5C17.75 5.41421 17.4142 5.75 17 5.75H15C14.5858 5.75 14.25 5.41421 14.25 5ZM14.25 9C14.25 8.58579 14.5858 8.25 15 8.25H19C19.4142 8.25 19.75 8.58579 19.75 9C19.75 9.41421 19.4142 9.75 19 9.75H15C14.5858 9.75 14.25 9.41421 14.25 9ZM14.25 13C14.25 12.5858 14.5858 12.25 15 12.25H21C21.4142 12.25 21.75 12.5858 21.75 13C21.75 13.4142 21.4142 13.75 21 13.75H15C14.5858 13.75 14.25 13.4142 14.25 13Z" fill="#D9D9D9"/>
</svg>
