<svg width="24" height="24" viewBox="0 0 24 24" fill="none" xmlns="http://www.w3.org/2000/svg">
<path fill-rule="evenodd" clip-rule="evenodd" d="M6.75 2C7.16421 2 7.5 2.33579 7.5 2.75V18.9393L10.2197 16.2197C10.5126 15.9268 10.9874 15.9268 11.2803 16.2197C11.5732 16.5126 11.5732 16.9874 11.2803 17.2803L7.28033 21.2803C6.98744 21.5732 6.51256 21.5732 6.21967 21.2803L2.21967 17.2803C1.92678 16.9874 1.92678 16.5126 2.21967 16.2197C2.51256 15.9268 2.98744 15.9268 3.28033 16.2197L6 18.9393V2.75C6 2.33579 6.33579 2 6.75 2Z" fill="#5D5D5D"/>
<path fill-rule="evenodd" clip-rule="evenodd" d="M14.25 5C14.25 4.58579 14.5858 4.25 15 4.25H21C21.4142 4.25 21.75 4.58579 21.75 5C21.75 5.41421 21.4142 5.75 21 5.75H15C14.5858 5.75 14.25 5.41421 14.25 5ZM14.25 9C14.25 8.58579 14.5858 8.25 15 8.25H19C19.4142 8.25 19.75 8.58579 19.75 9C19.75 9.41421 19.4142 9.75 19 9.75H15C14.5858 9.75 14.25 9.41421 14.25 9ZM14.25 13C14.25 12.5858 14.5858 12.25 15 12.25H17C17.4142 12.25 17.75 12.5858 17.75 13C17.75 13.4142 17.4142 13.75 17 13.75H15C14.5858 13.75 14.25 13.4142 14.25 13Z" fill="#D9D9D9"/>
</svg>
