<svg width="24" height="24" viewBox="0 0 24 24" fill="none" xmlns="http://www.w3.org/2000/svg">
<path fill-rule="evenodd" clip-rule="evenodd" d="M7 2.25C7.41421 2.25 7.75 2.58579 7.75 3V19.1893L10.4697 16.4697C10.7626 16.1768 11.2374 16.1768 11.5303 16.4697C11.8232 16.7626 11.8232 17.2374 11.5303 17.5303L7.53033 21.5303C7.23744 21.8232 6.76256 21.8232 6.46967 21.5303L2.46967 17.5303C2.17678 17.2374 2.17678 16.7626 2.46967 16.4697C2.76256 16.1768 3.23744 16.1768 3.53033 16.4697L6.25 19.1893V3C6.25 2.58579 6.58579 2.25 7 2.25Z" fill="#5D5D5D"/>
<path fill-rule="evenodd" clip-rule="evenodd" d="M18.287 3.30711C18.5673 3.4232 18.75 3.69668 18.75 4.00002V10C18.75 10.4142 18.4142 10.75 18 10.75C17.5858 10.75 17.25 10.4142 17.25 10V5.81068L16.5303 6.53035C16.2374 6.82325 15.7626 6.82325 15.4697 6.53035C15.1768 6.23746 15.1768 5.76259 15.4697 5.46969L17.4697 3.46969C17.6842 3.25519 18.0068 3.19103 18.287 3.30711ZM15.25 14C15.25 13.5858 15.5858 13.25 16 13.25H19C19.4142 13.25 19.75 13.5858 19.75 14V20C19.75 20.4142 19.4142 20.75 19 20.75H16C15.5858 20.75 15.25 20.4142 15.25 20C15.25 19.5858 15.5858 19.25 16 19.25H18.25V17.75H16C15.5858 17.75 15.25 17.4142 15.25 17C15.25 16.5858 15.5858 16.25 16 16.25H18.25V14.75H16C15.5858 14.75 15.25 14.4142 15.25 14Z" fill="#D9D9D9"/>
</svg>
