<svg width="24" height="24" viewBox="0 0 24 24" fill="none" xmlns="http://www.w3.org/2000/svg">
<path fill-rule="evenodd" clip-rule="evenodd" d="M7 2.25C7.41421 2.25 7.75 2.58579 7.75 3V19.1893L10.4697 16.4697C10.7626 16.1768 11.2374 16.1768 11.5303 16.4697C11.8232 16.7626 11.8232 17.2374 11.5303 17.5303L7.53033 21.5303C7.23744 21.8232 6.76256 21.8232 6.46967 21.5303L2.46967 17.5303C2.17678 17.2374 2.17678 16.7626 2.46967 16.4697C2.76256 16.1768 3.23744 16.1768 3.53033 16.4697L6.25 19.1893V3C6.25 2.58579 6.58579 2.25 7 2.25Z" fill="#5D5D5D"/>
<path fill-rule="evenodd" clip-rule="evenodd" d="M14.25 4C14.25 3.58579 14.5858 3.25 15 3.25H20C20.291 3.25 20.5558 3.41834 20.6792 3.68188C20.8026 3.94542 20.7625 4.25658 20.5762 4.48014L16.6013 9.25H20C20.4142 9.25 20.75 9.58579 20.75 10C20.75 10.4142 20.4142 10.75 20 10.75H15C14.709 10.75 14.4442 10.5817 14.3208 10.3181C14.1974 10.0546 14.2375 9.74342 14.4238 9.51986L18.3987 4.75H15C14.5858 4.75 14.25 4.41421 14.25 4ZM17.5 14.75C16.5335 14.75 15.75 15.5335 15.75 16.5V17.25H19.25V16.5C19.25 15.5335 18.4665 14.75 17.5 14.75ZM20.75 16.5C20.75 14.7051 19.2949 13.25 17.5 13.25C15.7051 13.25 14.25 14.7051 14.25 16.5V20C14.25 20.4142 14.5858 20.75 15 20.75C15.4142 20.75 15.75 20.4142 15.75 20V18.75H19.25V20C19.25 20.4142 19.5858 20.75 20 20.75C20.4142 20.75 20.75 20.4142 20.75 20V16.5Z" fill="#D9D9D9"/>
</svg>
