<svg width="24" height="24" viewBox="0 0 24 24" fill="none" xmlns="http://www.w3.org/2000/svg">
<path fill-rule="evenodd" clip-rule="evenodd" d="M14.25 6.5C14.25 4.70507 15.7051 3.25 17.5 3.25C19.2949 3.25 20.75 4.70507 20.75 6.5V10C20.75 10.4142 20.4142 10.75 20 10.75C19.5858 10.75 19.25 10.4142 19.25 10V8.75H15.75V10C15.75 10.4142 15.4142 10.75 15 10.75C14.5858 10.75 14.25 10.4142 14.25 10V6.5ZM15.75 7.25H19.25V6.5C19.25 5.5335 18.4665 4.75 17.5 4.75C16.5335 4.75 15.75 5.5335 15.75 6.5V7.25ZM14.25 14C14.25 13.5858 14.5858 13.25 15 13.25H20C20.291 13.25 20.5558 13.4183 20.6792 13.6819C20.8026 13.9454 20.7625 14.2566 20.5762 14.4801L16.6013 19.25H20C20.4142 19.25 20.75 19.5858 20.75 20C20.75 20.4142 20.4142 20.75 20 20.75H15C14.709 20.75 14.4442 20.5817 14.3208 20.3181C14.1974 20.0546 14.2375 19.7434 14.4238 19.5199L18.3987 14.75H15C14.5858 14.75 14.25 14.4142 14.25 14Z" fill="#D9D9D9"/>
<path fill-rule="evenodd" clip-rule="evenodd" d="M7 2.25C7.41421 2.25 7.75 2.58579 7.75 3V19.1893L10.4697 16.4697C10.7626 16.1768 11.2374 16.1768 11.5303 16.4697C11.8232 16.7626 11.8232 17.2374 11.5303 17.5303L7.53033 21.5303C7.23744 21.8232 6.76256 21.8232 6.46967 21.5303L2.46967 17.5303C2.17678 17.2374 2.17678 16.7626 2.46967 16.4697C2.76256 16.1768 3.23744 16.1768 3.53033 16.4697L6.25 19.1893V3C6.25 2.58579 6.58579 2.25 7 2.25Z" fill="#5D5D5D"/>
</svg>
