<svg width="24" height="24" viewBox="0 0 24 24" fill="none" xmlns="http://www.w3.org/2000/svg">
<path d="M18.2197 5.21967C18.5126 4.92678 18.9874 4.92678 19.2803 5.21967L19.2815 5.2208L19.2828 5.22212L19.2859 5.22533L19.2944 5.23401C19.301 5.24081 19.3095 5.24964 19.3196 5.26048C19.34 5.28217 19.3672 5.31196 19.4004 5.34987C19.4667 5.42567 19.5568 5.53402 19.6625 5.675C19.8739 5.95685 20.1485 6.36996 20.4208 6.91459C20.9667 8.00631 21.5 9.62043 21.5 11.75C21.5 13.8796 20.9667 15.4937 20.4208 16.5854C20.1485 17.13 19.8739 17.5432 19.6625 17.825C19.5568 17.966 19.4667 18.0743 19.4004 18.1501C19.3672 18.188 19.34 18.2178 19.3196 18.2395C19.3095 18.2504 19.301 18.2592 19.2944 18.266L19.2859 18.2747L19.2828 18.2779L19.2815 18.2792L19.2803 18.2803C18.9874 18.5732 18.5126 18.5732 18.2197 18.2803C17.9277 17.9883 17.9268 17.5155 18.217 17.2224L18.2253 17.2136C18.2343 17.204 18.25 17.187 18.2715 17.1624C18.3146 17.1132 18.3807 17.034 18.4625 16.925C18.6261 16.7068 18.8515 16.37 19.0792 15.9146C19.5333 15.0063 20 13.6204 20 11.75C20 9.87957 19.5333 8.49369 19.0792 7.58541C18.8515 7.13004 18.6261 6.79315 18.4625 6.575C18.3807 6.46597 18.3146 6.38683 18.2715 6.33763C18.25 6.31304 18.2343 6.29595 18.2253 6.28639L18.2171 6.27771C17.9256 5.98337 17.9268 5.51256 18.2197 5.21967Z" fill="#D9D9D9"/>
<path d="M16.7803 8.21967C16.4874 7.92678 16.0126 7.92678 15.7197 8.21967C15.4284 8.51094 15.4261 8.98141 15.7141 9.27467C15.7157 9.27642 15.7207 9.28179 15.7285 9.29075C15.7443 9.30871 15.7714 9.34097 15.8063 9.3875C15.8761 9.48065 15.9765 9.63004 16.0792 9.83541C16.2833 10.2437 16.5 10.8796 16.5 11.75C16.5 12.6204 16.2833 13.2563 16.0792 13.6646C15.9765 13.87 15.8761 14.0193 15.8063 14.1125C15.7714 14.159 15.7443 14.1913 15.7285 14.2092C15.7208 14.218 15.7159 14.2234 15.7142 14.2252C15.4268 14.5185 15.4286 14.9893 15.7197 15.2803C16.0126 15.5732 16.4874 15.5732 16.7803 15.2803L16.7814 15.2792L16.7826 15.2781L16.7852 15.2754L16.7916 15.2689L16.8084 15.2512C16.8214 15.2374 16.8379 15.2193 16.8574 15.197C16.8964 15.1525 16.9474 15.091 17.0063 15.0125C17.1239 14.8557 17.2735 14.63 17.4208 14.3354C17.7167 13.7437 18 12.8796 18 11.75C18 10.6204 17.7167 9.75631 17.4208 9.16459C17.2735 8.86996 17.1239 8.64435 17.0063 8.4875C16.9474 8.40903 16.8964 8.34754 16.8574 8.303L16.7814 8.22075L16.7803 8.21967Z" fill="#D9D9D9"/>
<path d="M13.5 4.75C13.5 4.47655 13.3512 4.22478 13.1116 4.09294C12.8721 3.96109 12.5797 3.97008 12.3487 4.11639L6.21669 8H2.75C2.47987 8 2.23049 8.14548 2.09733 8.38051L2.09585 8.38313L2.09282 8.38853L2.08262 8.40685C2.07405 8.42233 2.06201 8.44427 2.04699 8.4721C2.01697 8.52774 1.97495 8.60713 1.92492 8.70573C1.82516 8.90235 1.69205 9.17831 1.55844 9.49663C1.30282 10.1057 1 10.9732 1 11.75C1 12.5268 1.30282 13.3943 1.55844 14.0034C1.69205 14.3217 1.82516 14.5977 1.92492 14.7943C1.97495 14.8929 2.01697 14.9723 2.04699 15.0279C2.06201 15.0557 2.07405 15.0777 2.08262 15.0931L2.09282 15.1115L2.09585 15.1169L2.09745 15.1197C2.23061 15.3547 2.47987 15.5 2.75 15.5H6.21669L12.3487 19.3836C12.5797 19.5299 12.8721 19.5389 13.1116 19.4071C13.3512 19.2752 13.5 19.0234 13.5 18.75V4.75Z" fill="#5D5D5D"/>
</svg>
