<svg width="24" height="24" viewBox="0 0 24 24" fill="none" xmlns="http://www.w3.org/2000/svg">
<path d="M16.3616 4.34294C16.6012 4.47478 16.75 4.72655 16.75 5V19C16.75 19.2734 16.6012 19.5252 16.3616 19.6571C16.1221 19.7889 15.8297 19.7799 15.5987 19.6336L9.46669 15.75H6C5.72987 15.75 5.48061 15.6047 5.34745 15.3697L5.34585 15.3669L5.34282 15.3615L5.33262 15.3431C5.32405 15.3277 5.31201 15.3057 5.29699 15.2779C5.26697 15.2223 5.22495 15.1429 5.17492 15.0443C5.07516 14.8477 4.94205 14.5717 4.80844 14.2534C4.55282 13.6443 4.25 12.7768 4.25 12C4.25 11.2232 4.55282 10.3557 4.80844 9.74663C4.94205 9.42831 5.07516 9.15235 5.17492 8.95573C5.22495 8.85713 5.26697 8.77774 5.29699 8.7221C5.31201 8.69427 5.32405 8.67233 5.33262 8.65685L5.34282 8.63853L5.34585 8.63313L5.34733 8.63051C5.48049 8.39548 5.72987 8.25 6 8.25H9.46669L15.5987 4.36639C15.8297 4.22008 16.1221 4.21109 16.3616 4.34294Z" fill="#5D5D5D"/>
</svg>
