<svg width="24" height="24" viewBox="0 0 24 24" fill="none" xmlns="http://www.w3.org/2000/svg">
<path d="M15.75 5C15.75 4.72655 15.6012 4.47478 15.3616 4.34294C15.1221 4.21109 14.8297 4.22008 14.5987 4.36639L8.46669 8.25H5C4.72987 8.25 4.48049 8.39548 4.34733 8.63051L4.34585 8.63313L4.34282 8.63853L4.33262 8.65685C4.32405 8.67233 4.31201 8.69427 4.29699 8.7221C4.26697 8.77774 4.22495 8.85713 4.17492 8.95573C4.07516 9.15235 3.94205 9.42831 3.80844 9.74663C3.55282 10.3557 3.25 11.2232 3.25 12C3.25 12.7768 3.55282 13.6443 3.80844 14.2534C3.94205 14.5717 4.07516 14.8477 4.17492 15.0443C4.22495 15.1429 4.26697 15.2223 4.29699 15.2779C4.31201 15.3057 4.32405 15.3277 4.33262 15.3431L4.34282 15.3615L4.34585 15.3669L4.34745 15.3697C4.48061 15.6047 4.72987 15.75 5 15.75H8.46669L14.5987 19.6336C14.8297 19.7799 15.1221 19.7889 15.3616 19.6571C15.6012 19.5252 15.75 19.2734 15.75 19V5Z" fill="#5D5D5D"/>
<path fill-rule="evenodd" clip-rule="evenodd" d="M17.9697 8.46967C18.2626 8.17678 18.7374 8.17678 19.0303 8.46967L19.0326 8.47194L19.0352 8.47459L19.0415 8.48108L19.0584 8.49876C19.0714 8.51264 19.0879 8.53071 19.1074 8.553C19.1464 8.59754 19.1974 8.65902 19.2563 8.7375C19.3739 8.89435 19.5235 9.11996 19.6708 9.41459C19.9667 10.0063 20.25 10.8704 20.25 12C20.25 13.1296 19.9667 13.9937 19.6708 14.5854C19.5235 14.88 19.3739 15.1057 19.2563 15.2625C19.1974 15.341 19.1464 15.4025 19.1074 15.447C19.0879 15.4693 19.0714 15.4874 19.0584 15.5012L19.0415 15.5189L19.0352 15.5254L19.0326 15.5281L19.0314 15.5292L19.0584 15.5012L19.0303 15.5303C18.7374 15.8232 18.2626 15.8232 17.9697 15.5303C17.6786 15.2393 17.6768 14.7685 17.9642 14.4752M17.9678 14.4716L17.9662 14.4731L17.9642 14.4752C17.9659 14.4734 17.9708 14.468 17.9785 14.4592C17.9942 14.4413 18.0214 14.409 18.0563 14.3625C18.1261 14.2693 18.2265 14.12 18.3292 13.9146C18.5333 13.5063 18.75 12.8704 18.75 12C18.75 11.1296 18.5333 10.4937 18.3292 10.0854C18.2265 9.88004 18.1261 9.73065 18.0563 9.6375C18.0214 9.59097 17.9942 9.55871 17.9785 9.54075C17.9709 9.53197 17.9659 9.52665 17.9642 9.52479C17.9658 9.52647 17.9675 9.52815 17.9692 9.52982L17.9678 9.52843L17.9662 9.52687L17.9642 9.52479C17.6768 9.23148 17.6786 8.76072 17.9697 8.46967" fill="#D9D9D9"/>
</svg>
