<svg width="24" height="24" viewBox="0 0 24 24" fill="none" xmlns="http://www.w3.org/2000/svg">
<path d="M6.00004 13.25C5.62681 13.25 5.31037 13.5244 5.25758 13.8939L4.51636 19.0825C4.31523 20.4904 5.40769 21.75 6.82987 21.75C7.85446 21.75 8.75956 21.0826 9.06244 20.1038L10.7165 14.7583C10.7801 14.553 10.7524 14.3302 10.6407 14.1466C10.5289 13.963 10.3437 13.8362 10.1321 13.7983L7.1321 13.2617C7.08851 13.2539 7.04432 13.25 7.00004 13.25H6.00004Z" fill="#D9D9D9"/>
<path d="M20.75 5C20.75 4.74007 20.6154 4.49867 20.3943 4.36201C20.1732 4.22536 19.8971 4.21293 19.6646 4.32918L15.7472 6.28789L6.91773 8.25H6.5C4.70508 8.25 3.25 9.70507 3.25 11.5C3.25 13.295 4.70533 14.75 6.50019 14.75H6.93345L15.8097 16.3377L19.7538 17.7084C19.9831 17.7881 20.2368 17.7519 20.4347 17.6112C20.6325 17.4705 20.75 17.2428 20.75 17V5Z" fill="#5D5D5D"/>
</svg>
