<svg width="24" height="24" viewBox="0 0 24 24" fill="none" xmlns="http://www.w3.org/2000/svg">
<path fill-rule="evenodd" clip-rule="evenodd" d="M12 2.25C17.3848 2.25 21.75 6.61522 21.75 12C21.75 17.3848 17.3848 21.75 12 21.75C6.61522 21.75 2.25 17.3848 2.25 12C2.25 6.61522 6.61522 2.25 12 2.25Z" fill="#5D5D5D"/>
<path d="M12 8.25C9.45654 8.25 7.12274 8.59254 5.39887 9.16717C4.54085 9.45317 3.79239 9.81026 3.24303 10.2432C2.70213 10.6695 2.25 11.2575 2.25 12C2.25 12.7425 2.70213 13.3305 3.24303 13.7568C3.79239 14.1897 4.54085 14.5468 5.39887 14.8328C7.12274 15.4075 9.45654 15.75 12 15.75C14.5435 15.75 16.8773 15.4075 18.6011 14.8328C19.4591 14.5468 20.2076 14.1897 20.757 13.7568C21.2979 13.3305 21.75 12.7425 21.75 12C21.75 11.2575 21.2979 10.6695 20.757 10.2432C20.2076 9.81026 19.4591 9.45317 18.6011 9.16717C16.8773 8.59254 14.5435 8.25 12 8.25Z" fill="#D9D9D9"/>
</svg>
