<svg width="24" height="24" viewBox="0 0 24 24" fill="none" xmlns="http://www.w3.org/2000/svg">
<path fill-rule="evenodd" clip-rule="evenodd" d="M7.25 3C7.25 2.58579 7.58579 2.25 8 2.25H16C16.4142 2.25 16.75 2.58579 16.75 3C16.75 3.41421 16.4142 3.75 16 3.75H12.75V8.18934L14.4697 6.46967C14.7626 6.17678 15.2374 6.17678 15.5303 6.46967C15.8232 6.76256 15.8232 7.23744 15.5303 7.53033L12.5303 10.5303C12.3897 10.671 12.1989 10.75 12 10.75C11.8011 10.75 11.6103 10.671 11.4697 10.5303L8.46967 7.53033C8.17678 7.23744 8.17678 6.76256 8.46967 6.46967C8.76256 6.17678 9.23744 6.17678 9.53033 6.46967L11.25 8.18934V3.75H8C7.58579 3.75 7.25 3.41421 7.25 3ZM8.46967 16.4697L11.4697 13.4697C11.7626 13.1768 12.2374 13.1768 12.5303 13.4697L15.5303 16.4697C15.8232 16.7626 15.8232 17.2374 15.5303 17.5303C15.2374 17.8232 14.7626 17.8232 14.4697 17.5303L12.75 15.8107V20.25H16C16.4142 20.25 16.75 20.5858 16.75 21C16.75 21.4142 16.4142 21.75 16 21.75H8C7.58579 21.75 7.25 21.4142 7.25 21C7.25 20.5858 7.58579 20.25 8 20.25H11.25V15.8107L9.53033 17.5303C9.23744 17.8232 8.76256 17.8232 8.46967 17.5303C8.17678 17.2374 8.17678 16.7626 8.46967 16.4697Z" fill="#5D5D5D"/>
</svg>
