<svg width="24" height="24" viewBox="0 0 24 24" fill="none" xmlns="http://www.w3.org/2000/svg">
<path d="M12.4216 2.41621C12.2949 2.16123 12.0348 2 11.75 2C11.4653 2 11.2051 2.16123 11.0784 2.41621L8.47234 7.65993L2.64291 8.50111C2.35975 8.54197 2.12451 8.74036 2.03644 9.01255C1.94838 9.28475 2.02283 9.58333 2.22839 9.78231L6.44348 13.8624L5.44866 19.6224C5.40011 19.9034 5.51522 20.1877 5.74565 20.3559C5.97609 20.524 6.28195 20.5469 6.53482 20.4148L11.75 17.6921L16.9652 20.4148C17.2181 20.5469 17.524 20.524 17.7544 20.3559C17.9848 20.1877 18.0999 19.9034 18.0514 19.6224L17.0566 13.8624L21.2717 9.78231C21.4772 9.58333 21.5517 9.28475 21.4636 9.01255C21.3755 8.74036 21.1403 8.54197 20.8571 8.50111L15.0277 7.65993L12.4216 2.41621Z" fill="#5D5D5D"/>
</svg>
