<svg width="24" height="24" viewBox="0 0 24 24" fill="none" xmlns="http://www.w3.org/2000/svg">
<path d="M11.25 8.25H8C6.48122 8.25 5.25 9.48122 5.25 11V19C5.25 20.5188 6.48122 21.75 8 21.75H16C17.5188 21.75 18.75 20.5188 18.75 19V11C18.75 9.48122 17.5188 8.25 16 8.25H12.75H11.25Z" fill="#5D5D5D"/>
<path fill-rule="evenodd" clip-rule="evenodd" d="M12 6.25C12.4142 6.25 12.75 6.58579 12.75 7V11.5C12.75 11.9142 12.4142 12.25 12 12.25C11.5858 12.25 11.25 11.9142 11.25 11.5V7C11.25 6.58579 11.5858 6.25 12 6.25Z" fill="#D9D9D9"/>
<path d="M12 2.25C10.4812 2.25 9.25 3.48122 9.25 5C9.25 6.51878 10.4812 7.75 12 7.75C13.5188 7.75 14.75 6.51878 14.75 5C14.75 3.48122 13.5188 2.25 12 2.25Z" fill="#5D5D5D"/>
</svg>
