<svg width="24" height="24" viewBox="0 0 24 24" fill="none" xmlns="http://www.w3.org/2000/svg">
<path d="M7 3.25C4.92893 3.25 3.25 4.92893 3.25 7V17C3.25 19.0711 4.92893 20.75 7 20.75H12C12.1989 20.75 12.3897 20.671 12.5303 20.5303L20.5303 12.5303C20.671 12.3897 20.75 12.1989 20.75 12V7C20.75 4.92893 19.0711 3.25 17 3.25H7Z" fill="#5D5D5D"/>
<path d="M14 11.25C12.4812 11.25 11.25 12.4812 11.25 14V20C11.25 20.3033 11.4327 20.5768 11.713 20.6929C11.9932 20.809 12.3158 20.7448 12.5303 20.5303L20.5303 12.5303C20.7448 12.3158 20.809 11.9932 20.6929 11.713C20.5768 11.4327 20.3033 11.25 20 11.25H14Z" fill="#D9D9D9"/>
</svg>
