<svg width="24" height="24" viewBox="0 0 24 24" fill="none" xmlns="http://www.w3.org/2000/svg">
<path d="M12 2.25C9.37192 2.25 7.15689 4.01248 6.47008 6.41973C4.13909 6.9515 2.25 8.71034 2.25 11C2.25 13.7709 4.98919 15.75 8 15.75H16C19.0108 15.75 21.75 13.7709 21.75 11C21.75 8.71034 19.8609 6.9515 17.5299 6.41973C16.8431 4.01248 14.6281 2.25 12 2.25Z" fill="#5D5D5D"/>
<path fill-rule="evenodd" clip-rule="evenodd" d="M9.41603 14.376C9.76067 14.6058 9.8538 15.0715 9.62404 15.4161L8.40139 17.2501H10C10.2766 17.2501 10.5307 17.4023 10.6613 17.6462C10.7918 17.8901 10.7775 18.186 10.624 18.4161L8.62404 21.4161C8.39427 21.7608 7.92862 21.8539 7.58398 21.6241C7.23933 21.3944 7.1462 20.9287 7.37596 20.5841L8.59861 18.7501H7C6.7234 18.7501 6.46926 18.5978 6.33875 18.354C6.20823 18.1101 6.22254 17.8142 6.37596 17.5841L8.37596 14.5841C8.60573 14.2394 9.07138 14.1463 9.41603 14.376ZM15.416 14.376C15.7607 14.6058 15.8538 15.0715 15.624 15.4161L14.4014 17.2501H16C16.2766 17.2501 16.5307 17.4023 16.6613 17.6462C16.7918 17.8901 16.7775 18.186 16.624 18.4161L14.624 21.4161C14.3943 21.7608 13.9286 21.8539 13.584 21.6241C13.2393 21.3944 13.1462 20.9287 13.376 20.5841L14.5986 18.7501H13C12.7234 18.7501 12.4693 18.5978 12.3387 18.354C12.2082 18.1101 12.2225 17.8142 12.376 17.5841L14.376 14.5841C14.6057 14.2394 15.0714 14.1463 15.416 14.376Z" fill="#D9D9D9"/>
</svg>
