<svg width="24" height="24" viewBox="0 0 24 24" fill="none" xmlns="http://www.w3.org/2000/svg">
<path fill-rule="evenodd" clip-rule="evenodd" d="M4.25 19V11.6265L19.75 11.6265V19C19.75 20.5188 18.5188 21.75 17 21.75H7C5.48122 21.75 4.25 20.5188 4.25 19Z" fill="#5D5D5D"/>
<path d="M12 14.25C10.4812 14.25 9.25 15.4812 9.25 17V21.75H14.75V17C14.75 15.4812 13.5188 14.25 12 14.25Z" fill="#D9D9D9"/>
<path d="M6.56155 2.25C5.29968 2.25 4.19973 3.1088 3.89366 4.33299L2.75742 8.8777C2.39266 10.3367 3.49613 11.75 5.00002 11.75H19C20.5038 11.75 21.6072 10.3368 21.2425 8.87793L20.1063 4.33306C19.8003 3.10884 18.7003 2.25 17.4384 2.25H6.56155Z" fill="#D9D9D9"/>
</svg>
