<svg width="24" height="24" viewBox="0 0 24 24" fill="none" xmlns="http://www.w3.org/2000/svg">
<path fill-rule="evenodd" clip-rule="evenodd" d="M14 6.25C14.4142 6.25 14.75 6.58579 14.75 7V10.8607C15.3745 10.3815 16.152 10.0962 17 10.0962C18.4928 10.0962 19.7672 10.9805 20.3729 12.25H21C21.4142 12.25 21.75 12.5858 21.75 13C21.75 13.4142 21.4142 13.75 21 13.75H20.7462C20.7487 13.8074 20.75 13.8651 20.75 13.9231C20.75 16.0186 19.0889 17.75 17 17.75C16.152 17.75 15.3745 17.4647 14.75 16.9854V17C14.75 17.4142 14.4142 17.75 14 17.75C13.5858 17.75 13.25 17.4142 13.25 17V13.75H10.75V17C10.75 17.4142 10.4142 17.75 10 17.75C9.58579 17.75 9.25 17.4142 9.25 17V16.459C8.78211 16.8103 8.22681 17.0559 7.6165 17.1576C5.42758 17.5224 3.42665 15.9214 3.26106 13.75H3C2.58579 13.75 2.25 13.4142 2.25 13C2.25 12.5858 2.58579 12.25 3 12.25H3.25V10C3.25 9.58579 3.58579 9.25 4 9.25C4.41421 9.25 4.75 9.58579 4.75 10V12.25H9.25V10C9.25 9.58579 9.58579 9.25 10 9.25C10.4142 9.25 10.75 9.58579 10.75 10V12.25H13.25V7C13.25 6.58579 13.5858 6.25 14 6.25ZM14.7561 13.75C14.752 13.8071 14.75 13.8648 14.75 13.9231C14.75 15.2262 15.7751 16.25 17 16.25C18.2249 16.25 19.25 15.2262 19.25 13.9231C19.25 13.8648 19.2479 13.8071 19.2439 13.75H14.7561ZM18.5636 12.25C18.156 11.8436 17.6022 11.5962 17 11.5962C16.3978 11.5962 15.844 11.8436 15.4364 12.25H18.5636ZM9.23121 13.75H4.76856C4.92828 14.993 6.09603 15.8903 7.3699 15.678C8.3576 15.5134 9.10516 14.7207 9.23121 13.75Z" fill="#5D5D5D"/>
<path fill-rule="evenodd" clip-rule="evenodd" d="M2.25 13C2.25 12.5858 2.58579 12.25 3 12.25H21C21.4142 12.25 21.75 12.5858 21.75 13C21.75 13.4142 21.4142 13.75 21 13.75H3C2.58579 13.75 2.25 13.4142 2.25 13Z" fill="#D9D9D9"/>
</svg>
