<svg width="24" height="24" viewBox="0 0 24 24" fill="none" xmlns="http://www.w3.org/2000/svg">
<path fill-rule="evenodd" clip-rule="evenodd" d="M3.46967 8.46967C3.76256 8.17678 4.23744 8.17678 4.53033 8.46967L8.5 12.4393L12.4697 8.46967C12.7626 8.17678 13.2374 8.17678 13.5303 8.46967C13.8232 8.76256 13.8232 9.23744 13.5303 9.53033L9.56066 13.5L13.5303 17.4697C13.8232 17.7626 13.8232 18.2374 13.5303 18.5303C13.2374 18.8232 12.7626 18.8232 12.4697 18.5303L8.5 14.5607L4.53033 18.5303C4.23744 18.8232 3.76256 18.8232 3.46967 18.5303C3.17678 18.2374 3.17678 17.7626 3.46967 17.4697L7.43934 13.5L3.46967 9.53033C3.17678 9.23744 3.17678 8.76256 3.46967 8.46967Z" fill="#5D5D5D"/>
<path fill-rule="evenodd" clip-rule="evenodd" d="M16.25 15.5C16.25 14.2574 17.2574 13.25 18.5 13.25C19.7426 13.25 20.75 14.2574 20.75 15.5V17C20.75 17.2508 20.6247 17.4849 20.416 17.624L17.9771 19.25H20C20.4142 19.25 20.75 19.5858 20.75 20C20.75 20.4142 20.4142 20.75 20 20.75H17C16.5858 20.75 16.25 20.4142 16.25 20V19C16.25 18.7492 16.3753 18.5151 16.584 18.376L19.25 16.5986V15.5C19.25 15.0858 18.9142 14.75 18.5 14.75C18.0858 14.75 17.75 15.0858 17.75 15.5V16C17.75 16.4142 17.4142 16.75 17 16.75C16.5858 16.75 16.25 16.4142 16.25 16V15.5Z" fill="#D9D9D9"/>
</svg>
