<svg width="24" height="24" viewBox="0 0 24 24" fill="none" xmlns="http://www.w3.org/2000/svg">
<path d="M4 8.25C3.58579 8.25 3.25 8.58579 3.25 9V20C3.25 20.4142 3.58579 20.75 4 20.75H15C15.4142 20.75 15.75 20.4142 15.75 20V15C15.75 14.5858 15.4142 14.25 15 14.25H9.75001V9C9.75001 8.58579 9.41422 8.25 9.00001 8.25H4Z" fill="#5D5D5D"/>
<path d="M9 3.25C8.58579 3.25 8.25 3.58579 8.25 4V15C8.25 15.4142 8.58579 15.75 9 15.75H20C20.4142 15.75 20.75 15.4142 20.75 15V4C20.75 3.58579 20.4142 3.25 20 3.25H9Z" fill="#D9D9D9"/>
</svg>
