<svg width="24" height="24" viewBox="0 0 24 24" fill="none" xmlns="http://www.w3.org/2000/svg">
<path d="M11 2.25C9.48122 2.25 8.25 3.48122 8.25 5V9C8.25 9.41421 8.58579 9.75 9 9.75C9.41421 9.75 9.75 9.41421 9.75 9V5C9.75 4.30964 10.3096 3.75 11 3.75H13C13.6904 3.75 14.25 4.30964 14.25 5V9C14.25 9.41421 14.5858 9.75 15 9.75C15.4142 9.75 15.75 9.41421 15.75 9V5C15.75 3.48122 14.5188 2.25 13 2.25H11Z" fill="#D9D9D9"/>
<path d="M9.75 20C9.75 19.5858 9.41421 19.25 9 19.25C8.58579 19.25 8.25 19.5858 8.25 20V21C8.25 21.4142 8.58579 21.75 9 21.75C9.41421 21.75 9.75 21.4142 9.75 21V20Z" fill="#D9D9D9"/>
<path d="M15.75 20C15.75 19.5858 15.4142 19.25 15 19.25C14.5858 19.25 14.25 19.5858 14.25 20V21C14.25 21.4142 14.5858 21.75 15 21.75C15.4142 21.75 15.75 21.4142 15.75 21V20Z" fill="#D9D9D9"/>
<path d="M8 8.25C6.48122 8.25 5.25 9.48122 5.25 11V18C5.25 19.5188 6.48122 20.75 8 20.75H16C17.5188 20.75 18.75 19.5188 18.75 18V11C18.75 9.48122 17.5188 8.25 16 8.25H8Z" fill="#5D5D5D"/>
<path fill-rule="evenodd" clip-rule="evenodd" d="M9 11.25C9.41421 11.25 9.75 11.5858 9.75 12V17C9.75 17.4142 9.41421 17.75 9 17.75C8.58579 17.75 8.25 17.4142 8.25 17V12C8.25 11.5858 8.58579 11.25 9 11.25ZM12 11.25C12.4142 11.25 12.75 11.5858 12.75 12V17C12.75 17.4142 12.4142 17.75 12 17.75C11.5858 17.75 11.25 17.4142 11.25 17V12C11.25 11.5858 11.5858 11.25 12 11.25ZM15 11.25C15.4142 11.25 15.75 11.5858 15.75 12V17C15.75 17.4142 15.4142 17.75 15 17.75C14.5858 17.75 14.25 17.4142 14.25 17V12C14.25 11.5858 14.5858 11.25 15 11.25Z" fill="#D9D9D9"/>
</svg>
