<svg width="24" height="24" viewBox="0 0 24 24" fill="none" xmlns="http://www.w3.org/2000/svg">
<path d="M12 3.25C11.5858 3.25 11.25 3.58579 11.25 4C11.25 4.41421 11.5858 4.75 12 4.75H12.009C12.4232 4.75 12.759 4.41421 12.759 4C12.759 3.58579 12.4232 3.25 12.009 3.25H12Z" fill="#D9D9D9"/>
<path d="M6 5.25C5.58579 5.25 5.25 5.58579 5.25 6C5.25 6.41421 5.58579 6.75 6 6.75H6.00898C6.4232 6.75 6.75898 6.41421 6.75898 6C6.75898 5.58579 6.4232 5.25 6.00898 5.25H6Z" fill="#D9D9D9"/>
<path d="M18 5.25C17.5858 5.25 17.25 5.58579 17.25 6C17.25 6.41421 17.5858 6.75 18 6.75H18.009C18.4232 6.75 18.759 6.41421 18.759 6C18.759 5.58579 18.4232 5.25 18.009 5.25H18Z" fill="#D9D9D9"/>
<path d="M4 11.25C3.58579 11.25 3.25 11.5858 3.25 12C3.25 12.4142 3.58579 12.75 4 12.75H4.00898C4.4232 12.75 4.75898 12.4142 4.75898 12C4.75898 11.5858 4.4232 11.25 4.00898 11.25H4Z" fill="#D9D9D9"/>
<path d="M20 11.25C19.5858 11.25 19.25 11.5858 19.25 12C19.25 12.4142 19.5858 12.75 20 12.75H20.009C20.4232 12.75 20.759 12.4142 20.759 12C20.759 11.5858 20.4232 11.25 20.009 11.25H20Z" fill="#D9D9D9"/>
<path d="M6 17.25C5.58579 17.25 5.25 17.5858 5.25 18C5.25 18.4142 5.58579 18.75 6 18.75H6.00898C6.4232 18.75 6.75898 18.4142 6.75898 18C6.75898 17.5858 6.4232 17.25 6.00898 17.25H6Z" fill="#D9D9D9"/>
<path d="M18 17.25C17.5858 17.25 17.25 17.5858 17.25 18C17.25 18.4142 17.5858 18.75 18 18.75H18.009C18.4232 18.75 18.759 18.4142 18.759 18C18.759 17.5858 18.4232 17.25 18.009 17.25H18Z" fill="#D9D9D9"/>
<path d="M12 19.25C11.5858 19.25 11.25 19.5858 11.25 20C11.25 20.4142 11.5858 20.75 12 20.75H12.009C12.4232 20.75 12.759 20.4142 12.759 20C12.759 19.5858 12.4232 19.25 12.009 19.25H12Z" fill="#D9D9D9"/>
<path d="M12 7.25C9.37665 7.25 7.25 9.37665 7.25 12C7.25 14.6234 9.37665 16.75 12 16.75C14.6234 16.75 16.75 14.6234 16.75 12C16.75 9.37665 14.6234 7.25 12 7.25Z" fill="#5D5D5D"/>
</svg>
