<svg width="24" height="24" viewBox="0 0 24 24" fill="none" xmlns="http://www.w3.org/2000/svg">
<path fill-rule="evenodd" clip-rule="evenodd" d="M12 2.25C12.4142 2.25 12.75 2.58579 12.75 3V5C12.75 5.41421 12.4142 5.75 12 5.75C11.5858 5.75 11.25 5.41421 11.25 5V3C11.25 2.58579 11.5858 2.25 12 2.25ZM4.92421 4.92423C5.2171 4.63134 5.69197 4.63133 5.98487 4.92423L7.03033 5.96967C7.32322 6.26256 7.32323 6.73743 7.03033 7.03033C6.73744 7.32322 6.26257 7.32323 5.96967 7.03033L4.92422 5.98489C4.63132 5.692 4.63132 5.21713 4.92421 4.92423ZM19.0758 4.92423C19.3687 5.21713 19.3687 5.692 19.0758 5.98489L18.0303 7.03033C17.7374 7.32322 17.2626 7.32322 16.9697 7.03033C16.6768 6.73743 16.6768 6.26256 16.9697 5.96967L18.0151 4.92423C18.308 4.63133 18.7829 4.63134 19.0758 4.92423ZM2.25 12C2.25 11.5858 2.58579 11.25 3 11.25H5C5.41421 11.25 5.75 11.5858 5.75 12C5.75 12.4142 5.41421 12.75 5 12.75H3C2.58579 12.75 2.25 12.4142 2.25 12ZM18.25 12C18.25 11.5858 18.5858 11.25 19 11.25H21C21.4142 11.25 21.75 11.5858 21.75 12C21.75 12.4142 21.4142 12.75 21 12.75H19C18.5858 12.75 18.25 12.4142 18.25 12ZM16.958 16.9816C17.2443 16.6823 17.7191 16.6717 18.0184 16.958L19.0639 17.958C19.3632 18.2443 19.3737 18.7191 19.0874 19.0184C18.8011 19.3177 18.3264 19.3283 18.027 19.042L16.9816 18.042C16.6823 17.7557 16.6717 17.2809 16.958 16.9816ZM7.03033 16.9697C7.32322 17.2626 7.32322 17.7374 7.03033 18.0303L6.03033 19.0303C5.73744 19.3232 5.26256 19.3232 4.96967 19.0303C4.67678 18.7374 4.67678 18.2626 4.96967 17.9697L5.96967 16.9697C6.26256 16.6768 6.73744 16.6768 7.03033 16.9697ZM12 18.25C12.4142 18.25 12.75 18.5858 12.75 19V21C12.75 21.4142 12.4142 21.75 12 21.75C11.5858 21.75 11.25 21.4142 11.25 21V19C11.25 18.5858 11.5858 18.25 12 18.25Z" fill="#D9D9D9"/>
<path d="M12 7.25C9.37665 7.25 7.25 9.37665 7.25 12C7.25 14.6234 9.37665 16.75 12 16.75C14.6234 16.75 16.75 14.6234 16.75 12C16.75 9.37665 14.6234 7.25 12 7.25Z" fill="#5D5D5D"/>
</svg>
