<svg width="24" height="24" viewBox="0 0 24 24" fill="none" xmlns="http://www.w3.org/2000/svg">
<path d="M10.75 3C10.75 2.58579 10.4142 2.25 10 2.25C9.58579 2.25 9.25 2.58579 9.25 3V4C9.25 4.41421 9.58579 4.75 10 4.75C10.4142 4.75 10.75 4.41421 10.75 4V3Z" fill="#D9D9D9"/>
<path d="M17.0758 5.98486C17.3687 5.69197 17.3687 5.21709 17.0758 4.9242C16.7829 4.63131 16.308 4.63131 16.0151 4.92421L15.4697 5.46967C15.1768 5.76257 15.1768 6.23744 15.4697 6.53033C15.7626 6.82323 16.2374 6.82322 16.5303 6.53033L17.0758 5.98486Z" fill="#D9D9D9"/>
<path d="M3.98488 4.92422C3.69198 4.63133 3.21711 4.63133 2.92422 4.92423C2.63132 5.21712 2.63133 5.692 2.92422 5.98489L3.46968 6.53033C3.76257 6.82323 4.23745 6.82322 4.53034 6.53033C4.82323 6.23743 4.82323 5.76256 4.53033 5.46967L3.98488 4.92422Z" fill="#D9D9D9"/>
<path d="M2 10.25C1.58579 10.25 1.25 10.5858 1.25 11C1.25 11.4142 1.58579 11.75 2 11.75H3C3.41421 11.75 3.75 11.4142 3.75 11C3.75 10.5858 3.41421 10.25 3 10.25H2Z" fill="#D9D9D9"/>
<path d="M4.5068 16.5529C4.81214 16.273 4.83276 15.7985 4.55287 15.4932C4.27297 15.1879 3.79855 15.1672 3.49321 15.4471L2.94776 15.9471C2.64242 16.227 2.62179 16.7015 2.90169 17.0068C3.18158 17.3121 3.65601 17.3328 3.96134 17.0529L4.5068 16.5529Z" fill="#D9D9D9"/>
<path d="M14.4828 9.42603C14.6462 9.56361 14.75 9.76968 14.75 10C14.75 10.4142 14.4142 10.75 14 10.75C13.9656 10.75 13.9314 10.7505 13.8974 10.7516C12.3912 10.7976 11.1777 11.8517 10.9148 13.194C10.8534 13.5073 10.6005 13.7474 10.2845 13.7924C9.41318 13.9164 8.70053 14.298 8.25959 14.7819C8.00537 15.0608 7.58343 15.1074 7.27447 14.8907C6.05177 14.0328 5.25 12.6101 5.25 11C5.25 8.37665 7.37665 6.25 10 6.25C12.0724 6.25 13.8333 7.5766 14.4828 9.42603Z" fill="#D9D9D9"/>
<path d="M14 9.25C13.9504 9.25 13.9009 9.25076 13.8516 9.25227C11.8532 9.31337 10.1528 10.6058 9.57291 12.4019C8.60853 12.6305 7.75526 13.1083 7.15088 13.7715C6.59963 14.3765 6.25 15.1454 6.25 16C6.25 18.2404 8.51951 19.75 10.8889 19.75H17.1111C19.4805 19.75 21.75 18.2404 21.75 16C21.75 14.182 20.2352 12.8362 18.4274 12.4028C17.8334 10.5619 16.0627 9.25 14 9.25Z" fill="#5D5D5D"/>
</svg>
