<svg width="24" height="24" viewBox="0 0 24 24" fill="none" xmlns="http://www.w3.org/2000/svg">
<path d="M12 9.25C9.37665 9.25 7.25 11.3766 7.25 14C7.25 14.773 7.4352 15.5048 7.7643 16.1516C8.39931 17.3996 9.78963 17.75 10.8669 17.75H13.1331C14.2104 17.75 15.6007 17.3996 16.2357 16.1516C16.5648 15.5048 16.75 14.773 16.75 14C16.75 11.3766 14.6234 9.25 12 9.25Z" fill="#5D5D5D"/>
<path fill-rule="evenodd" clip-rule="evenodd" d="M12 4.25C12.4142 4.25 12.75 4.58579 12.75 5V7C12.75 7.41421 12.4142 7.75 12 7.75C11.5858 7.75 11.25 7.41421 11.25 7V5C11.25 4.58579 11.5858 4.25 12 4.25ZM4.92421 6.92423C5.2171 6.63134 5.69197 6.63133 5.98487 6.92423L7.03033 7.96967C7.32322 8.26256 7.32323 8.73743 7.03033 9.03033C6.73744 9.32322 6.26257 9.32323 5.96967 9.03033L4.92422 7.98489C4.63132 7.692 4.63132 7.21713 4.92421 6.92423ZM19.0758 6.92423C19.3687 7.21713 19.3687 7.692 19.0758 7.98489L18.0303 9.03033C17.7374 9.32322 17.2626 9.32322 16.9697 9.03033C16.6768 8.73743 16.6768 8.26256 16.9697 7.96967L18.0151 6.92423C18.308 6.63133 18.7829 6.63134 19.0758 6.92423ZM2.25 14C2.25 13.5858 2.58579 13.25 3 13.25H5C5.41421 13.25 5.75 13.5858 5.75 14C5.75 14.4142 5.41421 14.75 5 14.75H3C2.58579 14.75 2.25 14.4142 2.25 14ZM18.25 14C18.25 13.5858 18.5858 13.25 19 13.25H21C21.4142 13.25 21.75 13.5858 21.75 14C21.75 14.4142 21.4142 14.75 21 14.75H19C18.5858 14.75 18.25 14.4142 18.25 14ZM2.25 17C2.25 16.5858 2.58579 16.25 3 16.25H21C21.4142 16.25 21.75 16.5858 21.75 17C21.75 17.4142 21.4142 17.75 21 17.75H3C2.58579 17.75 2.25 17.4142 2.25 17Z" fill="#D9D9D9"/>
</svg>
