<svg width="24" height="24" viewBox="0 0 24 24" fill="none" xmlns="http://www.w3.org/2000/svg">
<path d="M6 12.25C3.92893 12.25 2.25 13.9289 2.25 16C2.25 18.0711 3.92893 19.75 6 19.75C8.07107 19.75 9.75 18.0711 9.75 16C9.75 13.9289 8.07107 12.25 6 12.25Z" fill="#D9D9D9"/>
<path d="M18 12.25C15.9289 12.25 14.25 13.9289 14.25 16C14.25 18.0711 15.9289 19.75 18 19.75C20.0711 19.75 21.75 18.0711 21.75 16C21.75 13.9289 20.0711 12.25 18 12.25Z" fill="#D9D9D9"/>
<path d="M12 4.25C11.5858 4.25 11.25 4.58579 11.25 5C11.25 5.41421 11.5858 5.75 12 5.75H13.4594L13.9594 7.25H12C11.7159 7.25 11.4562 7.4105 11.3292 7.66459L10.5365 9.25H8.31066L6.53033 7.46967C6.38968 7.32902 6.19891 7.25 6 7.25H3C2.75892 7.25 2.53253 7.36589 2.39157 7.56147C2.2506 7.75704 2.21225 8.00846 2.28849 8.23717L2.95943 10.25H2C1.58579 10.25 1.25 10.5858 1.25 11C1.25 11.4142 1.58579 11.75 2 11.75H3.46478L4.06775 13.5037C4.14373 13.7246 4.31835 13.8976 4.54005 13.9714L5.94232 14.4383L5.32918 15.6646C5.14394 16.0351 5.29411 16.4856 5.66459 16.6708C6.03507 16.8561 6.48558 16.7059 6.67082 16.3354L7.40296 14.8711L8.34234 15.1016C8.42112 15.121 8.50252 15.1274 8.58336 15.1207L13.0623 14.7474C13.2865 14.7287 13.4905 14.6103 13.618 14.4249L15.5529 11.6105L17.2978 16.2633C17.4432 16.6512 17.8755 16.8477 18.2633 16.7022C18.6512 16.5568 18.8477 16.1245 18.7022 15.7367L16.8323 10.75H20C20.2599 10.75 20.5013 10.6154 20.638 10.3943C20.7746 10.1732 20.7871 9.89708 20.6708 9.66459L18.6708 5.66459C18.5438 5.4105 18.2841 5.25 18 5.25H14.8739L14.7115 4.76283C14.6094 4.45657 14.3228 4.25 14 4.25H12Z" fill="#5D5D5D"/>
</svg>
