<svg width="24" height="24" viewBox="0 0 24 24" fill="none" xmlns="http://www.w3.org/2000/svg">
<path d="M7.82843 3.25C7.09908 3.25 6.39961 3.53973 5.88388 4.05546L4.05546 5.88388C3.53973 6.39961 3.25 7.09908 3.25 7.82843V10.1716C3.25 10.9009 3.53973 11.6004 4.05546 12.1161L12.0555 20.1161C13.1294 21.1901 14.8706 21.1901 15.9445 20.1161L20.1161 15.9445C21.1901 14.8706 21.1901 13.1294 20.1161 12.0555L12.1161 4.05546C11.6004 3.53973 10.9009 3.25 10.1716 3.25H7.82843Z" fill="#5D5D5D"/>
<path d="M9 8.25C8.58579 8.25 8.25 8.58579 8.25 9C8.25 9.41421 8.58579 9.75 9 9.75H9.00898C9.4232 9.75 9.75898 9.41421 9.75898 9C9.75898 8.58579 9.4232 8.25 9.00898 8.25H9Z" fill="#D9D9D9"/>
</svg>
