<svg width="24" height="24" viewBox="0 0 24 24" fill="none" xmlns="http://www.w3.org/2000/svg">
<path d="M8.81038 5.03135C8.28103 4.80449 7.67865 4.82219 7.16354 5.07975C5.96825 5.67739 5.70974 7.27041 6.6547 8.21537L8.77536 10.336L6.77811 11.4773C6.51608 11.627 6.20872 11.6769 5.91279 11.6177L4.3657 11.3083C4.09447 11.2541 3.81378 11.2715 3.55137 11.359C2.43045 11.7327 2.09461 13.1553 2.9301 13.9908L4.3839 15.4446C4.89963 15.9603 5.5991 16.25 6.32845 16.25H6.62866C6.96619 16.25 7.30083 16.1879 7.61586 16.0667L19.8731 11.3524C20.2322 11.2143 20.5584 11.0023 20.8305 10.7302L21.5671 9.99363C22.072 9.4887 22.1972 8.71732 21.8778 8.07863C21.6405 7.6039 21.1903 7.2714 20.6667 7.18414L18.6133 6.8419C18.1709 6.76816 17.7171 6.80376 17.2916 6.94561L15.0334 7.69835L8.81038 5.03135Z" fill="#5D5D5D"/>
<path fill-rule="evenodd" clip-rule="evenodd" d="M3.25 20C3.25 19.5858 3.58579 19.25 4 19.25H20C20.4142 19.25 20.75 19.5858 20.75 20C20.75 20.4142 20.4142 20.75 20 20.75H4C3.58579 20.75 3.25 20.4142 3.25 20Z" fill="#D9D9D9"/>
</svg>
