<svg width="24" height="24" viewBox="0 0 24 24" fill="none" xmlns="http://www.w3.org/2000/svg">
<path d="M4.99995 13.25C4.63332 13.25 4.32043 13.5151 4.26016 13.8767L3.46574 18.6432C3.28193 19.7461 4.1324 20.75 5.25046 20.75C6.01758 20.75 6.70133 20.2662 6.95664 19.5428L8.7072 14.5829C8.78096 14.3739 8.75851 14.143 8.64585 13.9521C8.5332 13.7613 8.34188 13.63 8.12325 13.5935L6.12325 13.2602C6.0825 13.2534 6.04126 13.25 5.99995 13.25H4.99995Z" fill="#D9D9D9"/>
<path d="M16.75 6C16.75 5.74007 16.6154 5.49867 16.3943 5.36201C16.1732 5.22536 15.8971 5.21293 15.6646 5.32918L11.7655 7.27875L5.93793 8.25H5.5C3.70507 8.25 2.25 9.70508 2.25 11.5C2.25 13.2951 3.70556 14.75 5.50035 14.75H5.93793L11.7655 15.7213L15.6646 17.6708C15.8971 17.7871 16.1732 17.7746 16.3943 17.638C16.6154 17.5013 16.75 17.2599 16.75 17V6Z" fill="#5D5D5D"/>
<path fill-rule="evenodd" clip-rule="evenodd" d="M21.6708 5.66475C21.856 6.03524 21.7059 6.48574 21.3354 6.67098L19.3354 7.67098C18.9649 7.85623 18.5144 7.70606 18.3292 7.33557C18.1439 6.96509 18.2941 6.51459 18.6646 6.32934L20.6646 5.32934C21.0351 5.1441 21.4856 5.29427 21.6708 5.66475ZM18.25 11.0002C18.25 10.586 18.5858 10.2502 19 10.2502H21C21.4142 10.2502 21.75 10.586 21.75 11.0002C21.75 11.4144 21.4142 11.7502 21 11.7502H19C18.5858 11.7502 18.25 11.4144 18.25 11.0002ZM18.3292 14.6648C18.5144 14.2943 18.9649 14.1441 19.3354 14.3293L21.3354 15.3293C21.7059 15.5146 21.856 15.9651 21.6708 16.3356C21.4856 16.7061 21.0351 16.8562 20.6646 16.671L18.6646 15.671C18.2941 15.4857 18.1439 15.0352 18.3292 14.6648Z" fill="#D9D9D9"/>
</svg>
