<svg width="24" height="24" viewBox="0 0 24 24" fill="none" xmlns="http://www.w3.org/2000/svg">
<path d="M12 2.25C6.61522 2.25 2.25 6.61522 2.25 12C2.25 17.3848 6.61522 21.75 12 21.75C17.3848 21.75 21.75 17.3848 21.75 12C21.75 6.61522 17.3848 2.25 12 2.25Z" fill="#D9D9D9"/>
<path d="M12 6.25C8.82436 6.25 6.25 8.82436 6.25 12C6.25 15.1756 8.82436 17.75 12 17.75C15.1756 17.75 17.75 15.1756 17.75 12C17.75 8.82436 15.1756 6.25 12 6.25Z" fill="#5D5D5D"/>
<path d="M12 10.25C11.0335 10.25 10.25 11.0335 10.25 12C10.25 12.9665 11.0335 13.75 12 13.75C12.9665 13.75 13.75 12.9665 13.75 12C13.75 11.0335 12.9665 10.25 12 10.25Z" fill="#D9D9D9"/>
</svg>
