<svg width="24" height="24" viewBox="0 0 24 24" fill="none" xmlns="http://www.w3.org/2000/svg">
<path fill-rule="evenodd" clip-rule="evenodd" d="M5.25 5C5.25 4.58579 5.58579 4.25 6 4.25H18C18.4142 4.25 18.75 4.58579 18.75 5V7C18.75 7.41421 18.4142 7.75 18 7.75C17.5858 7.75 17.25 7.41421 17.25 7V5.75H12.75V18.25H13C13.4142 18.25 13.75 18.5858 13.75 19C13.75 19.4142 13.4142 19.75 13 19.75H11C10.5858 19.75 10.25 19.4142 10.25 19C10.25 18.5858 10.5858 18.25 11 18.25H11.25V5.75H6.75V7C6.75 7.41421 6.41421 7.75 6 7.75C5.58579 7.75 5.25 7.41421 5.25 7V5Z" fill="#5D5D5D"/>
</svg>
