<svg width="24" height="24" viewBox="0 0 24 24" fill="none" xmlns="http://www.w3.org/2000/svg">
<path d="M12 2.25C9.93977 2.25 8.25 3.89783 8.25 5.95455V12.3258C7.32294 13.272 6.75 14.5695 6.75 16C6.75 18.8995 9.1005 21.25 12 21.25C14.8995 21.25 17.25 18.8995 17.25 16C17.25 14.5695 16.6771 13.272 15.75 12.3258V5.95455C15.75 3.89783 14.0602 2.25 12 2.25Z" fill="#5D5D5D"/>
<path d="M12 14.25C11.0335 14.25 10.25 15.0335 10.25 16C10.25 16.9665 11.0335 17.75 12 17.75C12.9665 17.75 13.75 16.9665 13.75 16C13.75 15.0335 12.9665 14.25 12 14.25Z" fill="#D9D9D9"/>
</svg>
