<svg width="24" height="24" viewBox="0 0 24 24" fill="none" xmlns="http://www.w3.org/2000/svg">
<path d="M20 3.25C18.7319 3.25 17.2707 3.83787 15.8497 4.64205C14.4048 5.45977 12.9009 6.56003 11.5207 7.70675C10.5014 8.55363 9.54135 9.43273 8.71258 10.2542C8.64207 10.2514 8.57125 10.25 8.50013 10.25V10.4664L8.46729 10.4995L8.50013 10.5321V11.75C8.64152 11.75 8.78081 11.7578 8.91764 11.7729C10.6545 11.9649 12.0352 13.3455 12.2272 15.0824C12.2423 15.2193 12.2501 15.3586 12.2501 15.5H13.4681L13.5006 15.5327L13.5336 15.5H13.7501C13.7501 15.4288 13.7487 15.358 13.7459 15.2874C14.6609 14.3643 15.6478 13.2778 16.5821 12.1278C17.6701 10.7886 18.6991 9.34815 19.4601 7.96757C20.209 6.60868 20.75 5.21686 20.75 4C20.75 3.58579 20.4142 3.25 20 3.25Z" fill="#5D5D5D"/>
<path d="M8.50013 10.25C7.46095 10.25 6.4052 10.9092 5.65721 11.6572C4.90922 12.4051 4.25002 13.4609 4.25002 14.5C4.25002 14.9111 4.31348 15.3447 4.37034 15.7333L4.38283 15.8189C4.44563 16.2506 4.50002 16.6545 4.50002 17.0625C4.50002 17.8332 4.30782 18.6315 3.46969 19.4697C3.25519 19.6842 3.19103 20.0068 3.30711 20.287C3.4232 20.5673 3.69668 20.75 4.00002 20.75H8.50013C11.3996 20.75 13.7501 18.3995 13.7501 15.5C13.7501 15.3034 13.7393 15.1091 13.7181 14.9176C13.449 12.4828 11.5172 10.5511 9.08241 10.282C8.89097 10.2608 8.69667 10.25 8.50013 10.25Z" fill="#D9D9D9"/>
</svg>
