<svg width="24" height="24" viewBox="0 0 24 24" fill="none" xmlns="http://www.w3.org/2000/svg">
<path d="M10 2.25C9.76466 2.25 9.54296 2.36047 9.40124 2.54835C9.25952 2.73624 9.2142 2.97975 9.27886 3.20604L11.0057 9.25H5C4.72626 9.25 4.47427 9.39913 4.34255 9.63909C4.21082 9.87905 4.22029 10.1717 4.36725 10.4027L11.3673 21.4027C11.5463 21.684 11.8895 21.8133 12.2097 21.7201C12.5298 21.6269 12.75 21.3335 12.75 21V14.75H16C16.3625 14.75 16.6731 14.4908 16.7379 14.1342L18.7379 3.13416C18.7777 2.91536 18.7183 2.69018 18.5758 2.51944C18.4333 2.3487 18.2224 2.25 18 2.25H10Z" fill="#5D5D5D"/>
</svg>
