<svg width="24" height="24" viewBox="0 0 24 24" fill="none" xmlns="http://www.w3.org/2000/svg">
<path d="M6 11.25C5.58579 11.25 5.25 11.5858 5.25 12V16C5.25 18.6234 7.37665 20.75 10 20.75H16C18.6234 20.75 20.75 18.6234 20.75 16V12C20.75 11.5858 20.4142 11.25 20 11.25H6Z" fill="#5D5D5D"/>
<path d="M4.41603 3.37596C4.18588 3.22254 3.88997 3.20823 3.64611 3.33875C3.40224 3.46926 3.25 3.7234 3.25 4V16C3.25 18.6234 5.37665 20.75 8 20.75H12C14.6234 20.75 16.75 18.6234 16.75 16V4C16.75 3.7234 16.5978 3.46926 16.3539 3.33875C16.11 3.20823 15.8141 3.22254 15.584 3.37596L13 5.09861L10.416 3.37596C10.1641 3.20801 9.8359 3.20801 9.58397 3.37596L7 5.09861L4.41603 3.37596Z" fill="#D9D9D9"/>
<path fill-rule="evenodd" clip-rule="evenodd" d="M10 8.25C10.4142 8.25 10.75 8.58579 10.75 9V9.25H13C13.4142 9.25 13.75 9.58579 13.75 10C13.75 10.4142 13.4142 10.75 13 10.75H10.75V12.25H11.5C12.7426 12.25 13.75 13.2574 13.75 14.5C13.75 15.7426 12.7426 16.75 11.5 16.75H10.75V17C10.75 17.4142 10.4142 17.75 10 17.75C9.58579 17.75 9.25 17.4142 9.25 17V16.75H7C6.58579 16.75 6.25 16.4142 6.25 16C6.25 15.5858 6.58579 15.25 7 15.25H9.25V13.75H8.5C7.25736 13.75 6.25 12.7426 6.25 11.5C6.25 10.2574 7.25736 9.25 8.5 9.25H9.25V9C9.25 8.58579 9.58579 8.25 10 8.25ZM9.25 10.75H8.5C8.08579 10.75 7.75 11.0858 7.75 11.5C7.75 11.9142 8.08579 12.25 8.5 12.25H9.25V10.75ZM10.75 13.75V15.25H11.5C11.9142 15.25 12.25 14.9142 12.25 14.5C12.25 14.0858 11.9142 13.75 11.5 13.75H10.75Z" fill="#5D5D5D"/>
</svg>
