<svg width="24" height="24" viewBox="0 0 24 24" fill="none" xmlns="http://www.w3.org/2000/svg">
<path d="M6 11.25C5.58579 11.25 5.25 11.5858 5.25 12V16C5.25 18.6234 7.37665 20.75 10 20.75H16C18.6234 20.75 20.75 18.6234 20.75 16V12C20.75 11.5858 20.4142 11.25 20 11.25H6Z" fill="#5D5D5D"/>
<path d="M4.41603 3.37596C4.18588 3.22254 3.88997 3.20823 3.64611 3.33875C3.40224 3.46926 3.25 3.7234 3.25 4V16C3.25 18.6234 5.37665 20.75 8 20.75H12C14.6234 20.75 16.75 18.6234 16.75 16V4C16.75 3.7234 16.5978 3.46926 16.3539 3.33875C16.11 3.20823 15.8141 3.22254 15.584 3.37596L13 5.09861L10.416 3.37596C10.1641 3.20801 9.8359 3.20801 9.58397 3.37596L7 5.09861L4.41603 3.37596Z" fill="#D9D9D9"/>
<path fill-rule="evenodd" clip-rule="evenodd" d="M7.25 9C7.25 8.58579 7.58579 8.25 8 8.25H12C12.4142 8.25 12.75 8.58579 12.75 9C12.75 9.41421 12.4142 9.75 12 9.75H8C7.58579 9.75 7.25 9.41421 7.25 9ZM7.25 13C7.25 12.5858 7.58579 12.25 8 12.25H12C12.4142 12.25 12.75 12.5858 12.75 13C12.75 13.4142 12.4142 13.75 12 13.75H8C7.58579 13.75 7.25 13.4142 7.25 13ZM7.25 17C7.25 16.5858 7.58579 16.25 8 16.25H12C12.4142 16.25 12.75 16.5858 12.75 17C12.75 17.4142 12.4142 17.75 12 17.75H8C7.58579 17.75 7.25 17.4142 7.25 17Z" fill="#5D5D5D"/>
</svg>
