<svg width="24" height="24" viewBox="0 0 24 24" fill="none" xmlns="http://www.w3.org/2000/svg">
<path fill-rule="evenodd" clip-rule="evenodd" d="M2.25 5C2.25 4.58579 2.58579 4.25 3 4.25L19 4.25003C19.4142 4.25003 19.75 4.58582 19.75 5.00003C19.75 5.41424 19.4142 5.75003 19 5.75003L3 5.75C2.58579 5.75 2.25 5.41421 2.25 5ZM6.25 8C6.25 7.58579 6.58579 7.25 7 7.25H21C21.4142 7.25 21.75 7.58579 21.75 8C21.75 8.41421 21.4142 8.75 21 8.75H7C6.58579 8.75 6.25 8.41421 6.25 8ZM4.25 11C4.25 10.5858 4.58579 10.25 5 10.25H15C15.4142 10.25 15.75 10.5858 15.75 11C15.75 11.4142 15.4142 11.75 15 11.75H5C4.58579 11.75 4.25 11.4142 4.25 11ZM7.25 14C7.25 13.5858 7.58579 13.25 8 13.25H14C14.4142 13.25 14.75 13.5858 14.75 14C14.75 14.4142 14.4142 14.75 14 14.75H8C7.58579 14.75 7.25 14.4142 7.25 14ZM11.25 17C11.25 16.5858 11.5858 16.25 12 16.25H16C16.4142 16.25 16.75 16.5858 16.75 17C16.75 17.4142 16.4142 17.75 16 17.75H12C11.5858 17.75 11.25 17.4142 11.25 17ZM10.25 20C10.25 19.5858 10.5858 19.25 11 19.25H13C13.4142 19.25 13.75 19.5858 13.75 20C13.75 20.4142 13.4142 20.75 13 20.75H11C10.5858 20.75 10.25 20.4142 10.25 20Z" fill="#5D5D5D"/>
</svg>
