<svg width="24" height="24" viewBox="0 0 24 24" fill="none" xmlns="http://www.w3.org/2000/svg">
<path fill-rule="evenodd" clip-rule="evenodd" d="M8.41598 17.376C8.76063 17.6058 8.85376 18.0715 8.624 18.4161L6.624 21.4161C6.39423 21.7608 5.92858 21.8539 5.58393 21.6241C5.23929 21.3944 5.14616 20.9287 5.37592 20.5841L7.37592 17.5841C7.60568 17.2394 8.07134 17.1463 8.41598 17.376ZM15.5839 17.376C15.9286 17.1463 16.3942 17.2394 16.624 17.5841L18.624 20.5841C18.8538 20.9287 18.7606 21.3944 18.416 21.6241C18.0713 21.8539 17.6057 21.7608 17.3759 21.4161L15.3759 18.4161C15.1462 18.0715 15.2393 17.6058 15.5839 17.376Z" fill="#D9D9D9"/>
<path fill-rule="evenodd" clip-rule="evenodd" d="M8 3.25C5.92893 3.25 4.25 4.92893 4.25 7V15C4.25 17.0711 5.92893 18.75 8 18.75H16C18.0711 18.75 19.75 17.0711 19.75 15V7C19.75 4.92893 18.0711 3.25 16 3.25H8Z" fill="#5D5D5D"/>
<path d="M5 7.25C4.58579 7.25 4.25 7.58579 4.25 8V12.8C4.25 13.1653 4.51321 13.4775 4.87328 13.5392L11.8733 14.7392C11.9571 14.7536 12.0429 14.7536 12.1267 14.7392L19.1267 13.5392C19.4868 13.4775 19.75 13.1653 19.75 12.8V8C19.75 7.58579 19.4142 7.25 19 7.25H5Z" fill="#D9D9D9"/>
</svg>
