<svg width="24" height="24" viewBox="0 0 24 24" fill="none" xmlns="http://www.w3.org/2000/svg">
<path d="M6 6V18H18V6H6Z" stroke="#D9D9D9" stroke-width="1.5"/>
<path d="M6 3.25C4.48122 3.25 3.25 4.48122 3.25 6C3.25 7.51878 4.48122 8.75 6 8.75C7.51878 8.75 8.75 7.51878 8.75 6C8.75 4.48122 7.51878 3.25 6 3.25Z" fill="#5D5D5D"/>
<path d="M18 3.25C16.4812 3.25 15.25 4.48122 15.25 6C15.25 7.51878 16.4812 8.75 18 8.75C19.5188 8.75 20.75 7.51878 20.75 6C20.75 4.48122 19.5188 3.25 18 3.25Z" fill="#5D5D5D"/>
<path d="M6 15.25C4.48122 15.25 3.25 16.4812 3.25 18C3.25 19.5188 4.48122 20.75 6 20.75C7.51878 20.75 8.75 19.5188 8.75 18C8.75 16.4812 7.51878 15.25 6 15.25Z" fill="#5D5D5D"/>
<path d="M18 15.25C16.4812 15.25 15.25 16.4812 15.25 18C15.25 19.5188 16.4812 20.75 18 20.75C19.5188 20.75 20.75 19.5188 20.75 18C20.75 16.4812 19.5188 15.25 18 15.25Z" fill="#5D5D5D"/>
</svg>
