<svg width="24" height="24" viewBox="0 0 24 24" fill="none" xmlns="http://www.w3.org/2000/svg">
<path fill-rule="evenodd" clip-rule="evenodd" d="M7.46967 2.46967C7.76256 2.17678 8.23744 2.17678 8.53033 2.46967L12.5303 6.46967C12.8232 6.76256 12.8232 7.23744 12.5303 7.53033C12.2374 7.82322 11.7626 7.82322 11.4697 7.53033L8.75 4.81066V20C8.75 20.4142 8.41421 20.75 8 20.75C7.58579 20.75 7.25 20.4142 7.25 20V4.81066L4.53033 7.53033C4.23744 7.82322 3.76256 7.82322 3.46967 7.53033C3.17678 7.23744 3.17678 6.76256 3.46967 6.46967L7.46967 2.46967ZM17 3.25C17.4142 3.25 17.75 3.58579 17.75 4V19.1893L20.4697 16.4697C20.7626 16.1768 21.2374 16.1768 21.5303 16.4697C21.8232 16.7626 21.8232 17.2374 21.5303 17.5303L17.5303 21.5303C17.2374 21.8232 16.7626 21.8232 16.4697 21.5303L12.4697 17.5303C12.1768 17.2374 12.1768 16.7626 12.4697 16.4697C12.7626 16.1768 13.2374 16.1768 13.5303 16.4697L16.25 19.1893V4C16.25 3.58579 16.5858 3.25 17 3.25Z" fill="#5D5D5D"/>
</svg>
