<svg width="24" height="24" viewBox="0 0 24 24" fill="none" xmlns="http://www.w3.org/2000/svg">
<path fill-rule="evenodd" clip-rule="evenodd" d="M10 3.75C9.58579 3.75 9.25 3.41421 9.25 3C9.25 2.58579 9.58579 2.25 10 2.25H15C15.4142 2.25 15.75 2.58579 15.75 3V8C15.75 8.41421 15.4142 8.75 15 8.75C14.5858 8.75 14.25 8.41421 14.25 8V4.81066L3.53033 15.5303C3.23744 15.8232 2.76256 15.8232 2.46967 15.5303C2.17678 15.2374 2.17678 14.7626 2.46967 14.4697L13.1893 3.75H10ZM21.5303 8.46967C21.8232 8.76256 21.8232 9.23744 21.5303 9.53033L10.8107 20.25H14C14.4142 20.25 14.75 20.5858 14.75 21C14.75 21.4142 14.4142 21.75 14 21.75H9C8.58579 21.75 8.25 21.4142 8.25 21V16C8.25 15.5858 8.58579 15.25 9 15.25C9.41421 15.25 9.75 15.5858 9.75 16V19.1893L20.4697 8.46967C20.7626 8.17678 21.2374 8.17678 21.5303 8.46967Z" fill="#5D5D5D"/>
</svg>
