<svg width="24" height="24" viewBox="0 0 24 24" fill="none" xmlns="http://www.w3.org/2000/svg">
<path fill-rule="evenodd" clip-rule="evenodd" d="M2.96943 17.0303C2.67653 16.7374 2.67653 16.2626 2.96943 15.9697L6.96943 11.9697C7.26232 11.6768 7.73719 11.6768 8.03009 11.9697C8.32298 12.2626 8.32298 12.7374 8.03009 13.0303L5.31042 15.75H20.4998C20.914 15.75 21.2498 16.0858 21.2498 16.5C21.2498 16.9142 20.914 17.25 20.4998 17.25H5.31042L8.03009 19.9697C8.32298 20.2626 8.32298 20.7374 8.03009 21.0303C7.73719 21.3232 7.26232 21.3232 6.96943 21.0303L2.96943 17.0303ZM3.74976 7.5C3.74976 7.08579 4.08554 6.75 4.49976 6.75H19.6891L16.9694 4.03033C16.6765 3.73744 16.6765 3.26256 16.9694 2.96967C17.2623 2.67678 17.7372 2.67678 18.0301 2.96967L22.0301 6.96967C22.323 7.26256 22.323 7.73744 22.0301 8.03033L18.0301 12.0303C17.7372 12.3232 17.2623 12.3232 16.9694 12.0303C16.6765 11.7374 16.6765 11.2626 16.9694 10.9697L19.6891 8.25H4.49976C4.08554 8.25 3.74976 7.91421 3.74976 7.5Z" fill="#5D5D5D"/>
</svg>
