<svg width="24" height="24" viewBox="0 0 24 24" fill="none" xmlns="http://www.w3.org/2000/svg">
<path d="M19.75 6.75V19C19.75 20.5188 18.5188 21.75 17 21.75H7C5.48122 21.75 4.25 20.5188 4.25 19V6.75H19.75Z" fill="#5D5D5D"/>
<path fill-rule="evenodd" clip-rule="evenodd" d="M10 3.75C9.30964 3.75 8.75 4.30964 8.75 5V5.25H15.25V5C15.25 4.30964 14.6904 3.75 14 3.75H10ZM16.75 5.25V5C16.75 3.48122 15.5188 2.25 14 2.25H10C8.48122 2.25 7.25 3.48122 7.25 5V5.25H3C2.58579 5.25 2.25 5.58579 2.25 6C2.25 6.41421 2.58579 6.75 3 6.75H21C21.4142 6.75 21.75 6.41421 21.75 6C21.75 5.58579 21.4142 5.25 21 5.25H16.75Z" fill="#D9D9D9"/>
</svg>
