<svg width="24" height="24" viewBox="0 0 24 24" fill="none" xmlns="http://www.w3.org/2000/svg">
<path fill-rule="evenodd" clip-rule="evenodd" d="M14.25 7C14.25 6.58579 14.5858 6.25 15 6.25H20C20.4142 6.25 20.75 6.58579 20.75 7V12C20.75 12.4142 20.4142 12.75 20 12.75C19.5858 12.75 19.25 12.4142 19.25 12V8.81066L13.5303 14.5303C13.2374 14.8232 12.7626 14.8232 12.4697 14.5303L9 11.0607L3.53033 16.5303C3.23744 16.8232 2.76256 16.8232 2.46967 16.5303C2.17678 16.2374 2.17678 15.7626 2.46967 15.4697L8.46967 9.46967C8.76256 9.17678 9.23744 9.17678 9.53033 9.46967L13 12.9393L18.1893 7.75H15C14.5858 7.75 14.25 7.41421 14.25 7Z" fill="#5D5D5D"/>
</svg>
