<svg width="24" height="24" viewBox="0 0 24 24" fill="none" xmlns="http://www.w3.org/2000/svg">
<path fill-rule="evenodd" clip-rule="evenodd" d="M14.25 17C14.25 17.4142 14.5858 17.75 15 17.75L20 17.75C20.4142 17.75 20.75 17.4142 20.75 17V12C20.75 11.5858 20.4142 11.25 20 11.25C19.5858 11.25 19.25 11.5858 19.25 12V15.1893L13.5303 9.46967C13.2374 9.17678 12.7626 9.17678 12.4697 9.46967L9 12.9393L3.53033 7.46967C3.23744 7.17678 2.76256 7.17678 2.46967 7.46967C2.17678 7.76256 2.17678 8.23744 2.46967 8.53033L8.46967 14.5303C8.76256 14.8232 9.23744 14.8232 9.53033 14.5303L13 11.0607L18.1893 16.25L15 16.25C14.5858 16.25 14.25 16.5858 14.25 17Z" fill="#5D5D5D"/>
</svg>
