<svg width="24" height="24" viewBox="0 0 24 24" fill="none" xmlns="http://www.w3.org/2000/svg">
<path d="M13.6708 2.66467C13.5136 2.35026 13.1591 2.18722 12.8181 2.27247L8.8181 3.27247C8.60043 3.32689 8.41856 3.47589 8.32239 3.6786C8.22622 3.88131 8.22585 4.11642 8.32139 4.31943L16.3214 21.3194C16.4074 21.5022 16.5635 21.6426 16.7544 21.7087C16.9452 21.7749 17.1547 21.7612 17.3354 21.6709L21.3354 19.6709C21.7059 19.4857 21.8561 19.0352 21.6708 18.6647L13.6708 2.66467Z" fill="#5D5D5D"/>
<path d="M9.67861 3.68065C9.55289 3.41349 9.28211 3.24496 8.98689 3.25012C8.69167 3.25527 8.42695 3.43317 8.31064 3.70456L2.31064 17.7046C2.22232 17.9107 2.23083 18.1455 2.33386 18.3446C2.43688 18.5438 2.62361 18.6864 2.84285 18.7334L16.8429 21.7334C17.1216 21.7931 17.4101 21.6896 17.5874 21.4663C17.7647 21.2431 17.8 20.9386 17.6786 20.6807L9.67861 3.68065Z" fill="#D9D9D9"/>
</svg>
