<svg width="24" height="24" viewBox="0 0 24 24" fill="none" xmlns="http://www.w3.org/2000/svg">
<path d="M8 10.25C4.82436 10.25 2.25 12.8244 2.25 16C2.25 19.1756 4.82436 21.75 8 21.75C9.88142 21.75 11.5518 20.8456 12.5996 19.451C12.8001 19.1841 12.8001 18.8169 12.5996 18.55C12.0718 17.8475 11.75 16.8417 11.75 16C11.75 15.1678 11.9978 14.3314 12.619 13.4235C12.7761 13.1939 12.7932 12.8962 12.6634 12.6501C12.5336 12.404 12.2782 12.25 12 12.25C11.7384 12.25 11.483 12.2265 11.2355 12.1815C11.0625 12.1502 10.8932 12.1083 10.7283 12.0567C9.87086 11.7882 9.12896 11.2542 8.59967 10.5496C8.45801 10.361 8.23588 10.25 8 10.25Z" fill="black"/>
<path d="M16 10.25C15.7641 10.25 15.542 10.361 15.4003 10.5496C14.6236 11.5836 13.3899 12.25 12 12.25C11.7524 12.25 11.5208 12.3722 11.381 12.5765C10.6089 13.705 10.25 14.8322 10.25 16C10.25 17.1583 10.6724 18.482 11.4004 19.451C12.4482 20.8456 14.1186 21.75 16 21.75C19.1756 21.75 21.75 19.1756 21.75 16C21.75 12.8244 19.1756 10.25 16 10.25Z" fill="#5D5D5D"/>
<path d="M17.75 8C17.75 11.1756 15.1756 13.75 12 13.75C11.6482 13.75 11.3031 13.7183 10.9677 13.6574C10.7333 13.6149 10.5038 13.5582 10.2801 13.4881C9.63107 13.2849 9.03218 12.9701 8.50551 12.5664C7.1345 11.5158 6.25 9.86173 6.25 8C6.25 4.82436 8.82436 2.25 12 2.25C15.1756 2.25 17.75 4.82436 17.75 8Z" fill="#D9D9D9"/>
</svg>
