<svg width="24" height="24" viewBox="0 0 24 24" fill="none" xmlns="http://www.w3.org/2000/svg">
<path d="M15 7.25C14.5858 7.25 14.25 7.58579 14.25 8V12C14.25 12.4142 14.5858 12.75 15 12.75H21C21.4142 12.75 21.75 12.4142 21.75 12V11C21.75 8.92893 20.0711 7.25 18 7.25H15Z" fill="#D9D9D9"/>
<path d="M5 4.25C3.48122 4.25 2.25 5.48122 2.25 7V17C2.25 17.4142 2.58579 17.75 3 17.75H4.26756C4.53529 17.75 4.78271 17.6073 4.91677 17.3755C5.13403 17 5.53827 16.75 6 16.75C6.46173 16.75 6.86597 17 7.08323 17.3755C7.21729 17.6073 7.46471 17.75 7.73244 17.75H13.2676C13.5353 17.75 13.7827 17.6073 13.9168 17.3755C14.134 17 14.5383 16.75 15 16.75C15.2289 16.75 15.4414 16.8109 15.6245 16.9168C15.8145 17.0267 15.9733 17.1855 16.0832 17.3755C16.2173 17.6073 16.4647 17.75 16.7324 17.75H20C20.9665 17.75 21.75 16.9665 21.75 16V11.25H15.75V5C15.75 4.58579 15.4142 4.25 15 4.25H5Z" fill="#5D5D5D"/>
<path d="M8.38164 16.6245C8.34956 16.569 8.31562 16.5148 8.2799 16.4619C7.78697 15.7323 6.94994 15.25 6 15.25C4.98117 15.25 4.09272 15.8044 3.61836 16.6245C3.38393 17.0297 3.25 17.5004 3.25 18C3.25 19.5188 4.48122 20.75 6 20.75C7.51878 20.75 8.75 19.5188 8.75 18C8.75 17.4999 8.61591 17.0295 8.38164 16.6245Z" fill="#D9D9D9"/>
<path d="M15 15.25C13.9812 15.25 13.0927 15.8044 12.6184 16.6245C12.3839 17.0297 12.25 17.5004 12.25 18C12.25 19.5188 13.4812 20.75 15 20.75C16.5188 20.75 17.75 19.5188 17.75 18C17.75 17.5004 17.6161 17.0297 17.3816 16.6245C17.1403 16.2072 16.7928 15.8597 16.3755 15.6184C15.9703 15.3839 15.4996 15.25 15 15.25Z" fill="#D9D9D9"/>
</svg>
