<svg width="24" height="24" viewBox="0 0 24 24" fill="none" xmlns="http://www.w3.org/2000/svg">
<path fill-rule="evenodd" clip-rule="evenodd" d="M10.5303 3.46967C10.8232 3.76256 10.8232 4.23744 10.5303 4.53033L6.81066 8.25H15C16.5188 8.25 17.75 9.48122 17.75 11V19C17.75 19.4142 17.4142 19.75 17 19.75C16.5858 19.75 16.25 19.4142 16.25 19V11C16.25 10.3096 15.6904 9.75 15 9.75H6.81066L10.5303 13.4697C10.8232 13.7626 10.8232 14.2374 10.5303 14.5303C10.2374 14.8232 9.76256 14.8232 9.46967 14.5303L4.46967 9.53033C4.17678 9.23744 4.17678 8.76256 4.46967 8.46967L9.46967 3.46967C9.76256 3.17678 10.2374 3.17678 10.5303 3.46967Z" fill="#5D5D5D"/>
</svg>
