<svg width="24" height="24" viewBox="0 0 24 24" fill="none" xmlns="http://www.w3.org/2000/svg">
<path fill-rule="evenodd" clip-rule="evenodd" d="M13.4697 3.46967C13.1768 3.76256 13.1768 4.23744 13.4697 4.53033L17.1893 8.25H9C7.48122 8.25 6.25 9.48122 6.25 11V19C6.25 19.4142 6.58579 19.75 7 19.75C7.41421 19.75 7.75 19.4142 7.75 19V11C7.75 10.3096 8.30964 9.75 9 9.75H17.1893L13.4697 13.4697C13.1768 13.7626 13.1768 14.2374 13.4697 14.5303C13.7626 14.8232 14.2374 14.8232 14.5303 14.5303L19.5303 9.53033C19.8232 9.23744 19.8232 8.76256 19.5303 8.46967L14.5303 3.46967C14.2374 3.17678 13.7626 3.17678 13.4697 3.46967Z" fill="#5D5D5D"/>
</svg>
