<svg width="24" height="24" viewBox="0 0 24 24" fill="none" xmlns="http://www.w3.org/2000/svg">
<path fill-rule="evenodd" clip-rule="evenodd" d="M9.58399 2.37604C9.92864 2.14628 10.3943 2.23941 10.6241 2.58405L12 4.648L13.376 2.58405C13.6057 2.23941 14.0714 2.14628 14.416 2.37604C14.7607 2.60581 14.8538 3.07146 14.6241 3.4161L12.6241 6.4161C12.485 6.62475 12.2508 6.75008 12 6.75008C11.7493 6.75008 11.5151 6.62475 11.376 6.4161L9.37598 3.4161C9.14622 3.07146 9.23935 2.60581 9.58399 2.37604Z" fill="#D9D9D9"/>
<path d="M6 5.25C4.48122 5.25 3.25 6.48122 3.25 8V18C3.25 19.5188 4.48122 20.75 6 20.75H18C19.5188 20.75 20.75 19.5188 20.75 18V8C20.75 6.48122 19.5188 5.25 18 5.25H6Z" fill="#5D5D5D"/>
</svg>
