<svg width="24" height="24" viewBox="0 0 24 24" fill="none" xmlns="http://www.w3.org/2000/svg">
<path d="M5 5.25C4.58579 5.25 4.25 5.58579 4.25 6V17C4.25 17.4142 4.58579 17.75 5 17.75H19C19.4142 17.75 19.75 17.4142 19.75 17V6C19.75 5.58579 19.4142 5.25 19 5.25H5Z" fill="#5D5D5D"/>
<path fill-rule="evenodd" clip-rule="evenodd" d="M2.25 17C2.25 16.5858 2.58579 16.25 3 16.25H21C21.4142 16.25 21.75 16.5858 21.75 17C21.75 17.4142 21.4142 17.75 21 17.75H3C2.58579 17.75 2.25 17.4142 2.25 17Z" fill="#D9D9D9"/>
</svg>
