<svg width="24" height="24" viewBox="0 0 24 24" fill="none" xmlns="http://www.w3.org/2000/svg">
<path fill-rule="evenodd" clip-rule="evenodd" d="M12.4665 12.4667C12.7594 12.1738 13.2343 12.1738 13.5272 12.4667L20.5303 19.4699C20.8232 19.7628 20.8232 20.2377 20.5303 20.5305C20.2374 20.8234 19.7625 20.8234 19.4697 20.5305L12.4665 13.5274C12.1736 13.2345 12.1736 12.7596 12.4665 12.4667Z" fill="#D9D9D9"/>
<path d="M19.2007 7.89469L16.5286 10.5321L10.5256 16.535L7.84826 19.1651L7.84661 19.1667C7.17822 19.8284 6.01415 19.8824 5.35845 19.0561C4.0387 17.3929 3.25 15.2875 3.25 13C3.25 10.3156 4.33579 7.88345 6.09036 6.12109C7.85513 4.34848 10.3 3.25 13 3.25C15.3129 3.25 17.4396 4.05632 19.1113 5.40257C19.9336 6.06478 19.8704 7.22984 19.2022 7.89315L19.2007 7.89469Z" fill="#5D5D5D"/>
</svg>
