<svg width="24" height="24" viewBox="0 0 24 24" fill="none" xmlns="http://www.w3.org/2000/svg">
<path fill-rule="evenodd" clip-rule="evenodd" d="M14 6.25C14.4142 6.25 14.75 6.58579 14.75 7V10.8607C15.3745 10.3815 16.152 10.0962 17 10.0962C19.0889 10.0962 20.75 11.8275 20.75 13.9231C20.75 16.0186 19.0889 17.75 17 17.75C16.152 17.75 15.3745 17.4647 14.75 16.9854V17C14.75 17.4142 14.4142 17.75 14 17.75C13.5858 17.75 13.25 17.4142 13.25 17V7C13.25 6.58579 13.5858 6.25 14 6.25ZM14.75 13.9231C14.75 15.2262 15.7751 16.25 17 16.25C18.2249 16.25 19.25 15.2262 19.25 13.9231C19.25 12.6199 18.2249 11.5962 17 11.5962C15.7751 11.5962 14.75 12.6199 14.75 13.9231ZM4 9.25C4.41421 9.25 4.75 9.58579 4.75 10V13.4586C4.75 14.849 5.99845 15.9066 7.3699 15.678C8.45482 15.4972 9.25 14.5585 9.25 13.4586V10C9.25 9.58579 9.58579 9.25 10 9.25C10.4142 9.25 10.75 9.58579 10.75 10V17C10.75 17.4142 10.4142 17.75 10 17.75C9.58579 17.75 9.25 17.4142 9.25 17V16.459C8.78211 16.8103 8.22681 17.0559 7.6165 17.1576C5.33075 17.5386 3.25 15.7759 3.25 13.4586V10C3.25 9.58579 3.58579 9.25 4 9.25Z" fill="#5D5D5D"/>
<path fill-rule="evenodd" clip-rule="evenodd" d="M3.25 20C3.25 19.5858 3.58579 19.25 4 19.25H20C20.4142 19.25 20.75 19.5858 20.75 20C20.75 20.4142 20.4142 20.75 20 20.75H4C3.58579 20.75 3.25 20.4142 3.25 20Z" fill="#D9D9D9"/>
</svg>
