<svg width="24" height="24" viewBox="0 0 24 24" fill="none" xmlns="http://www.w3.org/2000/svg">
<path fill-rule="evenodd" clip-rule="evenodd" d="M9.53033 4.46967C9.82322 4.76256 9.82322 5.23744 9.53033 5.53033L7.81066 7.25H17C19.6234 7.25 21.75 9.37665 21.75 12C21.75 14.6234 19.6234 16.75 17 16.75H5C4.58579 16.75 4.25 16.4142 4.25 16C4.25 15.5858 4.58579 15.25 5 15.25H17C18.7949 15.25 20.25 13.7949 20.25 12C20.25 10.2051 18.7949 8.75 17 8.75H7.81066L9.53033 10.4697C9.82322 10.7626 9.82322 11.2374 9.53033 11.5303C9.23744 11.8232 8.76256 11.8232 8.46967 11.5303L5.46967 8.53033C5.17678 8.23744 5.17678 7.76256 5.46967 7.46967L8.46967 4.46967C8.76256 4.17678 9.23744 4.17678 9.53033 4.46967Z" fill="#5D5D5D"/>
</svg>
