<svg width="24" height="24" viewBox="0 0 24 24" fill="none" xmlns="http://www.w3.org/2000/svg">
<path fill-rule="evenodd" clip-rule="evenodd" d="M11.4697 6.46967C11.7626 6.17678 12.2374 6.17678 12.5303 6.46967L15.5303 9.46967C15.8232 9.76256 15.8232 10.2374 15.5303 10.5303C15.2374 10.8232 14.7626 10.8232 14.4697 10.5303L12.75 8.81066V21C12.75 21.4142 12.4142 21.75 12 21.75C11.5858 21.75 11.25 21.4142 11.25 21V8.81066L9.53033 10.5303C9.23744 10.8232 8.76256 10.8232 8.46967 10.5303C8.17678 10.2374 8.17678 9.76256 8.46967 9.46967L11.4697 6.46967Z" fill="#5D5D5D"/>
<path fill-rule="evenodd" clip-rule="evenodd" d="M4.25 3C4.25 2.58579 4.58579 2.25 5 2.25H19C19.4142 2.25 19.75 2.58579 19.75 3C19.75 3.41421 19.4142 3.75 19 3.75H5C4.58579 3.75 4.25 3.41421 4.25 3Z" fill="#D9D9D9"/>
</svg>
