<svg width="24" height="24" viewBox="0 0 24 24" fill="none" xmlns="http://www.w3.org/2000/svg">
<path fill-rule="evenodd" clip-rule="evenodd" d="M14.2785 6.30384C14.6631 6.45768 14.8502 6.89415 14.6963 7.27874L12.6963 12.2787C12.5425 12.6633 12.106 12.8504 11.7214 12.6966C11.3369 12.5427 11.1498 12.1062 11.3036 11.7217L13.3036 6.72166C13.4575 6.33707 13.8939 6.15001 14.2785 6.30384Z" fill="#D9D9D9"/>
<path d="M7.59949 12.3659C9.12713 11.4012 10.3152 11.25 11.9999 11.25C13.6847 11.25 14.8728 11.4012 16.4004 12.3659C17.4906 13.0543 18.3169 14.3674 18.8469 15.3899C19.1215 15.9198 19.3357 16.4103 19.4813 16.7682C19.5543 16.9476 19.6105 17.0947 19.6488 17.1982C19.668 17.25 19.6827 17.2909 19.6929 17.3195L19.7047 17.3531L19.708 17.3627L19.7094 17.3666C19.7811 17.5763 19.7566 17.8078 19.642 17.9976C19.5273 18.1873 19.3346 18.3167 19.1156 18.3509L16.7689 18.7171C16.6329 18.7383 16.4823 18.7521 16.322 18.7472C15.01 18.7069 13.354 18.2316 12.4664 17.9486C12.1639 17.8522 11.8365 17.8522 11.5336 17.9487C10.6509 18.2299 9.01318 18.6985 7.68618 18.7461C7.52259 18.752 7.36827 18.7386 7.22804 18.717L4.85357 18.3511C4.63312 18.3171 4.43923 18.1868 4.32454 17.9955C4.20984 17.8042 4.18624 17.5718 4.26014 17.3614L4.26174 17.3568L4.26514 17.3473L4.27725 17.3138C4.28767 17.2852 4.30277 17.2443 4.3224 17.1926C4.36164 17.0893 4.4191 16.9422 4.4936 16.763C4.64224 16.4054 4.86047 15.9152 5.13911 15.3857C5.67689 14.3638 6.51138 13.053 7.59949 12.3659Z" fill="#5D5D5D"/>
<path fill-rule="evenodd" clip-rule="evenodd" d="M20.7423 16.2959C21.1312 16.1536 21.5619 16.3535 21.7043 16.7424C21.8467 17.1314 21.6468 17.5621 21.2578 17.7045L21.2539 17.7059L21.2447 17.7093L21.2114 17.7212C21.1827 17.7315 21.1412 17.7461 21.0883 17.7645C20.9824 17.8013 20.8306 17.8529 20.6438 17.9134C20.271 18.0341 19.7552 18.1915 19.1853 18.3368C18.3529 18.549 17.3503 18.7502 16.5 18.7502C15.1563 18.7502 13.3875 18.2425 12.4665 17.9489C12.1639 17.8524 11.8366 17.8524 11.5336 17.9489C10.6168 18.241 8.8669 18.7416 7.50475 18.7502C6.6321 18.7557 5.617 18.5519 4.78067 18.3363C4.21577 18.1908 3.70731 18.0331 3.34054 17.9121C3.15677 17.8515 3.00763 17.7998 2.90365 17.7629C2.85164 17.7445 2.81087 17.7297 2.78265 17.7194L2.74988 17.7074L2.74085 17.704L2.7371 17.7026C2.7371 17.7026 2.7371 17.7026 2.74988 17.7074L2.7371 17.7026C2.34921 17.5573 2.15235 17.125 2.29766 16.7371C2.44296 16.3492 2.87515 16.1526 3.26302 16.2978L3.26425 16.2983L3.27038 16.3006L3.29711 16.3104C3.3212 16.3192 3.35759 16.3324 3.40497 16.3492C3.4998 16.3828 3.63841 16.4309 3.81046 16.4876C4.15533 16.6014 4.63078 16.7487 5.15498 16.8838C5.95843 17.0908 6.82155 17.2545 7.49524 17.2502C8.60334 17.2432 10.1551 16.8138 11.0783 16.5197C11.6772 16.3289 12.3229 16.3287 12.9221 16.5197C13.8552 16.8172 15.4183 17.2502 16.5 17.2502C17.157 17.2502 18.0118 17.088 18.8147 16.8833C19.3454 16.748 19.8296 16.6004 20.1816 16.4864C20.3573 16.4295 20.4991 16.3813 20.5963 16.3475C20.6448 16.3307 20.6822 16.3174 20.707 16.3086L20.7345 16.2987L20.7409 16.2964L20.7423 16.2959Z" fill="#D9D9D9"/>
<path d="M14 2.25C12.2409 2.25 10.7061 3.20663 9.88595 4.62446C9.78629 4.79674 9.7592 5.00157 9.81064 5.19384C9.86208 5.38611 9.98784 5.55005 10.1602 5.64955L17.09 9.64956C17.4485 9.85649 17.9068 9.73385 18.1141 9.37554C18.5187 8.67612 18.75 7.86394 18.75 7C18.75 4.37665 16.6234 2.25 14 2.25Z" fill="#5D5D5D"/>
</svg>
