<svg width="24" height="24" viewBox="0 0 24 24" fill="none" xmlns="http://www.w3.org/2000/svg">
<path fill-rule="evenodd" clip-rule="evenodd" d="M11.4697 2.46967C11.7626 2.17678 12.2374 2.17678 12.5303 2.46967L15.5303 5.46967C15.8232 5.76256 15.8232 6.23744 15.5303 6.53033C15.2374 6.82322 14.7626 6.82322 14.4697 6.53033L12.75 4.81066V19.1893L14.4697 17.4697C14.7626 17.1768 15.2374 17.1768 15.5303 17.4697C15.8232 17.7626 15.8232 18.2374 15.5303 18.5303L12.5303 21.5303C12.2374 21.8232 11.7626 21.8232 11.4697 21.5303L8.46967 18.5303C8.17678 18.2374 8.17678 17.7626 8.46967 17.4697C8.76256 17.1768 9.23744 17.1768 9.53033 17.4697L11.25 19.1893V4.81066L9.53033 6.53033C9.23744 6.82322 8.76256 6.82322 8.46967 6.53033C8.17678 6.23744 8.17678 5.76256 8.46967 5.46967L11.4697 2.46967Z" fill="#5D5D5D"/>
</svg>
