<svg width="24" height="24" viewBox="0 0 24 24" fill="none" xmlns="http://www.w3.org/2000/svg">
<path fill-rule="evenodd" clip-rule="evenodd" d="M5.25 10C5.25 9.58579 5.58579 9.25 6 9.25H18C18.4142 9.25 18.75 9.58579 18.75 10C18.75 10.4142 18.4142 10.75 18 10.75H6C5.58579 10.75 5.25 10.4142 5.25 10Z" fill="#D9D9D9"/>
<path d="M6 9.25C3.92893 9.25 2.25 10.9289 2.25 13C2.25 15.0711 3.92893 16.75 6 16.75C8.07107 16.75 9.75 15.0711 9.75 13C9.75 10.9289 8.07107 9.25 6 9.25Z" fill="#5D5D5D"/>
<path d="M18 9.25C15.9289 9.25 14.25 10.9289 14.25 13C14.25 15.0711 15.9289 16.75 18 16.75C20.0711 16.75 21.75 15.0711 21.75 13C21.75 10.9289 20.0711 9.25 18 9.25Z" fill="#5D5D5D"/>
</svg>
