<svg width="24" height="24" viewBox="0 0 24 24" fill="none" xmlns="http://www.w3.org/2000/svg">
<path fill-rule="evenodd" clip-rule="evenodd" d="M15.75 5V7.64101C16.9735 8.69453 17.75 10.2567 17.75 12C17.75 13.7433 16.9735 15.3055 15.75 16.359V19C15.75 20.5188 14.5188 21.75 13 21.75H11C9.48122 21.75 8.25 20.5188 8.25 19V16.359C7.02651 15.3055 6.25 13.7433 6.25 12C6.25 10.2567 7.02665 8.69482 8.25 7.64139V5C8.25 3.48122 9.48122 2.25 11 2.25H13C14.5188 2.25 15.75 3.48122 15.75 5Z" fill="#5D5D5D"/>
<path d="M12 6.25C10.7062 6.25 9.51054 6.67844 8.54954 7.40034C7.15481 8.44806 6.25 10.1183 6.25 12C6.25 13.8817 7.15465 15.5523 8.54957 16.6C9.51065 17.3219 10.7064 17.75 12 17.75C13.2936 17.75 14.4894 17.3219 15.4504 16.6C16.8454 15.5523 17.75 13.8817 17.75 12C17.75 10.1183 16.8454 8.44773 15.4504 7.39996C14.4894 6.67806 13.2936 6.25 12 6.25Z" fill="#D9D9D9"/>
<path fill-rule="evenodd" clip-rule="evenodd" d="M12 9.25C12.4142 9.25 12.75 9.58579 12.75 10V12C12.75 12.1989 12.671 12.3897 12.5303 12.5303L11.5303 13.5303C11.2374 13.8232 10.7626 13.8232 10.4697 13.5303C10.1768 13.2374 10.1768 12.7626 10.4697 12.4697L11.25 11.6893V10C11.25 9.58579 11.5858 9.25 12 9.25Z" fill="#5D5D5D"/>
</svg>
