<svg width="24" height="24" viewBox="0 0 24 24" fill="none" xmlns="http://www.w3.org/2000/svg">
<path fill-rule="evenodd" clip-rule="evenodd" d="M12 2.25C7.71979 2.25 4.25 5.71979 4.25 10C4.25 14.0272 7.3217 17.3369 11.25 17.7142V20.25H8C7.58579 20.25 7.25 20.5858 7.25 21C7.25 21.4142 7.58579 21.75 8 21.75H16C16.4142 21.75 16.75 21.4142 16.75 21C16.75 20.5858 16.4142 20.25 16 20.25H12.75V17.7142C16.6783 17.3369 19.75 14.0272 19.75 10C19.75 5.71979 16.2802 2.25 12 2.25Z" fill="#5D5D5D"/>
<path d="M12 7.25C10.4812 7.25 9.25 8.48122 9.25 10C9.25 11.5188 10.4812 12.75 12 12.75C13.5188 12.75 14.75 11.5188 14.75 10C14.75 8.48122 13.5188 7.25 12 7.25Z" fill="#D9D9D9"/>
</svg>
