<svg width="24" height="24" viewBox="0 0 24 24" fill="none" xmlns="http://www.w3.org/2000/svg">
<path d="M12 8.25C8.5457 8.25 6.76367 9.74221 5.92142 10.9084C5.23762 11.8552 5.5792 12.9869 6.19472 13.6708L9.95599 17.85C11.0484 19.0638 12.9517 19.0638 14.0441 17.85L17.8054 13.6708C18.4209 12.9869 18.7625 11.8552 18.0787 10.9084C17.2364 9.7422 15.4544 8.25 12 8.25Z" fill="#5D5D5D"/>
<path fill-rule="evenodd" clip-rule="evenodd" d="M12 13.75C10.6229 13.75 9.90416 14.2227 9.5359 14.5987C9.24605 14.8946 8.7712 14.8995 8.4753 14.6096C8.17939 14.3198 8.17449 13.8449 8.46434 13.549C9.12142 12.8782 10.2293 12.25 12 12.25C13.8043 12.25 14.9113 12.9158 15.553 13.6159C15.8329 13.9212 15.8123 14.3956 15.5069 14.6755C15.2016 14.9554 14.7271 14.9348 14.4473 14.6294C14.0945 14.2446 13.391 13.75 12 13.75Z" fill="#D9D9D9"/>
</svg>
