<svg width="24" height="24" viewBox="0 0 24 24" fill="none" xmlns="http://www.w3.org/2000/svg">
<path d="M12 4.25C7.91626 4.25 5.13322 6.00232 3.66272 7.26193C2.55304 8.21248 2.68124 9.76695 3.54264 10.7241L9.95595 17.85C11.0484 19.0638 12.9517 19.0638 14.0441 17.85L20.4574 10.7241C21.3188 9.76695 21.447 8.21248 20.3373 7.26194C18.8668 6.00232 16.0838 4.25 12 4.25Z" fill="#5D5D5D"/>
<path fill-rule="evenodd" clip-rule="evenodd" d="M12 9.75C9.3821 9.75 8.03878 10.7276 7.37078 11.4931C7.09845 11.8052 6.62467 11.8374 6.31257 11.5651C6.00047 11.2928 5.96823 10.819 6.24057 10.5069C7.19229 9.41621 8.94712 8.25 12 8.25C15.0528 8.25 16.8076 9.41621 17.7593 10.5069C18.0317 10.819 17.9994 11.2928 17.6873 11.5651C17.3752 11.8374 16.9015 11.8052 16.6291 11.4931C15.9611 10.7276 14.6178 9.75 12 9.75ZM12 13.75C10.6227 13.75 9.904 14.2228 9.53576 14.5988C9.24592 14.8947 8.77107 14.8996 8.47515 14.6098C8.17924 14.3199 8.17431 13.8451 8.46415 13.5491C9.1212 12.8783 10.2291 12.25 12 12.25C13.8041 12.25 14.9111 12.9157 15.5528 13.6157C15.8327 13.9211 15.8121 14.3955 15.5068 14.6754C15.2014 14.9553 14.727 14.9347 14.4471 14.6294C14.0943 14.2445 13.3908 13.75 12 13.75Z" fill="#D9D9D9"/>
</svg>
