<svg width="24" height="24" viewBox="0 0 24 24" fill="none" xmlns="http://www.w3.org/2000/svg">
<path fill-rule="evenodd" clip-rule="evenodd" d="M12.75 4C12.75 3.58579 13.0858 3.25 13.5 3.25C15.2949 3.25 16.75 4.70507 16.75 6.5C16.75 8.29493 15.2949 9.75 13.5 9.75H3C2.58579 9.75 2.25 9.41421 2.25 9C2.25 8.58579 2.58579 8.25 3 8.25H13.5C14.4665 8.25 15.25 7.4665 15.25 6.5C15.25 5.5335 14.4665 4.75 13.5 4.75C13.0858 4.75 12.75 4.41421 12.75 4ZM2.25 12C2.25 11.5858 2.58579 11.25 3 11.25H18.5C20.8472 11.25 22.75 13.1528 22.75 15.5C22.75 17.8472 20.8472 19.75 18.5 19.75C18.0858 19.75 17.75 19.4142 17.75 19C17.75 18.5858 18.0858 18.25 18.5 18.25C20.0188 18.25 21.25 17.0188 21.25 15.5C21.25 13.9812 20.0188 12.75 18.5 12.75H3C2.58579 12.75 2.25 12.4142 2.25 12ZM2.25 15C2.25 14.5858 2.58579 14.25 3 14.25H11.5C13.2949 14.25 14.75 15.7051 14.75 17.5C14.75 19.2949 13.2949 20.75 11.5 20.75C11.0858 20.75 10.75 20.4142 10.75 20C10.75 19.5858 11.0858 19.25 11.5 19.25C12.4665 19.25 13.25 18.4665 13.25 17.5C13.25 16.5335 12.4665 15.75 11.5 15.75H3C2.58579 15.75 2.25 15.4142 2.25 15Z" fill="#5D5D5D"/>
</svg>
