<svg width="24" height="24" viewBox="0 0 24 24" fill="none" xmlns="http://www.w3.org/2000/svg">
<path d="M6 3.25C4.48122 3.25 3.25 4.48122 3.25 6V8C3.25 9.51878 4.48122 10.75 6 10.75H8C9.51878 10.75 10.75 9.51878 10.75 8V6C10.75 4.48122 9.51878 3.25 8 3.25H6Z" fill="#5D5D5D"/>
<path d="M16 3.25C14.4812 3.25 13.25 4.48122 13.25 6V8C13.25 9.51878 14.4812 10.75 16 10.75H18C19.5188 10.75 20.75 9.51878 20.75 8V6C20.75 4.48122 19.5188 3.25 18 3.25H16Z" fill="#5D5D5D"/>
<path d="M6 13.25C4.48122 13.25 3.25 14.4812 3.25 16V18C3.25 19.5188 4.48122 20.75 6 20.75H8C9.51878 20.75 10.75 19.5188 10.75 18V16C10.75 14.4812 9.51878 13.25 8 13.25H6Z" fill="#5D5D5D"/>
<path d="M16 13.25C14.4812 13.25 13.25 14.4812 13.25 16V18C13.25 19.5188 14.4812 20.75 16 20.75H18C19.5188 20.75 20.75 19.5188 20.75 18V16C20.75 14.4812 19.5188 13.25 18 13.25H16Z" fill="#5D5D5D"/>
</svg>
