<svg width="24" height="24" viewBox="0 0 24 24" fill="none" xmlns="http://www.w3.org/2000/svg">
<path d="M13.8372 2.76784C16.0572 5.21514 17.0574 7.82121 17.1812 11.2501H21.7216C21.3724 6.65898 17.8434 2.95664 13.3321 2.34033C13.5141 2.45669 13.6842 2.59919 13.8372 2.76784Z" fill="#5D5D5D"/>
<path d="M10.668 2.34033C10.486 2.45669 10.3159 2.59919 10.1629 2.76784C7.94286 5.21514 6.94266 7.82121 6.81883 11.2501H2.27844C2.62769 6.65898 6.15662 2.95664 10.668 2.34033Z" fill="#5D5D5D"/>
<path d="M2.27844 12.7501C2.6277 17.3412 6.15661 21.0436 10.668 21.6599C10.486 21.5435 10.3158 21.401 10.1629 21.2324C7.94286 18.7851 6.94266 16.179 6.81883 12.7501H2.27844Z" fill="#5D5D5D"/>
<path d="M13.3321 21.6599C17.8434 21.0435 21.3724 17.3412 21.7216 12.7501H17.1812C17.0574 16.179 16.0572 18.7851 13.8372 21.2324C13.6842 21.401 13.5141 21.5435 13.3321 21.6599Z" fill="#5D5D5D"/>
<path d="M8.31982 11.2502C8.44008 8.16224 9.33064 5.918 11.2739 3.7758C11.6653 3.34427 12.3348 3.34427 12.7262 3.7758C14.6695 5.918 15.56 8.16224 15.6803 11.2502H8.31982Z" fill="#D9D9D9"/>
<path d="M11.2739 20.2247C9.33064 18.0825 8.44008 15.8383 8.31982 12.7502H15.6803C15.56 15.8383 14.6695 18.0825 12.7262 20.2247C12.3348 20.6562 11.6653 20.6562 11.2739 20.2247Z" fill="#D9D9D9"/>
</svg>
