<svg width="24" height="24" viewBox="0 0 24 24" fill="none" xmlns="http://www.w3.org/2000/svg">
<path fill-rule="evenodd" clip-rule="evenodd" d="M3.25 6C3.25 5.58579 3.58579 5.25 4 5.25H19C19.4142 5.25 19.75 5.58579 19.75 6C19.75 6.41421 19.4142 6.75 19 6.75H4C3.58579 6.75 3.25 6.41421 3.25 6ZM3.25 12C3.25 11.5858 3.58579 11.25 4 11.25H18C20.0711 11.25 21.75 12.9289 21.75 15C21.75 17.0711 20.0711 18.75 18 18.75H16.8107L17.5303 19.4697C17.8232 19.7626 17.8232 20.2374 17.5303 20.5303C17.2374 20.8232 16.7626 20.8232 16.4697 20.5303L14.4697 18.5303C14.1768 18.2374 14.1768 17.7626 14.4697 17.4697L16.4697 15.4697C16.7626 15.1768 17.2374 15.1768 17.5303 15.4697C17.8232 15.7626 17.8232 16.2374 17.5303 16.5303L16.8107 17.25H18C19.2426 17.25 20.25 16.2426 20.25 15C20.25 13.7574 19.2426 12.75 18 12.75H4C3.58579 12.75 3.25 12.4142 3.25 12ZM3.25 18C3.25 17.5858 3.58579 17.25 4 17.25H11C11.4142 17.25 11.75 17.5858 11.75 18C11.75 18.4142 11.4142 18.75 11 18.75H4C3.58579 18.75 3.25 18.4142 3.25 18Z" fill="#5D5D5D"/>
</svg>
