<svg width="24" height="24" viewBox="0 0 24 24" fill="none" xmlns="http://www.w3.org/2000/svg">
<path d="M12 2.25C6.61522 2.25 2.25 6.61522 2.25 12C2.25 15.3812 3.97173 18.3599 6.58281 20.1077C8.1325 21.145 9.99674 21.75 12 21.75C14.0033 21.75 15.8675 21.145 17.4172 20.1077C20.0283 18.3599 21.75 15.3812 21.75 12C21.75 6.61522 17.3848 2.25 12 2.25Z" fill="#D9D9D9"/>
<path d="M12.5857 6.53148C12.4433 6.35357 12.2278 6.25 12 6.25C11.7722 6.25 11.5567 6.35357 11.4143 6.53148L7.41435 11.5315C7.30796 11.6645 7.25 11.8297 7.25 12V15C7.25 15.4142 7.58579 15.75 8 15.75H16C16.4142 15.75 16.75 15.4142 16.75 15V12C16.75 11.8297 16.692 11.6645 16.5857 11.5315L12.5857 6.53148Z" fill="black"/>
<path d="M12.75 7C12.75 6.58579 12.4142 6.25 12 6.25C11.5858 6.25 11.25 6.58579 11.25 7V12C11.25 12.4142 11.5858 12.75 12 12.75C12.4142 12.75 12.75 12.4142 12.75 12V7Z" fill="#5D5D5D"/>
<path d="M6.25 15C6.25 14.5858 6.58579 14.25 7 14.25H17C17.4142 14.25 17.75 14.5858 17.75 15V19.4845C17.75 19.7347 17.6252 19.9685 17.4172 20.1077C15.8675 21.145 14.0033 21.75 12 21.75C9.99674 21.75 8.1325 21.145 6.58281 20.1077C6.37483 19.9685 6.25 19.7347 6.25 19.4845V15Z" fill="#5D5D5D"/>
</svg>
