<svg width="24" height="24" viewBox="0 0 24 24" fill="none" xmlns="http://www.w3.org/2000/svg">
<path d="M13.5303 6.46969C13.3377 6.27709 13.0559 6.20405 12.794 6.27888L6.98979 7.93721C5.98301 8.22486 5.22694 9.05929 5.03963 10.0895L3.26211 19.8659C3.21808 20.108 3.29566 20.3563 3.46968 20.5303C3.64371 20.7044 3.89204 20.7819 4.13417 20.7379L13.9106 18.9604C14.9407 18.7731 15.7752 18.017 16.0628 17.0102L17.7212 11.2061C17.796 10.9442 17.7229 10.6623 17.5303 10.4697L13.5303 6.46969Z" fill="#D9D9D9"/>
<path d="M17.2554 5.19475C16.0283 3.96765 13.9853 4.16995 13.0227 5.61387L12.376 6.58399C12.1777 6.88146 12.2169 7.27755 12.4697 7.53035L16.4697 11.5303C16.7225 11.7831 17.1186 11.8224 17.416 11.6241L18.3862 10.9773C19.8301 10.0147 20.0324 7.97172 18.8053 6.74462L17.2554 5.19475Z" fill="#5D5D5D"/>
<path d="M8.25 13.5C8.25 13.8471 8.3289 14.1762 8.46942 14.4699L3.46967 19.4697C3.17678 19.7626 3.17678 20.2375 3.46967 20.5303C3.76256 20.8232 4.23744 20.8232 4.53033 20.5303L9.53008 15.5306C9.82382 15.6711 10.1529 15.75 10.5 15.75C11.7426 15.75 12.75 14.7427 12.75 13.5C12.75 12.2574 11.7426 11.25 10.5 11.25C9.25736 11.25 8.25 12.2574 8.25 13.5Z" fill="#5D5D5D"/>
</svg>
