<svg width="24" height="24" viewBox="0 0 24 24" fill="none" xmlns="http://www.w3.org/2000/svg">
<path d="M12 2.25C6.61522 2.25 2.25 6.61522 2.25 12C2.25 17.3848 6.61522 21.75 12 21.75C17.3848 21.75 21.75 17.3848 21.75 12C21.75 11.3268 21.6817 10.6688 21.5513 10.0328C20.771 6.22573 17.7743 3.22899 13.9672 2.44869C13.3312 2.31833 12.6732 2.25 12 2.25Z" fill="#D9D9D9"/>
<path d="M12.5303 5.46967C12.2374 5.17678 11.7626 5.17678 11.4697 5.46967L8.46968 8.46967C8.35914 8.5802 8.28591 8.72251 8.26021 8.8767L7.76021 11.8767C7.75853 11.8868 7.75706 11.8969 7.7558 11.907L7.2558 15.907C7.22709 16.1366 7.30602 16.3667 7.46968 16.5303C7.63333 16.694 7.86338 16.7729 8.09303 16.7442L12.093 16.2442C12.1032 16.2429 12.1132 16.2415 12.1233 16.2398L15.1233 15.7398C15.2775 15.7141 15.4198 15.6409 15.5303 15.5303L18.5303 12.5303C18.8232 12.2374 18.8232 11.7626 18.5303 11.4697L12.5303 5.46967Z" fill="black"/>
<path d="M13.2863 2.65328C13.4645 2.47506 13.7203 2.39828 13.9672 2.44888C17.7743 3.22918 20.771 6.22592 21.5513 10.033C21.6019 10.2799 21.5251 10.5357 21.3469 10.7139L19.0303 13.0305C18.7374 13.3234 18.2626 13.3234 17.9697 13.0305L10.9697 6.03052C10.6768 5.73763 10.6768 5.26275 10.9697 4.96986L13.2863 2.65328Z" fill="#5D5D5D"/>
<path d="M13.0303 12.0305C13.3232 11.7376 13.3232 11.2628 13.0303 10.9699C12.7374 10.677 12.2626 10.677 11.9697 10.9699L7.46967 15.4699C7.17678 15.7628 7.17678 16.2376 7.46967 16.5305C7.76256 16.8234 8.23744 16.8234 8.53033 16.5305L13.0303 12.0305Z" fill="#5D5D5D"/>
</svg>
