<svg width="24" height="24" viewBox="0 0 24 24" fill="none" xmlns="http://www.w3.org/2000/svg">
<path fill-rule="evenodd" clip-rule="evenodd" d="M11.584 3.37596C11.8359 3.20801 12.1641 3.20801 12.416 3.37596L15.416 5.37596C15.7607 5.60573 15.8538 6.07138 15.624 6.41603C15.3943 6.76067 14.9286 6.8538 14.584 6.62404L12.75 5.40139V12.5843L19.25 16.6468V15C19.25 14.5858 19.5858 14.25 20 14.25C20.4142 14.25 20.75 14.5858 20.75 15V18C20.75 18.3228 20.5434 18.6094 20.2372 18.7115L17.2372 19.7115C16.8442 19.8425 16.4195 19.6301 16.2885 19.2372C16.1575 18.8442 16.3699 18.4195 16.7628 18.2885L18.2522 17.792L12 13.8844L5.74783 17.792L7.23717 18.2885C7.63013 18.4195 7.8425 18.8442 7.71151 19.2372C7.58053 19.6301 7.15579 19.8425 6.76283 19.7115L3.76283 18.7115C3.45657 18.6094 3.25 18.3228 3.25 18V15C3.25 14.5858 3.58579 14.25 4 14.25C4.41421 14.25 4.75 14.5858 4.75 15V16.6468L11.25 12.5843V5.40139L9.41603 6.62404C9.07138 6.8538 8.60573 6.76067 8.37596 6.41603C8.1462 6.07138 8.23933 5.60573 8.58397 5.37596L11.584 3.37596Z" fill="#5D5D5D"/>
</svg>
