<svg width="24" height="24" viewBox="0 0 24 24" fill="none" xmlns="http://www.w3.org/2000/svg">
<path fill-rule="evenodd" clip-rule="evenodd" d="M6.56407 4.38976C6.90113 4.149 7.36954 4.22707 7.6103 4.56413L12 10.7097L16.3897 4.56413C16.6305 4.22707 17.0989 4.149 17.4359 4.38976C17.773 4.63051 17.8511 5.09893 17.6103 5.43599L12.75 12.2404V19.0001C12.75 19.4143 12.4142 19.7501 12 19.7501C11.5858 19.7501 11.25 19.4143 11.25 19.0001V12.2404L6.3897 5.43599C6.14894 5.09893 6.22701 4.63051 6.56407 4.38976Z" fill="#5D5D5D"/>
<path fill-rule="evenodd" clip-rule="evenodd" d="M8.25 13C8.25 12.5858 8.58579 12.25 9 12.25H15C15.4142 12.25 15.75 12.5858 15.75 13C15.75 13.4142 15.4142 13.75 15 13.75H9C8.58579 13.75 8.25 13.4142 8.25 13ZM8.25 16C8.25 15.5858 8.58579 15.25 9 15.25H15C15.4142 15.25 15.75 15.5858 15.75 16C15.75 16.4142 15.4142 16.75 15 16.75H9C8.58579 16.75 8.25 16.4142 8.25 16Z" fill="#D9D9D9"/>
</svg>
