<svg width="24" height="24" viewBox="0 0 24 24" fill="none" xmlns="http://www.w3.org/2000/svg">
<path d="M12 2.25C6.61522 2.25 2.25 6.61522 2.25 12C2.25 17.3848 6.61522 21.75 12 21.75C17.3848 21.75 21.75 17.3848 21.75 12C21.75 6.61522 17.3848 2.25 12 2.25Z" fill="#5D5D5D"/>
<path fill-rule="evenodd" clip-rule="evenodd" d="M8.46967 7.46967C8.76256 7.17678 9.23744 7.17678 9.53033 7.46967L12 9.93934L14.4697 7.46967C14.7626 7.17678 15.2374 7.17678 15.5303 7.46967C15.8232 7.76256 15.8232 8.23744 15.5303 8.53033L12.8107 11.25H14C14.4142 11.25 14.75 11.5858 14.75 12C14.75 12.4142 14.4142 12.75 14 12.75H12.75V14.25H14C14.4142 14.25 14.75 14.5858 14.75 15C14.75 15.4142 14.4142 15.75 14 15.75H12.75V17C12.75 17.4142 12.4142 17.75 12 17.75C11.5858 17.75 11.25 17.4142 11.25 17V15.75H10C9.58579 15.75 9.25 15.4142 9.25 15C9.25 14.5858 9.58579 14.25 10 14.25H11.25V12.75H10C9.58579 12.75 9.25 12.4142 9.25 12C9.25 11.5858 9.58579 11.25 10 11.25H11.1893L8.46967 8.53033C8.17678 8.23744 8.17678 7.76256 8.46967 7.46967Z" fill="#D9D9D9"/>
</svg>
