<svg width="24" height="24" viewBox="0 0 24 24" fill="none" xmlns="http://www.w3.org/2000/svg">
<path d="M10 2.25C5.71979 2.25 2.25 5.71979 2.25 10C2.25 14.2802 5.71979 17.75 10 17.75C11.87 17.75 13.5853 17.0877 14.9242 15.9848L19.4697 20.5303C19.7626 20.8232 20.2374 20.8232 20.5303 20.5303C20.8232 20.2374 20.8232 19.7626 20.5303 19.4697L15.9848 14.9242C17.0877 13.5853 17.75 11.87 17.75 10C17.75 5.71979 14.2802 2.25 10 2.25Z" fill="#5D5D5D"/>
<path fill-rule="evenodd" clip-rule="evenodd" d="M10 6.25C10.4142 6.25 10.75 6.58579 10.75 7V9.25H13C13.4142 9.25 13.75 9.58579 13.75 10C13.75 10.4142 13.4142 10.75 13 10.75H10.75V13C10.75 13.4142 10.4142 13.75 10 13.75C9.58579 13.75 9.25 13.4142 9.25 13V10.75H7C6.58579 10.75 6.25 10.4142 6.25 10C6.25 9.58579 6.58579 9.25 7 9.25H9.25V7C9.25 6.58579 9.58579 6.25 10 6.25Z" fill="#D9D9D9"/>
</svg>
