<svg width="29" height="28" viewBox="0 0 29 28" fill="none" xmlns="http://www.w3.org/2000/svg">
<path d="M12.4167 7.2915C7.42309 7.2915 3.375 11.3396 3.375 16.3332C3.375 21.3267 7.42309 25.3748 12.4167 25.3748C17.4102 25.3748 21.4583 21.3267 21.4583 16.3332C21.4583 15.8499 21.0666 15.4582 20.5833 15.4582H13.2917V8.1665C13.2917 7.68325 12.8999 7.2915 12.4167 7.2915Z" fill="#171717"/>
<path d="M17.0833 2.625C16.6 2.625 16.2083 3.01675 16.2083 3.5V11.6667C16.2083 12.1499 16.6 12.5417 17.0833 12.5417H25.2499C25.7332 12.5417 26.1249 12.1499 26.1249 11.6667C26.1249 6.67309 22.0768 2.625 17.0833 2.625Z" fill="#D9D9D9"/>
</svg>
