<svg width="29" height="28" viewBox="0 0 29 28" fill="none" xmlns="http://www.w3.org/2000/svg">
<path d="M14.2501 2.625C11.1895 2.625 8.70842 5.10609 8.70842 8.16667C8.70842 11.2272 11.1895 13.7083 14.2501 13.7083C17.3107 13.7083 19.7917 11.2272 19.7917 8.16667C19.7917 5.10609 17.3107 2.625 14.2501 2.625Z" fill="#767676"/>
<path d="M14.2501 16.625C11.5956 16.625 9.15345 17.027 7.34319 17.7058C6.44128 18.0441 5.65063 18.4679 5.06973 18.9829C4.48985 19.497 4.04175 20.1767 4.04175 21C4.04175 21.8233 4.48985 22.503 5.06973 23.0171C5.65063 23.5321 6.44128 23.9559 7.34319 24.2942C9.15345 24.973 11.5956 25.375 14.2501 25.375C16.9046 25.375 19.3467 24.973 21.157 24.2942C22.0589 23.9559 22.8495 23.5321 23.4304 23.0171C24.0103 22.503 24.4584 21.8233 24.4584 21C24.4584 20.1767 24.0103 19.497 23.4304 18.9829C22.8495 18.4679 22.0589 18.0441 21.157 17.7058C19.3467 17.027 16.9046 16.625 14.2501 16.625Z" fill="#767676"/>
</svg>
