<svg width="33" height="32" viewBox="0 0 33 32" fill="none" xmlns="http://www.w3.org/2000/svg">
<path d="M4.69351 24.8767L4.68886 24.886C4.51425 25.2353 4.55876 25.6546 4.80311 25.9592C5.04748 26.2639 5.44768 26.3981 5.82655 26.3034L6.05414 26.2469C6.20052 26.2106 6.41057 26.1587 6.66477 26.0965C7.17342 25.9719 7.85778 25.806 8.56219 25.6402C9.26787 25.4742 9.98813 25.3096 10.5704 25.187C10.8622 25.1256 11.1123 25.0762 11.3053 25.0427C11.4625 25.0153 11.5447 25.0054 11.5734 25.0019C11.5853 25.0005 11.5881 25.0002 11.5832 25.0002C11.7694 25.0002 12.0445 25.0499 12.4383 25.167C12.7657 25.2644 13.1158 25.3891 13.5092 25.5294L13.7336 25.6093C14.6478 25.9336 15.8078 26.3335 16.9165 26.3335C22.9916 26.3335 27.9165 21.4086 27.9165 15.3335C27.9165 9.25836 22.9916 4.3335 16.9165 4.3335C10.8414 4.3335 5.91649 9.25836 5.91649 15.3335C5.91649 15.9995 6.08964 16.8838 6.24146 17.6592L6.26834 17.7967C6.44096 18.6811 6.58315 19.4507 6.58315 20.0002C6.58315 20.1551 6.50934 20.5177 6.32197 21.0798C6.14684 21.6052 5.90876 22.2018 5.66401 22.7729C5.42038 23.3414 5.17591 23.8711 4.99192 24.2596C4.90008 24.4535 4.8237 24.6113 4.77052 24.7202C4.74395 24.7746 4.72319 24.8167 4.70923 24.845L4.69351 24.8767Z" fill="#767676"/>
</svg>
